<?xml version="1.0" standalone="no"?>
<svg width="425.197" height="330.709"  viewBox="145.5 -78.5 18 14" xmlns="http://www.w3.org/2000/svg" xmlns:xlink="http://www.w3.org/1999/xlink" version="1.1">
<style>
text{stroke:none;font-weight:bold;font-family:"Consolas","Courier New",monospace;}
g.symbol{visibility:hidden;}g.footprint{stroke:black;}
.DRL{stroke:silver;fill:none;stroke-width:0.05;}
.via{visibility:hidden;}
.black{stroke:black;fill:black;}
.mask{stroke:white;fill:white;}
</style>
<!-- Symbol and Parts Libraries Description -->
<defs>
<g id="ATtiny10"><title>ATTINY10-TSHR</title><desc>C128438</desc><use xlink:href="#SOT-23-6"/><g class="symbol" stroke="none" fill="darkgray" transform="translate(0.25,0),scale(1,-1),rotate(-90)"><text font-size="0.8" textLength="1.2" text-anchor="middle">T10</text></g></g>
<g id="C0805"><g class="footprint"><path fill="none" d="M0.188,-0.375L0.188,0.375M-0.187,-0.375L-0.187,0.375M-1,-0.6L1,-0.6M1,-0.6L1,0.6M-1,-0.6L-1,0.6M-1,0.6L1,0.6M0,0"/><g stroke-width="0.05" fill="none"><circle cx="-1.125" cy="0" r="0.25"/></g><g stroke-width="0.02" fill="none"><rect transform="translate(-1.125,0),rotate(90)" x="-0.675" y="-0.55" width="1.35" height="1.1"/><rect transform="translate(1.125,0),rotate(90)" x="-0.675" y="-0.55" width="1.35" height="1.1"/></g></g><g class="symbol"><g stroke="silver" fill="silver"><g stroke-width="0"><rect transform="translate(0,0),rotate(0)" x="-1" y="-0.6" width="2" height="1.2"/></g></g><g stroke="tan" fill="tan"><g stroke-width="0"><rect transform="translate(0,0),rotate(0)" x="-0.7" y="-0.6" width="1.4" height="1.2"/></g></g></g></g>
<g id="C0805_104"><title>CL21B104KCFNNNE</title><desc>C28233</desc><use xlink:href="#C0805"/></g>
<g id="SOT-23-6"><g class="footprint"><path fill="none" d="M-0.85,1.55L0.85,1.55M-0.85,-1.55L-0.85,1.55M0.85,-1.55L0.85,1.55M-0.85,-1.55L0.85,-1.55M0,0"/><g stroke-width="0.05" fill="none"><circle cx="1.375" cy="-0.95" r="0.25"/></g><g stroke-width="0.02" fill="none"><rect transform="translate(1.375,-0.95),rotate(0)" x="-0.675" y="-0.3" width="1.35" height="0.6"/><rect transform="translate(1.375,0),rotate(0)" x="-0.675" y="-0.3" width="1.35" height="0.6"/><rect transform="translate(1.375,0.95),rotate(0)" x="-0.675" y="-0.3" width="1.35" height="0.6"/><rect transform="translate(-1.375,0.95),rotate(0)" x="-0.675" y="-0.3" width="1.35" height="0.6"/><rect transform="translate(-1.375,0),rotate(0)" x="-0.675" y="-0.3" width="1.35" height="0.6"/><rect transform="translate(-1.375,-0.95),rotate(0)" x="-0.675" y="-0.3" width="1.35" height="0.6"/></g></g><g class="symbol"><g stroke="silver" fill="silver"><g stroke-width="0"><rect transform="translate(1,0.95),rotate(0)" x="-0.4" y="-0.2" width="0.8" height="0.4"/><rect transform="translate(-1,0),rotate(0)" x="-0.4" y="-0.2" width="0.8" height="0.4"/><rect transform="translate(1,-0.95),rotate(0)" x="-0.4" y="-0.2" width="0.8" height="0.4"/><rect transform="translate(1,0),rotate(0)" x="-0.4" y="-0.2" width="0.8" height="0.4"/><rect transform="translate(-1,0.95),rotate(0)" x="-0.4" y="-0.2" width="0.8" height="0.4"/><rect transform="translate(-1,-0.95),rotate(0)" x="-0.4" y="-0.2" width="0.8" height="0.4"/></g></g><g stroke="rgb(51,51,51)" fill="rgb(51,51,51)"><g stroke-width="0"><rect transform="translate(0,0),rotate(90)" x="-1.5" y="-0.8" width="3" height="1.6"/></g></g><g stroke="dimgray" fill="dimgray"><g><circle cx="0.375" cy="-1.125" r="0.25"/></g></g></g></g>
<g id="THAU13-AB-R"><title>THAU13-AB-R</title><desc>C495928</desc><g class="footprint"><path fill="none" d="M-1.05,-2.1L-1.05,-1.8M1.05,-1.8L2.4,-1.8M1.05,-2.1L1.35,-2.1M1.35,-2.85L1.35,-2.1M-1.35,-2.85L1.35,-2.85M1.05,-2.1L1.05,-1.8M-1.35,-2.1L-1.05,-2.1M-1.35,-2.85L-1.35,-2.1M-2.4,-1.8L-1.05,-1.8M-2.4,1.8L2.4,1.8M-2.4,-1.8L-2.4,1.8M2.4,-1.8L2.4,1.8M0,0"/><g stroke-width="0.05" fill="none"><circle cx="-2.625" cy="0.875" r="0.25"/></g><g stroke-width="0.05" fill="none"><circle cx="0" cy="1.35" r="0.4"/><circle cx="0" cy="-1.35" r="0.4"/></g><g stroke-width="0.02" fill="none"><rect transform="translate(-2.625,0.875),rotate(0)" x="-0.925" y="-0.55" width="1.85" height="1.1"/><rect transform="translate(-2.625,-0.875),rotate(0)" x="-0.925" y="-0.55" width="1.85" height="1.1"/><rect transform="translate(2.625,-0.875),rotate(0)" x="-0.925" y="-0.55" width="1.85" height="1.1"/><rect transform="translate(2.625,0.875),rotate(0)" x="-0.925" y="-0.55" width="1.85" height="1.1"/></g></g><g class="symbol"><g class="symbol"><g stroke="silver" fill="silver"><g stroke-width="0"><rect transform="translate(-2.35,0.85),rotate(0)" x="-0.25" y="-0.25" width="0.5" height="0.5"/><rect transform="translate(2.4,0.85),rotate(0)" x="-0.25" y="-0.25" width="0.5" height="0.5"/><rect transform="translate(-2.4,-0.9),rotate(0)" x="-0.25" y="-0.25" width="0.5" height="0.5"/><rect transform="translate(2.4,-0.9),rotate(0)" x="-0.25" y="-0.25" width="0.5" height="0.5"/></g></g><g stroke="rgb(51,51,51)" fill="rgb(51,51,51)"><g stroke-width="0"><rect transform="translate(0,-1.9),rotate(0)" x="-0.25" y="-0.25" width="0.5" height="0.5"/><rect transform="translate(0.75,-1.9),rotate(0)" x="-0.25" y="-0.25" width="0.5" height="0.5"/><rect transform="translate(-0.75,-1.9),rotate(0)" x="-0.25" y="-0.25" width="0.5" height="0.5"/><rect transform="translate(0,0),rotate(0)" x="-2.35" y="-1.75" width="4.7" height="3.5"/></g></g><g stroke="gainsboro" fill="gainsboro"><path fill-rule="evenodd" stroke-width="0.1" d="M-2.25,1.625L2.25,1.625L2.25,1L2.125,1L2.125,0.5L2.25,0.5L2.25,-0.5L2.125,-0.5L2.125,-1L2.25,-1L2.25,-1.625L-2.25,-1.625L-2.25,-1L-2.125,-1L-2.125,-0.5L-2.25,-0.5L-2.25,0.5L-2.125,0.5L-2.125,1L-2.25,1L-2.25,1.625ZM1.25,-0.875L1.25,0.875L-1.25,0.875L-1.25,-0.875L1.25,-0.875Z"/></g><g stroke="darkgray" fill="darkgray"><g stroke-width="0"><rect transform="translate(0,-2.45),rotate(0)" x="-1.3" y="-0.35" width="2.6" height="0.7"/></g></g><g stroke="tan" fill="tan"><path fill-rule="evenodd" stroke-width="0.1" d="M1.4,0.75A0.25,0.25 0 0,1 1.15,1L-1.15,1A0.25,0.25 0 0,1 -1.4,0.75L-1.4,-0.75A0.25,0.25 0 0,1 -1.15,-1L1.15,-1A0.25,0.25 0 0,1 1.4,-0.75L1.4,0.75ZM-0.625,0.5L0.625,0.5A0.125,0.125 0 0,0 0.75,0.375L0.75,-0.25A0.25,0.25 0 0,0 0.25,-0.25L0.25,0A0.125,0.125 0 0,1 0.125,0.125L-0.125,0.125A0.125,0.125 0 0,1 -0.25,0L-0.25,-0.25A0.25,0.25 0 0,0 -0.75,-0.25L-0.75,0.375A0.125,0.125 0 0,0 -0.625,0.5Z"/></g></g></g></g>
<g id="TS-1186U-B-A"><title>TS-1186U-B-A</title><desc>C571343</desc><use xlink:href="#THAU13-AB-R"/></g>
<!-- Gerber Layer -->
<clipPath id="BOARD" clip-rule="evenodd"><path stroke="none" fill-rule="evenodd" d="M162.5,65.5L162.5,77.5L146.5,77.5L146.5,65.5L162.5,65.5Z"/></clipPath>
<g id="OUT" stroke-linecap="round" stroke-linejoin="round"><path d="M162.5,65.5L162.5,77.5L146.5,77.5L146.5,65.5L162.5,65.5Z"/></g>
<rect id="FIL" x="146.5" y="65.5" width="16" height="12"/>
<g id="DRL"><g class="pad"><circle cx="150.5" cy="69.1" r="0.35"/><circle cx="150.5" cy="66.4" r="0.35"/><circle cx="155.08" cy="66.9" r="0.4"/><circle cx="160.16" cy="66.9" r="0.4"/><circle cx="161.43" cy="66.9" r="0.4"/><circle cx="156.35" cy="66.9" r="0.4"/><circle cx="157.62" cy="66.9" r="0.4"/><circle cx="158.89" cy="66.9" r="0.4"/><circle cx="148.73" cy="73.25" r="0.4"/><circle cx="151.27" cy="73.25" r="0.4"/><circle cx="151.27" cy="70.71" r="0.4"/><circle cx="148.73" cy="70.71" r="0.6"/><circle cx="153.81" cy="70.71" r="0.6"/><circle cx="153.81" cy="73.25" r="0.6"/><circle cx="158.89" cy="70.71" r="1.6"/></g><g class="via"><circle cx="157" cy="74.625" r="0.15"/><circle cx="159.75" cy="76.075" r="0.15"/></g></g>
</defs>
<!-- Rendering View Port -->
<g transform="scale(1,-1)" clip-path="url(#BOARD)">
<use xlink:href="#DRL" class="DRL"/>
<use xlink:href="#OUT" stroke="gray" stroke-width="0.05" fill="none"/>
</g>
<!-- Parts Preview -->
<g transform="scale(1,-1)" stroke-linecap="round" stroke-linejoin="round" stroke="gray" fill="gray" stroke-width="0.05">
<use xlink:href="#C0805_104" transform="translate(152.25,75.25),scale(1,1),rotate(180)"/>
<use xlink:href="#TS-1186U-B-A" transform="translate(150.5,67.75),scale(1,1),rotate(0)"/>
<use xlink:href="#ATtiny10" transform="translate(157,75.25),scale(1,1),rotate(0)"/>
<use xlink:href="#DRL" class="DRL"/>
<g transform="translate(152.25,75.25),scale(1,-1),rotate(-180)" stroke="none" fill="white"><rect x="-0.65" y="-0.5" fill="gray" width="1.3" height="1" /><text font-size="1" textLength="1.3" x="0" y="0.3" text-anchor="middle">C1</text></g>
<g transform="translate(150.5,67.75),scale(1,-1),rotate(0)" stroke="none" fill="white"><rect x="-0.975" y="-0.5" fill="gray" width="1.95" height="1" /><text font-size="1" textLength="1.95" x="0" y="0.3" text-anchor="middle">SW1</text></g>
<g transform="translate(157,75.25),scale(1,-1),rotate(0)" stroke="none" fill="white"><rect x="-0.65" y="-0.5" fill="gray" width="1.3" height="1" /><text font-size="1" textLength="1.3" x="0" y="0.3" text-anchor="middle">U1</text></g>
</g>
</svg>
