<?xml version="1.0" standalone="no"?>
<svg width="425.197" height="330.709"  viewBox="-163.5 -78.5 18 14" xmlns="http://www.w3.org/2000/svg" xmlns:xlink="http://www.w3.org/1999/xlink" version="1.1">
<style>
text{stroke:none;font-weight:bold;font-family:"Consolas","Courier New",monospace;}
g.footprint{visibility:hidden;}
.drill{stroke:black;fill:black;stroke-width:0;}
.cover{stroke:rgb(4,145,142);fill:rgb(4,145,142);}
.silk{stroke:white;fill:white;}
.plate{stroke:rgb(153,153,153);fill:rgb(153,153,153);}
.regist{stroke:rgb(2,82,97);fill:rgb(2,82,97);}
.board{stroke:rgb(213,212,137);fill:rgb(213,212,137);}
.under{stroke:rgb(204,153,105);fill:rgb(204,153,105);}
.via{fill:rgb(2,82,97);}
.DRL{stroke:gray;fill:none;stroke-width:0.025;}
.black{stroke:black;fill:black;}
.mask{stroke:white;fill:white;}
</style>
<!-- Symbol and Parts Libraries Description -->
<defs>
<!-- Gerber Layer -->
<clipPath id="BOARD" clip-rule="evenodd"><path stroke="none" fill-rule="evenodd" d="M162.5,65.5L162.5,77.5L146.5,77.5L146.5,65.5L162.5,65.5Z"/></clipPath>
<g id="OUT" stroke-linecap="round" stroke-linejoin="round"><path d="M162.5,65.5L162.5,77.5L146.5,77.5L146.5,65.5L162.5,65.5Z"/></g>
<rect id="FIL" x="146.5" y="65.5" width="16" height="12"/>
<g id="GBL"><g fill="none" stroke-linecap="round" stroke-linejoin="round"><path stroke-width="0.1" d="M158.39,66.2L158.39,67.6M158.39,67.6L159.39,67.6M159.39,67.6L159.39,66.2M159.39,66.2L158.39,66.2M158.485,66.2L158.485,67.6M158.58,66.2L158.58,67.6M158.675,66.2L158.675,67.6M158.77,66.2L158.77,67.6M158.865,66.2L158.865,67.6M158.96,66.2L158.96,67.6M159.055,66.2L159.055,67.6M159.15,66.2L159.15,67.6M159.245,66.2L159.245,67.6M159.34,66.2L159.34,67.6M157.12,66.2L157.12,67.6M157.12,67.6L158.12,67.6M158.12,67.6L158.12,66.2M158.12,66.2L157.12,66.2M157.215,66.2L157.215,67.6M157.31,66.2L157.31,67.6M157.405,66.2L157.405,67.6M157.5,66.2L157.5,67.6M157.595,66.2L157.595,67.6M157.69,66.2L157.69,67.6M157.785,66.2L157.785,67.6M157.88,66.2L157.88,67.6M157.975,66.2L157.975,67.6M158.07,66.2L158.07,67.6M155.85,66.2L155.85,67.6M155.85,67.6L156.85,67.6M156.85,67.6L156.85,66.2M156.85,66.2L155.85,66.2M155.945,66.2L155.945,67.6M156.04,66.2L156.04,67.6M156.135,66.2L156.135,67.6M156.23,66.2L156.23,67.6M156.325,66.2L156.325,67.6M156.42,66.2L156.42,67.6M156.515,66.2L156.515,67.6M156.61,66.2L156.61,67.6M156.705,66.2L156.705,67.6M156.8,66.2L156.8,67.6M160.93,66.2L160.93,67.6M160.93,67.6L161.93,67.6M161.93,67.6L161.93,66.2M161.93,66.2L160.93,66.2M161.025,66.2L161.025,67.6M161.12,66.2L161.12,67.6M161.215,66.2L161.215,67.6M161.31,66.2L161.31,67.6M161.405,66.2L161.405,67.6M161.5,66.2L161.5,67.6M161.595,66.2L161.595,67.6M161.69,66.2L161.69,67.6M161.785,66.2L161.785,67.6M161.88,66.2L161.88,67.6M159.66,66.2L159.66,67.6M159.66,67.6L160.66,67.6M160.66,67.6L160.66,66.2M160.66,66.2L159.66,66.2M159.755,66.2L159.755,67.6M159.85,66.2L159.85,67.6M159.945,66.2L159.945,67.6M160.04,66.2L160.04,67.6M160.135,66.2L160.135,67.6M160.23,66.2L160.23,67.6M160.325,66.2L160.325,67.6M160.42,66.2L160.42,67.6M160.515,66.2L160.515,67.6M160.61,66.2L160.61,67.6M154.58,66.2L154.58,67.6M154.58,67.6L155.58,67.6M155.58,67.6L155.58,66.2M155.58,66.2L154.58,66.2M154.675,66.2L154.675,67.6M154.77,66.2L154.77,67.6M154.865,66.2L154.865,67.6M154.96,66.2L154.96,67.6M155.055,66.2L155.055,67.6M155.15,66.2L155.15,67.6M155.245,66.2L155.245,67.6M155.34,66.2L155.34,67.6M155.435,66.2L155.435,67.6M155.53,66.2L155.53,67.6M152.735,74.325L154.885,74.325M154.885,74.325L154.885,72.175M154.885,72.175L152.735,72.175M152.735,72.175L152.735,74.325M152.735,74.23L154.885,74.23M152.735,74.135L154.885,74.135M152.735,74.04L154.885,74.04M152.735,73.945L154.885,73.945M152.735,73.85L154.885,73.85M152.735,73.755L154.885,73.755M152.735,73.66L154.885,73.66M152.735,73.565L154.885,73.565M152.735,73.47L154.885,73.47M152.735,73.375L154.885,73.375M152.735,73.28L154.885,73.28M152.735,73.185L154.885,73.185M152.735,73.09L154.885,73.09M152.735,72.995L154.885,72.995M152.735,72.9L154.885,72.9M152.735,72.805L154.885,72.805M152.735,72.71L154.885,72.71M152.735,72.615L154.885,72.615M152.735,72.52L154.885,72.52M152.735,72.425L154.885,72.425M152.735,72.33L154.885,72.33M152.735,72.235L154.885,72.235M152.735,71.785L154.885,71.785M154.885,71.785L154.885,69.635M154.885,69.635L152.735,69.635M152.735,69.635L152.735,71.785M152.735,71.69L154.885,71.69M152.735,71.595L154.885,71.595M152.735,71.5L154.885,71.5M152.735,71.405L154.885,71.405M152.735,71.31L154.885,71.31M152.735,71.215L154.885,71.215M152.735,71.12L154.885,71.12M152.735,71.025L154.885,71.025M152.735,70.93L154.885,70.93M152.735,70.835L154.885,70.835M152.735,70.74L154.885,70.74M152.735,70.645L154.885,70.645M152.735,70.55L154.885,70.55M152.735,70.455L154.885,70.455M152.735,70.36L154.885,70.36M152.735,70.265L154.885,70.265M152.735,70.17L154.885,70.17M152.735,70.075L154.885,70.075M152.735,69.98L154.885,69.98M152.735,69.885L154.885,69.885M152.735,69.79L154.885,69.79M152.735,69.695L154.885,69.695M147.655,71.785L149.805,71.785M149.805,71.785L149.805,69.635M149.805,69.635L147.655,69.635M147.655,69.635L147.655,71.785M147.655,71.69L149.805,71.69M147.655,71.595L149.805,71.595M147.655,71.5L149.805,71.5M147.655,71.405L149.805,71.405M147.655,71.31L149.805,71.31M147.655,71.215L149.805,71.215M147.655,71.12L149.805,71.12M147.655,71.025L149.805,71.025M147.655,70.93L149.805,70.93M147.655,70.835L149.805,70.835M147.655,70.74L149.805,70.74M147.655,70.645L149.805,70.645M147.655,70.55L149.805,70.55M147.655,70.455L149.805,70.455M147.655,70.36L149.805,70.36M147.655,70.265L149.805,70.265M147.655,70.17L149.805,70.17M147.655,70.075L149.805,70.075M147.655,69.98L149.805,69.98M147.655,69.885L149.805,69.885M147.655,69.79L149.805,69.79M147.655,69.695L149.805,69.695"/><path stroke-width="0.25" d="M153.81,73.25L153.81,72.25M154.935,72.25L153.81,72.25M154.935,72.25A0.625,0.625,0,0,0,155.56,71.625M157.62,66.9L157.195,66.9M157.195,67.65L157.195,66.9M161.43,67.1L161.43,66.9M161.729,67.399L161.43,67.1M161.729,67.399A0.501,0.501,0,0,1,161.875,67.752M158.465,67.65L158.465,66.9M158.89,66.9L158.465,66.9M158.465,67.65A0.625,0.625,0,0,1,158.086,68.225M157.195,67.65A0.625,0.625,0,0,1,156.816,68.225M156.969,68.703L158.086,68.225M156.969,68.703A1.5,1.5,0,0,0,156.06,70.082M156.816,68.225L156.773,68.243M155.56,71.625L155.56,70.082M155.56,70.082A2,2,0,0,1,156.773,68.243M160.375,74.625L157,74.625M161.875,73.125L161.875,67.752M161.875,73.125A1.5,1.5,0,0,1,160.375,74.625M157.56,76.075L159.75,76.075M156.06,74.575L156.06,70.082M156.06,74.575A1.5,1.5,0,0,0,157.56,76.075"/></g><g stroke="none"><circle cx="159.75" cy="76.075" r="0.3"/><circle cx="157" cy="74.625" r="0.3"/></g></g>
<g id="GBO"><g fill="none" stroke-linecap="round" stroke-linejoin="round"><path stroke-width="0.15" d="M153.775,75.261L153.845,75.261M153.728,75.403L153.893,75.403M153.68,75.545L153.94,75.545M153.633,75.687L153.988,75.687M153.586,75.829L154.035,75.829M153.539,75.971L154.082,75.971M153.493,76.108L154.128,76.108M153.81,75.155L153.493,76.108M154.128,76.108L153.81,75.155"/><path stroke-width="0.2" d="M152.54,74.838L155.398,74.838M155.398,74.838L155.398,69.123M155.398,69.123L151.27,69.123M149.683,69.123L147.143,69.123M147.143,69.123L147.143,74.838M147.143,74.838L150,74.838"/></g></g>
<g id="GBS"><g fill="none" stroke-linecap="round" stroke-linejoin="round"><path stroke-width="0.1" d="M152.685,74.375L154.935,74.375M154.935,74.375L154.935,72.125M154.935,72.125L152.685,72.125M152.685,72.125L152.685,74.375M152.685,74.28L154.935,74.28M152.685,74.185L154.935,74.185M152.685,74.09L154.935,74.09M152.685,73.995L154.935,73.995M152.685,73.9L154.935,73.9M152.685,73.805L154.935,73.805M152.685,73.71L154.935,73.71M152.685,73.615L154.935,73.615M152.685,73.52L154.935,73.52M152.685,73.425L154.935,73.425M152.685,73.33L154.935,73.33M152.685,73.235L154.935,73.235M152.685,73.14L154.935,73.14M152.685,73.045L154.935,73.045M152.685,72.95L154.935,72.95M152.685,72.855L154.935,72.855M152.685,72.76L154.935,72.76M152.685,72.665L154.935,72.665M152.685,72.57L154.935,72.57M152.685,72.475L154.935,72.475M152.685,72.38L154.935,72.38M152.685,72.285L154.935,72.285M152.685,72.19L154.935,72.19M152.685,71.835L154.935,71.835M154.935,71.835L154.935,69.585M154.935,69.585L152.685,69.585M152.685,69.585L152.685,71.835M152.685,71.74L154.935,71.74M152.685,71.645L154.935,71.645M152.685,71.55L154.935,71.55M152.685,71.455L154.935,71.455M152.685,71.36L154.935,71.36M152.685,71.265L154.935,71.265M152.685,71.17L154.935,71.17M152.685,71.075L154.935,71.075M152.685,70.98L154.935,70.98M152.685,70.885L154.935,70.885M152.685,70.79L154.935,70.79M152.685,70.695L154.935,70.695M152.685,70.6L154.935,70.6M152.685,70.505L154.935,70.505M152.685,70.41L154.935,70.41M152.685,70.315L154.935,70.315M152.685,70.22L154.935,70.22M152.685,70.125L154.935,70.125M152.685,70.03L154.935,70.03M152.685,69.935L154.935,69.935M152.685,69.84L154.935,69.84M152.685,69.745L154.935,69.745M152.685,69.65L154.935,69.65M147.605,71.835L149.855,71.835M149.855,71.835L149.855,69.585M149.855,69.585L147.605,69.585M147.605,69.585L147.605,71.835M147.605,71.74L149.855,71.74M147.605,71.645L149.855,71.645M147.605,71.55L149.855,71.55M147.605,71.455L149.855,71.455M147.605,71.36L149.855,71.36M147.605,71.265L149.855,71.265M147.605,71.17L149.855,71.17M147.605,71.075L149.855,71.075M147.605,70.98L149.855,70.98M147.605,70.885L149.855,70.885M147.605,70.79L149.855,70.79M147.605,70.695L149.855,70.695M147.605,70.6L149.855,70.6M147.605,70.505L149.855,70.505M147.605,70.41L149.855,70.41M147.605,70.315L149.855,70.315M147.605,70.22L149.855,70.22M147.605,70.125L149.855,70.125M147.605,70.03L149.855,70.03M147.605,69.935L149.855,69.935M147.605,69.84L149.855,69.84M147.605,69.745L149.855,69.745M147.605,69.65L149.855,69.65"/></g><g stroke="none"><circle cx="158.89" cy="66.9" r="0.5"/><circle cx="157.62" cy="66.9" r="0.5"/><circle cx="156.35" cy="66.9" r="0.5"/><circle cx="161.43" cy="66.9" r="0.5"/><circle cx="160.16" cy="66.9" r="0.5"/><circle cx="155.08" cy="66.9" r="0.5"/><circle cx="158.89" cy="70.71" r="1.85"/><circle cx="150.5" cy="66.4" r="0.4"/><circle cx="150.5" cy="69.1" r="0.4"/></g></g>
<mask id="GBM"><use xlink:href="#GBS" class="mask"/></mask>
<mask id="GBN"><use xlink:href="#FIL" class="mask"/><use xlink:href="#GBS" class="black"/></mask>
<g id="DRL"><g class="pad"><circle cx="150.5" cy="69.1" r="0.35"/><circle cx="150.5" cy="66.4" r="0.35"/><circle cx="155.08" cy="66.9" r="0.4"/><circle cx="160.16" cy="66.9" r="0.4"/><circle cx="161.43" cy="66.9" r="0.4"/><circle cx="156.35" cy="66.9" r="0.4"/><circle cx="157.62" cy="66.9" r="0.4"/><circle cx="158.89" cy="66.9" r="0.4"/><circle cx="148.73" cy="73.25" r="0.4"/><circle cx="151.27" cy="73.25" r="0.4"/><circle cx="151.27" cy="70.71" r="0.4"/><circle cx="148.73" cy="70.71" r="0.6"/><circle cx="153.81" cy="70.71" r="0.6"/><circle cx="153.81" cy="73.25" r="0.6"/><circle cx="158.89" cy="70.71" r="1.6"/></g><g class="via"><circle cx="157" cy="74.625" r="0.15"/><circle cx="159.75" cy="76.075" r="0.15"/></g></g>
</defs>
<!-- Rendering View Port -->
<g transform="scale(-1,-1)" clip-path="url(#BOARD)">
<g><use xlink:href="#FIL" class="regist"/>
<use xlink:href="#GBL" class="cover"/></g>
<g mask="url(#GBM)"><use xlink:href="#FIL" class="board"/>
<use xlink:href="#GBL" class="plate"/></g>
<g mask="url(#GBN)"><use xlink:href="#GBO" class="silk"/></g>
<use xlink:href="#DRL" class="drill"/>
<use xlink:href="#OUT" stroke="gray" stroke-width="0.05" fill="none"/>
</g>
<!-- Parts Preview -->
<g transform="scale(-1,-1)" stroke-linecap="round" stroke-linejoin="round" stroke="gray" fill="gray" stroke-width="0.05">
<use xlink:href="#tmp220703170937" transform="translate(153.81,73.25),scale(-1,1),rotate(0)"/>
</g>
</svg>
