<?xml version="1.0" standalone="no"?>
<svg width="425.197" height="330.709"  viewBox="145.5 -78.5 18 14" xmlns="http://www.w3.org/2000/svg" xmlns:xlink="http://www.w3.org/1999/xlink" version="1.1">
<style>
text{stroke:none;font-weight:bold;font-family:"Consolas","Courier New",monospace;}
.GTS{stroke:purple;fill:purple;}
.GTO{stroke:yellow;fill:yellow;}
.GTL{stroke:red;fill:red;}
.GL2{stroke:lime;fill:lime;}
.GL3{stroke:cyan;fill:cyan;}
.GBL{stroke:blue;fill:blue;}
.GBO{stroke:fuchsia;fill:fuchsia;}
.GBS{stroke:teal;fill:teal;}
.GML{stroke:black;fill:black;}
.DRL{stroke:none;fill:gray;stroke-width:0;}
.black{stroke:black;fill:black;}
.mask{stroke:white;fill:white;}
</style>
<!-- Symbol and Parts Libraries Description -->
<defs>
<!-- Gerber Layer -->
<clipPath id="BOARD" clip-rule="evenodd"><path stroke="none" fill-rule="evenodd" d="M162.5,65.5L162.5,77.5L146.5,77.5L146.5,65.5L162.5,65.5Z"/></clipPath>
<g id="OUT" stroke-linecap="round" stroke-linejoin="round"><path d="M162.5,65.5L162.5,77.5L146.5,77.5L146.5,65.5L162.5,65.5Z"/></g>
<rect id="FIL" x="146.5" y="65.5" width="16" height="12"/>
<g id="GTL"><g fill="none" stroke-linecap="round" stroke-linejoin="round"><path stroke-width="0.1" d="M158.39,66.2L158.39,67.6M158.39,67.6L159.39,67.6M159.39,67.6L159.39,66.2M159.39,66.2L158.39,66.2M158.485,66.2L158.485,67.6M158.58,66.2L158.58,67.6M158.675,66.2L158.675,67.6M158.77,66.2L158.77,67.6M158.865,66.2L158.865,67.6M158.96,66.2L158.96,67.6M159.055,66.2L159.055,67.6M159.15,66.2L159.15,67.6M159.245,66.2L159.245,67.6M159.34,66.2L159.34,67.6M157.12,66.2L157.12,67.6M157.12,67.6L158.12,67.6M158.12,67.6L158.12,66.2M158.12,66.2L157.12,66.2M157.215,66.2L157.215,67.6M157.31,66.2L157.31,67.6M157.405,66.2L157.405,67.6M157.5,66.2L157.5,67.6M157.595,66.2L157.595,67.6M157.69,66.2L157.69,67.6M157.785,66.2L157.785,67.6M157.88,66.2L157.88,67.6M157.975,66.2L157.975,67.6M158.07,66.2L158.07,67.6M155.85,66.2L155.85,67.6M155.85,67.6L156.85,67.6M156.85,67.6L156.85,66.2M156.85,66.2L155.85,66.2M155.945,66.2L155.945,67.6M156.04,66.2L156.04,67.6M156.135,66.2L156.135,67.6M156.23,66.2L156.23,67.6M156.325,66.2L156.325,67.6M156.42,66.2L156.42,67.6M156.515,66.2L156.515,67.6M156.61,66.2L156.61,67.6M156.705,66.2L156.705,67.6M156.8,66.2L156.8,67.6M160.93,66.2L160.93,67.6M160.93,67.6L161.93,67.6M161.93,67.6L161.93,66.2M161.93,66.2L160.93,66.2M161.025,66.2L161.025,67.6M161.12,66.2L161.12,67.6M161.215,66.2L161.215,67.6M161.31,66.2L161.31,67.6M161.405,66.2L161.405,67.6M161.5,66.2L161.5,67.6M161.595,66.2L161.595,67.6M161.69,66.2L161.69,67.6M161.785,66.2L161.785,67.6M161.88,66.2L161.88,67.6M159.66,66.2L159.66,67.6M159.66,67.6L160.66,67.6M160.66,67.6L160.66,66.2M160.66,66.2L159.66,66.2M159.755,66.2L159.755,67.6M159.85,66.2L159.85,67.6M159.945,66.2L159.945,67.6M160.04,66.2L160.04,67.6M160.135,66.2L160.135,67.6M160.23,66.2L160.23,67.6M160.325,66.2L160.325,67.6M160.42,66.2L160.42,67.6M160.515,66.2L160.515,67.6M160.61,66.2L160.61,67.6M154.58,66.2L154.58,67.6M154.58,67.6L155.58,67.6M155.58,67.6L155.58,66.2M155.58,66.2L154.58,66.2M154.675,66.2L154.675,67.6M154.77,66.2L154.77,67.6M154.865,66.2L154.865,67.6M154.96,66.2L154.96,67.6M155.055,66.2L155.055,67.6M155.15,66.2L155.15,67.6M155.245,66.2L155.245,67.6M155.34,66.2L155.34,67.6M155.435,66.2L155.435,67.6M155.53,66.2L155.53,67.6M157.8,74.5L158.95,74.5M158.95,74.5L158.95,74.1M158.95,74.1L157.8,74.1M157.8,74.1L157.8,74.5M157.8,74.405L158.95,74.405M157.8,74.31L158.95,74.31M157.8,74.215L158.95,74.215M157.8,74.12L158.95,74.12M157.8,75.45L158.95,75.45M158.95,75.45L158.95,75.05M158.95,75.05L157.8,75.05M157.8,75.05L157.8,75.45M157.8,75.355L158.95,75.355M157.8,75.26L158.95,75.26M157.8,75.165L158.95,75.165M157.8,75.07L158.95,75.07M157.8,76.4L158.95,76.4M158.95,76.4L158.95,76M158.95,76L157.8,76M157.8,76L157.8,76.4M157.8,76.305L158.95,76.305M157.8,76.21L158.95,76.21M157.8,76.115L158.95,76.115M157.8,76.02L158.95,76.02M155.05,76.4L156.2,76.4M156.2,76.4L156.2,76M156.2,76L155.05,76M155.05,76L155.05,76.4M155.05,76.305L156.2,76.305M155.05,76.21L156.2,76.21M155.05,76.115L156.2,76.115M155.05,76.02L156.2,76.02M155.05,75.45L156.2,75.45M156.2,75.45L156.2,75.05M156.2,75.05L155.05,75.05M155.05,75.05L155.05,75.45M155.05,75.355L156.2,75.355M155.05,75.26L156.2,75.26M155.05,75.165L156.2,75.165M155.05,75.07L156.2,75.07M155.05,74.5L156.2,74.5M156.2,74.5L156.2,74.1M156.2,74.1L155.05,74.1M155.05,74.1L155.05,74.5M155.05,74.405L156.2,74.405M155.05,74.31L156.2,74.31M155.05,74.215L156.2,74.215M155.05,74.12L156.2,74.12M152.925,74.675L152.925,75.825M152.925,75.825L153.825,75.825M153.825,75.825L153.825,74.675M153.825,74.675L152.925,74.675M153.02,74.675L153.02,75.825M153.115,74.675L153.115,75.825M153.21,74.675L153.21,75.825M153.305,74.675L153.305,75.825M153.4,74.675L153.4,75.825M153.495,74.675L153.495,75.825M153.59,74.675L153.59,75.825M153.685,74.675L153.685,75.825M153.78,74.675L153.78,75.825M150.675,74.675L150.675,75.825M150.675,75.825L151.575,75.825M151.575,75.825L151.575,74.675M151.575,74.675L150.675,74.675M150.77,74.675L150.77,75.825M150.865,74.675L150.865,75.825M150.96,74.675L150.96,75.825M151.055,74.675L151.055,75.825M151.15,74.675L151.15,75.825M151.245,74.675L151.245,75.825M151.34,74.675L151.34,75.825M151.435,74.675L151.435,75.825M151.53,74.675L151.53,75.825M147.05,69.075L148.7,69.075M148.7,69.075L148.7,68.175M148.7,68.175L147.05,68.175M147.05,68.175L147.05,69.075M147.05,68.98L148.7,68.98M147.05,68.885L148.7,68.885M147.05,68.79L148.7,68.79M147.05,68.695L148.7,68.695M147.05,68.6L148.7,68.6M147.05,68.505L148.7,68.505M147.05,68.41L148.7,68.41M147.05,68.315L148.7,68.315M147.05,68.22L148.7,68.22M147.05,67.325L148.7,67.325M148.7,67.325L148.7,66.425M148.7,66.425L147.05,66.425M147.05,66.425L147.05,67.325M147.05,67.23L148.7,67.23M147.05,67.135L148.7,67.135M147.05,67.04L148.7,67.04M147.05,66.945L148.7,66.945M147.05,66.85L148.7,66.85M147.05,66.755L148.7,66.755M147.05,66.66L148.7,66.66M147.05,66.565L148.7,66.565M147.05,66.47L148.7,66.47M152.3,67.325L153.95,67.325M153.95,67.325L153.95,66.425M153.95,66.425L152.3,66.425M152.3,66.425L152.3,67.325M152.3,67.23L153.95,67.23M152.3,67.135L153.95,67.135M152.3,67.04L153.95,67.04M152.3,66.945L153.95,66.945M152.3,66.85L153.95,66.85M152.3,66.755L153.95,66.755M152.3,66.66L153.95,66.66M152.3,66.565L153.95,66.565M152.3,66.47L153.95,66.47M152.3,69.075L153.95,69.075M153.95,69.075L153.95,68.175M153.95,68.175L152.3,68.175M152.3,68.175L152.3,69.075M152.3,68.98L153.95,68.98M152.3,68.885L153.95,68.885M152.3,68.79L153.95,68.79M152.3,68.695L153.95,68.695M152.3,68.6L153.95,68.6M152.3,68.505L153.95,68.505M152.3,68.41L153.95,68.41M152.3,68.315L153.95,68.315M152.3,68.22L153.95,68.22"/><path stroke-width="0.25" d="M158.375,74.3L157.875,74.3M153.81,73.25L154.185,73.625M158.375,75.25L158.375,75.375M155.625,75.25L155.625,75.375M152.793,71.727L153.81,70.71M152.793,71.727A1,1,0,0,0,152.5,72.434M149.082,70.358L148.73,70.71M157.875,74.25L157.875,74.3M157.25,73.625L154.185,73.625M157.25,73.625A0.625,0.625,0,0,1,157.875,74.25M157,76.25A0.625,0.625,0,0,1,156.375,76.875M157.625,75.375L158.375,75.375M157,76L157,76.25M157,76A0.625,0.625,0,0,1,157.625,75.375M151.125,75.25L150.75,75.25M153.375,75.25L153.375,74.75M155.625,75.375L153.375,75.375M153.375,75.25L153.375,75.375M153,74.75L153.375,74.75M152.5,74.25L152.5,72.434M152.5,74.25A0.5,0.5,0,0,0,153,74.75M152,74.5A0.375,0.375,0,0,0,151.625,74.125M152,75.875L152,74.5M152,75.875A0.5,0.5,0,0,0,152.5,76.375M154.868,76.375L152.5,76.375M155.221,76.229L155.25,76.2M155.221,76.229A0.501,0.501,0,0,1,154.868,76.375M150.75,74.125L151.625,74.125M150.75,74.125A0.5,0.5,0,0,1,150.25,73.625M154.75,68.775A0.5,0.5,0,0,1,155.25,68.275M154.457,70.063L153.81,70.71M154.75,69.356L154.75,68.775M154.75,69.356A1,1,0,0,1,154.457,70.063M160.16,66.9L159.735,66.9M159.11,68.275L155.25,68.275M159.735,67.65L159.735,66.9M159.735,67.65A0.625,0.625,0,0,1,159.11,68.275M155.625,74.3L155.625,74.425M158.375,76.2L158.375,76.075M158.375,76.075L159.75,76.075M156.946,74.571L157,74.625M156.593,74.425L155.625,74.425M156.593,74.425A0.5,0.5,0,0,1,156.946,74.571M153.125,68.625L152.375,68.625M153.125,66.875L153.125,67.25M147.875,67.25L147.875,66.875M155.08,66.9L154.68,66.5M154.68,66.5L153.125,66.5M153.125,66.875L153.125,66.5M149.375,69.651A1,1,0,0,1,149.082,70.358M150.25,70.654L150.25,73.625M150.25,70.654A0.75,0.75,0,0,1,150.676,69.977M151.949,69.369L150.676,69.977M152.375,68.692L152.375,68.625M152.375,68.692A0.75,0.75,0,0,1,151.949,69.369M150.125,67.25L153.125,67.25M150.125,67.25A0.75,0.75,0,0,0,149.375,68M149.375,68L149.375,69.651M148.625,67.25L147.875,67.25M148.625,67.25A0.75,0.75,0,0,1,149.375,68M151.5,76.875L156.375,76.875M150.75,76.125L150.75,75.25M150.75,76.125A0.75,0.75,0,0,0,151.5,76.875M151.125,75.25L151.125,74.75M149.311,71.291L148.73,70.71M149.311,71.291A1.5,1.5,0,0,1,149.75,72.351M150.5,74.75L151.125,74.75M149.75,74L149.75,72.351M149.75,74A0.75,0.75,0,0,0,150.5,74.75"/></g><g stroke="none"><circle cx="161.43" cy="66.9" r="0.15"/><circle cx="158.375" cy="74.3" r="0.15"/><circle cx="153.375" cy="75.25" r="0.15"/><circle cx="159.75" cy="76.075" r="0.3"/><circle cx="157" cy="74.625" r="0.3"/><circle cx="147.875" cy="68.625" r="0.15"/><circle cx="153.81" cy="73.25" r="0.9"/><circle cx="153.81" cy="70.71" r="0.9"/><circle cx="148.73" cy="70.71" r="0.9"/></g></g>
<g id="GTS"><g fill="none" stroke-linecap="round" stroke-linejoin="round"><path stroke-width="0.1" d="M154.53,66.15L154.53,67.65M154.53,67.65L155.63,67.65M155.63,67.65L155.63,66.15M155.63,66.15L154.53,66.15M154.625,66.15L154.625,67.65M154.72,66.15L154.72,67.65M154.815,66.15L154.815,67.65M154.91,66.15L154.91,67.65M155.005,66.15L155.005,67.65M155.1,66.15L155.1,67.65M155.195,66.15L155.195,67.65M155.29,66.15L155.29,67.65M155.385,66.15L155.385,67.65M155.48,66.15L155.48,67.65M155.575,66.15L155.575,67.65M157.07,66.15L157.07,67.65M157.07,67.65L158.17,67.65M158.17,67.65L158.17,66.15M158.17,66.15L157.07,66.15M157.165,66.15L157.165,67.65M157.26,66.15L157.26,67.65M157.355,66.15L157.355,67.65M157.45,66.15L157.45,67.65M157.545,66.15L157.545,67.65M157.64,66.15L157.64,67.65M157.735,66.15L157.735,67.65M157.83,66.15L157.83,67.65M157.925,66.15L157.925,67.65M158.02,66.15L158.02,67.65M158.115,66.15L158.115,67.65M159.61,66.15L159.61,67.65M159.61,67.65L160.71,67.65M160.71,67.65L160.71,66.15M160.71,66.15L159.61,66.15M159.705,66.15L159.705,67.65M159.8,66.15L159.8,67.65M159.895,66.15L159.895,67.65M159.99,66.15L159.99,67.65M160.085,66.15L160.085,67.65M160.18,66.15L160.18,67.65M160.275,66.15L160.275,67.65M160.37,66.15L160.37,67.65M160.465,66.15L160.465,67.65M160.56,66.15L160.56,67.65M160.655,66.15L160.655,67.65M157.75,74.55L159,74.55M159,74.55L159,74.05M159,74.05L157.75,74.05M157.75,74.05L157.75,74.55M157.75,74.455L159,74.455M157.75,74.36L159,74.36M157.75,74.265L159,74.265M157.75,74.17L159,74.17M157.75,74.075L159,74.075M157.75,75.5L159,75.5M159,75.5L159,75M159,75L157.75,75M157.75,75L157.75,75.5M157.75,75.405L159,75.405M157.75,75.31L159,75.31M157.75,75.215L159,75.215M157.75,75.12L159,75.12M157.75,75.025L159,75.025M157.75,76.45L159,76.45M159,76.45L159,75.95M159,75.95L157.75,75.95M157.75,75.95L157.75,76.45M157.75,76.355L159,76.355M157.75,76.26L159,76.26M157.75,76.165L159,76.165M157.75,76.07L159,76.07M157.75,75.975L159,75.975M155,76.45L156.25,76.45M156.25,76.45L156.25,75.95M156.25,75.95L155,75.95M155,75.95L155,76.45M155,76.355L156.25,76.355M155,76.26L156.25,76.26M155,76.165L156.25,76.165M155,76.07L156.25,76.07M155,75.975L156.25,75.975M155,75.5L156.25,75.5M156.25,75.5L156.25,75M156.25,75L155,75M155,75L155,75.5M155,75.405L156.25,75.405M155,75.31L156.25,75.31M155,75.215L156.25,75.215M155,75.12L156.25,75.12M155,75.025L156.25,75.025M155,74.55L156.25,74.55M156.25,74.55L156.25,74.05M156.25,74.05L155,74.05M155,74.05L155,74.55M155,74.455L156.25,74.455M155,74.36L156.25,74.36M155,74.265L156.25,74.265M155,74.17L156.25,74.17M155,74.075L156.25,74.075M152.875,74.625L152.875,75.875M152.875,75.875L153.875,75.875M153.875,75.875L153.875,74.625M153.875,74.625L152.875,74.625M152.97,74.625L152.97,75.875M153.065,74.625L153.065,75.875M153.16,74.625L153.16,75.875M153.255,74.625L153.255,75.875M153.35,74.625L153.35,75.875M153.445,74.625L153.445,75.875M153.54,74.625L153.54,75.875M153.635,74.625L153.635,75.875M153.73,74.625L153.73,75.875M153.825,74.625L153.825,75.875M150.625,74.625L150.625,75.875M150.625,75.875L151.625,75.875M151.625,75.875L151.625,74.625M151.625,74.625L150.625,74.625M150.72,74.625L150.72,75.875M150.815,74.625L150.815,75.875M150.91,74.625L150.91,75.875M151.005,74.625L151.005,75.875M151.1,74.625L151.1,75.875M151.195,74.625L151.195,75.875M151.29,74.625L151.29,75.875M151.385,74.625L151.385,75.875M151.48,74.625L151.48,75.875M151.575,74.625L151.575,75.875M147,69.125L148.75,69.125M148.75,69.125L148.75,68.125M148.75,68.125L147,68.125M147,68.125L147,69.125M147,69.03L148.75,69.03M147,68.935L148.75,68.935M147,68.84L148.75,68.84M147,68.745L148.75,68.745M147,68.65L148.75,68.65M147,68.555L148.75,68.555M147,68.46L148.75,68.46M147,68.365L148.75,68.365M147,68.27L148.75,68.27M147,68.175L148.75,68.175M147,67.375L148.75,67.375M148.75,67.375L148.75,66.375M148.75,66.375L147,66.375M147,66.375L147,67.375M147,67.28L148.75,67.28M147,67.185L148.75,67.185M147,67.09L148.75,67.09M147,66.995L148.75,66.995M147,66.9L148.75,66.9M147,66.805L148.75,66.805M147,66.71L148.75,66.71M147,66.615L148.75,66.615M147,66.52L148.75,66.52M147,66.425L148.75,66.425M152.25,67.375L154,67.375M154,67.375L154,66.375M154,66.375L152.25,66.375M152.25,66.375L152.25,67.375M152.25,67.28L154,67.28M152.25,67.185L154,67.185M152.25,67.09L154,67.09M152.25,66.995L154,66.995M152.25,66.9L154,66.9M152.25,66.805L154,66.805M152.25,66.71L154,66.71M152.25,66.615L154,66.615M152.25,66.52L154,66.52M152.25,66.425L154,66.425M152.25,69.125L154,69.125M154,69.125L154,68.125M154,68.125L152.25,68.125M152.25,68.125L152.25,69.125M152.25,69.03L154,69.03M152.25,68.935L154,68.935M152.25,68.84L154,68.84M152.25,68.745L154,68.745M152.25,68.65L154,68.65M152.25,68.555L154,68.555M152.25,68.46L154,68.46M152.25,68.365L154,68.365M152.25,68.27L154,68.27M152.25,68.175L154,68.175"/></g><g stroke="none"><circle cx="158.89" cy="66.9" r="0.5"/><circle cx="157.62" cy="66.9" r="0.5"/><circle cx="156.35" cy="66.9" r="0.5"/><circle cx="161.43" cy="66.9" r="0.5"/><circle cx="160.16" cy="66.9" r="0.5"/><circle cx="155.08" cy="66.9" r="0.5"/><circle cx="150.5" cy="66.4" r="0.4"/><circle cx="150.5" cy="69.1" r="0.4"/><circle cx="153.81" cy="73.25" r="0.95"/><circle cx="153.81" cy="70.71" r="0.95"/><circle cx="148.73" cy="70.71" r="0.95"/><circle cx="158.89" cy="70.71" r="1.85"/></g></g>
<g id="GTO"><g fill="none" stroke-linecap="round" stroke-linejoin="round"><path stroke-width="0.15" d="M156.15,73.7L157.85,73.7M156.15,76.8L157.85,76.8M157,75L157,76.25M152.437,75.625L152.437,74.875M152.062,75.625L152.062,74.875M148.75,69.5L149.75,69.5M149.75,67.75L151.25,67.75M149.75,68.25L151.25,68.25M150.5,67.25L150.5,67.75M151.25,69.5L152.75,69.5M161.125,70.625L161.875,70.625M161.875,71.125L161.125,71.125M161.125,71.125L161.5,70.875M161.5,70.875L161.125,70.625M161.125,71.375L161.125,71.875M161.125,71.875L161.25,71.875M161.25,71.875L161.75,71.375M161.75,71.375L161.875,71.375M161.875,71.375L161.875,71.875M161.875,71.875L161.75,71.875M161.25,71.375L161.125,71.375M161.125,72.125L161.75,72.125M161.75,72.125L161.875,72.25M161.875,72.25L161.875,72.5M161.875,72.5L161.75,72.625M161.75,72.625L161.125,72.625M161.75,73.375L161.875,73.375M161.875,73.375L161.875,72.875M161.875,72.875L161.75,72.875M161.75,72.875L161.375,73.375M161.375,73.375L161.25,73.375M161.25,73.375L161.125,73.25M161.125,73.25L161.125,73M161.125,73L161.25,72.875M161.75,74.125L161.875,74.125M161.875,74.125L161.875,73.625M161.875,73.625L161.75,73.625M161.75,73.625L161.375,74.125M161.375,74.125L161.25,74.125M161.25,74.125L161.125,74M161.125,74L161.125,73.75M161.125,73.75L161.25,73.625M161.875,74.75L161.875,74.5M161.875,74.625L161.125,74.625M161.25,74.5L161.125,74.625M161.75,75.125L161.875,75.25M161.875,75.25L161.875,75.5M161.875,75.5L161.75,75.625M161.75,75.625L161.625,75.625M161.625,75.625L161.5,75.5M161.5,75.5L161.375,75.625M161.375,75.625L161.25,75.625M161.25,75.625L161.125,75.5M161.125,75.5L161.125,75.25M161.125,75.25L161.25,75.125M161.5,75.5L161.5,75.375M161.625,76.25L161.625,76M161.875,75.875L161.437,75.875M161.437,76.375L161.875,76.375M161.437,75.875L161.125,76.063M161.125,76.063L161.125,76.188M161.125,76.188L161.437,76.375M155.715,73.038L156.033,73.038M155.29,73.18L156.033,73.18M155.296,73.322L156.033,73.322M155.723,73.464L156.033,73.464M156.033,73.567L156.033,72.932M155.08,73.25L156.033,73.567M156.033,72.932L155.08,73.25M160.16,73.991L160.478,73.991M159.735,74.133L160.478,74.133M159.741,74.275L160.478,74.275M160.168,74.417L160.478,74.417M160.478,74.52L160.478,73.885M159.525,74.203L160.478,74.52M160.478,73.885L159.525,74.203M161.395,67.959L161.465,67.959M161.348,68.101L161.513,68.101M161.3,68.243L161.56,68.243M161.253,68.385L161.608,68.385M161.206,68.527L161.655,68.527M161.159,68.669L161.702,68.669M161.113,68.806L161.748,68.806M161.43,67.853L161.113,68.806M161.748,68.806L161.43,67.853"/></g><g stroke="none"><circle cx="157" cy="74.25" r="0.25"/><circle cx="148.25" cy="69.5" r="0.15"/></g></g>
<g id="GBL"><g fill="none" stroke-linecap="round" stroke-linejoin="round"><path stroke-width="0.1" d="M158.39,66.2L158.39,67.6M158.39,67.6L159.39,67.6M159.39,67.6L159.39,66.2M159.39,66.2L158.39,66.2M158.485,66.2L158.485,67.6M158.58,66.2L158.58,67.6M158.675,66.2L158.675,67.6M158.77,66.2L158.77,67.6M158.865,66.2L158.865,67.6M158.96,66.2L158.96,67.6M159.055,66.2L159.055,67.6M159.15,66.2L159.15,67.6M159.245,66.2L159.245,67.6M159.34,66.2L159.34,67.6M157.12,66.2L157.12,67.6M157.12,67.6L158.12,67.6M158.12,67.6L158.12,66.2M158.12,66.2L157.12,66.2M157.215,66.2L157.215,67.6M157.31,66.2L157.31,67.6M157.405,66.2L157.405,67.6M157.5,66.2L157.5,67.6M157.595,66.2L157.595,67.6M157.69,66.2L157.69,67.6M157.785,66.2L157.785,67.6M157.88,66.2L157.88,67.6M157.975,66.2L157.975,67.6M158.07,66.2L158.07,67.6M155.85,66.2L155.85,67.6M155.85,67.6L156.85,67.6M156.85,67.6L156.85,66.2M156.85,66.2L155.85,66.2M155.945,66.2L155.945,67.6M156.04,66.2L156.04,67.6M156.135,66.2L156.135,67.6M156.23,66.2L156.23,67.6M156.325,66.2L156.325,67.6M156.42,66.2L156.42,67.6M156.515,66.2L156.515,67.6M156.61,66.2L156.61,67.6M156.705,66.2L156.705,67.6M156.8,66.2L156.8,67.6M160.93,66.2L160.93,67.6M160.93,67.6L161.93,67.6M161.93,67.6L161.93,66.2M161.93,66.2L160.93,66.2M161.025,66.2L161.025,67.6M161.12,66.2L161.12,67.6M161.215,66.2L161.215,67.6M161.31,66.2L161.31,67.6M161.405,66.2L161.405,67.6M161.5,66.2L161.5,67.6M161.595,66.2L161.595,67.6M161.69,66.2L161.69,67.6M161.785,66.2L161.785,67.6M161.88,66.2L161.88,67.6M159.66,66.2L159.66,67.6M159.66,67.6L160.66,67.6M160.66,67.6L160.66,66.2M160.66,66.2L159.66,66.2M159.755,66.2L159.755,67.6M159.85,66.2L159.85,67.6M159.945,66.2L159.945,67.6M160.04,66.2L160.04,67.6M160.135,66.2L160.135,67.6M160.23,66.2L160.23,67.6M160.325,66.2L160.325,67.6M160.42,66.2L160.42,67.6M160.515,66.2L160.515,67.6M160.61,66.2L160.61,67.6M154.58,66.2L154.58,67.6M154.58,67.6L155.58,67.6M155.58,67.6L155.58,66.2M155.58,66.2L154.58,66.2M154.675,66.2L154.675,67.6M154.77,66.2L154.77,67.6M154.865,66.2L154.865,67.6M154.96,66.2L154.96,67.6M155.055,66.2L155.055,67.6M155.15,66.2L155.15,67.6M155.245,66.2L155.245,67.6M155.34,66.2L155.34,67.6M155.435,66.2L155.435,67.6M155.53,66.2L155.53,67.6M152.735,74.325L154.885,74.325M154.885,74.325L154.885,72.175M154.885,72.175L152.735,72.175M152.735,72.175L152.735,74.325M152.735,74.23L154.885,74.23M152.735,74.135L154.885,74.135M152.735,74.04L154.885,74.04M152.735,73.945L154.885,73.945M152.735,73.85L154.885,73.85M152.735,73.755L154.885,73.755M152.735,73.66L154.885,73.66M152.735,73.565L154.885,73.565M152.735,73.47L154.885,73.47M152.735,73.375L154.885,73.375M152.735,73.28L154.885,73.28M152.735,73.185L154.885,73.185M152.735,73.09L154.885,73.09M152.735,72.995L154.885,72.995M152.735,72.9L154.885,72.9M152.735,72.805L154.885,72.805M152.735,72.71L154.885,72.71M152.735,72.615L154.885,72.615M152.735,72.52L154.885,72.52M152.735,72.425L154.885,72.425M152.735,72.33L154.885,72.33M152.735,72.235L154.885,72.235M152.735,71.785L154.885,71.785M154.885,71.785L154.885,69.635M154.885,69.635L152.735,69.635M152.735,69.635L152.735,71.785M152.735,71.69L154.885,71.69M152.735,71.595L154.885,71.595M152.735,71.5L154.885,71.5M152.735,71.405L154.885,71.405M152.735,71.31L154.885,71.31M152.735,71.215L154.885,71.215M152.735,71.12L154.885,71.12M152.735,71.025L154.885,71.025M152.735,70.93L154.885,70.93M152.735,70.835L154.885,70.835M152.735,70.74L154.885,70.74M152.735,70.645L154.885,70.645M152.735,70.55L154.885,70.55M152.735,70.455L154.885,70.455M152.735,70.36L154.885,70.36M152.735,70.265L154.885,70.265M152.735,70.17L154.885,70.17M152.735,70.075L154.885,70.075M152.735,69.98L154.885,69.98M152.735,69.885L154.885,69.885M152.735,69.79L154.885,69.79M152.735,69.695L154.885,69.695M147.655,71.785L149.805,71.785M149.805,71.785L149.805,69.635M149.805,69.635L147.655,69.635M147.655,69.635L147.655,71.785M147.655,71.69L149.805,71.69M147.655,71.595L149.805,71.595M147.655,71.5L149.805,71.5M147.655,71.405L149.805,71.405M147.655,71.31L149.805,71.31M147.655,71.215L149.805,71.215M147.655,71.12L149.805,71.12M147.655,71.025L149.805,71.025M147.655,70.93L149.805,70.93M147.655,70.835L149.805,70.835M147.655,70.74L149.805,70.74M147.655,70.645L149.805,70.645M147.655,70.55L149.805,70.55M147.655,70.455L149.805,70.455M147.655,70.36L149.805,70.36M147.655,70.265L149.805,70.265M147.655,70.17L149.805,70.17M147.655,70.075L149.805,70.075M147.655,69.98L149.805,69.98M147.655,69.885L149.805,69.885M147.655,69.79L149.805,69.79M147.655,69.695L149.805,69.695"/><path stroke-width="0.25" d="M153.81,73.25L153.81,72.25M154.935,72.25L153.81,72.25M154.935,72.25A0.625,0.625,0,0,0,155.56,71.625M157.62,66.9L157.195,66.9M157.195,67.65L157.195,66.9M161.43,67.1L161.43,66.9M161.729,67.399L161.43,67.1M161.729,67.399A0.501,0.501,0,0,1,161.875,67.752M158.465,67.65L158.465,66.9M158.89,66.9L158.465,66.9M158.465,67.65A0.625,0.625,0,0,1,158.086,68.225M157.195,67.65A0.625,0.625,0,0,1,156.816,68.225M156.969,68.703L158.086,68.225M156.969,68.703A1.5,1.5,0,0,0,156.06,70.082M156.816,68.225L156.773,68.243M155.56,71.625L155.56,70.082M155.56,70.082A2,2,0,0,1,156.773,68.243M160.375,74.625L157,74.625M161.875,73.125L161.875,67.752M161.875,73.125A1.5,1.5,0,0,1,160.375,74.625M157.56,76.075L159.75,76.075M156.06,74.575L156.06,70.082M156.06,74.575A1.5,1.5,0,0,0,157.56,76.075"/></g><g stroke="none"><circle cx="159.75" cy="76.075" r="0.3"/><circle cx="157" cy="74.625" r="0.3"/></g></g>
<g id="GBS"><g fill="none" stroke-linecap="round" stroke-linejoin="round"><path stroke-width="0.1" d="M152.685,74.375L154.935,74.375M154.935,74.375L154.935,72.125M154.935,72.125L152.685,72.125M152.685,72.125L152.685,74.375M152.685,74.28L154.935,74.28M152.685,74.185L154.935,74.185M152.685,74.09L154.935,74.09M152.685,73.995L154.935,73.995M152.685,73.9L154.935,73.9M152.685,73.805L154.935,73.805M152.685,73.71L154.935,73.71M152.685,73.615L154.935,73.615M152.685,73.52L154.935,73.52M152.685,73.425L154.935,73.425M152.685,73.33L154.935,73.33M152.685,73.235L154.935,73.235M152.685,73.14L154.935,73.14M152.685,73.045L154.935,73.045M152.685,72.95L154.935,72.95M152.685,72.855L154.935,72.855M152.685,72.76L154.935,72.76M152.685,72.665L154.935,72.665M152.685,72.57L154.935,72.57M152.685,72.475L154.935,72.475M152.685,72.38L154.935,72.38M152.685,72.285L154.935,72.285M152.685,72.19L154.935,72.19M152.685,71.835L154.935,71.835M154.935,71.835L154.935,69.585M154.935,69.585L152.685,69.585M152.685,69.585L152.685,71.835M152.685,71.74L154.935,71.74M152.685,71.645L154.935,71.645M152.685,71.55L154.935,71.55M152.685,71.455L154.935,71.455M152.685,71.36L154.935,71.36M152.685,71.265L154.935,71.265M152.685,71.17L154.935,71.17M152.685,71.075L154.935,71.075M152.685,70.98L154.935,70.98M152.685,70.885L154.935,70.885M152.685,70.79L154.935,70.79M152.685,70.695L154.935,70.695M152.685,70.6L154.935,70.6M152.685,70.505L154.935,70.505M152.685,70.41L154.935,70.41M152.685,70.315L154.935,70.315M152.685,70.22L154.935,70.22M152.685,70.125L154.935,70.125M152.685,70.03L154.935,70.03M152.685,69.935L154.935,69.935M152.685,69.84L154.935,69.84M152.685,69.745L154.935,69.745M152.685,69.65L154.935,69.65M147.605,71.835L149.855,71.835M149.855,71.835L149.855,69.585M149.855,69.585L147.605,69.585M147.605,69.585L147.605,71.835M147.605,71.74L149.855,71.74M147.605,71.645L149.855,71.645M147.605,71.55L149.855,71.55M147.605,71.455L149.855,71.455M147.605,71.36L149.855,71.36M147.605,71.265L149.855,71.265M147.605,71.17L149.855,71.17M147.605,71.075L149.855,71.075M147.605,70.98L149.855,70.98M147.605,70.885L149.855,70.885M147.605,70.79L149.855,70.79M147.605,70.695L149.855,70.695M147.605,70.6L149.855,70.6M147.605,70.505L149.855,70.505M147.605,70.41L149.855,70.41M147.605,70.315L149.855,70.315M147.605,70.22L149.855,70.22M147.605,70.125L149.855,70.125M147.605,70.03L149.855,70.03M147.605,69.935L149.855,69.935M147.605,69.84L149.855,69.84M147.605,69.745L149.855,69.745M147.605,69.65L149.855,69.65"/></g><g stroke="none"><circle cx="158.89" cy="66.9" r="0.5"/><circle cx="157.62" cy="66.9" r="0.5"/><circle cx="156.35" cy="66.9" r="0.5"/><circle cx="161.43" cy="66.9" r="0.5"/><circle cx="160.16" cy="66.9" r="0.5"/><circle cx="155.08" cy="66.9" r="0.5"/><circle cx="158.89" cy="70.71" r="1.85"/><circle cx="150.5" cy="66.4" r="0.4"/><circle cx="150.5" cy="69.1" r="0.4"/></g></g>
<g id="GBO"><g fill="none" stroke-linecap="round" stroke-linejoin="round"><path stroke-width="0.15" d="M153.775,75.261L153.845,75.261M153.728,75.403L153.893,75.403M153.68,75.545L153.94,75.545M153.633,75.687L153.988,75.687M153.586,75.829L154.035,75.829M153.539,75.971L154.082,75.971M153.493,76.108L154.128,76.108M153.81,75.155L153.493,76.108M154.128,76.108L153.81,75.155"/><path stroke-width="0.2" d="M152.54,74.838L155.398,74.838M155.398,74.838L155.398,69.123M155.398,69.123L151.27,69.123M149.683,69.123L147.143,69.123M147.143,69.123L147.143,74.838M147.143,74.838L150,74.838"/></g></g>
<g id="GL2"></g>
<g id="GL3"></g>
<g id="DRL"><g class="pad"><circle cx="150.5" cy="69.1" r="0.35"/><circle cx="150.5" cy="66.4" r="0.35"/><circle cx="155.08" cy="66.9" r="0.4"/><circle cx="160.16" cy="66.9" r="0.4"/><circle cx="161.43" cy="66.9" r="0.4"/><circle cx="156.35" cy="66.9" r="0.4"/><circle cx="157.62" cy="66.9" r="0.4"/><circle cx="158.89" cy="66.9" r="0.4"/><circle cx="148.73" cy="73.25" r="0.4"/><circle cx="151.27" cy="73.25" r="0.4"/><circle cx="151.27" cy="70.71" r="0.4"/><circle cx="148.73" cy="70.71" r="0.6"/><circle cx="153.81" cy="70.71" r="0.6"/><circle cx="153.81" cy="73.25" r="0.6"/><circle cx="158.89" cy="70.71" r="1.6"/></g><g class="via"><circle cx="157" cy="74.625" r="0.15"/><circle cx="159.75" cy="76.075" r="0.15"/></g></g>
</defs>
<!-- Rendering View Port -->
<g transform="scale(1,-1)" clip-path="url(#BOARD)">
<use xlink:href="#FIL" class="black" onclick="reset();"/>
<use xlink:href="#GBL" class="GBL" onclick="hide(this);"/>
<use xlink:href="#GBO" class="GBO" onclick="hide(this);"/>
<use xlink:href="#GBS" class="GBS" onclick="hide(this);"/>
<use xlink:href="#GL3" class="GL3" onclick="hide(this);"/>
<use xlink:href="#GL2" class="GL2" onclick="hide(this);"/>
<use xlink:href="#GTL" class="GTL" onclick="hide(this);"/>
<use xlink:href="#GTO" class="GTO" onclick="hide(this);"/>
<use xlink:href="#GTS" class="GTS" onclick="hide(this);"/>
<use xlink:href="#DRL" class="DRL" onclick="hide(this);"/>
<use xlink:href="#OUT" stroke="gray" stroke-width="0.05" fill="none"/>
</g>
<script><![CDATA[
var x=[];
function hide(e){e.setAttribute("visibility","hidden");x.push(e);}
function reset(){x.forEach(function(e){e.setAttribute("visibility",null);});x=[];}
]]></script>
</svg>
