<?xml version="1.0" standalone="no"?>
<svg width="425.197" height="330.709"  viewBox="145.5 -78.5 18 14" xmlns="http://www.w3.org/2000/svg" xmlns:xlink="http://www.w3.org/1999/xlink" version="1.1">
<style>
text{stroke:none;font-weight:bold;font-family:"Consolas","Courier New",monospace;}
g.footprint{visibility:hidden;}
.drill{stroke:black;fill:black;stroke-width:0;}
.cover{stroke:rgb(4,145,142);fill:rgb(4,145,142);}
.silk{stroke:white;fill:white;}
.plate{stroke:rgb(153,153,153);fill:rgb(153,153,153);}
.regist{stroke:rgb(2,82,97);fill:rgb(2,82,97);}
.board{stroke:rgb(213,212,137);fill:rgb(213,212,137);}
.under{stroke:rgb(204,153,105);fill:rgb(204,153,105);}
.via{fill:rgb(2,82,97);}
.DRL{stroke:gray;fill:none;stroke-width:0.025;}
.black{stroke:black;fill:black;}
.mask{stroke:white;fill:white;}
</style>
<!-- Symbol and Parts Libraries Description -->
<defs>
<g id="ATtiny10"><title>ATTINY10-TSHR</title><desc>C128438</desc><use xlink:href="#SOT-23-6"/><g class="symbol" stroke="none" fill="darkgray" transform="translate(0.25,0),scale(1,-1),rotate(-90)"><text font-size="0.8" textLength="1.2" text-anchor="middle">T10</text></g></g>
<g id="C0805"><g class="footprint"><path fill="none" d="M0.188,-0.375L0.188,0.375M-0.187,-0.375L-0.187,0.375M-1,-0.6L1,-0.6M1,-0.6L1,0.6M-1,-0.6L-1,0.6M-1,0.6L1,0.6M0,0"/><g stroke-width="0.05" fill="none"><circle cx="-1.125" cy="0" r="0.25"/></g><g stroke-width="0.02" fill="none"><rect transform="translate(-1.125,0),rotate(90)" x="-0.675" y="-0.55" width="1.35" height="1.1"/><rect transform="translate(1.125,0),rotate(90)" x="-0.675" y="-0.55" width="1.35" height="1.1"/></g></g><g class="symbol"><g stroke="silver" fill="silver"><g stroke-width="0"><rect transform="translate(0,0),rotate(0)" x="-1" y="-0.6" width="2" height="1.2"/></g></g><g stroke="tan" fill="tan"><g stroke-width="0"><rect transform="translate(0,0),rotate(0)" x="-0.7" y="-0.6" width="1.4" height="1.2"/></g></g></g></g>
<g id="C0805_104"><title>CL21B104KCFNNNE</title><desc>C28233</desc><use xlink:href="#C0805"/></g>
<g id="SOT-23-6"><g class="footprint"><path fill="none" d="M-0.85,1.55L0.85,1.55M-0.85,-1.55L-0.85,1.55M0.85,-1.55L0.85,1.55M-0.85,-1.55L0.85,-1.55M0,0"/><g stroke-width="0.05" fill="none"><circle cx="1.375" cy="-0.95" r="0.25"/></g><g stroke-width="0.02" fill="none"><rect transform="translate(1.375,-0.95),rotate(0)" x="-0.675" y="-0.3" width="1.35" height="0.6"/><rect transform="translate(1.375,0),rotate(0)" x="-0.675" y="-0.3" width="1.35" height="0.6"/><rect transform="translate(1.375,0.95),rotate(0)" x="-0.675" y="-0.3" width="1.35" height="0.6"/><rect transform="translate(-1.375,0.95),rotate(0)" x="-0.675" y="-0.3" width="1.35" height="0.6"/><rect transform="translate(-1.375,0),rotate(0)" x="-0.675" y="-0.3" width="1.35" height="0.6"/><rect transform="translate(-1.375,-0.95),rotate(0)" x="-0.675" y="-0.3" width="1.35" height="0.6"/></g></g><g class="symbol"><g stroke="silver" fill="silver"><g stroke-width="0"><rect transform="translate(1,0.95),rotate(0)" x="-0.4" y="-0.2" width="0.8" height="0.4"/><rect transform="translate(-1,0),rotate(0)" x="-0.4" y="-0.2" width="0.8" height="0.4"/><rect transform="translate(1,-0.95),rotate(0)" x="-0.4" y="-0.2" width="0.8" height="0.4"/><rect transform="translate(1,0),rotate(0)" x="-0.4" y="-0.2" width="0.8" height="0.4"/><rect transform="translate(-1,0.95),rotate(0)" x="-0.4" y="-0.2" width="0.8" height="0.4"/><rect transform="translate(-1,-0.95),rotate(0)" x="-0.4" y="-0.2" width="0.8" height="0.4"/></g></g><g stroke="rgb(51,51,51)" fill="rgb(51,51,51)"><g stroke-width="0"><rect transform="translate(0,0),rotate(90)" x="-1.5" y="-0.8" width="3" height="1.6"/></g></g><g stroke="dimgray" fill="dimgray"><g><circle cx="0.375" cy="-1.125" r="0.25"/></g></g></g></g>
<g id="THAU13-AB-R"><title>THAU13-AB-R</title><desc>C495928</desc><g class="footprint"><path fill="none" d="M-1.05,-2.1L-1.05,-1.8M1.05,-1.8L2.4,-1.8M1.05,-2.1L1.35,-2.1M1.35,-2.85L1.35,-2.1M-1.35,-2.85L1.35,-2.85M1.05,-2.1L1.05,-1.8M-1.35,-2.1L-1.05,-2.1M-1.35,-2.85L-1.35,-2.1M-2.4,-1.8L-1.05,-1.8M-2.4,1.8L2.4,1.8M-2.4,-1.8L-2.4,1.8M2.4,-1.8L2.4,1.8M0,0"/><g stroke-width="0.05" fill="none"><circle cx="-2.625" cy="0.875" r="0.25"/></g><g stroke-width="0.05" fill="none"><circle cx="0" cy="1.35" r="0.4"/><circle cx="0" cy="-1.35" r="0.4"/></g><g stroke-width="0.02" fill="none"><rect transform="translate(-2.625,0.875),rotate(0)" x="-0.925" y="-0.55" width="1.85" height="1.1"/><rect transform="translate(-2.625,-0.875),rotate(0)" x="-0.925" y="-0.55" width="1.85" height="1.1"/><rect transform="translate(2.625,-0.875),rotate(0)" x="-0.925" y="-0.55" width="1.85" height="1.1"/><rect transform="translate(2.625,0.875),rotate(0)" x="-0.925" y="-0.55" width="1.85" height="1.1"/></g></g><g class="symbol"><g class="symbol"><g stroke="silver" fill="silver"><g stroke-width="0"><rect transform="translate(-2.35,0.85),rotate(0)" x="-0.25" y="-0.25" width="0.5" height="0.5"/><rect transform="translate(2.4,0.85),rotate(0)" x="-0.25" y="-0.25" width="0.5" height="0.5"/><rect transform="translate(-2.4,-0.9),rotate(0)" x="-0.25" y="-0.25" width="0.5" height="0.5"/><rect transform="translate(2.4,-0.9),rotate(0)" x="-0.25" y="-0.25" width="0.5" height="0.5"/></g></g><g stroke="rgb(51,51,51)" fill="rgb(51,51,51)"><g stroke-width="0"><rect transform="translate(0,-1.9),rotate(0)" x="-0.25" y="-0.25" width="0.5" height="0.5"/><rect transform="translate(0.75,-1.9),rotate(0)" x="-0.25" y="-0.25" width="0.5" height="0.5"/><rect transform="translate(-0.75,-1.9),rotate(0)" x="-0.25" y="-0.25" width="0.5" height="0.5"/><rect transform="translate(0,0),rotate(0)" x="-2.35" y="-1.75" width="4.7" height="3.5"/></g></g><g stroke="gainsboro" fill="gainsboro"><path fill-rule="evenodd" stroke-width="0.1" d="M-2.25,1.625L2.25,1.625L2.25,1L2.125,1L2.125,0.5L2.25,0.5L2.25,-0.5L2.125,-0.5L2.125,-1L2.25,-1L2.25,-1.625L-2.25,-1.625L-2.25,-1L-2.125,-1L-2.125,-0.5L-2.25,-0.5L-2.25,0.5L-2.125,0.5L-2.125,1L-2.25,1L-2.25,1.625ZM1.25,-0.875L1.25,0.875L-1.25,0.875L-1.25,-0.875L1.25,-0.875Z"/></g><g stroke="darkgray" fill="darkgray"><g stroke-width="0"><rect transform="translate(0,-2.45),rotate(0)" x="-1.3" y="-0.35" width="2.6" height="0.7"/></g></g><g stroke="tan" fill="tan"><path fill-rule="evenodd" stroke-width="0.1" d="M1.4,0.75A0.25,0.25 0 0,1 1.15,1L-1.15,1A0.25,0.25 0 0,1 -1.4,0.75L-1.4,-0.75A0.25,0.25 0 0,1 -1.15,-1L1.15,-1A0.25,0.25 0 0,1 1.4,-0.75L1.4,0.75ZM-0.625,0.5L0.625,0.5A0.125,0.125 0 0,0 0.75,0.375L0.75,-0.25A0.25,0.25 0 0,0 0.25,-0.25L0.25,0A0.125,0.125 0 0,1 0.125,0.125L-0.125,0.125A0.125,0.125 0 0,1 -0.25,0L-0.25,-0.25A0.25,0.25 0 0,0 -0.75,-0.25L-0.75,0.375A0.125,0.125 0 0,0 -0.625,0.5Z"/></g></g></g></g>
<g id="TS-1186U-B-A"><title>TS-1186U-B-A</title><desc>C571343</desc><use xlink:href="#THAU13-AB-R"/></g>
<!-- Gerber Layer -->
<clipPath id="BOARD" clip-rule="evenodd"><path stroke="none" fill-rule="evenodd" d="M162.5,65.5L162.5,77.5L146.5,77.5L146.5,65.5L162.5,65.5Z"/></clipPath>
<g id="OUT" stroke-linecap="round" stroke-linejoin="round"><path d="M162.5,65.5L162.5,77.5L146.5,77.5L146.5,65.5L162.5,65.5Z"/></g>
<rect id="FIL" x="146.5" y="65.5" width="16" height="12"/>
<g id="GTL"><g fill="none" stroke-linecap="round" stroke-linejoin="round"><path stroke-width="0.1" d="M158.39,66.2L158.39,67.6M158.39,67.6L159.39,67.6M159.39,67.6L159.39,66.2M159.39,66.2L158.39,66.2M158.485,66.2L158.485,67.6M158.58,66.2L158.58,67.6M158.675,66.2L158.675,67.6M158.77,66.2L158.77,67.6M158.865,66.2L158.865,67.6M158.96,66.2L158.96,67.6M159.055,66.2L159.055,67.6M159.15,66.2L159.15,67.6M159.245,66.2L159.245,67.6M159.34,66.2L159.34,67.6M157.12,66.2L157.12,67.6M157.12,67.6L158.12,67.6M158.12,67.6L158.12,66.2M158.12,66.2L157.12,66.2M157.215,66.2L157.215,67.6M157.31,66.2L157.31,67.6M157.405,66.2L157.405,67.6M157.5,66.2L157.5,67.6M157.595,66.2L157.595,67.6M157.69,66.2L157.69,67.6M157.785,66.2L157.785,67.6M157.88,66.2L157.88,67.6M157.975,66.2L157.975,67.6M158.07,66.2L158.07,67.6M155.85,66.2L155.85,67.6M155.85,67.6L156.85,67.6M156.85,67.6L156.85,66.2M156.85,66.2L155.85,66.2M155.945,66.2L155.945,67.6M156.04,66.2L156.04,67.6M156.135,66.2L156.135,67.6M156.23,66.2L156.23,67.6M156.325,66.2L156.325,67.6M156.42,66.2L156.42,67.6M156.515,66.2L156.515,67.6M156.61,66.2L156.61,67.6M156.705,66.2L156.705,67.6M156.8,66.2L156.8,67.6M160.93,66.2L160.93,67.6M160.93,67.6L161.93,67.6M161.93,67.6L161.93,66.2M161.93,66.2L160.93,66.2M161.025,66.2L161.025,67.6M161.12,66.2L161.12,67.6M161.215,66.2L161.215,67.6M161.31,66.2L161.31,67.6M161.405,66.2L161.405,67.6M161.5,66.2L161.5,67.6M161.595,66.2L161.595,67.6M161.69,66.2L161.69,67.6M161.785,66.2L161.785,67.6M161.88,66.2L161.88,67.6M159.66,66.2L159.66,67.6M159.66,67.6L160.66,67.6M160.66,67.6L160.66,66.2M160.66,66.2L159.66,66.2M159.755,66.2L159.755,67.6M159.85,66.2L159.85,67.6M159.945,66.2L159.945,67.6M160.04,66.2L160.04,67.6M160.135,66.2L160.135,67.6M160.23,66.2L160.23,67.6M160.325,66.2L160.325,67.6M160.42,66.2L160.42,67.6M160.515,66.2L160.515,67.6M160.61,66.2L160.61,67.6M154.58,66.2L154.58,67.6M154.58,67.6L155.58,67.6M155.58,67.6L155.58,66.2M155.58,66.2L154.58,66.2M154.675,66.2L154.675,67.6M154.77,66.2L154.77,67.6M154.865,66.2L154.865,67.6M154.96,66.2L154.96,67.6M155.055,66.2L155.055,67.6M155.15,66.2L155.15,67.6M155.245,66.2L155.245,67.6M155.34,66.2L155.34,67.6M155.435,66.2L155.435,67.6M155.53,66.2L155.53,67.6M157.8,74.5L158.95,74.5M158.95,74.5L158.95,74.1M158.95,74.1L157.8,74.1M157.8,74.1L157.8,74.5M157.8,74.405L158.95,74.405M157.8,74.31L158.95,74.31M157.8,74.215L158.95,74.215M157.8,74.12L158.95,74.12M157.8,75.45L158.95,75.45M158.95,75.45L158.95,75.05M158.95,75.05L157.8,75.05M157.8,75.05L157.8,75.45M157.8,75.355L158.95,75.355M157.8,75.26L158.95,75.26M157.8,75.165L158.95,75.165M157.8,75.07L158.95,75.07M157.8,76.4L158.95,76.4M158.95,76.4L158.95,76M158.95,76L157.8,76M157.8,76L157.8,76.4M157.8,76.305L158.95,76.305M157.8,76.21L158.95,76.21M157.8,76.115L158.95,76.115M157.8,76.02L158.95,76.02M155.05,76.4L156.2,76.4M156.2,76.4L156.2,76M156.2,76L155.05,76M155.05,76L155.05,76.4M155.05,76.305L156.2,76.305M155.05,76.21L156.2,76.21M155.05,76.115L156.2,76.115M155.05,76.02L156.2,76.02M155.05,75.45L156.2,75.45M156.2,75.45L156.2,75.05M156.2,75.05L155.05,75.05M155.05,75.05L155.05,75.45M155.05,75.355L156.2,75.355M155.05,75.26L156.2,75.26M155.05,75.165L156.2,75.165M155.05,75.07L156.2,75.07M155.05,74.5L156.2,74.5M156.2,74.5L156.2,74.1M156.2,74.1L155.05,74.1M155.05,74.1L155.05,74.5M155.05,74.405L156.2,74.405M155.05,74.31L156.2,74.31M155.05,74.215L156.2,74.215M155.05,74.12L156.2,74.12M152.925,74.675L152.925,75.825M152.925,75.825L153.825,75.825M153.825,75.825L153.825,74.675M153.825,74.675L152.925,74.675M153.02,74.675L153.02,75.825M153.115,74.675L153.115,75.825M153.21,74.675L153.21,75.825M153.305,74.675L153.305,75.825M153.4,74.675L153.4,75.825M153.495,74.675L153.495,75.825M153.59,74.675L153.59,75.825M153.685,74.675L153.685,75.825M153.78,74.675L153.78,75.825M150.675,74.675L150.675,75.825M150.675,75.825L151.575,75.825M151.575,75.825L151.575,74.675M151.575,74.675L150.675,74.675M150.77,74.675L150.77,75.825M150.865,74.675L150.865,75.825M150.96,74.675L150.96,75.825M151.055,74.675L151.055,75.825M151.15,74.675L151.15,75.825M151.245,74.675L151.245,75.825M151.34,74.675L151.34,75.825M151.435,74.675L151.435,75.825M151.53,74.675L151.53,75.825M147.05,69.075L148.7,69.075M148.7,69.075L148.7,68.175M148.7,68.175L147.05,68.175M147.05,68.175L147.05,69.075M147.05,68.98L148.7,68.98M147.05,68.885L148.7,68.885M147.05,68.79L148.7,68.79M147.05,68.695L148.7,68.695M147.05,68.6L148.7,68.6M147.05,68.505L148.7,68.505M147.05,68.41L148.7,68.41M147.05,68.315L148.7,68.315M147.05,68.22L148.7,68.22M147.05,67.325L148.7,67.325M148.7,67.325L148.7,66.425M148.7,66.425L147.05,66.425M147.05,66.425L147.05,67.325M147.05,67.23L148.7,67.23M147.05,67.135L148.7,67.135M147.05,67.04L148.7,67.04M147.05,66.945L148.7,66.945M147.05,66.85L148.7,66.85M147.05,66.755L148.7,66.755M147.05,66.66L148.7,66.66M147.05,66.565L148.7,66.565M147.05,66.47L148.7,66.47M152.3,67.325L153.95,67.325M153.95,67.325L153.95,66.425M153.95,66.425L152.3,66.425M152.3,66.425L152.3,67.325M152.3,67.23L153.95,67.23M152.3,67.135L153.95,67.135M152.3,67.04L153.95,67.04M152.3,66.945L153.95,66.945M152.3,66.85L153.95,66.85M152.3,66.755L153.95,66.755M152.3,66.66L153.95,66.66M152.3,66.565L153.95,66.565M152.3,66.47L153.95,66.47M152.3,69.075L153.95,69.075M153.95,69.075L153.95,68.175M153.95,68.175L152.3,68.175M152.3,68.175L152.3,69.075M152.3,68.98L153.95,68.98M152.3,68.885L153.95,68.885M152.3,68.79L153.95,68.79M152.3,68.695L153.95,68.695M152.3,68.6L153.95,68.6M152.3,68.505L153.95,68.505M152.3,68.41L153.95,68.41M152.3,68.315L153.95,68.315M152.3,68.22L153.95,68.22"/><path stroke-width="0.25" d="M158.375,74.3L157.875,74.3M153.81,73.25L154.185,73.625M158.375,75.25L158.375,75.375M155.625,75.25L155.625,75.375M152.793,71.727L153.81,70.71M152.793,71.727A1,1,0,0,0,152.5,72.434M149.082,70.358L148.73,70.71M157.875,74.25L157.875,74.3M157.25,73.625L154.185,73.625M157.25,73.625A0.625,0.625,0,0,1,157.875,74.25M157,76.25A0.625,0.625,0,0,1,156.375,76.875M157.625,75.375L158.375,75.375M157,76L157,76.25M157,76A0.625,0.625,0,0,1,157.625,75.375M151.125,75.25L150.75,75.25M153.375,75.25L153.375,74.75M155.625,75.375L153.375,75.375M153.375,75.25L153.375,75.375M153,74.75L153.375,74.75M152.5,74.25L152.5,72.434M152.5,74.25A0.5,0.5,0,0,0,153,74.75M152,74.5A0.375,0.375,0,0,0,151.625,74.125M152,75.875L152,74.5M152,75.875A0.5,0.5,0,0,0,152.5,76.375M154.868,76.375L152.5,76.375M155.221,76.229L155.25,76.2M155.221,76.229A0.501,0.501,0,0,1,154.868,76.375M150.75,74.125L151.625,74.125M150.75,74.125A0.5,0.5,0,0,1,150.25,73.625M154.75,68.775A0.5,0.5,0,0,1,155.25,68.275M154.457,70.063L153.81,70.71M154.75,69.356L154.75,68.775M154.75,69.356A1,1,0,0,1,154.457,70.063M160.16,66.9L159.735,66.9M159.11,68.275L155.25,68.275M159.735,67.65L159.735,66.9M159.735,67.65A0.625,0.625,0,0,1,159.11,68.275M155.625,74.3L155.625,74.425M158.375,76.2L158.375,76.075M158.375,76.075L159.75,76.075M156.946,74.571L157,74.625M156.593,74.425L155.625,74.425M156.593,74.425A0.5,0.5,0,0,1,156.946,74.571M153.125,68.625L152.375,68.625M153.125,66.875L153.125,67.25M147.875,67.25L147.875,66.875M155.08,66.9L154.68,66.5M154.68,66.5L153.125,66.5M153.125,66.875L153.125,66.5M149.375,69.651A1,1,0,0,1,149.082,70.358M150.25,70.654L150.25,73.625M150.25,70.654A0.75,0.75,0,0,1,150.676,69.977M151.949,69.369L150.676,69.977M152.375,68.692L152.375,68.625M152.375,68.692A0.75,0.75,0,0,1,151.949,69.369M150.125,67.25L153.125,67.25M150.125,67.25A0.75,0.75,0,0,0,149.375,68M149.375,68L149.375,69.651M148.625,67.25L147.875,67.25M148.625,67.25A0.75,0.75,0,0,1,149.375,68M151.5,76.875L156.375,76.875M150.75,76.125L150.75,75.25M150.75,76.125A0.75,0.75,0,0,0,151.5,76.875M151.125,75.25L151.125,74.75M149.311,71.291L148.73,70.71M149.311,71.291A1.5,1.5,0,0,1,149.75,72.351M150.5,74.75L151.125,74.75M149.75,74L149.75,72.351M149.75,74A0.75,0.75,0,0,0,150.5,74.75"/></g><g stroke="none"><circle cx="161.43" cy="66.9" r="0.15"/><circle cx="158.375" cy="74.3" r="0.15"/><circle cx="153.375" cy="75.25" r="0.15"/><circle cx="159.75" cy="76.075" r="0.3"/><circle cx="157" cy="74.625" r="0.3"/><circle cx="147.875" cy="68.625" r="0.15"/><circle cx="153.81" cy="73.25" r="0.9"/><circle cx="153.81" cy="70.71" r="0.9"/><circle cx="148.73" cy="70.71" r="0.9"/></g></g>
<g id="GTO"><g fill="none" stroke-linecap="round" stroke-linejoin="round"><path stroke-width="0.15" d="M156.15,73.7L157.85,73.7M156.15,76.8L157.85,76.8M157,75L157,76.25M152.437,75.625L152.437,74.875M152.062,75.625L152.062,74.875M148.75,69.5L149.75,69.5M149.75,67.75L151.25,67.75M149.75,68.25L151.25,68.25M150.5,67.25L150.5,67.75M151.25,69.5L152.75,69.5M161.125,70.625L161.875,70.625M161.875,71.125L161.125,71.125M161.125,71.125L161.5,70.875M161.5,70.875L161.125,70.625M161.125,71.375L161.125,71.875M161.125,71.875L161.25,71.875M161.25,71.875L161.75,71.375M161.75,71.375L161.875,71.375M161.875,71.375L161.875,71.875M161.875,71.875L161.75,71.875M161.25,71.375L161.125,71.375M161.125,72.125L161.75,72.125M161.75,72.125L161.875,72.25M161.875,72.25L161.875,72.5M161.875,72.5L161.75,72.625M161.75,72.625L161.125,72.625M161.75,73.375L161.875,73.375M161.875,73.375L161.875,72.875M161.875,72.875L161.75,72.875M161.75,72.875L161.375,73.375M161.375,73.375L161.25,73.375M161.25,73.375L161.125,73.25M161.125,73.25L161.125,73M161.125,73L161.25,72.875M161.75,74.125L161.875,74.125M161.875,74.125L161.875,73.625M161.875,73.625L161.75,73.625M161.75,73.625L161.375,74.125M161.375,74.125L161.25,74.125M161.25,74.125L161.125,74M161.125,74L161.125,73.75M161.125,73.75L161.25,73.625M161.875,74.75L161.875,74.5M161.875,74.625L161.125,74.625M161.25,74.5L161.125,74.625M161.75,75.125L161.875,75.25M161.875,75.25L161.875,75.5M161.875,75.5L161.75,75.625M161.75,75.625L161.625,75.625M161.625,75.625L161.5,75.5M161.5,75.5L161.375,75.625M161.375,75.625L161.25,75.625M161.25,75.625L161.125,75.5M161.125,75.5L161.125,75.25M161.125,75.25L161.25,75.125M161.5,75.5L161.5,75.375M161.625,76.25L161.625,76M161.875,75.875L161.437,75.875M161.437,76.375L161.875,76.375M161.437,75.875L161.125,76.063M161.125,76.063L161.125,76.188M161.125,76.188L161.437,76.375M155.715,73.038L156.033,73.038M155.29,73.18L156.033,73.18M155.296,73.322L156.033,73.322M155.723,73.464L156.033,73.464M156.033,73.567L156.033,72.932M155.08,73.25L156.033,73.567M156.033,72.932L155.08,73.25M160.16,73.991L160.478,73.991M159.735,74.133L160.478,74.133M159.741,74.275L160.478,74.275M160.168,74.417L160.478,74.417M160.478,74.52L160.478,73.885M159.525,74.203L160.478,74.52M160.478,73.885L159.525,74.203M161.395,67.959L161.465,67.959M161.348,68.101L161.513,68.101M161.3,68.243L161.56,68.243M161.253,68.385L161.608,68.385M161.206,68.527L161.655,68.527M161.159,68.669L161.702,68.669M161.113,68.806L161.748,68.806M161.43,67.853L161.113,68.806M161.748,68.806L161.43,67.853"/></g><g stroke="none"><circle cx="157" cy="74.25" r="0.25"/><circle cx="148.25" cy="69.5" r="0.15"/></g></g>
<g id="GTS"><g fill="none" stroke-linecap="round" stroke-linejoin="round"><path stroke-width="0.1" d="M154.53,66.15L154.53,67.65M154.53,67.65L155.63,67.65M155.63,67.65L155.63,66.15M155.63,66.15L154.53,66.15M154.625,66.15L154.625,67.65M154.72,66.15L154.72,67.65M154.815,66.15L154.815,67.65M154.91,66.15L154.91,67.65M155.005,66.15L155.005,67.65M155.1,66.15L155.1,67.65M155.195,66.15L155.195,67.65M155.29,66.15L155.29,67.65M155.385,66.15L155.385,67.65M155.48,66.15L155.48,67.65M155.575,66.15L155.575,67.65M157.07,66.15L157.07,67.65M157.07,67.65L158.17,67.65M158.17,67.65L158.17,66.15M158.17,66.15L157.07,66.15M157.165,66.15L157.165,67.65M157.26,66.15L157.26,67.65M157.355,66.15L157.355,67.65M157.45,66.15L157.45,67.65M157.545,66.15L157.545,67.65M157.64,66.15L157.64,67.65M157.735,66.15L157.735,67.65M157.83,66.15L157.83,67.65M157.925,66.15L157.925,67.65M158.02,66.15L158.02,67.65M158.115,66.15L158.115,67.65M159.61,66.15L159.61,67.65M159.61,67.65L160.71,67.65M160.71,67.65L160.71,66.15M160.71,66.15L159.61,66.15M159.705,66.15L159.705,67.65M159.8,66.15L159.8,67.65M159.895,66.15L159.895,67.65M159.99,66.15L159.99,67.65M160.085,66.15L160.085,67.65M160.18,66.15L160.18,67.65M160.275,66.15L160.275,67.65M160.37,66.15L160.37,67.65M160.465,66.15L160.465,67.65M160.56,66.15L160.56,67.65M160.655,66.15L160.655,67.65M157.75,74.55L159,74.55M159,74.55L159,74.05M159,74.05L157.75,74.05M157.75,74.05L157.75,74.55M157.75,74.455L159,74.455M157.75,74.36L159,74.36M157.75,74.265L159,74.265M157.75,74.17L159,74.17M157.75,74.075L159,74.075M157.75,75.5L159,75.5M159,75.5L159,75M159,75L157.75,75M157.75,75L157.75,75.5M157.75,75.405L159,75.405M157.75,75.31L159,75.31M157.75,75.215L159,75.215M157.75,75.12L159,75.12M157.75,75.025L159,75.025M157.75,76.45L159,76.45M159,76.45L159,75.95M159,75.95L157.75,75.95M157.75,75.95L157.75,76.45M157.75,76.355L159,76.355M157.75,76.26L159,76.26M157.75,76.165L159,76.165M157.75,76.07L159,76.07M157.75,75.975L159,75.975M155,76.45L156.25,76.45M156.25,76.45L156.25,75.95M156.25,75.95L155,75.95M155,75.95L155,76.45M155,76.355L156.25,76.355M155,76.26L156.25,76.26M155,76.165L156.25,76.165M155,76.07L156.25,76.07M155,75.975L156.25,75.975M155,75.5L156.25,75.5M156.25,75.5L156.25,75M156.25,75L155,75M155,75L155,75.5M155,75.405L156.25,75.405M155,75.31L156.25,75.31M155,75.215L156.25,75.215M155,75.12L156.25,75.12M155,75.025L156.25,75.025M155,74.55L156.25,74.55M156.25,74.55L156.25,74.05M156.25,74.05L155,74.05M155,74.05L155,74.55M155,74.455L156.25,74.455M155,74.36L156.25,74.36M155,74.265L156.25,74.265M155,74.17L156.25,74.17M155,74.075L156.25,74.075M152.875,74.625L152.875,75.875M152.875,75.875L153.875,75.875M153.875,75.875L153.875,74.625M153.875,74.625L152.875,74.625M152.97,74.625L152.97,75.875M153.065,74.625L153.065,75.875M153.16,74.625L153.16,75.875M153.255,74.625L153.255,75.875M153.35,74.625L153.35,75.875M153.445,74.625L153.445,75.875M153.54,74.625L153.54,75.875M153.635,74.625L153.635,75.875M153.73,74.625L153.73,75.875M153.825,74.625L153.825,75.875M150.625,74.625L150.625,75.875M150.625,75.875L151.625,75.875M151.625,75.875L151.625,74.625M151.625,74.625L150.625,74.625M150.72,74.625L150.72,75.875M150.815,74.625L150.815,75.875M150.91,74.625L150.91,75.875M151.005,74.625L151.005,75.875M151.1,74.625L151.1,75.875M151.195,74.625L151.195,75.875M151.29,74.625L151.29,75.875M151.385,74.625L151.385,75.875M151.48,74.625L151.48,75.875M151.575,74.625L151.575,75.875M147,69.125L148.75,69.125M148.75,69.125L148.75,68.125M148.75,68.125L147,68.125M147,68.125L147,69.125M147,69.03L148.75,69.03M147,68.935L148.75,68.935M147,68.84L148.75,68.84M147,68.745L148.75,68.745M147,68.65L148.75,68.65M147,68.555L148.75,68.555M147,68.46L148.75,68.46M147,68.365L148.75,68.365M147,68.27L148.75,68.27M147,68.175L148.75,68.175M147,67.375L148.75,67.375M148.75,67.375L148.75,66.375M148.75,66.375L147,66.375M147,66.375L147,67.375M147,67.28L148.75,67.28M147,67.185L148.75,67.185M147,67.09L148.75,67.09M147,66.995L148.75,66.995M147,66.9L148.75,66.9M147,66.805L148.75,66.805M147,66.71L148.75,66.71M147,66.615L148.75,66.615M147,66.52L148.75,66.52M147,66.425L148.75,66.425M152.25,67.375L154,67.375M154,67.375L154,66.375M154,66.375L152.25,66.375M152.25,66.375L152.25,67.375M152.25,67.28L154,67.28M152.25,67.185L154,67.185M152.25,67.09L154,67.09M152.25,66.995L154,66.995M152.25,66.9L154,66.9M152.25,66.805L154,66.805M152.25,66.71L154,66.71M152.25,66.615L154,66.615M152.25,66.52L154,66.52M152.25,66.425L154,66.425M152.25,69.125L154,69.125M154,69.125L154,68.125M154,68.125L152.25,68.125M152.25,68.125L152.25,69.125M152.25,69.03L154,69.03M152.25,68.935L154,68.935M152.25,68.84L154,68.84M152.25,68.745L154,68.745M152.25,68.65L154,68.65M152.25,68.555L154,68.555M152.25,68.46L154,68.46M152.25,68.365L154,68.365M152.25,68.27L154,68.27M152.25,68.175L154,68.175"/></g><g stroke="none"><circle cx="158.89" cy="66.9" r="0.5"/><circle cx="157.62" cy="66.9" r="0.5"/><circle cx="156.35" cy="66.9" r="0.5"/><circle cx="161.43" cy="66.9" r="0.5"/><circle cx="160.16" cy="66.9" r="0.5"/><circle cx="155.08" cy="66.9" r="0.5"/><circle cx="150.5" cy="66.4" r="0.4"/><circle cx="150.5" cy="69.1" r="0.4"/><circle cx="153.81" cy="73.25" r="0.95"/><circle cx="153.81" cy="70.71" r="0.95"/><circle cx="148.73" cy="70.71" r="0.95"/><circle cx="158.89" cy="70.71" r="1.85"/></g></g>
<mask id="GTM"><use xlink:href="#GTS" class="mask"/></mask>
<mask id="GTN"><use xlink:href="#FIL" class="mask"/><use xlink:href="#GTS" class="black"/></mask>
<g id="DRL"><g class="pad"><circle cx="150.5" cy="69.1" r="0.35"/><circle cx="150.5" cy="66.4" r="0.35"/><circle cx="155.08" cy="66.9" r="0.4"/><circle cx="160.16" cy="66.9" r="0.4"/><circle cx="161.43" cy="66.9" r="0.4"/><circle cx="156.35" cy="66.9" r="0.4"/><circle cx="157.62" cy="66.9" r="0.4"/><circle cx="158.89" cy="66.9" r="0.4"/><circle cx="148.73" cy="73.25" r="0.4"/><circle cx="151.27" cy="73.25" r="0.4"/><circle cx="151.27" cy="70.71" r="0.4"/><circle cx="148.73" cy="70.71" r="0.6"/><circle cx="153.81" cy="70.71" r="0.6"/><circle cx="153.81" cy="73.25" r="0.6"/><circle cx="158.89" cy="70.71" r="1.6"/></g><g class="via"><circle cx="157" cy="74.625" r="0.15"/><circle cx="159.75" cy="76.075" r="0.15"/></g></g>
</defs>
<!-- Rendering View Port -->
<g transform="scale(1,-1)" clip-path="url(#BOARD)">
<g><use xlink:href="#FIL" class="regist"/>
<use xlink:href="#GTL" class="cover"/></g>
<g mask="url(#GTM)"><use xlink:href="#FIL" class="board"/>
<use xlink:href="#GTL" class="plate"/></g>
<g mask="url(#GTN)"><use xlink:href="#GTO" class="silk"/></g>
<use xlink:href="#DRL" class="drill"/>
<use xlink:href="#OUT" stroke="gray" stroke-width="0.05" fill="none"/>
</g>
<!-- Parts Preview -->
<g transform="scale(1,-1)" stroke-linecap="round" stroke-linejoin="round" stroke="gray" fill="gray" stroke-width="0.05">
<use xlink:href="#C0805_104" transform="translate(152.25,75.25),scale(1,1),rotate(180)"/>
<use xlink:href="#TS-1186U-B-A" transform="translate(150.5,67.75),scale(1,1),rotate(0)"/>
<use xlink:href="#ATtiny10" transform="translate(157,75.25),scale(1,1),rotate(0)"/>
</g>
</svg>
