<?xml version="1.0" standalone="no"?>
<svg width="389.764" height="803.15"  viewBox="-166.5 -139 33 68" xmlns="http://www.w3.org/2000/svg" xmlns:xlink="http://www.w3.org/1999/xlink" version="1.1">
<style>
text{stroke:none;font-weight:bold;font-family:"Consolas","Courier New",monospace;}
g.footprint{visibility:hidden;}
.drill{stroke:black;fill:black;stroke-width:0;}
.cover{stroke:rgb(4,145,142);fill:rgb(4,145,142);}
.silk{stroke:white;fill:white;}
.plate{stroke:rgb(153,153,153);fill:rgb(153,153,153);}
.regist{stroke:rgb(2,82,97);fill:rgb(2,82,97);}
.board{stroke:rgb(213,212,137);fill:rgb(213,212,137);}
.under{stroke:rgb(204,153,105);fill:rgb(204,153,105);}
.via{fill:rgb(2,82,97);}
.DRL{stroke:gray;fill:none;stroke-width:0.025;}
.black{stroke:black;fill:black;}
.mask{stroke:white;fill:white;}
</style>
<!-- Symbol and Parts Libraries Description -->
<defs>
<!-- Gerber Layer -->
<clipPath id="BOARD" clip-rule="evenodd"><path stroke="none" fill-rule="evenodd" d="M155.884,79.75A1,1,0,0,0,157.75,79.25L157.75,72L162.5,72A3,3,0,0,1,165.5,75L165.5,135A3,3,0,0,1,162.5,138L137.5,138A3,3,0,0,1,134.5,135L134.5,75A3,3,0,0,1,137.5,72L142.25,72L142.25,79.25A1,1,0,0,0,144.116,79.75Z"/></clipPath>
<g id="OUT" stroke-linecap="round" stroke-linejoin="round"><path d="M155.884,79.75A1,1,0,0,0,157.75,79.25L157.75,72L162.5,72A3,3,0,0,1,165.5,75L165.5,135A3,3,0,0,1,162.5,138L137.5,138A3,3,0,0,1,134.5,135L134.5,75A3,3,0,0,1,137.5,72L142.25,72L142.25,79.25A1,1,0,0,0,144.116,79.75Z"/></g>
<rect id="FIL" x="134.5" y="72" width="31" height="66"/>
<g id="GBL"><g fill="none" stroke-linecap="round" stroke-linejoin="round"><path stroke-width="0.1" d="M151.79,84.795L153.29,84.795M153.29,84.795L153.29,83.295M153.29,83.295L151.79,83.295M151.79,83.295L151.79,84.795M151.79,84.7L153.29,84.7M151.79,84.605L153.29,84.605M151.79,84.51L153.29,84.51M151.79,84.415L153.29,84.415M151.79,84.32L153.29,84.32M151.79,84.225L153.29,84.225M151.79,84.13L153.29,84.13M151.79,84.035L153.29,84.035M151.79,83.94L153.29,83.94M151.79,83.845L153.29,83.845M151.79,83.75L153.29,83.75M151.79,83.655L153.29,83.655M151.79,83.56L153.29,83.56M151.79,83.465L153.29,83.465M151.79,83.37L153.29,83.37M136.55,81.39L136.55,82.89M136.55,82.89L138.05,82.89M138.05,82.89L138.05,81.39M138.05,81.39L136.55,81.39M136.645,81.39L136.645,82.89M136.74,81.39L136.74,82.89M136.835,81.39L136.835,82.89M136.93,81.39L136.93,82.89M137.025,81.39L137.025,82.89M137.12,81.39L137.12,82.89M137.215,81.39L137.215,82.89M137.31,81.39L137.31,82.89M137.405,81.39L137.405,82.89M137.5,81.39L137.5,82.89M137.595,81.39L137.595,82.89M137.69,81.39L137.69,82.89M137.785,81.39L137.785,82.89M137.88,81.39L137.88,82.89M137.975,81.39L137.975,82.89M163.05,106.135L164.45,106.135M164.45,106.135L164.45,105.135M164.45,105.135L163.05,105.135M163.05,105.135L163.05,106.135M163.05,106.04L164.45,106.04M163.05,105.945L164.45,105.945M163.05,105.85L164.45,105.85M163.05,105.755L164.45,105.755M163.05,105.66L164.45,105.66M163.05,105.565L164.45,105.565M163.05,105.47L164.45,105.47M163.05,105.375L164.45,105.375M163.05,105.28L164.45,105.28M163.05,105.185L164.45,105.185M163.05,104.865L164.45,104.865M164.45,104.865L164.45,103.865M164.45,103.865L163.05,103.865M163.05,103.865L163.05,104.865M163.05,104.77L164.45,104.77M163.05,104.675L164.45,104.675M163.05,104.58L164.45,104.58M163.05,104.485L164.45,104.485M163.05,104.39L164.45,104.39M163.05,104.295L164.45,104.295M163.05,104.2L164.45,104.2M163.05,104.105L164.45,104.105M163.05,104.01L164.45,104.01M163.05,103.915L164.45,103.915M163.05,103.595L164.45,103.595M164.45,103.595L164.45,102.595M164.45,102.595L163.05,102.595M163.05,102.595L163.05,103.595M163.05,103.5L164.45,103.5M163.05,103.405L164.45,103.405M163.05,103.31L164.45,103.31M163.05,103.215L164.45,103.215M163.05,103.12L164.45,103.12M163.05,103.025L164.45,103.025M163.05,102.93L164.45,102.93M163.05,102.835L164.45,102.835M163.05,102.74L164.45,102.74M163.05,102.645L164.45,102.645M163.05,108.675L164.45,108.675M164.45,108.675L164.45,107.675M164.45,107.675L163.05,107.675M163.05,107.675L163.05,108.675M163.05,108.58L164.45,108.58M163.05,108.485L164.45,108.485M163.05,108.39L164.45,108.39M163.05,108.295L164.45,108.295M163.05,108.2L164.45,108.2M163.05,108.105L164.45,108.105M163.05,108.01L164.45,108.01M163.05,107.915L164.45,107.915M163.05,107.82L164.45,107.82M163.05,107.725L164.45,107.725M163.05,107.405L164.45,107.405M164.45,107.405L164.45,106.405M164.45,106.405L163.05,106.405M163.05,106.405L163.05,107.405M163.05,107.31L164.45,107.31M163.05,107.215L164.45,107.215M163.05,107.12L164.45,107.12M163.05,107.025L164.45,107.025M163.05,106.93L164.45,106.93M163.05,106.835L164.45,106.835M163.05,106.74L164.45,106.74M163.05,106.645L164.45,106.645M163.05,106.55L164.45,106.55M163.05,106.455L164.45,106.455M163.05,102.325L164.45,102.325M164.45,102.325L164.45,101.325M164.45,101.325L163.05,101.325M163.05,101.325L163.05,102.325M163.05,102.23L164.45,102.23M163.05,102.135L164.45,102.135M163.05,102.04L164.45,102.04M163.05,101.945L164.45,101.945M163.05,101.85L164.45,101.85M163.05,101.755L164.45,101.755M163.05,101.66L164.45,101.66M163.05,101.565L164.45,101.565M163.05,101.47L164.45,101.47M163.05,101.375L164.45,101.375M159.41,110.83L160.91,110.83M160.91,110.83L160.91,109.33M160.91,109.33L159.41,109.33M159.41,109.33L159.41,110.83M159.41,110.735L160.91,110.735M159.41,110.64L160.91,110.64M159.41,110.545L160.91,110.545M159.41,110.45L160.91,110.45M159.41,110.355L160.91,110.355M159.41,110.26L160.91,110.26M159.41,110.165L160.91,110.165M159.41,110.07L160.91,110.07M159.41,109.975L160.91,109.975M159.41,109.88L160.91,109.88M159.41,109.785L160.91,109.785M159.41,109.69L160.91,109.69M159.41,109.595L160.91,109.595M159.41,109.5L160.91,109.5M159.41,109.405L160.91,109.405"/><path stroke-width="0.25" d="M145.68,134.775L145.68,133.945M154.32,136.4L154.32,136M145.68,136.4L145.68,136M145.68,132.72L145.68,132.17M145.68,132.17L145.68,131.62M154.32,136L154.32,134.775M154.32,133.945L154.32,132.72M145.68,136L145.68,134.775M145.68,133.945L145.68,132.72M154.32,134.775L154.32,133.945M146.5,130L144,130M144,131L144,130M152.54,84.045L151.99,84.045M137.3,82.14L137.85,82.14M146.5,130L153.5,130M142.375,91.808L142.25,91.808M141.375,93.283L141.5,93.283M135.75,88.21L135.75,91.31M162.439,127.439L163.5,128.5M162.439,127.439A1.5,1.5,0,0,0,161.379,127M143.875,104.955L144.021,105.101M150.625,102.375L150.56,101.326M149.625,104.25L150.625,102.375M146.81,105.223L148.5,103.75M157.637,108.29L157.877,108.05M157.637,108.29A0.75,0.75,0,0,1,157.106,108.51M156.935,107.79L157.175,107.55M156.935,107.79A0.75,0.75,0,0,1,156.404,108.01M157.106,108.51L154.112,108.51M156.404,108.01L154.112,108.01M154.112,109.51A0.75,0.75,0,0,0,153.581,109.73M152.521,108.669A2.25,2.25,0,0,1,154.112,108.01M154.112,108.51A1.75,1.75,0,0,0,152.874,109.023M152.677,109.22A0.675,0.675,0,0,1,152.2,109.417M153.581,109.73L152.751,110.56M152.356,110.248L153.228,109.376M152.677,109.22L152.874,109.023M154.465,114.292L154.551,114.292M154.465,114.292A0.5,0.5,0,0,1,154.112,114.146M154.551,115.142L154.401,115.142M149.207,109.949L154.401,115.142M156,112.137L155.325,110.902M154.112,114.146L151.223,111.257M152.221,110.78L151.7,110.78M151.154,110.383L151.654,109.695M152.221,110.78A0.75,0.75,0,0,0,152.751,110.56M152.2,110.092L152.356,110.248M152.2,109.417A0.675,0.675,0,0,0,151.654,109.695M151.154,110.383A0.675,0.675,0,0,0,151.223,111.257M152.2,108.742L152.324,108.866M152.324,108.866L152.521,108.669M147.564,112.299L147.737,112.126M147.564,112.299A1.5,1.5,0,0,0,147.125,113.36M147.125,116.284L147.125,113.36M143.863,114.143L143.863,114.05M143.863,114.143A0.5,0.5,0,0,0,144.009,114.496M148.857,117.682L148.733,117.806M147.564,117.345A1.5,1.5,0,0,1,147.125,116.284M150.66,92L150.56,92M148.96,92L149.06,92M158.785,125.325L158.11,126M158.11,126L157.548,126M163.5,126.5L157.548,126.5M161.379,127L157.548,127M144.009,114.496L155.78,126.268M155.78,126.268A2.5,2.5,0,0,0,157.548,127M157.548,126.5A2,2,0,0,1,156.134,125.914M147.564,117.345L156.134,125.914M148.733,117.806L156.487,125.561M156.487,125.561A1.5,1.5,0,0,0,157.548,126M163.75,106.905L163.75,106.51M163.75,107.75L163,107.75M163.75,108.175L163.75,107.75M163,107.75A0.625,0.625,0,0,1,162.446,107.414M154.112,109.01A1.25,1.25,0,0,0,153.228,109.376M161.78,107.01A0.75,0.75,0,0,1,162.446,107.414M162.7,110.08L161.5,108.88M162.7,110.08L164,111.38M162.7,110.08L161,111.78M157.25,109.01L154.112,109.01M157.25,109.01A1.5,1.5,0,0,0,158.311,108.571M157.25,109.51L154.112,109.51M157.25,109.51A2,2,0,0,0,158.665,108.924M160.16,110.08L160.16,110.01M160.16,110.01L156.816,110.01M156.816,110.01A0.75,0.75,0,0,0,156.433,111.405M156.433,111.405A0.85,0.85,0,0,1,156.133,112.976M160.889,107.01L161.78,107.01M160.359,107.23L158.665,108.924M160.359,107.23A0.75,0.75,0,0,1,160.889,107.01M160.889,106.51L163.75,106.51M160.006,106.876L158.311,108.571M160.006,106.876A1.25,1.25,0,0,1,160.889,106.51M160.836,107.813L161.81,107.813M160.599,108.05L161.983,108.05M160.362,108.287L162.265,108.287M160.125,108.524L162.375,108.524M161.308,108.761L162.161,108.761M161.518,108.998L161.773,108.998M161.78,107.76L160.889,107.76M161.78,107.76A1.375,1.375,0,0,0,162.375,108.35M162.375,108.35L162.375,108.693M162.375,108.693A1.425,1.425,0,0,0,161.58,109.199M161.58,109.199A0.625,0.625,0,0,0,160.96,108.655M160.96,108.655L159.994,108.655M159.994,108.655L160.889,107.76M140.5,73.303L141.625,73.303M158.375,73.303L159.5,73.303M140.5,73.54L141.625,73.54M158.375,73.54L159.5,73.54M140.5,73.777L141.625,73.777M158.375,73.777L159.5,73.777M140.5,74.014L141.625,74.014M158.375,74.014L159.5,74.014M140.5,74.251L141.625,74.251M158.375,74.251L159.5,74.251M140.5,74.488L141.625,74.488M158.375,74.488L159.5,74.488M140.5,74.725L141.625,74.725M158.375,74.725L159.5,74.725M140.5,74.962L141.625,74.962M158.375,74.962L159.5,74.962M140.493,75.199L141.625,75.199M158.375,75.199L159.507,75.199M140.468,75.436L141.625,75.436M158.375,75.436L159.532,75.436M140.424,75.673L141.625,75.673M158.375,75.673L159.576,75.673M140.359,75.91L141.625,75.91M158.375,75.91L159.641,75.91M140.272,76.147L141.625,76.147M158.375,76.147L159.728,76.147M140.162,76.384L141.625,76.384M158.375,76.384L159.838,76.384M140.024,76.621L141.625,76.621M158.375,76.621L159.976,76.621M139.855,76.858L141.625,76.858M158.375,76.858L160.145,76.858M139.647,77.095L141.625,77.095M158.375,77.095L160.353,77.095M139.387,77.332L141.625,77.332M158.375,77.332L160.613,77.332M139.049,77.569L141.625,77.569M158.375,77.569L160.951,77.569M138.561,77.806L141.625,77.806M158.375,77.806L161.439,77.806M135.625,78.043L141.625,78.043M158.375,78.043L164.375,78.043M135.625,78.28L141.625,78.28M158.375,78.28L164.375,78.28M135.625,78.517L141.625,78.517M158.375,78.517L164.375,78.517M135.625,78.754L141.625,78.754M158.375,78.754L164.375,78.754M135.625,78.991L141.625,78.991M158.375,78.991L164.375,78.991M135.625,79.228L141.625,79.228M158.375,79.228L164.375,79.228M135.625,79.465L141.639,79.465M158.361,79.465L164.375,79.465M135.625,79.702L141.689,79.702M158.311,79.702L164.375,79.702M135.625,79.939L141.778,79.939M158.222,79.939L164.375,79.939M135.625,80.176L141.915,80.176M158.085,80.176L164.375,80.176M135.625,80.413L142.115,80.413M157.885,80.413L164.375,80.413M135.625,80.65L142.425,80.65M157.575,80.65L164.375,80.65M135.625,80.887L136.069,80.887M138.531,80.887L146.176,80.887M153.824,80.887L164.375,80.887M135.625,81.124L135.914,81.124M138.686,81.124L146.087,81.124M153.992,81.124L164.375,81.124M135.625,81.361L135.875,81.361M138.725,81.361L146.042,81.361M154.346,81.361L164.375,81.361M135.625,81.598L135.875,81.598M138.725,81.598L146.038,81.598M154.683,81.598L164.375,81.598M135.625,81.835L135.875,81.835M138.725,81.835L146.074,81.835M154.93,81.835L164.375,81.835M135.625,82.072L135.875,82.072M138.725,82.072L146.153,82.072M155.112,82.072L164.375,82.072M135.625,82.309L135.875,82.309M138.726,82.309L146.283,82.309M155.248,82.309L164.375,82.309M135.625,82.546L135.875,82.546M138.79,82.546L146.487,82.546M155.347,82.546L164.375,82.546M135.625,82.783L135.875,82.783M138.944,82.783L146.798,82.783M155.414,82.783L164.375,82.783M135.625,83.02L135.88,83.02M139.104,83.02L146.47,83.02M155.453,83.02L164.375,83.02M135.625,83.257L135.961,83.257M139.265,83.257L146.273,83.257M155.465,83.257L164.375,83.257M135.625,83.494L136.211,83.494M139.426,83.494L146.146,83.494M155.465,83.494L164.375,83.494M135.625,83.731L136.237,83.731M139.588,83.731L146.07,83.731M155.465,83.731L164.375,83.731M135.625,83.968L136.066,83.968M140.03,83.968L145.899,83.968M155.465,83.968L164.375,83.968M135.625,84.205L135.956,84.205M155.465,84.205L164.375,84.205M135.625,84.442L135.895,84.442M155.465,84.442L164.375,84.442M135.625,84.679L135.875,84.679M155.465,84.679L164.375,84.679M135.625,84.916L135.895,84.916M156.076,84.916L164.375,84.916M135.625,85.153L135.956,85.153M156.38,85.153L164.375,85.153M135.625,85.39L136.064,85.39M156.533,85.39L164.375,85.39M135.625,85.627L136.235,85.627M156.608,85.627L164.375,85.627M135.625,85.864L136.507,85.864M156.623,85.864L164.375,85.864M135.625,86.101L136.418,86.101M156.581,86.101L164.375,86.101M135.625,86.338L136.181,86.338M156.473,86.338L164.375,86.338M135.625,86.575L136.029,86.575M156.268,86.575L164.375,86.575M135.625,86.812L135.935,86.812M156.033,86.812L164.375,86.812M135.625,87.049L135.885,87.049M155.893,87.049L164.375,87.049M135.625,87.286L135.877,87.286M155.728,87.286L164.375,87.286M135.625,87.523L135.908,87.523M155.532,87.523L164.375,87.523M135.625,87.76L135.981,87.76M138.619,87.76L139.166,87.76M155.297,87.76L164.375,87.76M135.625,87.997L136.105,87.997M138.495,87.997L139.144,87.997M155.012,87.997L164.375,87.997M135.625,88.234L136.299,88.234M138.301,88.234L139.179,88.234M154.653,88.234L164.375,88.234M135.625,88.471L136.618,88.471M137.982,88.471L139.279,88.471M154.16,88.471L164.375,88.471M135.625,88.708L136.339,88.708M138.261,88.708L139.469,88.708M153.135,88.708L164.375,88.708M135.625,88.945L136.131,88.945M138.469,88.945L139.922,88.945M140.366,88.945L140.625,88.945M143.125,88.945L164.375,88.945M135.625,89.182L135.997,89.182M138.603,89.182L140.625,89.182M143.125,89.182L164.375,89.182M135.625,89.419L135.916,89.419M138.684,89.419L140.625,89.419M143.125,89.419L164.375,89.419M135.625,89.656L135.879,89.656M138.721,89.656L140.625,89.656M143.125,89.656L164.375,89.656M135.625,89.893L135.881,89.893M138.719,89.893L140.625,89.893M143.125,89.893L164.375,89.893M135.625,90.13L135.924,90.13M138.676,90.13L140.625,90.13M143.125,90.13L164.375,90.13M135.625,90.367L136.011,90.367M138.589,90.367L140.625,90.367M143.125,90.367L164.375,90.367M135.625,90.604L136.152,90.604M138.448,90.604L140.625,90.604M143.125,90.604L164.375,90.604M135.625,90.841L136.372,90.841M138.228,90.841L140.625,90.841M143.125,90.841L148.563,90.841M149.357,90.841L150.263,90.841M151.057,90.841L164.375,90.841M135.625,91.078L136.567,91.078M138.033,91.078L140.625,91.078M143.125,91.078L148.153,91.078M149.767,91.078L149.853,91.078M151.467,91.078L164.375,91.078M135.625,91.315L136.27,91.315M138.33,91.315L140.625,91.315M143.245,91.315L147.944,91.315M151.676,91.315L164.375,91.315M135.625,91.552L136.087,91.552M138.513,91.552L140.625,91.552M143.342,91.552L147.82,91.552M151.8,91.552L164.375,91.552M135.625,91.789L135.97,91.789M138.63,91.789L140.625,91.789M143.375,91.789L147.753,91.789M151.867,91.789L164.375,91.789M135.625,92.026L135.902,92.026M138.698,92.026L140.625,92.026M143.351,92.026L147.735,92.026M151.885,92.026L164.375,92.026M135.625,92.263L135.875,92.263M138.725,92.263L140.625,92.263M143.265,92.263L147.764,92.263M151.856,92.263L164.375,92.263M135.625,92.5L135.889,92.5M138.711,92.5L140.625,92.5M143.097,92.5L147.842,92.5M151.778,92.5L164.375,92.5M135.625,92.737L135.944,92.737M138.656,92.737L140.537,92.737M142.745,92.737L147.935,92.737M151.685,92.737L164.375,92.737M135.625,92.974L136.044,92.974M138.556,92.974L140.424,92.974M142.375,92.974L147.935,92.974M151.685,92.974L164.375,92.974M135.625,93.211L136.204,93.211M138.396,93.211L140.378,93.211M142.375,93.211L147.935,93.211M151.685,93.211L164.375,93.211M135.625,93.448L136.456,93.448M138.144,93.448L140.389,93.448M142.361,93.448L147.935,93.448M151.685,93.448L164.375,93.448M135.625,93.685L136.465,93.685M138.135,93.685L140.459,93.685M142.291,93.685L147.935,93.685M151.685,93.685L164.375,93.685M135.625,93.922L136.21,93.922M138.39,93.922L140.605,93.922M142.145,93.922L147.935,93.922M151.685,93.922L164.375,93.922M135.625,94.159L136.048,94.159M138.552,94.159L140.892,94.159M141.858,94.159L147.935,94.159M151.685,94.159L164.375,94.159M135.625,94.396L135.946,94.396M138.654,94.396L147.935,94.396M151.685,94.396L164.375,94.396M135.625,94.633L135.89,94.633M138.71,94.633L147.935,94.633M151.685,94.633L164.375,94.633M135.625,94.87L135.875,94.87M138.725,94.87L147.935,94.87M151.685,94.87L164.375,94.87M135.625,95.107L135.9,95.107M138.7,95.107L147.935,95.107M151.685,95.107L164.375,95.107M135.625,95.344L135.967,95.344M138.633,95.344L147.055,95.344M147.865,95.344L147.935,95.344M151.685,95.344L164.375,95.344M135.625,95.581L136.083,95.581M138.517,95.581L146.65,95.581M151.685,95.581L164.375,95.581M135.625,95.818L136.264,95.818M138.336,95.818L146.442,95.818M151.685,95.818L164.375,95.818M135.625,96.055L136.555,96.055M138.045,96.055L146.319,96.055M151.685,96.055L164.375,96.055M135.625,96.292L146.253,96.292M151.685,96.292L164.375,96.292M135.625,96.529L146.235,96.529M151.685,96.529L164.375,96.529M135.625,96.766L146.264,96.766M151.685,96.766L164.375,96.766M135.625,97.003L146.343,97.003M151.685,97.003L164.375,97.003M135.625,97.24L146.435,97.24M151.685,97.24L164.375,97.24M135.625,97.477L146.435,97.477M151.685,97.477L164.375,97.477M135.625,97.714L146.435,97.714M151.685,97.714L164.375,97.714M135.625,97.951L146.435,97.951M151.702,97.951L164.375,97.951M135.625,98.188L146.435,98.188M151.751,98.188L164.375,98.188M135.625,98.425L146.435,98.425M151.832,98.425L164.375,98.425M135.625,98.662L146.435,98.662M151.953,98.662L164.375,98.662M135.625,98.899L146.435,98.899M152.121,98.899L164.375,98.899M135.625,99.136L146.435,99.136M152.359,99.136L164.375,99.136M135.625,99.373L146.435,99.373M152.682,99.373L164.375,99.373M135.625,99.61L146.435,99.61M153.015,99.61L164.375,99.61M135.625,99.847L146.435,99.847M153.347,99.847L164.375,99.847M135.625,100.084L146.435,100.084M153.68,100.084L164.375,100.084M135.625,100.321L146.435,100.321M154.013,100.321L164.375,100.321M135.625,100.558L146.435,100.558M154.346,100.558L164.375,100.558M135.625,100.795L146.435,100.795M154.679,100.795L164.375,100.795M135.625,101.032L146.435,101.032M155.011,101.032L164.375,101.032M135.625,101.269L146.435,101.269M155.344,101.269L164.375,101.269M135.625,101.506L146.426,101.506M155.677,101.506L164.375,101.506M135.625,101.743L146.388,101.743M156.01,101.743L164.375,101.743M135.625,101.98L146.317,101.98M156.342,101.98L164.375,101.98M135.625,102.217L146.21,102.217M156.675,102.217L164.375,102.217M135.625,102.454L146.058,102.454M157.008,102.454L162.538,102.454M135.625,102.691L145.845,102.691M157.341,102.691L162.403,102.691M135.625,102.928L144.076,102.928M144.924,102.928L145.534,102.928M157.674,102.928L162.375,102.928M135.625,103.165L143.783,103.165M158.006,103.165L162.375,103.165M135.625,103.402L143.643,103.402M158.339,103.402L162.375,103.402M135.625,103.639L143.582,103.639M158.672,103.639L162.375,103.639M135.625,103.876L143.575,103.876M159.005,103.876L162.375,103.876M135.625,104.113L143.468,104.113M159.338,104.113L162.375,104.113M135.625,104.35L143.072,104.35M159.737,104.35L162.375,104.35M135.625,104.587L142.662,104.587M135.625,104.824L142.251,104.824M135.625,105.061L141.841,105.061M135.625,105.298L141.43,105.298M135.625,105.535L141.02,105.535M135.625,105.772L140.609,105.772M135.625,106.009L140.199,106.009M135.625,106.246L139.788,106.246M135.625,106.483L139.385,106.483M135.625,106.72L139.037,106.72M135.625,106.957L138.738,106.957M146.057,106.957L146.09,106.957M135.625,107.194L138.475,107.194M145.646,107.194L145.959,107.194M135.625,107.431L138.243,107.431M145.236,107.431L145.838,107.431M135.625,107.668L138.036,107.668M144.825,107.668L145.729,107.668M135.625,107.905L137.851,107.905M144.415,107.905L145.629,107.905M135.625,108.142L137.685,108.142M144.004,108.142L145.54,108.142M135.625,108.379L137.537,108.379M143.594,108.379L145.46,108.379M135.625,108.616L137.404,108.616M143.183,108.616L145.389,108.616M135.625,108.853L137.285,108.853M142.773,108.853L145.327,108.853M135.625,109.09L137.18,109.09M142.362,109.09L145.274,109.09M135.625,109.327L137.088,109.327M141.952,109.327L145.229,109.327M135.625,109.564L137.008,109.564M141.541,109.564L145.192,109.564M135.625,109.801L136.939,109.801M141.182,109.801L145.163,109.801M135.625,110.038L136.882,110.038M140.943,110.038L145.143,110.038M135.625,110.275L136.835,110.275M140.772,110.275L145.13,110.275M135.625,110.512L136.798,110.512M140.65,110.512L145.125,110.512M135.625,110.749L136.772,110.749M140.568,110.749L145.125,110.749M135.625,110.986L136.756,110.986M140.518,110.986L145.125,110.986M135.625,111.223L136.75,111.223M140.5,111.223L145.125,111.223M135.625,111.46L136.75,111.46M140.5,111.46L145.125,111.46M135.625,111.697L136.75,111.697M140.5,111.697L145.125,111.697M135.625,111.934L136.75,111.934M140.5,111.934L145.125,111.934M135.625,112.171L136.75,112.171M140.5,112.171L145.125,112.171M135.625,112.408L136.75,112.408M140.5,112.408L145.125,112.408M135.625,112.645L136.75,112.645M140.5,112.645L145.125,112.645M135.625,112.882L136.75,112.882M140.5,112.882L145.125,112.882M135.625,113.119L136.75,113.119M140.5,113.119L145.125,113.119M135.625,113.356L136.75,113.356M140.5,113.356L143.251,113.356M144.474,113.356L145.125,113.356M135.625,113.593L136.75,113.593M140.5,113.593L143.058,113.593M144.667,113.593L145.125,113.593M135.625,113.83L136.75,113.83M140.5,113.83L142.964,113.83M144.761,113.83L145.125,113.83M135.625,114.067L136.75,114.067M140.5,114.067L142.938,114.067M144.787,114.067L145.125,114.067M135.625,114.304L136.75,114.304M140.5,114.304L142.973,114.304M144.877,114.304L145.125,114.304M135.625,114.541L136.75,114.541M140.5,114.541L143.079,114.541M145.114,114.541L145.125,114.541M135.625,114.778L136.75,114.778M140.5,114.778L143.286,114.778M135.625,115.015L136.75,115.015M140.5,115.015L143.467,115.015M135.625,115.252L136.75,115.252M140.5,115.252L143.704,115.252M135.625,115.489L136.75,115.489M140.5,115.489L143.941,115.489M135.625,115.726L136.75,115.726M140.5,115.726L144.178,115.726M135.625,115.963L136.75,115.963M140.5,115.963L144.415,115.963M135.625,116.2L136.75,116.2M140.5,116.2L144.652,116.2M135.625,116.437L136.75,116.437M140.5,116.437L144.889,116.437M135.625,116.674L136.75,116.674M140.5,116.674L145.126,116.674M135.625,116.911L136.75,116.911M140.5,116.911L145.363,116.911M135.625,117.148L136.75,117.148M140.5,117.148L145.6,117.148M135.625,117.385L136.75,117.385M140.5,117.385L145.837,117.385M135.625,117.622L136.75,117.622M140.5,117.622L146.074,117.622M135.625,117.859L136.75,117.859M140.5,117.859L146.311,117.859M135.625,118.096L136.75,118.096M140.5,118.096L146.548,118.096M135.625,118.333L136.75,118.333M140.5,118.333L146.785,118.333M135.625,118.57L136.75,118.57M140.5,118.57L147.022,118.57M135.625,118.807L136.75,118.807M140.5,118.807L147.259,118.807M135.625,119.044L136.75,119.044M140.5,119.044L147.496,119.044M135.625,119.281L136.75,119.281M140.5,119.281L147.733,119.281M135.625,119.518L136.75,119.518M140.5,119.518L147.97,119.518M135.625,119.755L136.75,119.755M140.5,119.755L148.207,119.755M135.625,119.992L136.75,119.992M140.5,119.992L148.444,119.992M135.625,120.229L136.75,120.229M140.5,120.229L148.681,120.229M135.625,120.466L136.75,120.466M140.5,120.466L148.918,120.466M135.625,120.703L136.75,120.703M140.5,120.703L149.155,120.703M135.625,120.94L136.75,120.94M140.5,120.94L149.392,120.94M135.625,121.177L136.75,121.177M140.5,121.177L149.629,121.177M135.625,121.414L136.75,121.414M140.5,121.414L149.866,121.414M135.625,121.651L136.75,121.651M140.5,121.651L150.103,121.651M135.625,121.888L136.75,121.888M140.5,121.888L150.34,121.888M135.625,122.125L136.75,122.125M140.5,122.125L150.577,122.125M135.625,122.362L136.75,122.362M140.5,122.362L150.814,122.362M135.625,122.599L136.75,122.599M140.5,122.599L151.051,122.599M135.625,122.836L136.75,122.836M140.5,122.836L151.288,122.836M135.625,123.073L136.75,123.073M140.5,123.073L151.525,123.073M135.625,123.31L136.75,123.31M140.5,123.31L151.762,123.31M135.625,123.547L136.75,123.547M140.5,123.547L151.999,123.547M135.625,123.784L136.75,123.784M140.5,123.784L152.236,123.784M135.625,124.021L136.75,124.021M140.5,124.021L152.473,124.021M135.625,124.258L136.75,124.258M140.5,124.258L152.71,124.258M135.625,124.495L136.75,124.495M140.5,124.495L152.947,124.495M135.625,124.732L136.75,124.732M140.507,124.732L153.184,124.732M135.625,124.969L136.75,124.969M140.57,124.969L153.421,124.969M135.625,125.206L136.75,125.206M140.721,125.206L153.658,125.206M135.625,125.443L136.75,125.443M141.064,125.443L142.678,125.443M143.322,125.443L153.895,125.443M135.625,125.68L136.75,125.68M143.779,125.68L154.132,125.68M135.625,125.917L136.75,125.917M144,125.917L154.369,125.917M135.625,126.154L136.744,126.154M144.131,126.154L154.606,126.154M135.625,126.391L136.673,126.391M144.202,126.391L154.843,126.391M135.625,126.628L136.65,126.628M144.225,126.628L155.08,126.628M135.625,126.865L136.674,126.865M139.076,126.865L139.196,126.865M144.201,126.865L155.319,126.865M135.625,127.102L136.747,127.102M139.003,127.102L139.47,127.102M144.128,127.102L155.601,127.102M135.625,127.339L136.88,127.339M138.87,127.339L139.826,127.339M143.995,127.339L155.966,127.339M135.625,127.576L137.103,127.576M138.647,127.576L140.347,127.576M143.772,127.576L156.499,127.576M135.625,127.813L137.576,127.813M138.174,127.813L142.701,127.813M143.299,127.813L161.68,127.813M135.625,128.05L161.989,128.05M135.625,128.287L162.226,128.287M135.625,128.524L162.463,128.524M135.625,128.761L162.613,128.761M135.625,128.998L162.72,128.998M164.28,128.998L164.375,128.998M135.625,129.235L162.938,129.235M164.062,129.235L164.375,129.235M135.625,129.472L164.375,129.472M135.625,129.709L164.375,129.709M138.256,129.946L164.375,129.946M138.43,130.183L164.375,130.183M138.496,130.42L145.434,130.42M145.926,130.42L154.074,130.42M154.566,130.42L164.375,130.42M138.5,130.657L144.923,130.657M146.437,130.657L153.563,130.657M155.077,130.657L164.375,130.657M138.5,130.894L144.693,130.894M146.667,130.894L153.333,130.894M155.307,130.894L164.375,130.894M138.5,131.131L144.557,131.131M146.803,131.131L153.197,131.131M155.443,131.131L164.375,131.131M138.5,131.368L144.481,131.368M146.879,131.368L153.121,131.368M155.519,131.368L164.375,131.368M138.5,131.605L144.455,131.605M146.905,131.605L153.095,131.605M155.545,131.605L164.375,131.605M138.5,131.842L144.455,131.842M146.905,131.842L153.095,131.842M155.545,131.842L164.375,131.842M138.5,132.079L144.455,132.079M147.546,132.079L152.454,132.079M155.545,132.079L161.816,132.079M138.84,132.316L144.455,132.316M147.771,132.316L152.229,132.316M155.545,132.316L161.16,132.316M139.236,132.553L144.455,132.553M147.867,132.553L152.133,132.553M155.545,132.553L160.764,132.553M139.529,132.79L144.457,132.79M147.882,132.79L152.118,132.79M155.543,132.79L160.471,132.79M139.76,133.027L144.494,133.027M147.822,133.027L152.178,133.027M155.506,133.027L160.24,133.027M139.947,133.264L144.582,133.264M147.662,133.264L152.338,133.264M155.418,133.264L160.053,133.264M140.099,133.501L144.736,133.501M146.624,133.501L153.376,133.501M155.264,133.501L159.901,133.501M140.222,133.738L144.93,133.738M146.43,133.738L153.57,133.738M155.07,133.738L159.778,133.738M140.319,133.975L144.93,133.975M146.43,133.975L153.57,133.975M155.07,133.975L159.681,133.975M140.395,134.212L144.93,134.212M146.43,134.212L153.57,134.212M155.07,134.212L159.605,134.212M140.449,134.449L144.93,134.449M146.43,134.449L153.57,134.449M155.07,134.449L159.551,134.449M140.484,134.686L144.93,134.686M146.43,134.686L153.57,134.686M155.07,134.686L159.516,134.686M140.499,134.923L144.93,134.923M146.43,134.923L153.57,134.923M155.07,134.923L159.501,134.923M140.5,135.16L144.788,135.16M146.572,135.16L153.428,135.16M155.212,135.16L159.5,135.16M140.5,135.397L144.614,135.397M146.746,135.397L153.254,135.397M155.386,135.397L159.5,135.397M140.5,135.634L144.511,135.634M146.849,135.634L153.151,135.634M155.489,135.634L159.5,135.634M140.5,135.871L144.462,135.871M146.898,135.871L153.102,135.871M155.538,135.871L159.5,135.871M140.5,136.108L144.455,136.108M146.905,136.108L153.095,136.108M155.545,136.108L159.5,136.108M140.5,136.345L144.455,136.345M146.905,136.345L153.095,136.345M155.545,136.345L159.5,136.345M140.5,136.582L144.455,136.582M146.905,136.582L153.095,136.582M155.545,136.582L159.5,136.582M140.5,136.819L144.455,136.819M146.905,136.819L153.095,136.819M155.545,136.819L159.5,136.819M160.494,104.51L162.375,104.51M160.494,104.51A1.875,1.875,0,0,1,159.407,104.162M159.407,104.162L152.472,99.224M152.472,99.224A1.875,1.875,0,0,1,151.685,97.697M151.685,92.671L151.685,97.697M151.685,92.671A1.225,1.225,0,0,0,149.81,91.118M149.81,91.118A1.225,1.225,0,0,0,147.935,92.671M147.935,92.671L147.935,95.371M147.935,95.371A1.225,1.225,0,0,0,146.435,97.171M146.435,101.326L146.435,97.171M146.435,101.326A1.875,1.875,0,0,1,145.16,103.102M145.16,103.102A0.925,0.925,0,0,0,143.575,103.75M143.575,103.75L143.575,103.872M143.575,103.872A0.325,0.325,0,0,1,143.412,104.154M139.562,106.376L143.412,104.154M139.562,106.376A5.624,5.624,0,0,0,136.75,111.248M136.75,111.248L136.75,126.14M136.75,126.14A1.225,1.225,0,1,0,139.093,126.76M139.093,126.76A3.125,3.125,0,0,0,141.375,127.75M141.375,127.75L142.515,127.75M142.515,127.75A1.225,1.225,0,1,0,142.515,125.5M141.375,125.5L142.515,125.5M141.375,125.5A0.875,0.875,0,0,1,140.5,124.625M140.5,111.248L140.5,124.625M140.5,111.248A1.875,1.875,0,0,1,141.438,109.624M141.438,109.624L146.107,106.928M146.107,106.928A7.125,7.125,0,0,0,145.125,110.538M145.125,110.538L145.125,114.552M145.125,114.552L144.775,114.202M144.775,114.202A0.925,0.925,0,1,0,143.281,114.769M143.281,114.769A1.25,1.25,0,0,0,143.479,115.027M143.479,115.027L155.25,126.798M155.25,126.798A3.25,3.25,0,0,0,157.548,127.75M161.379,127.75L157.548,127.75M161.379,127.75A0.75,0.75,0,0,1,161.909,127.97M161.909,127.97L162.587,128.647M162.587,128.647A0.925,0.925,0,0,0,164.375,128.8M164.375,132L164.375,128.8M162.5,132L164.375,132M162.5,132A3,3,0,0,0,159.5,135M159.5,135L159.5,136.875M159.5,136.875L155.545,136.875M155.545,136L155.545,136.875M155.545,136A1.225,1.225,0,0,0,155.07,135.031M155.07,135.031L155.07,133.689M155.07,133.689A1.225,1.225,0,0,0,155.545,132.72M155.545,132.72L155.545,131.62M155.545,131.62A1.225,1.225,0,1,0,153.095,131.62M153.095,131.62L153.095,131.973M153.095,131.973A0.775,0.775,0,1,0,153.29,133.384M153.29,133.384A1.225,1.225,0,0,0,153.57,133.689M153.57,133.689L153.57,135.031M153.57,135.031A1.225,1.225,0,0,0,153.095,136M153.095,136L153.095,136.875M153.095,136.875L146.905,136.875M146.905,136L146.905,136.875M146.905,136A1.225,1.225,0,0,0,146.43,135.031M146.43,135.031L146.43,133.689M146.43,133.689A1.225,1.225,0,0,0,146.71,133.384M146.71,133.384A0.775,0.775,0,1,0,146.905,131.973M146.905,131.62L146.905,131.973M146.905,131.62A1.225,1.225,0,1,0,144.455,131.62M144.455,132.72L144.455,131.62M144.455,132.72A1.225,1.225,0,0,0,144.93,133.689M144.93,133.689L144.93,135.031M144.93,135.031A1.225,1.225,0,0,0,144.455,136M144.455,136L144.455,136.875M140.5,136.875L144.455,136.875M140.5,135L140.5,136.875M140.5,135A3,3,0,0,0,138.5,132.172M138.5,130.5L138.5,132.172M138.5,130.5A0.75,0.75,0,0,0,137.75,129.75M137.75,129.75L135.625,129.75M135.625,129.75L135.625,78M137.5,78L135.625,78M137.5,78A3,3,0,0,0,140.5,75M140.5,75L140.5,73.125M140.5,73.125L141.625,73.125M141.625,79.25L141.625,73.125M141.625,79.25A1.625,1.625,0,0,0,143.25,80.875M146.182,80.875L143.25,80.875M146.182,80.875A1.425,1.425,0,0,0,146.814,82.775M146.814,82.775A1.425,1.425,0,0,0,146.038,83.951M146.038,83.951A1.125,1.125,0,0,1,145.832,83.97M145.832,83.97L140.08,83.97M140.08,83.97A0.625,0.625,0,0,1,139.562,83.696M139.562,83.696L138.833,82.619M138.833,82.619A0.625,0.625,0,0,1,138.725,82.268M138.725,81.34L138.725,82.268M138.725,81.34A0.625,0.625,0,0,0,138.1,80.715M138.1,80.715L136.5,80.715M136.5,80.715A0.625,0.625,0,0,0,135.875,81.34M135.875,81.34L135.875,82.94M135.875,82.94A0.625,0.625,0,0,0,136.419,83.56M136.419,83.56A1.425,1.425,0,0,0,136.654,85.95M136.654,85.95A1.425,1.425,0,0,0,136.654,88.49M136.654,88.49A1.425,1.425,0,0,0,136.654,91.03M136.654,91.03A1.425,1.425,0,0,0,136.654,93.57M136.654,93.57A1.425,1.425,0,1,0,137.946,93.57M137.946,93.57A1.425,1.425,0,0,0,137.946,91.03M137.946,91.03A1.425,1.425,0,0,0,137.946,88.49M137.946,88.49A1.425,1.425,0,0,0,138.634,87.72M138.634,87.72L139.176,87.72M139.176,87.72A1,1,0,0,0,140.625,88.847M140.625,88.847L140.625,92.622M140.625,92.622A1,1,0,1,0,142.375,93.283M142.375,93.283L142.375,92.808M142.375,92.808A1,1,0,0,0,143.125,91.146M143.125,88.72L143.125,91.146M152.84,88.72L143.125,88.72M152.84,88.72A3.625,3.625,0,0,0,156.094,86.692M156.094,86.692A1,1,0,0,0,155.465,84.822M155.465,83.245L155.465,84.822M155.465,83.245A2.125,2.125,0,0,0,154.523,81.48M153.893,81.057L154.523,81.48M153.893,81.057A1.425,1.425,0,0,0,153.818,80.875M156.75,80.875L153.818,80.875M156.75,80.875A1.625,1.625,0,0,0,158.375,79.25M158.375,79.25L158.375,73.125M158.375,73.125L159.5,73.125M159.5,75L159.5,73.125M159.5,75A3,3,0,0,0,162.5,78M162.5,78L164.375,78M164.375,78L164.375,102.25M163,102.25L164.375,102.25M163,102.25A0.625,0.625,0,0,0,162.375,102.875M162.375,102.875L162.375,104.51M157,103.75L158.754,105.079M151.683,101.478L151.759,101.478M151.674,101.715L152.092,101.715M151.657,101.952L152.424,101.952M151.633,102.189L152.757,102.189M151.6,102.426L153.09,102.426M151.558,102.663L153.423,102.663M151.509,102.9L153.755,102.9M151.451,103.137L154.088,103.137M151.384,103.374L154.421,103.374M151.309,103.611L154.754,103.611M151.224,103.848L155.087,103.848M151.129,104.085L155.419,104.085M151.025,104.322L155.752,104.322M150.909,104.559L156.085,104.559M150.783,104.796L156.418,104.796M150.645,105.033L156.751,105.033M150.494,105.27L157.083,105.27M150.329,105.507L157.416,105.507M150.15,105.744L157.749,105.744M149.954,105.981L158.082,105.981M149.74,106.218L158.45,106.218M149.506,106.455L158.937,106.455M149.248,106.692L156.83,106.692M157.52,106.692L159.129,106.692M148.973,106.929L156.49,106.929M157.86,106.929L158.892,106.929M148.73,107.166L156.334,107.166M158.149,107.166L158.655,107.166M148.517,107.403L153.197,107.403M148.33,107.64L152.651,107.64M148.166,107.877L151.874,107.877M148.021,108.114L151.521,108.114M147.893,108.351L151.362,108.351M147.782,108.588L151.288,108.588M147.686,108.825L151.279,108.825M147.604,109.062L148.945,109.062M149.47,109.062L151.216,109.062M147.535,109.299L148.549,109.299M149.866,109.299L151.015,109.299M147.479,109.536L148.38,109.536M150.035,109.536L150.843,109.536M164.017,109.536L164.375,109.536M147.435,109.773L148.299,109.773M150.116,109.773L150.67,109.773M164.092,109.773L164.375,109.773M147.404,110.01L148.284,110.01M150.329,110.01L150.498,110.01M164.123,110.01L164.375,110.01M147.384,110.247L148.332,110.247M164.115,110.247L164.375,110.247M147.375,110.484L148.453,110.484M153.888,110.484L154.5,110.484M164.067,110.484L164.375,110.484M147.375,110.721L148.698,110.721M153.651,110.721L154.418,110.721M163.973,110.721L164.375,110.721M147.375,110.958L149.156,110.958M153.414,110.958L154.402,110.958M157.082,110.958L158.74,110.958M163.822,110.958L164.375,110.958M147.375,111.195L149.393,111.195M153.165,111.195L154.447,111.195M157.294,111.195L158.82,111.195M161.5,111.195L161.812,111.195M163.588,111.195L164.375,111.195M148.348,111.432L149.63,111.432M152.754,111.432L154.567,111.432M157.436,111.432L159.067,111.432M161.253,111.432L162.249,111.432M163.151,111.432L164.375,111.432M148.541,111.669L149.867,111.669M152.695,111.669L154.807,111.669M157.53,111.669L162.7,111.669M162.8,111.669L164.375,111.669M148.636,111.906L150.104,111.906M152.932,111.906L155.104,111.906M157.583,111.906L162.112,111.906M163.288,111.906L164.375,111.906M148.662,112.143L150.341,112.143M153.169,112.143L155.075,112.143M157.6,112.143L161.908,112.143M163.492,112.143L164.375,112.143M148.627,112.38L150.578,112.38M153.406,112.38L155.108,112.38M157.581,112.38L161.807,112.38M163.593,112.38L164.375,112.38M148.521,112.617L150.815,112.617M153.643,112.617L155.209,112.617M157.526,112.617L161.775,112.617M163.625,112.617L164.375,112.617M148.308,112.854L151.052,112.854M153.88,112.854L155.216,112.854M157.43,112.854L161.805,112.854M163.595,112.854L164.375,112.854M147.925,113.091L151.289,113.091M154.117,113.091L155.215,113.091M157.284,113.091L161.904,113.091M163.496,113.091L164.375,113.091M147.876,113.328L151.526,113.328M154.354,113.328L155.277,113.328M157.068,113.328L162.105,113.328M163.295,113.328L164.375,113.328M147.875,113.565L151.763,113.565M155.123,113.565L155.419,113.565M156.846,113.565L164.375,113.565M147.875,113.802L152,113.802M155.336,113.802L155.716,113.802M156.549,113.802L164.375,113.802M147.875,114.039L152.237,114.039M155.441,114.039L164.375,114.039M147.875,114.276L152.474,114.276M155.476,114.276L164.375,114.276M147.875,114.513L152.711,114.513M155.45,114.513L164.375,114.513M147.875,114.75L152.948,114.75M155.389,114.75L164.375,114.75M147.875,114.987L153.185,114.987M155.463,114.987L164.375,114.987M147.875,115.224L153.422,115.224M155.473,115.224L164.375,115.224M147.875,115.461L153.659,115.461M155.42,115.461L164.375,115.461M147.875,115.698L153.812,115.698M155.291,115.698L164.375,115.698M147.875,115.935L154.074,115.935M155.028,115.935L164.375,115.935M147.875,116.172L164.375,116.172M147.885,116.409L164.375,116.409M147.968,116.646L164.375,116.646M148.163,116.883L148.391,116.883M149.322,116.883L164.375,116.883M149.591,117.12L164.375,117.12M149.722,117.357L164.375,117.357M149.777,117.594L164.375,117.594M149.818,117.831L164.375,117.831M150.055,118.068L164.375,118.068M150.292,118.305L158.511,118.305M159.489,118.305L161.511,118.305M162.489,118.305L164.375,118.305M150.529,118.542L158.284,118.542M159.716,118.542L161.284,118.542M162.716,118.542L164.375,118.542M150.766,118.779L158.179,118.779M159.821,118.779L161.179,118.779M162.821,118.779L164.375,118.779M151.003,119.016L158.15,119.016M159.85,119.016L161.15,119.016M162.85,119.016L164.375,119.016M151.24,119.253L158.188,119.253M159.812,119.253L161.188,119.253M162.812,119.253L164.375,119.253M151.477,119.49L158.305,119.49M159.695,119.49L161.305,119.49M162.695,119.49L164.375,119.49M151.714,119.727L158.559,119.727M159.441,119.727L161.559,119.727M162.441,119.727L164.375,119.727M151.951,119.964L164.375,119.964M152.188,120.201L164.375,120.201M152.425,120.438L164.375,120.438M152.662,120.675L164.375,120.675M152.899,120.912L164.375,120.912M153.136,121.149L164.375,121.149M153.373,121.386L164.375,121.386M153.61,121.623L164.375,121.623M153.847,121.86L164.375,121.86M154.084,122.097L164.375,122.097M154.321,122.334L164.375,122.334M154.558,122.571L164.375,122.571M154.795,122.808L164.375,122.808M155.032,123.045L164.375,123.045M155.269,123.282L164.375,123.282M155.506,123.519L164.375,123.519M155.743,123.756L164.375,123.756M155.98,123.993L164.375,123.993M156.217,124.23L164.375,124.23M156.454,124.467L158.44,124.467M159.13,124.467L164.375,124.467M156.691,124.704L158.099,124.704M159.47,124.704L164.375,124.704M156.928,124.941L157.943,124.941M159.626,124.941L164.375,124.941M157.227,125.178L157.872,125.178M159.698,125.178L164.375,125.178M159.706,125.415L164.375,125.415M159.65,125.652L163.131,125.652M163.869,125.652L164.375,125.652M164.194,125.889L164.375,125.889M164.346,126.126L164.375,126.126M162.7,111.505A1.425,1.425,0,0,1,161.58,110.961M162.7,111.695L162.7,111.505M162.7,111.695A0.925,0.925,0,1,0,162.8,111.7M162.8,111.7L162.8,111.501M162.8,111.501A1.425,1.425,0,0,0,163.924,109.35M164.375,109.35L163.924,109.35M164.375,118.9L164.375,109.35M162.844,118.9L164.375,118.9M162.844,118.9A0.85,0.85,0,0,0,161.156,118.9M159.844,118.9L161.156,118.9M159.85,119A0.85,0.85,0,1,1,159.844,118.9M159.85,119L161.15,119M161.15,119A0.85,0.85,0,1,0,162.85,119M162.85,119L164.375,119M164.375,126.2L164.375,119M162.959,125.75A0.925,0.925,0,0,1,164.375,126.2M159.607,125.75L162.959,125.75M159.607,125.75A0.925,0.925,0,1,0,157.863,125.25M157.863,125.25L157.548,125.25M157.548,125.25A0.75,0.75,0,0,1,157.018,125.03M149.775,117.788L157.018,125.03M149.775,117.788A0.925,0.925,0,0,0,148.258,116.977M148.258,116.977L148.095,116.814M148.095,116.814A0.75,0.75,0,0,1,147.875,116.284M147.875,116.284L147.875,113.36M147.875,113.36A0.75,0.75,0,0,1,147.954,113.026M147.954,113.026A0.925,0.925,0,1,0,147.375,111.275M147.375,110.538L147.375,111.275M147.375,110.538A4.875,4.875,0,0,1,149.126,106.796M149.126,106.796A7.125,7.125,0,0,0,151.684,101.425M151.684,101.425L158.102,105.995M158.102,105.995A4.125,4.125,0,0,0,159.252,106.569M159.252,106.569L158.476,107.345M158.476,107.345A0.925,0.925,0,0,0,158.001,107.133M158.001,107.133A0.925,0.925,0,0,0,156.297,107.26M156.297,107.26L154.112,107.26M154.112,107.26A3,3,0,0,0,152.353,107.83M152.353,107.83A0.925,0.925,0,0,0,151.307,108.982M151.307,108.982A1.425,1.425,0,0,0,151.048,109.254M151.048,109.254L150.427,110.108M150.427,110.108L150.121,109.801M150.121,109.801A0.925,0.925,0,1,0,149.06,110.862M149.06,110.862L153.698,115.5M153.698,115.5A0.925,0.925,0,1,0,155.373,114.717M155.373,114.717A0.925,0.925,0,0,0,154.405,113.379M152.525,111.499L154.405,113.379M153.281,111.09A1.5,1.5,0,0,1,152.525,111.499M154.112,110.26L153.281,111.09M154.659,110.26L154.112,110.26M154.659,110.26A0.925,0.925,0,0,0,155.135,111.808M155.135,111.808A0.925,0.925,0,0,0,155.255,112.684M155.255,112.684A0.925,0.925,0,0,0,156.936,113.434M156.936,113.434A1.599,1.599,0,0,0,156.816,110.76M156.816,110.76L158.735,110.76M158.735,110.88L158.735,110.76M158.735,110.88A0.625,0.625,0,0,0,159.36,111.505M160.96,111.505L159.36,111.505M160.96,111.505A0.625,0.625,0,0,0,161.58,110.961"/><path stroke-width="0.5" d="M137.3,89.76L138.65,88.41M137.3,89.76L138.6,91.06M151.99,84.845L151.99,84.045M151.99,84.845A0.75,0.75,0,0,1,151.24,85.595M138.838,84.187A1.501,1.501,0,0,0,140.08,84.845M151.24,85.595L140.08,85.595M137.3,84.68L139.266,85.443M139.266,85.443A2.25,2.25,0,0,0,140.08,85.595M138.108,83.11L138.838,84.187M137.85,82.268L137.85,82.14M137.85,82.268A1.5,1.5,0,0,0,138.108,83.11M147.246,84.259L147.46,84.045M145.832,84.845L140.08,84.845M145.832,84.845A2,2,0,0,0,147.246,84.259M140.144,87.97L140.144,87.845M155.504,85.778A2.75,2.75,0,0,1,152.84,87.845M155.625,85.809L155.504,85.778M143.125,87.845L152.84,87.845M143.125,87.845A0.875,0.875,0,0,0,142.25,88.72M140.625,87.845L140.144,87.845M140.625,87.845A0.875,0.875,0,0,1,141.5,88.72M142.25,88.72L142.25,91.808M141.5,88.72L141.5,93.283M137.3,89.76L135.75,88.21M137.3,89.76L135.75,91.31"/><path stroke-width="0.6" d="M143.875,104.955A1.25,1.25,0,0,0,144.5,103.872M144.5,103.872L144.5,103.75"/><path stroke-width="1" d="M147.46,81.505L146,81.505M137.486,87.034L137.3,87.22M137.486,87.034A1.5,1.5,0,0,1,138.546,86.595M152.84,86.595A1.5,1.5,0,0,0,154.34,85.095M154.34,83.245L154.34,85.095M152.54,81.505L153.897,82.414M153.897,82.414A1,1,0,0,1,154.34,83.245M138.546,86.595L152.84,86.595M141.375,126.625L143,126.625M140.875,108.65L146.81,105.223M140.875,108.65A3,3,0,0,0,139.375,111.248M140.125,107.351L144.021,105.101M146.06,103.924L144.021,105.101M146.06,103.924A3,3,0,0,0,147.56,101.326M146.81,105.223A4.5,4.5,0,0,0,149.06,101.326M150.56,101.326A6,6,0,0,1,148.405,105.932M148.405,105.932A6,6,0,0,0,146.25,110.538M146.25,115.5L146.25,110.538M149.06,101.326L149.06,92M147.56,101.326L147.56,96.5M147.46,96.5L147.56,96.5M141.375,126.625A2,2,0,0,1,139.375,124.625M139.375,111.248L139.375,124.625M137.875,126.625L137.875,111.248M137.875,111.248A4.5,4.5,0,0,1,140.125,107.351M150.56,101.326L150.56,97.697M150.56,92L150.56,97.697M150.56,97.697A3,3,0,0,0,151.82,100.14M160.494,105.635L163.75,105.635M158.754,105.079L151.82,100.14M158.754,105.079A3,3,0,0,0,160.494,105.635"/><path stroke-width="1.2" d="M154.32,136.8L154.32,136M145.68,136.8L145.68,136M145.68,132.72L145.68,131.62M154.32,132.72L154.32,131.62"/></g><g stroke="none"><circle cx="144" cy="131" r="0.3"/><circle cx="153.5" cy="130" r="0.375"/><circle cx="146.5" cy="130" r="0.375"/><circle cx="152.54" cy="81.505" r="0.8"/><circle cx="150" cy="84.045" r="0.8"/><circle cx="150" cy="81.505" r="0.8"/><circle cx="147.46" cy="84.045" r="0.8"/><circle cx="147.46" cy="81.505" r="0.8"/><circle cx="137.3" cy="84.68" r="0.8"/><circle cx="137.3" cy="87.22" r="0.8"/><circle cx="137.3" cy="89.76" r="0.8"/><circle cx="137.3" cy="92.3" r="0.8"/><circle cx="137.3" cy="94.84" r="0.8"/><circle cx="158.785" cy="125.325" r="0.3"/><circle cx="140.144" cy="87.97" r="0.375"/><circle cx="136" cy="129" r="0.3"/><circle cx="141" cy="133" r="0.3"/><circle cx="141" cy="130" r="0.3"/><circle cx="160" cy="129" r="0.3"/><circle cx="160" cy="132" r="0.3"/><circle cx="148" cy="136" r="0.3"/><circle cx="152" cy="136" r="0.3"/><circle cx="155.625" cy="85.809" r="0.375"/><circle cx="143" cy="126.625" r="0.6"/><circle cx="137.875" cy="126.625" r="0.6"/><circle cx="147.46" cy="96.5" r="0.6"/><circle cx="150.66" cy="92" r="0.6"/><circle cx="148.96" cy="92" r="0.6"/><circle cx="141.375" cy="93.283" r="0.375"/><circle cx="142.375" cy="91.808" r="0.375"/><circle cx="162" cy="101" r="0.3"/><circle cx="156" cy="99" r="0.3"/><circle cx="164" cy="99" r="0.3"/><circle cx="144" cy="99" r="0.3"/><circle cx="154" cy="93" r="0.3"/><circle cx="146" cy="93" r="0.3"/><circle cx="144" cy="95" r="0.3"/><circle cx="160" cy="77" r="0.3"/><circle cx="140" cy="77" r="0.3"/><circle cx="142" cy="81" r="0.3"/><circle cx="136" cy="79" r="0.3"/><circle cx="140" cy="83" r="0.3"/><circle cx="144" cy="83" r="0.3"/><circle cx="140" cy="99" r="0.3"/><circle cx="136" cy="99" r="0.3"/><circle cx="138" cy="97" r="0.3"/><circle cx="138" cy="101" r="0.3"/><circle cx="136" cy="125" r="0.3"/><circle cx="142" cy="125" r="0.3"/><circle cx="150" cy="125" r="0.3"/><circle cx="145" cy="124" r="0.3"/><circle cx="146" cy="83" r="0.3"/><circle cx="144" cy="89" r="0.3"/><circle cx="135.75" cy="131.5" r="0.375"/><circle cx="163.5" cy="128.5" r="0.3"/><circle cx="163.5" cy="126.5" r="0.3"/><circle cx="146.25" cy="115.5" r="0.375"/><circle cx="144.5" cy="103.75" r="0.3"/><circle cx="143.863" cy="114.05" r="0.3"/><circle cx="141.125" cy="111.375" r="0.3"/><circle cx="137" cy="107.625" r="0.3"/><circle cx="141" cy="117.75" r="0.3"/><circle cx="150" cy="114.707" r="0.3"/><circle cx="150.707" cy="114" r="0.3"/><circle cx="149.293" cy="114" r="0.3"/><circle cx="150" cy="113.293" r="0.3"/><circle cx="151.7" cy="110.78" r="0.3"/><circle cx="147.737" cy="112.126" r="0.3"/><circle cx="148.857" cy="117.682" r="0.3"/><circle cx="155.325" cy="110.902" r="0.3"/><circle cx="156" cy="112.137" r="0.3"/><circle cx="152.2" cy="110.092" r="0.3"/><circle cx="152.2" cy="108.742" r="0.3"/><circle cx="157.175" cy="107.55" r="0.3"/><circle cx="157.877" cy="108.05" r="0.3"/><circle cx="148.5" cy="103.75" r="0.3"/><circle cx="150.625" cy="102.375" r="0.3"/><circle cx="149.207" cy="109.949" r="0.3"/><circle cx="154.75" cy="105.875" r="0.3"/><circle cx="157" cy="103.75" r="0.3"/><circle cx="146" cy="98.5" r="0.3"/><circle cx="149.625" cy="104.25" r="0.3"/><circle cx="148" cy="110.5" r="0.3"/><circle cx="154.551" cy="114.292" r="0.3"/><circle cx="154.551" cy="115.142" r="0.3"/><circle cx="152" cy="106" r="0.3"/><circle cx="150" cy="108" r="0.3"/><circle cx="159" cy="112" r="0.3"/><circle cx="144" cy="92" r="0.3"/><circle cx="140" cy="103" r="0.3"/><circle cx="136" cy="103" r="0.3"/><circle cx="145" cy="108.5" r="0.3"/><circle cx="143.5" cy="111.5" r="0.3"/><circle cx="150" cy="122.5" r="0.3"/><circle cx="154.5" cy="120.5" r="0.3"/><circle cx="142" cy="122" r="0.3"/><circle cx="136" cy="122" r="0.3"/><circle cx="145" cy="119" r="0.3"/><circle cx="150" cy="117" r="0.3"/><circle cx="162.7" cy="110.08" r="0.8"/><circle cx="156.133" cy="112.976" r="0.3"/><circle cx="156.5" cy="114.25" r="0.3"/><circle cx="152" cy="102" r="0.3"/><circle cx="164" cy="85" r="0.3"/><circle cx="164" cy="81" r="0.3"/><circle cx="162" cy="83" r="0.3"/><circle cx="162" cy="79" r="0.3"/><circle cx="160" cy="81" r="0.3"/><circle cx="163" cy="92" r="0.3"/><circle cx="162" cy="86.5" r="0.3"/><circle cx="157.5" cy="92" r="0.3"/><circle cx="161" cy="93.5" r="0.3"/><circle cx="161" cy="90.5" r="0.3"/></g></g>
<g id="GBO"><g fill="none" stroke-linecap="round" stroke-linejoin="round"><path stroke-width="0.15" d="M144.988,82.005L144.863,82.13M144.863,82.13L144.863,82.38M144.863,82.38L144.988,82.505M144.988,82.505L145.488,82.505M145.488,82.505L145.613,82.38M145.613,82.38L145.613,82.13M145.613,82.13L145.488,82.005M144.863,81.755L145.613,81.755M144.863,81.755L145.613,81.255M145.613,81.255L144.863,81.255M145.613,80.63L145.613,80.88M145.613,80.755L144.863,80.755M144.988,80.88L144.863,80.755M151.52,85.565L151.645,85.44M151.645,85.44L151.645,85.19M151.645,85.19L151.52,85.065M151.52,85.065L151.395,85.065M151.395,85.065L151.27,85.19M151.27,85.19L151.145,85.065M151.145,85.065L151.02,85.065M151.02,85.065L150.895,85.19M150.895,85.19L150.895,85.44M150.895,85.44L151.02,85.565M151.27,85.19L151.27,85.315M154.185,85.19L154.185,85.44M154.185,85.315L153.435,85.315M153.56,85.44L153.435,85.315M148.355,85.565L148.605,85.565M148.605,85.565L148.605,85.19M148.605,85.19L148.73,85.065M148.73,85.065L148.98,85.065M148.98,85.065L149.105,85.19M149.105,85.19L149.105,85.44M149.105,85.44L148.98,85.565M148.355,85.065L148.355,85.565M154.06,82.208L154.185,82.208M154.185,82.208L154.185,82.708M154.185,82.708L154.06,82.708M154.06,82.708L153.685,82.208M153.685,82.208L153.56,82.208M153.56,82.208L153.435,82.333M153.435,82.333L153.435,82.583M153.435,82.583L153.56,82.708M151.645,82.333L150.895,82.333M150.895,82.583L151.395,82.708M151.395,82.708L151.395,82.208M148.48,82.208L148.355,82.333M148.355,82.333L148.355,82.583M148.355,82.583L148.48,82.708M148.48,82.708L148.98,82.708M148.98,82.708L149.105,82.583M149.105,82.583L149.105,82.333M149.105,82.333L148.98,82.208M148.98,82.208L148.855,82.208M148.855,82.208L148.73,82.333M148.73,82.333L148.73,82.52M147.125,134.625L147.125,135.25M147.125,135.25L147.25,135.375M147.25,135.375L147.5,135.375M147.5,135.375L147.625,135.25M147.625,135.25L147.625,134.625M148.375,134.75L148.25,134.625M148.25,134.625L148,134.625M148,134.625L147.875,134.75M147.875,134.75L147.875,134.875M147.875,134.875L148.375,135.125M148.375,135.125L148.375,135.25M148.375,135.25L148.25,135.375M148.25,135.375L148,135.375M148,135.375L147.875,135.25M148.625,134.625L148.625,135.375M148.625,135.375L149,135.375M149,135.375L149.125,135.25M149.125,135.25L149.125,135.125M149.125,135.125L149,135M148.625,134.625L149,134.625M149,134.625L149.125,134.75M149.125,134.75L149.125,134.875M149.125,134.875L149,135M149,135L148.813,135M149.875,135.25L149.875,135.375M149.875,135.375L149.375,135.375M149.375,135.375L149.375,135.25M149.375,135.25L149.875,134.875M149.875,134.875L149.875,134.75M149.875,134.75L149.75,134.625M149.75,134.625L149.5,134.625M149.5,134.625L149.375,134.75M150.875,134.75L150.875,135.25M150.875,135.25L151,135.375M151,135.375L151.25,135.375M151.25,135.375L151.375,135.25M151.375,135.25L151.375,134.75M151.375,134.75L151.25,134.625M151.25,134.625L151,134.625M151,134.625L150.875,134.75M151.625,135L152.125,135M152.875,134.75L152.75,134.625M152.75,134.625L152.5,134.625M152.5,134.625L152.375,134.75M152.375,134.75L152.375,135.25M152.375,135.25L152.5,135.375M152.5,135.375L152.75,135.375M152.75,135.375L152.875,135.25M149.5,133.75L149.375,133.625M149.375,133.625L149.125,133.625M149.125,133.625L149,133.75M149,133.75L149,134.25M149,134.25L149.125,134.375M149.125,134.375L149.375,134.375M149.375,134.375L149.5,134.25M149.75,133.625L149.75,134.375M149.75,133.625L150.25,134.375M150.25,134.375L150.25,133.625M150.5,134.25L150.625,134.375M150.625,134.375L150.875,134.375M150.875,134.375L151,134.25M151,134.25L151,134.125M151,134.125L150.875,134M150.875,134L151,133.875M151,133.875L151,133.75M151,133.75L150.875,133.625M150.875,133.625L150.625,133.625M150.625,133.625L150.5,133.75M150.875,134L150.75,134M137.508,80.091L137.092,80.091M137.451,80.233L137.149,80.233M137.394,80.375L137.206,80.375M137.337,80.517L137.263,80.517M137.3,80.61L137.05,79.985M137.55,79.985L137.3,80.61M137.05,79.985L137.55,79.985M137.8,79.215L137.925,79.34M137.925,79.34L138.175,79.34M138.175,79.34L138.3,79.215M138.3,79.215L138.3,78.715M138.3,78.715L138.175,78.59M138.175,78.59L137.925,78.59M137.925,78.59L137.8,78.715M137.55,79.34L137.55,78.59M137.55,79.34L137.05,78.59M137.05,78.59L137.05,79.34M136.3,78.715L136.3,78.59M136.3,78.59L136.8,78.59M136.8,78.59L136.8,78.715M136.8,78.715L136.3,79.09M136.3,79.09L136.3,79.215M136.3,79.215L136.425,79.34M136.425,79.34L136.675,79.34M136.675,79.34L136.8,79.215M160.75,102.125L160.875,102.25M160.875,102.25L161.125,102.25M161.125,102.25L161.25,102.125M161.25,102.125L161.25,101.625M161.25,101.625L161.125,101.5M161.125,101.5L160.875,101.5M160.875,101.5L160.75,101.625M160.75,101.625L160.75,101.75M160.75,101.75L160.875,101.875M160.875,101.875L161.062,101.875M159.25,102.125L159.375,102.25M159.375,102.25L159.625,102.25M159.625,102.25L159.75,102.125M159.75,102.125L159.75,101.625M159.75,101.625L159.625,101.5M159.25,101.5L159.25,101.875M159.25,101.875L159.5,101.875M159.625,101.5L159.5,101.5M159,102.25L159,101.5M159,102.25L158.5,101.5M158.5,101.5L158.5,102.25M158.25,101.5L157.875,101.5M157.875,101.5L157.75,101.625M157.75,101.625L157.75,102.125M157.75,102.125L157.875,102.25M157.875,102.25L158.25,102.25M158.25,102.063L158.25,101.5M161.25,107.875L161.125,107.75M161.125,107.75L160.875,107.75M160.875,107.75L160.75,107.875M160.75,107.875L160.75,108M160.75,108L160.875,108.125M160.875,108.125L160.75,108.25M160.75,108.25L160.75,108.375M160.75,108.375L160.875,108.5M160.875,108.5L161.125,108.5M161.125,108.5L161.25,108.375M160.875,108.125L161,108.125M159.75,108.5L159.75,107.75M159.25,108.5L159.25,107.75M159.375,108.125L159.625,108.125M159,108.5L158.5,108.5M158.75,108.5L158.75,107.75M157.75,108.375L157.875,108.5M157.875,108.5L158.125,108.5M158.125,108.5L158.25,108.375M158.25,108.375L158.25,107.875M158.25,107.875L158.125,107.75M158.125,107.75L157.875,107.75M157.875,107.75L157.75,107.875M157.5,108.5L157.5,107.75M157.5,108.5L157.125,108.5M157.125,108.5L157,108.375M157,108.375L157,108.25M157,108.25L157.125,108.125M157.125,108.125L157.375,108.125M157,107.75L157.125,108.125M160.875,106.5L160.875,107.25M161.125,107.25L161.25,106.75M161.25,106.75L160.75,106.75M159.75,107.25L159.75,106.5M159.25,107.25L159.25,106.5M159.375,106.875L159.625,106.875M159,107.25L159,106.5M159,107.25L158.625,107.25M158.625,107.25L158.5,107.125M158.5,107.125L158.5,107M158.5,107L158.625,106.875M158.625,106.875L158.875,106.875M158.5,106.5L158.625,106.875M157.75,107.125L157.875,107.25M157.875,107.25L158.125,107.25M158.125,107.25L158.25,107.125M158.25,107.125L158.25,106.625M158.25,106.625L158.125,106.5M158.125,106.5L157.875,106.5M157.875,106.5L157.75,106.625M157.5,107.25L157,107.25M157.25,107.25L157.25,106.5M160.75,105.375L160.75,105.25M160.75,105.25L161.25,105.25M161.25,105.25L161.25,105.375M161.25,105.375L160.75,105.75M160.75,105.75L160.75,105.875M160.75,105.875L160.875,106M160.875,106L161.125,106M161.125,106L161.25,105.875M159.75,106L159.5,105.25M159.5,105.25L159.25,106M159,105.25L158.625,105.25M158.625,105.25L158.5,105.375M158.5,105.375L158.5,105.875M158.5,105.875L158.625,106M158.625,106L159,106M159,105.813L159,105.25M158.25,105.25L157.875,105.25M157.875,105.25L157.75,105.375M157.75,105.375L157.75,105.875M157.75,105.875L157.875,106M157.875,106L158.25,106M158.25,105.813L158.25,105.25M160.875,104L161.125,104M161,104L161,104.75M161.125,104.625L161,104.75M159.75,104.75L159.75,104.125M159.75,104.125L159.625,104M159.625,104L159.375,104M159.375,104L159.25,104.125M159.25,104.125L159.25,104.75M159,104.75L159,104M158.625,104.75L158.5,104.625M158.5,104.625L158.5,104.5M158.5,104.5L158.625,104.375M158.625,104.375L158.875,104.375M159,104.75L158.625,104.75M158.25,104L157.875,104M157.875,104L157.75,104.125M157.75,104.125L157.75,104.625M157.75,104.625L157.875,104.75M157.875,104.75L158.25,104.75M158.25,104.563L158.25,104M157.375,104.75L157.125,104.75M157.125,104L157.375,104M157.25,104.75L157.25,104M161.25,103.5L161.25,103.25M161.25,103.25L160.875,103.25M160.875,103.25L160.75,103.125M160.75,103.125L160.75,102.875M160.75,102.875L160.875,102.75M160.875,102.75L161.125,102.75M161.125,102.75L161.25,102.875M160.75,103.5L161.25,103.5M159.75,103.5L159.75,102.75M159.75,103.5L159.375,103.5M159.375,103.5L159.25,103.375M159.25,103.375L159.25,103.25M159.25,103.25L159.375,103.125M159.375,103.125L159.625,103.125M159.25,102.75L159.375,103.125M158.5,103.375L158.625,103.5M158.625,103.5L158.875,103.5M158.875,103.5L159,103.375M159,103.375L159,103.25M159,103.25L158.5,103M158.5,103L158.5,102.875M158.5,102.875L158.625,102.75M158.625,102.75L158.875,102.75M158.875,102.75L159,102.875M158.25,103.5L157.75,103.5M158,103.5L158,102.75M162.106,107.967L162.106,108.383M162.248,108.024L162.248,108.326M162.39,108.081L162.39,108.269M162.532,108.138L162.532,108.212M162.625,108.175L162,108.425M162,107.925L162.625,108.175M162,108.425L162,107.925M162.625,105.675L162.625,106.175M162.625,105.925L161.875,105.925M162.625,106.425L161.875,106.425M162.625,106.8L162.5,106.925M162.5,106.925L162.375,106.925M162.375,106.925L162.25,106.8M162.25,106.8L162.25,106.55M162.625,106.425L162.625,106.8M161.875,107.55L161.875,107.3M161.875,107.425L162.625,107.425M162.5,107.3L162.625,107.425M163.97,108.969L158.89,108.969M158.89,108.969L158.89,111.191M163.97,111.191L163.97,108.969M153.1,78.3L153.3,78.3M153.1,78.3L153.1,77.8M153.1,77.8L153.2,77.7M153.2,77.7L153.4,77.7M153.4,77.7L153.5,77.8M153.5,77.8L153.5,77.9M152.9,78.3L152.9,77.7M152.9,77.7L152.5,77.7M151.9,78.2L152,78.3M152,78.3L152.2,78.3M152.2,78.3L152.3,78.2M152.3,78.2L152.3,77.8M152.3,77.8L152.2,77.7M152.2,77.7L152,77.7M152,77.7L151.9,77.8M151.3,78.3L151.5,78.3M151.3,78.3L151.3,77.8M151.3,77.8L151.4,77.7M151.4,77.7L151.6,77.7M151.6,77.7L151.7,77.8M151.7,77.8L151.7,77.9M151.1,78.3L151.1,77.7M151.1,77.7L150.7,77.7M150.1,78.2L150.2,78.3M150.2,78.3L150.4,78.3M150.4,78.3L150.5,78.2M150.5,78.2L150.5,77.8M150.5,77.8L150.4,77.7M150.4,77.7L150.2,77.7M150.2,77.7L150.1,77.8M149.5,78.3L149.7,78.3M149.5,78.3L149.5,77.8M149.5,77.8L149.6,77.7M149.6,77.7L149.8,77.7M149.8,77.7L149.9,77.8M149.9,77.8L149.9,77.9M149.3,78.3L149.3,77.7M149.3,77.7L148.9,77.7M148.3,78.2L148.4,78.3M148.4,78.3L148.6,78.3M148.6,78.3L148.7,78.2M148.7,78.2L148.7,77.8M148.7,77.8L148.6,77.7M148.6,77.7L148.4,77.7M148.4,77.7L148.3,77.8M147.7,78.3L147.9,78.3M147.7,78.3L147.7,77.8M147.7,77.8L147.8,77.7M147.8,77.7L148,77.7M148,77.7L148.1,77.8M148.1,77.8L148.1,77.9M147.5,78.3L147.5,77.7M147.5,77.7L147.1,77.7M146.5,78.2L146.6,78.3M146.6,78.3L146.8,78.3M146.8,78.3L146.9,78.2M146.9,78.2L146.9,77.8M146.9,77.8L146.8,77.7M146.8,77.7L146.6,77.7M146.6,77.7L146.5,77.8M158.89,111.191L159.525,111.191M162.065,111.191L163.97,111.191M161.295,112.043L161.545,112.043M161.295,112.043L161.295,111.418M161.295,111.418L161.42,111.293M161.42,111.293L161.67,111.293M161.67,111.293L161.795,111.418M161.795,111.418L161.795,111.543M161.045,112.043L161.045,111.293M160.67,112.043L160.545,111.918M160.545,111.918L160.545,111.793M160.545,111.793L160.67,111.668M160.67,111.668L160.92,111.668M161.045,112.043L160.67,112.043M159.92,111.293L160.17,111.293M160.045,111.293L160.045,112.043M160.17,111.918L160.045,112.043"/><path stroke-width="0.2" d="M140.3,135A2.8,2.8,0,1,0,134.7,135M134.7,135A2.8,2.8,0,1,0,140.3,135M140.3,75A2.8,2.8,0,1,0,134.7,75M134.7,75A2.8,2.8,0,1,0,140.3,75M165.3,75A2.8,2.8,0,1,0,159.7,75M159.7,75A2.8,2.8,0,1,0,165.3,75M165.3,135A2.8,2.8,0,1,0,159.7,135M159.7,135A2.8,2.8,0,1,0,165.3,135M163.206,97.276L163.206,97.65M163.58,97.838L162.924,97.838M162.924,97.088L163.58,97.088M162.924,97.838L162.456,97.556M162.456,97.556L162.456,97.368M162.456,97.368L162.924,97.088M162.456,96.713L163.58,96.338M163.58,96.338L162.456,95.963M162.456,95.588L163.58,95.588M162.456,95.588L162.456,95.026M162.456,95.026L162.643,94.838M162.643,94.838L162.83,94.838M162.83,94.838L163.018,95.026M163.018,95.026L163.018,95.4M163.58,94.838L163.018,95.026M163.018,94.463L163.018,93.713M162.456,93.15L162.456,92.776M163.58,92.776L163.58,93.15M162.456,92.963L163.58,92.963M162.643,91.463L162.456,91.65M162.456,91.65L162.456,92.026M162.456,92.026L162.643,92.213M162.643,92.213L163.393,92.213M163.393,92.213L163.58,92.026M163.58,92.026L163.58,91.65M163.58,91.65L163.393,91.463M162.643,90.338L162.456,90.526M162.456,90.526L162.456,90.9M162.456,90.9L162.643,91.088M162.643,91.088L162.83,91.088M162.83,91.088L163.206,90.338M163.206,90.338L163.393,90.338M163.393,90.338L163.58,90.526M163.58,90.526L163.58,90.9M163.58,90.9L163.393,91.088M162.456,89.963L163.58,89.963M162.456,89.4L162.643,89.213M162.643,89.213L162.83,89.213M162.83,89.213L163.018,89.4M163.018,89.4L163.018,89.776M162.456,89.963L162.456,89.4M163.018,88.838L163.018,88.088M162.456,87.713L163.393,87.713M163.393,87.713L163.58,87.526M163.58,87.526L163.58,87.15M163.58,87.15L163.393,86.963M163.393,86.963L162.456,86.963M162.456,86.588L163.58,86.588M162.456,86.026L162.643,85.838M162.643,85.838L162.83,85.838M162.83,85.838L163.018,86.026M163.018,86.026L163.018,86.4M162.456,86.588L162.456,86.026M163.58,85.463L163.58,84.9M163.58,84.9L163.393,84.713M163.393,84.713L162.643,84.713M162.643,84.713L162.456,84.9M162.456,84.9L162.456,85.463M162.736,85.463L163.58,85.463M162.456,84.15L162.456,83.776M163.58,83.776L163.58,84.15M162.456,83.963L163.58,83.963M162.066,98.333L162.066,83.093M161.488,89.385L161.676,89.385M161.676,89.385L161.676,90.135M161.676,90.135L161.488,90.135M161.488,90.135L160.926,89.385M160.926,89.385L160.738,89.385M160.738,89.385L160.55,89.572M160.55,89.572L160.55,89.948M160.55,89.948L160.738,90.135M160.55,87.885L161.676,87.51M161.676,87.51L160.55,87.135M161.676,86.76L161.676,86.198M161.676,86.198L161.488,86.01M161.488,86.01L160.738,86.01M160.738,86.01L160.55,86.198M160.55,86.198L160.55,86.76M160.831,86.76L161.676,86.76M161.676,85.635L161.676,85.072M161.676,85.072L161.488,84.885M161.488,84.885L160.738,84.885M160.738,84.885L160.55,85.072M160.55,85.072L160.55,85.635M160.831,85.635L161.676,85.635M156.351,83.093L162.066,83.093M160.161,98.333L160.161,83.093M158.256,98.333L158.256,83.093M159.77,89.572L158.646,89.572M158.646,89.948L159.396,90.135M159.396,90.135L159.396,89.385M158.646,87.885L159.77,87.885M158.646,87.135L159.77,87.135M159.208,87.322L159.208,87.698M158.646,86.76L159.77,86.76M158.646,86.76L158.646,86.198M158.646,86.198L158.833,86.01M158.833,86.01L159.02,86.01M159.02,86.01L159.208,86.198M159.208,86.198L159.208,86.572M159.77,86.01L159.208,86.198M158.833,84.885L158.646,85.072M158.646,85.072L158.646,85.448M158.646,85.448L158.833,85.635M158.833,85.635L159.583,85.635M159.583,85.635L159.77,85.448M159.77,85.448L159.77,85.072M159.77,85.072L159.583,84.885M158.646,84.51L158.646,83.76M158.646,84.135L159.77,84.135M156.928,89.385L156.74,89.572M156.74,89.572L156.74,89.948M156.74,89.948L156.928,90.135M156.928,90.135L157.678,90.135M157.678,90.135L157.866,89.948M157.866,89.948L157.866,89.572M157.866,89.572L157.678,89.385M157.678,89.385L157.49,89.385M157.49,89.385L157.303,89.572M157.303,89.572L157.303,89.853M156.928,87.135L156.74,87.322M156.74,87.322L156.74,87.698M156.74,87.698L156.928,87.885M156.928,87.885L157.678,87.885M157.678,87.885L157.866,87.698M157.866,87.135L157.303,87.135M157.303,87.135L157.303,87.51M157.866,87.698L157.866,87.51M156.74,86.76L157.866,86.76M156.74,86.76L157.866,86.01M157.866,86.01L156.74,86.01M157.866,85.635L157.866,85.072M157.866,85.072L157.678,84.885M157.678,84.885L156.928,84.885M156.928,84.885L156.74,85.072M156.74,85.072L156.74,85.635M157.021,85.635L157.866,85.635M156.351,90.713L162.066,90.713M156.351,98.333L156.351,83.093M156.74,96.54L157.866,96.54M156.74,96.54L156.74,95.978M156.74,95.978L156.928,95.79M156.928,95.79L157.116,95.79M157.116,95.79L157.303,95.978M157.303,95.978L157.303,96.352M157.866,95.79L157.303,95.978M156.928,94.665L156.74,94.852M156.74,94.852L156.74,95.228M156.74,95.228L156.928,95.415M156.928,95.415L157.116,95.415M157.116,95.415L157.49,94.665M157.49,94.665L157.678,94.665M157.678,94.665L157.866,94.852M157.866,94.852L157.866,95.228M157.866,95.228L157.678,95.415M156.74,94.29L156.74,93.54M156.74,93.915L157.866,93.915M156.74,92.04L157.116,92.04M157.116,92.04L157.116,91.478M157.116,91.478L157.303,91.29M157.303,91.29L157.678,91.29M157.678,91.29L157.866,91.478M157.866,91.478L157.866,91.852M157.866,91.852L157.678,92.04M156.74,91.29L156.74,92.04M158.646,97.665L159.77,97.665M158.646,96.915L159.77,96.915M159.208,97.102L159.208,97.478M158.646,96.54L158.646,95.79M158.646,96.165L159.77,96.165M158.833,94.665L158.646,94.852M158.646,94.852L158.646,95.228M158.646,95.228L158.833,95.415M158.833,95.415L159.583,95.415M159.583,95.415L159.77,95.228M159.77,95.228L159.77,94.852M159.77,94.852L159.583,94.665M158.646,94.29L159.77,94.29M158.646,94.29L158.646,93.728M158.646,93.728L158.833,93.54M158.833,93.54L159.02,93.54M159.02,93.54L159.208,93.728M159.208,93.728L159.208,94.102M159.77,93.54L159.208,93.728M159.583,92.04L159.77,91.852M159.77,91.852L159.77,91.478M159.77,91.478L159.583,91.29M159.583,91.29L159.396,91.29M159.396,91.29L159.208,91.478M159.208,91.478L159.02,91.29M159.02,91.29L158.833,91.29M158.833,91.29L158.646,91.478M158.646,91.478L158.646,91.852M158.646,91.852L158.833,92.04M159.208,91.478L159.208,91.665M160.55,97.665L161.488,97.665M161.488,97.665L161.676,97.478M161.676,97.478L161.676,97.102M161.676,97.102L161.488,96.915M161.488,96.915L160.55,96.915M160.55,96.54L161.676,96.54M160.55,95.978L160.738,95.79M160.738,95.79L160.926,95.79M160.926,95.79L161.113,95.978M161.113,95.978L161.113,96.352M160.55,96.54L160.55,95.978M161.676,95.415L161.676,94.852M161.676,94.852L161.488,94.665M161.488,94.665L160.738,94.665M160.738,94.665L160.55,94.852M160.55,94.852L160.55,95.415M160.831,95.415L161.676,95.415M160.55,94.102L160.55,93.728M161.676,93.728L161.676,94.102M160.55,93.915L161.676,93.915M161.676,91.478L161.676,91.852M161.676,91.665L160.55,91.665M160.738,91.852L160.55,91.665M162.066,98.333L156.351,98.333M146.19,85.315L146.19,80.553M146.19,85.315L147.778,85.315M150.318,85.315L149.683,85.315M152.858,85.315L152.223,85.315M153.81,83.093L153.81,84.68M153.81,80.553L153.81,81.823M145.5,129.5L154.5,129.5M155.5,137L155.5,130.5M155.5,130.5A1,1,0,0,0,154.5,129.5M144.5,137L144.5,130.5M144.5,130.5A1,1,0,0,1,145.5,129.5M138.57,80.87L138.57,96.11M138.57,96.11L136.03,96.11M136.03,80.87L136.665,80.87M137.935,80.87L138.57,80.87M139.95,93.653L139.288,94.316M140.392,94.094L139.73,94.757M139.95,94.316L139.73,94.094M140.613,94.316L141.055,94.757M140.834,94.536L140.172,95.199M141.608,95.531L141.608,95.31M141.608,95.31L141.387,95.089M141.387,95.089L141.166,95.089M141.166,95.089L140.724,95.531M140.724,95.531L140.724,95.752M140.724,95.752L140.945,95.973M140.945,95.973L141.166,95.973M141.939,95.641L141.276,96.304M141.939,95.641L142.271,95.973M142.271,95.973L142.271,96.194M142.271,96.194L142.16,96.304M142.16,96.304L141.939,96.304M141.939,96.304L141.718,96.083M141.718,96.746L141.939,96.304M139.95,91.113L139.288,91.776M140.392,91.554L139.73,92.217M139.95,91.776L139.73,91.554M140.613,91.776L139.95,92.438M140.613,91.776L140.945,92.107M140.945,92.107L140.945,92.328M140.945,92.328L140.834,92.438M140.834,92.438L140.613,92.438M140.613,92.438L140.392,92.217M140.392,92.88L140.613,92.438M141.608,92.991L141.608,92.77M141.608,92.77L141.387,92.549M141.387,92.549L141.166,92.549M141.166,92.549L140.724,92.991M140.724,92.991L140.724,93.212M140.724,93.212L140.945,93.433M140.945,93.433L141.166,93.433M141.939,93.101L142.381,93.543M142.16,93.322L141.497,93.985M140.282,89.125L140.282,88.904M140.282,88.904L140.061,88.683M140.061,88.683L139.84,88.683M139.84,88.683L139.398,89.125M139.398,89.125L139.398,89.346M139.73,89.677L140.061,89.346M140.061,89.346L139.84,89.125M139.398,89.346L139.508,89.456M140.613,89.236L139.95,89.898M140.613,89.236L140.392,90.34M140.392,90.34L141.055,89.677M140.613,90.561L140.945,90.893M140.945,90.893L141.166,90.893M141.166,90.893L141.608,90.451M141.608,90.451L141.608,90.23M141.608,90.23L141.276,89.898M141.111,90.064L140.613,90.561M139.95,86.033L139.508,86.916M139.508,86.916L140.392,86.474M139.95,87.358L140.282,87.69M140.282,87.69L140.503,87.69M140.503,87.69L140.945,87.248M140.945,87.248L140.945,87.027M140.945,87.027L140.613,86.696M140.448,86.861L139.95,87.358M140.613,88.021L140.945,88.353M140.945,88.353L141.166,88.353M141.166,88.353L141.608,87.911M141.608,87.911L141.608,87.69M141.608,87.69L141.276,87.358M141.111,87.524L140.613,88.021M139.95,83.493L139.398,84.045M139.398,84.045L139.398,84.266M139.398,84.266L139.619,84.487M139.619,84.487L139.84,84.487M139.84,84.487L140.392,83.934M140.613,84.156L139.95,84.818M140.945,84.487L140.945,84.708M140.945,84.708L140.834,84.818M140.834,84.818L140.613,84.818M140.613,84.818L140.392,84.597M140.613,84.156L140.945,84.487M140.613,85.481L140.945,85.813M140.945,85.813L141.166,85.813M141.166,85.813L141.608,85.371M141.608,85.371L141.608,85.15M141.608,85.15L141.276,84.818M141.111,84.984L140.613,85.481M142.05,85.592L142.271,85.813M141.608,86.476L141.387,86.255M142.16,85.702L141.497,86.365M139.95,80.953L139.288,81.616M139.95,80.953L140.282,81.284M140.282,81.284L140.282,81.505M140.282,81.505L140.172,81.616M140.172,81.616L139.95,81.616M139.95,81.616L139.73,81.394M139.73,82.057L139.95,81.616M140.945,82.168L140.945,81.947M140.945,81.947L140.724,81.726M140.724,81.726L140.503,81.726M140.503,81.726L140.392,81.836M140.392,81.836L140.613,82.499M140.613,82.499L140.503,82.61M140.503,82.61L140.282,82.61M140.282,82.61L140.061,82.389M140.061,82.389L140.061,82.168M141.276,82.278L141.718,82.72M141.497,82.499L140.834,83.162M135.864,81.828L135.551,81.828M135.551,81.828L135.551,82.296M135.551,82.296L135.395,82.452M135.395,82.452L135.082,82.452M135.082,82.452L134.926,82.296M134.926,82.296L134.926,81.984M134.926,81.984L135.082,81.828M135.864,82.452L135.864,81.828M134.926,84.836L134.926,84.524M134.926,84.68L135.864,84.68M135.708,84.524L135.864,84.68M135.082,87.532L134.926,87.532M134.926,87.532L134.926,86.908M134.926,86.908L135.082,86.908M135.082,86.908L135.551,87.532M135.551,87.532L135.708,87.532M135.708,87.532L135.864,87.376M135.864,87.376L135.864,87.064M135.864,87.064L135.708,86.908M135.708,90.085L135.864,89.96M135.864,89.96L135.864,89.71M135.864,89.71L135.708,89.585M135.708,89.585L135.082,89.585M135.082,89.585L134.926,89.71M134.926,89.71L134.926,89.96M134.926,89.96L135.082,90.085M135.082,90.085L135.239,90.085M135.239,90.085L135.395,89.96M135.395,89.96L135.395,89.773M134.926,92.456L135.864,92.456M135.864,92.144L135.239,91.988M135.239,91.988L135.239,92.612M135.082,94.528L134.926,94.684M134.926,94.684L134.926,94.996M134.926,94.996L135.082,95.152M135.082,95.152L135.239,95.152M135.239,95.152L135.395,94.996M135.395,94.996L135.551,95.152M135.551,95.152L135.708,95.152M135.708,95.152L135.864,94.996M135.864,94.996L135.864,94.684M135.864,94.684L135.708,94.528M135.395,94.996L135.395,94.84M136.03,81.188L136.03,80.87M136.03,96.11L136.03,95.793"/><path stroke-width="0.175" d="M161.031,88.636A0.106,0.106,0,1,0,160.818,88.636M160.818,88.636A0.106,0.106,0,1,0,161.031,88.636M161.594,88.636A0.106,0.106,0,1,0,161.381,88.636M161.381,88.636A0.106,0.106,0,1,0,161.594,88.636M159.126,88.636A0.106,0.106,0,1,0,158.913,88.636M158.913,88.636A0.106,0.106,0,1,0,159.126,88.636M159.688,88.636A0.106,0.106,0,1,0,159.476,88.636M159.476,88.636A0.106,0.106,0,1,0,159.688,88.636M157.221,88.636A0.106,0.106,0,1,0,157.008,88.636M157.008,88.636A0.106,0.106,0,1,0,157.221,88.636M157.784,88.636A0.106,0.106,0,1,0,157.571,88.636M157.571,88.636A0.106,0.106,0,1,0,157.784,88.636M157.221,92.791A0.106,0.106,0,1,0,157.008,92.791M157.008,92.791A0.106,0.106,0,1,0,157.221,92.791M157.784,92.791A0.106,0.106,0,1,0,157.571,92.791M157.571,92.791A0.106,0.106,0,1,0,157.784,92.791M159.126,92.791A0.106,0.106,0,1,0,158.913,92.791M158.913,92.791A0.106,0.106,0,1,0,159.126,92.791M159.688,92.791A0.106,0.106,0,1,0,159.476,92.791M159.476,92.791A0.106,0.106,0,1,0,159.688,92.791M161.031,92.791A0.106,0.106,0,1,0,160.818,92.791M160.818,92.791A0.106,0.106,0,1,0,161.031,92.791M161.594,92.791A0.106,0.106,0,1,0,161.381,92.791M161.381,92.791A0.106,0.106,0,1,0,161.594,92.791"/><path stroke-width="0.125" d="M150.388,135.312A0.075,0.075,0,1,0,150.238,135.312M150.238,135.312A0.075,0.075,0,1,0,150.388,135.312M160.325,102A0.075,0.075,0,1,0,160.176,102M160.176,102A0.075,0.075,0,1,0,160.325,102M160.325,101.626A0.075,0.075,0,1,0,160.176,101.626M160.176,101.626A0.075,0.075,0,1,0,160.325,101.626M160.325,108.25A0.075,0.075,0,1,0,160.176,108.25M160.176,108.25A0.075,0.075,0,1,0,160.325,108.25M160.325,107.876A0.075,0.075,0,1,0,160.176,107.876M160.176,107.876A0.075,0.075,0,1,0,160.325,107.876M160.325,107A0.075,0.075,0,1,0,160.176,107M160.176,107A0.075,0.075,0,1,0,160.325,107M160.325,106.626A0.075,0.075,0,1,0,160.176,106.626M160.176,106.626A0.075,0.075,0,1,0,160.325,106.626M160.325,105.75A0.075,0.075,0,1,0,160.176,105.75M160.176,105.75A0.075,0.075,0,1,0,160.325,105.75M160.325,105.376A0.075,0.075,0,1,0,160.176,105.376M160.176,105.376A0.075,0.075,0,1,0,160.325,105.376M160.325,104.5A0.075,0.075,0,1,0,160.176,104.5M160.176,104.5A0.075,0.075,0,1,0,160.325,104.5M160.325,104.126A0.075,0.075,0,1,0,160.176,104.126M160.176,104.126A0.075,0.075,0,1,0,160.325,104.126M160.325,103.25A0.075,0.075,0,1,0,160.176,103.25M160.176,103.25A0.075,0.075,0,1,0,160.325,103.25M160.325,102.876A0.075,0.075,0,1,0,160.176,102.876M160.176,102.876A0.075,0.075,0,1,0,160.325,102.876"/></g><g stroke="none"><circle cx="151.125" cy="135" r="0.075"/><circle cx="136.75" cy="131.5" r="0.375"/></g></g>
<g id="GBS"><g fill="none" stroke-linecap="round" stroke-linejoin="round"><path stroke-width="0.1" d="M151.74,84.845L153.34,84.845M153.34,84.845L153.34,83.245M153.34,83.245L151.74,83.245M151.74,83.245L151.74,84.845M151.74,84.75L153.34,84.75M151.74,84.655L153.34,84.655M151.74,84.56L153.34,84.56M151.74,84.465L153.34,84.465M151.74,84.37L153.34,84.37M151.74,84.275L153.34,84.275M151.74,84.18L153.34,84.18M151.74,84.085L153.34,84.085M151.74,83.99L153.34,83.99M151.74,83.895L153.34,83.895M151.74,83.8L153.34,83.8M151.74,83.705L153.34,83.705M151.74,83.61L153.34,83.61M151.74,83.515L153.34,83.515M151.74,83.42L153.34,83.42M151.74,83.325L153.34,83.325M136.5,81.34L136.5,82.94M136.5,82.94L138.1,82.94M138.1,82.94L138.1,81.34M138.1,81.34L136.5,81.34M136.595,81.34L136.595,82.94M136.69,81.34L136.69,82.94M136.785,81.34L136.785,82.94M136.88,81.34L136.88,82.94M136.975,81.34L136.975,82.94M137.07,81.34L137.07,82.94M137.165,81.34L137.165,82.94M137.26,81.34L137.26,82.94M137.355,81.34L137.355,82.94M137.45,81.34L137.45,82.94M137.545,81.34L137.545,82.94M137.64,81.34L137.64,82.94M137.735,81.34L137.735,82.94M137.83,81.34L137.83,82.94M137.925,81.34L137.925,82.94M138.02,81.34L138.02,82.94M159.36,110.88L160.96,110.88M160.96,110.88L160.96,109.28M160.96,109.28L159.36,109.28M159.36,109.28L159.36,110.88M159.36,110.785L160.96,110.785M159.36,110.69L160.96,110.69M159.36,110.595L160.96,110.595M159.36,110.5L160.96,110.5M159.36,110.405L160.96,110.405M159.36,110.31L160.96,110.31M159.36,110.215L160.96,110.215M159.36,110.12L160.96,110.12M159.36,110.025L160.96,110.025M159.36,109.93L160.96,109.93M159.36,109.835L160.96,109.835M159.36,109.74L160.96,109.74M159.36,109.645L160.96,109.645M159.36,109.55L160.96,109.55M159.36,109.455L160.96,109.455M159.36,109.36L160.96,109.36"/><path stroke-width="1.3" d="M154.32,136.8L154.32,136M145.68,136.8L145.68,136M145.68,132.72L145.68,131.62M154.32,132.72L154.32,131.62"/></g><g stroke="none"><circle cx="137.5" cy="135" r="1.85"/><circle cx="162.5" cy="135" r="1.85"/><circle cx="137.5" cy="75" r="1.85"/><circle cx="162.5" cy="75" r="1.85"/><circle cx="152.89" cy="132.72" r="0.4"/><circle cx="147.11" cy="132.72" r="0.4"/><circle cx="152.54" cy="81.505" r="0.85"/><circle cx="150" cy="84.045" r="0.85"/><circle cx="150" cy="81.505" r="0.85"/><circle cx="147.46" cy="84.045" r="0.85"/><circle cx="147.46" cy="81.505" r="0.85"/><circle cx="137.3" cy="84.68" r="0.85"/><circle cx="137.3" cy="87.22" r="0.85"/><circle cx="137.3" cy="89.76" r="0.85"/><circle cx="137.3" cy="92.3" r="0.85"/><circle cx="137.3" cy="94.84" r="0.85"/><circle cx="137.75" cy="131.5" r="0.375"/><circle cx="163.75" cy="105.635" r="0.5"/><circle cx="163.75" cy="104.365" r="0.5"/><circle cx="163.75" cy="103.095" r="0.5"/><circle cx="163.75" cy="108.175" r="0.5"/><circle cx="163.75" cy="106.905" r="0.5"/><circle cx="163.75" cy="101.825" r="0.5"/><circle cx="162.7" cy="110.08" r="0.85"/><circle cx="159" cy="119" r="0.475"/><circle cx="162" cy="119" r="0.475"/></g></g>
<mask id="GBM"><use xlink:href="#GBS" class="mask"/></mask>
<mask id="GBN"><use xlink:href="#FIL" class="mask"/><use xlink:href="#GBS" class="black"/></mask>
<g id="DRL"><g class="pad"><circle cx="148.96" cy="92" r="0.3"/><circle cx="150.66" cy="92" r="0.3"/><circle cx="147.46" cy="96.5" r="0.3"/><circle cx="137.875" cy="126.625" r="0.3"/><circle cx="143" cy="126.625" r="0.3"/><circle cx="154.32" cy="131.62" r="0.3"/><circle cx="154.32" cy="131.72" r="0.3"/><circle cx="154.32" cy="131.82" r="0.3"/><circle cx="154.32" cy="131.92" r="0.3"/><circle cx="154.32" cy="132.02" r="0.3"/><circle cx="154.32" cy="132.12" r="0.3"/><circle cx="154.32" cy="132.22" r="0.3"/><circle cx="154.32" cy="132.32" r="0.3"/><circle cx="154.32" cy="132.42" r="0.3"/><circle cx="154.32" cy="132.52" r="0.3"/><circle cx="154.32" cy="132.62" r="0.3"/><circle cx="154.32" cy="132.72" r="0.3"/><circle cx="145.68" cy="131.62" r="0.3"/><circle cx="145.68" cy="131.72" r="0.3"/><circle cx="145.68" cy="131.82" r="0.3"/><circle cx="145.68" cy="131.92" r="0.3"/><circle cx="145.68" cy="132.02" r="0.3"/><circle cx="145.68" cy="132.12" r="0.3"/><circle cx="145.68" cy="132.22" r="0.3"/><circle cx="145.68" cy="132.32" r="0.3"/><circle cx="145.68" cy="132.42" r="0.3"/><circle cx="145.68" cy="132.52" r="0.3"/><circle cx="145.68" cy="132.62" r="0.3"/><circle cx="145.68" cy="132.72" r="0.3"/><circle cx="145.68" cy="136" r="0.3"/><circle cx="145.68" cy="136.1" r="0.3"/><circle cx="145.68" cy="136.2" r="0.3"/><circle cx="145.68" cy="136.3" r="0.3"/><circle cx="145.68" cy="136.4" r="0.3"/><circle cx="145.68" cy="136.5" r="0.3"/><circle cx="145.68" cy="136.6" r="0.3"/><circle cx="145.68" cy="136.7" r="0.3"/><circle cx="145.68" cy="136.8" r="0.3"/><circle cx="154.32" cy="136" r="0.3"/><circle cx="154.32" cy="136.1" r="0.3"/><circle cx="154.32" cy="136.2" r="0.3"/><circle cx="154.32" cy="136.3" r="0.3"/><circle cx="154.32" cy="136.4" r="0.3"/><circle cx="154.32" cy="136.5" r="0.3"/><circle cx="154.32" cy="136.6" r="0.3"/><circle cx="154.32" cy="136.7" r="0.3"/><circle cx="154.32" cy="136.8" r="0.3"/><circle cx="147.11" cy="132.72" r="0.35"/><circle cx="152.89" cy="132.72" r="0.35"/><circle cx="162.7" cy="112.62" r="0.4"/><circle cx="162.7" cy="110.08" r="0.4"/><circle cx="160.16" cy="110.08" r="0.4"/><circle cx="163.75" cy="101.825" r="0.4"/><circle cx="163.75" cy="106.905" r="0.4"/><circle cx="163.75" cy="108.175" r="0.4"/><circle cx="163.75" cy="103.095" r="0.4"/><circle cx="163.75" cy="104.365" r="0.4"/><circle cx="163.75" cy="105.635" r="0.4"/><circle cx="137.3" cy="94.84" r="0.4"/><circle cx="137.3" cy="92.3" r="0.4"/><circle cx="137.3" cy="89.76" r="0.4"/><circle cx="137.3" cy="87.22" r="0.4"/><circle cx="137.3" cy="84.68" r="0.4"/><circle cx="137.3" cy="82.14" r="0.4"/><circle cx="147.46" cy="81.505" r="0.4"/><circle cx="147.46" cy="84.045" r="0.4"/><circle cx="150" cy="81.505" r="0.4"/><circle cx="150" cy="84.045" r="0.4"/><circle cx="152.54" cy="81.505" r="0.4"/><circle cx="152.54" cy="84.045" r="0.4"/><circle cx="162" cy="119" r="0.425"/><circle cx="159" cy="119" r="0.425"/><circle cx="162.5" cy="75" r="1.6"/><circle cx="137.5" cy="75" r="1.6"/><circle cx="162.5" cy="135" r="1.6"/><circle cx="137.5" cy="135" r="1.6"/></g><g class="via"><circle cx="161" cy="90.5" r="0.15"/><circle cx="161" cy="93.5" r="0.15"/><circle cx="157.5" cy="92" r="0.15"/><circle cx="162" cy="86.5" r="0.15"/><circle cx="163" cy="92" r="0.15"/><circle cx="160" cy="81" r="0.15"/><circle cx="162" cy="79" r="0.15"/><circle cx="162" cy="83" r="0.15"/><circle cx="164" cy="81" r="0.15"/><circle cx="164" cy="85" r="0.15"/><circle cx="152" cy="102" r="0.15"/><circle cx="156.5" cy="114.25" r="0.15"/><circle cx="156.133" cy="112.976" r="0.15"/><circle cx="150" cy="117" r="0.15"/><circle cx="145" cy="119" r="0.15"/><circle cx="136" cy="122" r="0.15"/><circle cx="142" cy="122" r="0.15"/><circle cx="154.5" cy="120.5" r="0.15"/><circle cx="150" cy="122.5" r="0.15"/><circle cx="143.5" cy="111.5" r="0.15"/><circle cx="145" cy="108.5" r="0.15"/><circle cx="136" cy="103" r="0.15"/><circle cx="140" cy="103" r="0.15"/><circle cx="144" cy="92" r="0.15"/><circle cx="159" cy="112" r="0.15"/><circle cx="150" cy="108" r="0.15"/><circle cx="152" cy="106" r="0.15"/><circle cx="154.551" cy="115.142" r="0.15"/><circle cx="154.551" cy="114.292" r="0.15"/><circle cx="148" cy="110.5" r="0.15"/><circle cx="149.625" cy="104.25" r="0.15"/><circle cx="146" cy="98.5" r="0.15"/><circle cx="157" cy="103.75" r="0.15"/><circle cx="154.75" cy="105.875" r="0.15"/><circle cx="149.207" cy="109.949" r="0.15"/><circle cx="150.625" cy="102.375" r="0.15"/><circle cx="148.5" cy="103.75" r="0.15"/><circle cx="157.877" cy="108.05" r="0.15"/><circle cx="157.175" cy="107.55" r="0.15"/><circle cx="152.2" cy="108.742" r="0.15"/><circle cx="152.2" cy="110.092" r="0.15"/><circle cx="156" cy="112.137" r="0.15"/><circle cx="155.325" cy="110.902" r="0.15"/><circle cx="148.857" cy="117.682" r="0.15"/><circle cx="147.737" cy="112.126" r="0.15"/><circle cx="151.7" cy="110.78" r="0.15"/><circle cx="150" cy="113.293" r="0.15"/><circle cx="149.293" cy="114" r="0.15"/><circle cx="150.707" cy="114" r="0.15"/><circle cx="150" cy="114.707" r="0.15"/><circle cx="141" cy="117.75" r="0.15"/><circle cx="137" cy="107.625" r="0.15"/><circle cx="141.125" cy="111.375" r="0.15"/><circle cx="143.863" cy="114.05" r="0.15"/><circle cx="144.5" cy="103.75" r="0.15"/><circle cx="163.5" cy="126.5" r="0.15"/><circle cx="163.5" cy="128.5" r="0.15"/><circle cx="144" cy="89" r="0.15"/><circle cx="146" cy="83" r="0.15"/><circle cx="145" cy="124" r="0.15"/><circle cx="150" cy="125" r="0.15"/><circle cx="142" cy="125" r="0.15"/><circle cx="136" cy="125" r="0.15"/><circle cx="138" cy="101" r="0.15"/><circle cx="138" cy="97" r="0.15"/><circle cx="136" cy="99" r="0.15"/><circle cx="140" cy="99" r="0.15"/><circle cx="144" cy="83" r="0.15"/><circle cx="140" cy="83" r="0.15"/><circle cx="136" cy="79" r="0.15"/><circle cx="142" cy="81" r="0.15"/><circle cx="140" cy="77" r="0.15"/><circle cx="160" cy="77" r="0.15"/><circle cx="144" cy="95" r="0.15"/><circle cx="146" cy="93" r="0.15"/><circle cx="154" cy="93" r="0.15"/><circle cx="144" cy="99" r="0.15"/><circle cx="164" cy="99" r="0.15"/><circle cx="156" cy="99" r="0.15"/><circle cx="162" cy="101" r="0.15"/><circle cx="152" cy="136" r="0.15"/><circle cx="148" cy="136" r="0.15"/><circle cx="160" cy="132" r="0.15"/><circle cx="160" cy="129" r="0.15"/><circle cx="141" cy="130" r="0.15"/><circle cx="141" cy="133" r="0.15"/><circle cx="136" cy="129" r="0.15"/><circle cx="158.785" cy="125.325" r="0.15"/><circle cx="144" cy="131" r="0.15"/><circle cx="146.25" cy="115.5" r="0.2"/><circle cx="142.375" cy="91.808" r="0.2"/><circle cx="141.375" cy="93.283" r="0.2"/><circle cx="155.625" cy="85.809" r="0.2"/><circle cx="140.144" cy="87.97" r="0.2"/><circle cx="146.5" cy="130" r="0.2"/><circle cx="153.5" cy="130" r="0.2"/></g></g>
</defs>
<!-- Rendering View Port -->
<g transform="scale(-1,-1)" clip-path="url(#BOARD)">
<g><use xlink:href="#FIL" class="regist"/>
<use xlink:href="#GBL" class="cover"/></g>
<g mask="url(#GBM)"><use xlink:href="#FIL" class="board"/>
<use xlink:href="#GBL" class="plate"/></g>
<g mask="url(#GBN)"><use xlink:href="#GBO" class="silk"/></g>
<use xlink:href="#DRL" class="drill"/>
<use xlink:href="#OUT" stroke="gray" stroke-width="0.05" fill="none"/>
</g>
<!-- Parts Preview -->
<g transform="scale(-1,-1)" stroke-linecap="round" stroke-linejoin="round" stroke="gray" fill="gray" stroke-width="0.05">
</g>
</svg>
