<?xml version="1.0" encoding="UTF-8" standalone="no"?>
<svg
  xmlns:dc="http://purl.org/dc/elements/1.1/"
  xmlns:cc="http://creativecommons.org/ns#"
  xmlns:rdf="http://www.w3.org/1999/02/22-rdf-syntax-ns#"
  xmlns:svg="http://www.w3.org/2000/svg"
  xmlns="http://www.w3.org/2000/svg"
  viewBox="840 210 800 760"
  height="320"
  width="640"
  xml:space="preserve"
  id="svg2"
  version="1.1">
  <metadata id="metadata8">
    <rdf:RDF>
      <cc:Work rdf:about="">
        <dc:format>image/svg+xml</dc:format>
        <dc:type rdf:resource="http://purl.org/dc/dcmitype/StillImage" />
      </cc:Work>
    </rdf:RDF>
  </metadata>
  <defs id="defs6">
    <clipPath id="clipPath20" clipPathUnits="userSpaceOnUse">
      <path id="path18" d="M 0,0 H 1920 V 1080 H 0 Z" />
    </clipPath>
  </defs>
  <g transform="matrix(1.3333333,0,0,-1.3333333,0,1440)" id="g10">
    <g id="g12" />
    <g id="g14">
      <g clip-path="url(#clipPath20)" id="g16">
        <path id="path22" style="fill:#ffffff;fill-opacity:0;fill-rule:nonzero;stroke:none" d="M 0,1080 H 1920 V 0 H 0 Z" />
        <path id="path601" style="fill:#ffffff;fill-opacity:1;fill-rule:nonzero;stroke:none" d="M 1060,480 h 250 v 250 h -250 Z" />
        <g transform="matrix(1,0,0,-1,1136.105,732.9561)" id="g561">
          <path id="path581" style="fill:none;stroke:#ffffff;stroke-width:15;stroke-linecap:butt;stroke-linejoin:miter;stroke-miterlimit:4;stroke-dasharray:none;stroke-opacity:1"
            d="m 263.0483,184.391 c -1.0632,0.0216 -2.0964,-0.1885 -2.8785,-0.8898 -1.4922,-1.3381 -1.5177,-3.6654
              -0.6804,-5.3644 0.8073,-1.6371 1.6198,-3.1175 2.015,-4.9196 0.4254,-1.9393 0.5127,-4.0924 0.2355,-6.0971
              -1.1606,-8.4023 -8.9173,-13.6024 -12.3513,-16.1195 -11.0276,-8.0833 -23.7964,-15.976 -28.6802,-30.9045
              -9.1646,-0.4223 -16.2712,-2.1298 -19.1811,-2.8785 -13.3765,-3.442 -23.4076,-9.5479 -30.8521,-15.3083
              8.6174,12.1972 10.6059,27.8667 3.2971,41.3194 -6.7425,12.409 -20.5086,20.1115 -34.4894,20.5419 -13.1393,0.4044
              -25.7642,-5.4149 -35.8764,-13.4504 C 89.05041,138.7527 79.47606,122.4954 75.89459,104.3168 73.93429,94.3671
              72.93086,84.26226 71.36752,74.24975 70.09889,66.1205 68.99102,57.1019 63.30777,50.69853 57.6605,44.3353
              48.44306,42.70913 40.54159,45.25558 33.81997,47.42188 27.36555,53.15892 25.57348,60.14518 23.27488,69.1093
              32.18816,77.40239 24.13424,85.55433 18.05823,91.70403 7.444239,90.09362 2.859637,83.01604 -4.627348,71.45773
              4.000368,58.61492 12.51564,50.46301 51.82042,12.83297 113.5646,-14.00754 167.5612,7.86147 c 15.8348,6.41347
              32.1742,18.64979 36.5044,35.98103 2.9567,11.83465 0.8723,25.20128 -7.2486,34.48946 -5.2579,6.01327
              -12.3814,10.04163 -20.0447,12.03729 5.3886,7.44054 14.6149,16.21875 32.0035,19.59985 2.3362,0.4541
              5.9096,1.0851 10.127,1.4654 -0.0699,-0.7213 -0.2511,-1.3434 -0.2878,-2.0934 -1.3256,-27.04395 20.5308,-46.00215
              38.5193,-55.47624 6.0475,-3.1851 11.8313,-5.505 17.2709,-7.27471 -0.8506,-2.61527 -1.9944,-5.34125
              -3.9252,-8.08592 -1.7451,-2.48108 -3.4453,-5.15823 -6.4373,-6.69902 -6.5191,-3.35704 -18.6016,1.43275
              -27.0054,8.79246 -6.3499,-16.88733 -1.0384,-31.323127 9.4205,-35.300666 15.7703,-6.0014603 28.4406,3.54693
              30.9829,5.312106 11.7263,8.14499 16.3634,20.95779 18.213,31.5063 3.7122,-0.34426 7.0212,-0.45736 9.6298,-0.39252
              l 0.2093,16.32885 c -2.9302,0.39651 -5.8581,0.98901 -8.7924,1.51775 -10e-4,0.01429 10e-4,0.14497 0,0.157
              -2.7332,29.15916 -26.602,45.56981 -33.2072,49.69311 -10.6034,6.6184 -21.359,9.4289 -30.983,10.3887
              6.9738,11.2377 21.1913,12.6417 33.0502,15.2821 8.5396,1.9008 17.6466,6.0277 20.9083,14.7849 3.7682,10.1197
              -1.2056,20.5939 -8.871,27.3456 -3.3411,2.9434 -7.2296,5.3176 -11.4877,6.6205 -0.9082,0.278 -1.9986,0.5279
              -3.0617,0.5496 z m -33.7829,-72.7995 c 8.5404,-0.5842 18.2652,-3.0693 27.2409,-9.9962 13.5792,-10.4796
              18.5481,-25.73771 19.5998,-37.08006 -9.4485,3.07282 -18.5,7.22299 -26.7175,12.79617 -11.142,7.55702
              -22.5327,20.46627 -20.1232,34.28009 z" />
        </g>
        <g transform="translate(10,5)" id="g624">
					<path id="path30" style="fill:#000000;fill-opacity:1;fill-rule:nonzero;stroke:none"
						d="m 1188.746,901.776 c -14.954,5.5503 -36.212,-0.3552 -54.029,-23.1131 -29.733,-37.9808 -37.162,-107.4171
							-13.626,-194.7449 15.482,66.5554 71.498,115.9498 139.468,122.9825 18.302,1.8937 38.749,1.9135 49.267,16.9062
							24.499,34.921 -22.171,87.1909 -77.136,59.5883 -8.351,-4.1933 -15.747,-10.0618 -21.729,-17.2396 0.453,3.164
							1.851,26.6889 -22.215,35.6206 z" />
					<g transform="matrix(0.8686794,-0.4953746,-0.4953746,-0.8686794,1174.54,950.6248)" id="g32">
						<path id="path34" style="fill:none;stroke:#ffffff;stroke-width:15;stroke-linecap:butt;stroke-linejoin:miter;stroke-miterlimit:4;stroke-dasharray:none;stroke-opacity:1"
							d="M 36.53894,35.39662 C 20.79879,37.9833 5.257733,53.64399 1.054756,82.23907 -5.959618,129.9616 21.98466,193.9591
								85.68925,258.1602 66.16884,192.6752 90.35967,122.0187 145.9197,82.23907 160.8807,71.52737 178.6328,61.38117
								180.3427,43.14696 184.3253,0.6757424 117.8905,-21.61077 83.81706,29.59543 78.64075,37.37447 75.12247,46.13645
								73.48158,55.33509 72.30794,52.36213 61.86853,31.23404 36.53894,35.39662 Z" />
					</g>
        </g>
        <g transform="translate(0,0)" id="g623">
					<path id="path36" style="fill:#000000;fill-opacity:1;fill-rule:nonzero;stroke:none"
						d="m 1055.876,887.6709 c 14.692,5.113 35.301,-1.0696 52.218,-23.6152 28.233,-37.6263 34.089,-105.4772
							9.397,-190.1544 -13.767,65.2028 -67.397,114.4827 -133.5291,122.6975 -17.8078,2.212 -37.744,2.6398
							-47.6999,17.4682 -23.1896,34.5383 23.3595,84.5709 76.401,56.5596 8.058,-4.2554 15.153,-10.1251
							20.842,-17.2431 -0.379,3.094 -1.272,26.0594 22.371,34.2874 z" />
					<g transform="rotate(-151.47913,654.17405,331.44235)" id="g38">
						<path id="path40" style="fill:none;stroke:#ffffff;stroke-width:15;stroke-linecap:butt;stroke-linejoin:miter;stroke-miterlimit:4;stroke-dasharray:none;stroke-opacity:1"
							d="M 35.63406,34.52003 C 20.28372,37.04265 5.127526,52.31551 1.028635,80.20244 -5.812029,126.7431
								21.44021,189.1558 83.56717,251.767 64.53018,187.9037 88.12193,118.9969 142.306,80.20244 156.8966,69.75601
								174.209,59.86108 175.8766,42.07843 179.7605,0.6590077 114.971,-21.07559 81.74135,28.8625 76.69324,36.44889
								73.26208,44.99389 71.66182,53.96473 70.51724,51.06539 60.33636,30.46054 35.63406,34.52003 Z" />
					</g>
				</g>
        <g transform="translate(-10,15)" id="g623">
					<path id="path24" style="fill:#000000;fill-opacity:1;fill-rule:nonzero;stroke:none"
						d="m 899.6775,766.0134 c 7.6544,18.1989 30.9875,32.3862 66.6175,29.1953 59.463,-5.3252 128.43,-57.4226
							187.325,-152.6204 -73.188,42.3874 -165.21,33.6553 -229.1184,-21.7413 -17.209,-14.917 -34.5426,-33.3566
							-56.9829,-30.154 -52.268,7.4594 -59.926,93.8509 11.5367,120.0894 10.8564,3.986 22.4175,5.6928
							33.9625,5.0141 -3.2397,2.2703 -25.6581,20.9307 -13.3404,50.2169 z" />
					<g transform="rotate(-103.47913,757.22708,67.987681)" id="g26">
						<path id="path28" style="fill:none;stroke:#ffffff;stroke-width:15;stroke-linecap:butt;stroke-linejoin:miter;stroke-miterlimit:4;stroke-dasharray:none;stroke-opacity:1"
							d="M 45.22456,43.8107 C 25.74284,47.01225 6.507541,66.39562 1.30548,101.788 -7.37627,160.8546
								27.2106,240.0648 106.0583,319.5271 81.89774,238.4758 111.8389,151.0235 180.6061,101.788 199.1235,88.53004
								221.0954,75.972 223.2117,53.40336 228.141,0.8363721 145.9141,-26.74784 103.7411,36.63051 97.33434,46.25869
								92.97973,57.10348 90.94877,68.48871 89.49615,64.80905 76.5752,38.65864 45.22456,43.8107 Z" />
					</g>
        </g>
        <g transform="translate(0,0)" id="g623">
					<path id="path42" style="fill:#000000;fill-opacity:1;fill-rule:nonzero;stroke:none"
						d="m 918.8499,647.4227 c -5.1726,19.0534 4.4795,44.5984 34.5208,64.02 50.1363,32.4129 136.5573,33.8196
							241.5763,-4.9381 -83.769,-11.6567 -150.907,-75.1924 -167.162,-158.1914 -4.377,-22.3497 -6.684,-47.5518
							-26.339,-58.8438 -45.7798,-26.3013 -105.0023,37.0614 -64.8429,101.7344 6.1008,9.8249 14.1603,18.2876
							23.6758,24.8605 -3.9507,-0.2055 -33.1051,0.697 -41.429,31.3584 z" />
					<g transform="rotate(-65.479135,951.43509,-333.75651)" id="g44">
						<path id="path46" style="fill:none;stroke:#ffffff;stroke-width:15;stroke-linecap:butt;stroke-linejoin:miter;stroke-miterlimit:4;stroke-dasharray:none;stroke-opacity:1"
							d="M 45.22456,43.8107 C 25.74284,47.01225 6.507541,66.39562 1.30548,101.788 -7.37627,160.8546 27.2106,240.0648
								106.0583,319.5271 81.89774,238.4758 111.8389,151.0235 180.6061,101.788 199.1235,88.53004 221.0954,75.972
								223.2117,53.40336 228.141,0.8363721 145.9141,-26.74784 103.7411,36.63051 97.33434,46.25869 92.97973,57.10348
								90.94877,68.48871 89.49615,64.80905 76.5752,38.65864 45.22456,43.8107 Z" />
					</g>
        </g>

        <path id="path48" style="fill:#000000;fill-opacity:1;fill-rule:nonzero;stroke:none"
          d="m 1311.89,839.3572 c -10.209,12.2559 -31.587,17.712 -58.366,6.8376 -44.691,-18.1483 -85.687,-74.6806
            -108.728,-162.14 46.549,50.0254 119.716,64.9955 182.172,37.2726 16.818,-7.4651 34.564,-17.6227 51.148,-9.8521
            38.627,18.0992 24.156,86.662 -37.256,90.0713 -9.33,0.5179 -18.666,-0.8916 -27.427,-4.1408 1.968,2.5189
            14.887,22.2287 -1.543,41.9514 z" />
        <g transform="matrix(0.5069811,-0.8619572,-0.8619572,-0.5069811,1323.876,888.7976)" id="g50">
          <path id="path52" style="fill:none;stroke:#ffffff;stroke-width:15;stroke-linecap:butt;stroke-linejoin:miter;stroke-miterlimit:4;stroke-dasharray:none;stroke-opacity:1"
            d="M 36.53894,35.39662 C 20.79879,37.9833 5.257733,53.64399 1.054756,82.23907 -5.959618,129.9616 21.98466,193.9591
              85.68925,258.1602 66.16884,192.6752 90.35967,122.0187 145.9197,82.23907 160.8807,71.52737 178.6328,61.38117
              180.3427,43.14696 184.3253,0.6757424 117.8905,-21.61077 83.81706,29.59543 78.64075,37.37447 75.12247,46.13645
              73.48158,55.33509 72.30794,52.36213 61.86853,31.23404 36.53894,35.39662 Z" />
        </g>
        <path id="path54" style="fill:#000000;fill-opacity:1;fill-rule:nonzero;stroke:none"
          d="m 1399.154,548.5652 c -1.064,-0.0217 -2.097,0.1884 -2.879,0.8897 -1.492,1.3381 -1.518,3.6654 -0.68,5.3644
            0.807,1.6371 1.619,3.1176 2.015,4.9196 0.425,1.9394 0.512,4.0924 0.235,6.0971 -1.161,8.4023 -8.917,13.6024
            -12.351,16.1196 -11.028,8.0832 -23.797,15.9759 -28.68,30.9044 -9.165,0.4223 -16.272,2.1298 -19.182,2.8785
            -13.376,3.442 -23.407,9.5479 -30.852,15.3083 8.618,-12.1972 10.606,-27.8667 3.298,-41.3193 -6.743,-12.4091
            -20.509,-20.1115 -34.49,-20.5419 -13.139,-0.4045 -25.764,5.4149 -35.876,13.4503 -14.556,11.5675 -24.131,27.8248
            -27.712,46.0034 -1.96,9.9497 -2.964,20.0546 -4.527,30.0671 -1.269,8.1292 -2.377,17.1478 -8.06,23.5512 -5.647,6.3632
            -14.865,7.9894 -22.766,5.4429 -6.722,-2.1663 -13.176,-7.9033 -14.968,-14.8896 -2.299,-8.9641 6.614,-17.2572
            -1.44,-25.4091 -6.076,-6.1497 -16.69,-4.5393 -21.274,2.5383 -7.487,11.5583 1.141,24.4011 9.656,32.553
            39.305,37.63 101.049,64.4706 155.045,42.6015 15.835,-6.4134 32.175,-18.6497 36.505,-35.981 2.957,-11.8346
            0.872,-25.2013 -7.249,-34.4894 -5.258,-6.0133 -12.381,-10.0417 -20.044,-12.0373 5.388,-7.4406 14.614,-16.2188
            32.003,-19.5999 2.336,-0.4541 5.91,-1.0851 10.127,-1.4654 -0.07,0.7214 -0.251,1.3434 -0.288,2.0934 -1.325,27.044
            20.531,46.0022 38.52,55.4763 6.047,3.1851 11.831,5.505 17.27,7.2747 -0.85,2.6152 -1.994,5.3412 -3.925,8.0859
            -1.745,2.4811 -3.445,5.1582 -6.437,6.699 -6.519,3.357 -18.602,-1.4327 -27.005,-8.7925 -6.35,16.8874 -1.039,31.3232
            9.42,35.3007 15.77,6.0015 28.441,-3.5469 30.983,-5.3121 11.726,-8.145 16.363,-20.9578 18.213,-31.5063 3.712,0.3443
            7.021,0.4574 9.63,0.3925 l 0.209,-16.3288 c -2.93,-0.3965 -5.858,-0.989 -8.792,-1.5178 0,-0.0143 10e-4,-0.1449
            0,-0.157 -2.734,-29.1591 -26.602,-45.5698 -33.208,-49.6931 -10.603,-6.6184 -21.359,-9.4289 -30.983,-10.3887
            6.974,-11.2377 21.192,-12.6417 33.051,-15.2821 8.539,-1.9008 17.646,-6.0277 20.908,-14.7849 3.768,-10.1197
            -1.206,-20.5939 -8.871,-27.3456 -3.341,-2.9434 -7.23,-5.3176 -11.488,-6.6205 -0.908,-0.278 -1.998,-0.5279
            -3.061,-0.5495 z m -33.783,72.7994 c 8.54,0.5842 18.265,3.0693 27.241,9.9962 13.579,10.4796 18.548,25.7377
            19.599,37.0801 -9.448,-3.0728 -18.5,-7.223 -26.717,-12.7962 -11.142,-7.557 -22.533,-20.4663 -20.123,-34.2801 z" />
        <g transform="matrix(1,0,0,-1,1136.105,732.9561)" id="g56">
          <path id="path58" style="fill:none;stroke:#ffffff;stroke-width:5;stroke-linecap:butt;stroke-linejoin:miter;stroke-miterlimit:4;stroke-dasharray:none;stroke-opacity:1"
            d="m 263.0483,184.391 c -1.0632,0.0216 -2.0964,-0.1885 -2.8785,-0.8898 -1.4922,-1.3381 -1.5177,-3.6654
              -0.6804,-5.3644 0.8073,-1.6371 1.6198,-3.1175 2.015,-4.9196 0.4254,-1.9393 0.5127,-4.0924 0.2355,-6.0971
              -1.1606,-8.4023 -8.9173,-13.6024 -12.3513,-16.1195 -11.0276,-8.0833 -23.7964,-15.976 -28.6802,-30.9045
              -9.1646,-0.4223 -16.2712,-2.1298 -19.1811,-2.8785 -13.3765,-3.442 -23.4076,-9.5479 -30.8521,-15.3083
              8.6174,12.1972 10.6059,27.8667 3.2971,41.3194 -6.7425,12.409 -20.5086,20.1115 -34.4894,20.5419 -13.1393,0.4044
              -25.7642,-5.4149 -35.8764,-13.4504 C 89.05041,138.7527 79.47606,122.4954 75.89459,104.3168 73.93429,94.3671
              72.93086,84.26226 71.36752,74.24975 70.09889,66.1205 68.99102,57.1019 63.30777,50.69853 57.6605,44.3353
              48.44306,42.70913 40.54159,45.25558 33.81997,47.42188 27.36555,53.15892 25.57348,60.14518 23.27488,69.1093
              32.18816,77.40239 24.13424,85.55433 18.05823,91.70403 7.444239,90.09362 2.859637,83.01604 -4.627348,71.45773
              4.000368,58.61492 12.51564,50.46301 51.82042,12.83297 113.5646,-14.00754 167.5612,7.86147 c 15.8348,6.41347
              32.1742,18.64979 36.5044,35.98103 2.9567,11.83465 0.8723,25.20128 -7.2486,34.48946 -5.2579,6.01327
              -12.3814,10.04163 -20.0447,12.03729 5.3886,7.44054 14.6149,16.21875 32.0035,19.59985 2.3362,0.4541
              5.9096,1.0851 10.127,1.4654 -0.0699,-0.7213 -0.2511,-1.3434 -0.2878,-2.0934 -1.3256,-27.04395 20.5308,-46.00215
              38.5193,-55.47624 6.0475,-3.1851 11.8313,-5.505 17.2709,-7.27471 -0.8506,-2.61527 -1.9944,-5.34125
              -3.9252,-8.08592 -1.7451,-2.48108 -3.4453,-5.15823 -6.4373,-6.69902 -6.5191,-3.35704 -18.6016,1.43275
              -27.0054,8.79246 -6.3499,-16.88733 -1.0384,-31.323127 9.4205,-35.300666 15.7703,-6.0014603 28.4406,3.54693
              30.9829,5.312106 11.7263,8.14499 16.3634,20.95779 18.213,31.5063 3.7122,-0.34426 7.0212,-0.45736 9.6298,-0.39252
              l 0.2093,16.32885 c -2.9302,0.39651 -5.8581,0.98901 -8.7924,1.51775 -10e-4,0.01429 10e-4,0.14497 0,0.157
              -2.7332,29.15916 -26.602,45.56981 -33.2072,49.69311 -10.6034,6.6184 -21.359,9.4289 -30.983,10.3887
              6.9738,11.2377 21.1913,12.6417 33.0502,15.2821 8.5396,1.9008 17.6466,6.0277 20.9083,14.7849 3.7682,10.1197
              -1.2056,20.5939 -8.871,27.3456 -3.3411,2.9434 -7.2296,5.3176 -11.4877,6.6205 -0.9082,0.278 -1.9986,0.5279
              -3.0617,0.5496 z m -33.7829,-72.7995 c 8.5404,-0.5842 18.2652,-3.0693 27.2409,-9.9962 13.5792,-10.4796
              18.5481,-25.73771 19.5998,-37.08006 -9.4485,3.07282 -18.5,7.22299 -26.7175,12.79617 -11.142,7.55702
              -22.5327,20.46627 -20.1232,34.28009 z" />
        </g>
        <g transform="translate(530.7899,461.394)" id="g62">
          <text id="text66" style="font-variant:normal;font-weight:normal;font-size:310px;font-family:ArialRoundedMTBold;-inkscape-font-specification:ArialRoundedMTBold;writing-mode:lr-tb;fill:#000000;fill-opacity:1;fill-rule:nonzero;stroke:none" transform="scale(1,-1)">
            <tspan id="tspan64" y="0" x="0 178.56 240.87 406.41 571.95001 634.26001">Zinnia</tspan>
          </text>
        </g>
        <g transform="matrix(1,0,0,-1,475.8738,758.0034)" id="g68">
          <path id="path70" style="fill:none;stroke:#ffffff;stroke-width:25;stroke-linecap:butt;stroke-linejoin:miter;stroke-miterlimit:4;stroke-dasharray:none;stroke-opacity:1"
            d="M 73.23157,244.8418 187.2111,108.46 H 89.27649 c -6.86198,0 -12.03369,-1.5137 -15.51514,-4.5411
              -3.48144,-3.0273 -5.22217,-7.0133 -5.22217,-11.95796 0,-5.14649 1.74073,-9.30908 5.22217,-12.4878
              3.48145,-3.17871 8.65316,-4.76806 15.51514,-4.76806 H 215.5167 c 16.3477,0 24.5215,7.61881 24.5215,22.85644
              0,7.26558 -1.3623,13.06808 -4.0869,17.40728 -2.7246,4.3391 -8.2243,11.3525 -16.499,21.04 L 112.8898,262.8545
              h 117.4609 c 6.9629,0 12.1598,1.438 15.5908,4.314 3.431,2.8759 5.1465,6.8872 5.1465,12.0336 0,5.3484
              -1.7155,9.5866 -5.1465,12.7149 -3.431,3.1282 -8.6279,4.6924 -15.5908,4.6924 H 86.24915 c -9.78842,0
              -17.15495,-2.1948 -22.09961,-6.5845 -4.94467,-4.3896 -7.417,-10.2677 -7.417,-17.6343 0,-2.5228 0.40365,-4.8437
              1.21094,-6.9629 0.80729,-2.1191 1.89209,-4.1121 3.2544,-5.979 1.3623,-1.8668 3.25439,-4.2383 5.67627,-7.1142
              2.42187,-2.876 4.54101,-5.3736 6.35742,-7.4927 z M 296.1409,155.8379 v 119.4287 c 0,8.2747 -1.9677,14.5313
              -5.9033,18.7695 -3.9355,4.2383 -8.9306,6.3575 -14.9853,6.3575 -6.0547,0 -10.9742,-2.1696 -14.7583,-6.5088
              -3.7842,-4.3392 -5.6763,-10.5453 -5.6763,-18.6182 V 157.0488 c 0,-8.1738 1.8921,-14.3294 5.6763,-18.4668
              3.7841,-4.1373 8.7036,-6.206 14.7583,-6.206 6.0547,0 11.0498,2.0687 14.9853,6.206 3.9356,4.1374 5.9033,9.8894
              5.9033,17.2559 z m -20.4345,-42.6856 c -5.752,0 -10.6714,-1.7659 -14.7583,-5.2978 -4.0869,-3.5319
              -6.1304,-8.52703 -6.1304,-14.98536 0,-5.85286 2.0939,-10.67139 6.2817,-14.45557 4.1879,-3.78418 9.0568,-5.67627
              14.607,-5.67627 5.3483,0 10.0911,1.7155 14.2285,5.14649 4.1374,3.43099 6.206,8.42611 6.206,14.98535 0,6.35742
              -2.0182,11.32736 -6.0546,14.90966 -4.0365,3.5824 -8.8298,5.3735 -14.3799,5.3735 z m 78.9592,42.0801 v 4.9951
              c 7.2656,-9.5865 15.2124,-16.6251 23.8403,-21.1157 8.6279,-4.4905 18.5425,-6.7358 29.7436,-6.7358 10.8985,0
              20.6364,2.3714 29.2139,7.1142 8.5775,4.7429 14.9854,11.4535 19.2236,20.1319 2.7246,5.0455 4.4906,10.4948
              5.2979,16.3476 0.8073,5.8529 1.2109,13.3203 1.2109,22.4024 v 76.8945 c 0,8.2747 -1.8921,14.5313 -5.6762,18.7695
              -3.7842,4.2383 -8.7037,6.3575 -14.7583,6.3575 -6.1556,0 -11.1508,-2.1696 -14.9854,-6.5088 -3.8346,-4.3392
              -5.752,-10.5453 -5.752,-18.6182 v -68.8721 c 0,-13.623 -1.892,-24.0421 -5.6762,-31.2573 -3.7842,-7.2152
              -11.3273,-10.8227 -22.6294,-10.8227 -7.3666,0 -14.0772,2.1948 -20.1319,6.5844 -6.0546,4.3897 -10.4947,10.4191
              -13.3203,18.0884 -2.0182,6.1556 -3.0273,17.6595 -3.0273,34.5117 v 51.7676 c 0,8.3757 -1.9426,14.6574
              -5.8276,18.8452 -3.8851,4.1878 -8.9055,6.2818 -15.0611,6.2818 -5.9538,0 -10.848,-2.1696 -14.6826,-6.5088
              -3.8346,-4.3392 -5.7519,-10.5453 -5.7519,-18.6182 V 155.8379 c 0,-7.8711 1.7154,-13.7492 5.1464,-17.6343
              3.431,-3.8851 8.1234,-5.8276 14.0772,-5.8276 3.6328,0 6.9124,0.8577 9.8389,2.5732 2.9264,1.7155 5.2726,4.2888
              7.0385,7.7197 1.766,3.431 2.649,7.6189 2.649,12.5635 z m 165.5412,0 v 4.9951 c 7.2656,-9.5865 15.2124,-16.6251
              23.8403,-21.1157 8.6279,-4.4905 18.5425,-6.7358 29.7436,-6.7358 10.8985,0 20.6364,2.3714 29.2139,7.1142
              8.5775,4.7429 14.9854,11.4535 19.2236,20.1319 2.7247,5.0455 4.4906,10.4948 5.2979,16.3476 0.8073,5.8529
              1.2109,13.3203 1.2109,22.4024 v 76.8945 c 0,8.2747 -1.8921,14.5313 -5.6762,18.7695 -3.7842,4.2383 -8.7036,6.3575
              -14.7583,6.3575 -6.1556,0 -11.1508,-2.1696 -14.9854,-6.5088 -3.8346,-4.3392 -5.7519,-10.5453 -5.7519,-18.6182
              v -68.8721 c 0,-13.623 -1.8921,-24.0421 -5.6763,-31.2573 -3.7842,-7.2152 -11.3273,-10.8227 -22.6294,-10.8227
              -7.3665,0 -14.0772,2.1948 -20.1318,6.5844 -6.0547,4.3897 -10.4948,10.4191 -13.3204,18.0884 -2.0182,6.1556
              -3.0273,17.6595 -3.0273,34.5117 v 51.7676 c 0,8.3757 -1.9425,14.6574 -5.8276,18.8452 -3.8851,4.1878
              -8.9055,6.2818 -15.0611,6.2818 -5.9537,0 -10.8479,-2.1696 -14.6826,-6.5088 -3.8346,-4.3392 -5.7519,-10.5453
              -5.7519,-18.6182 V 155.8379 c 0,-7.8711 1.7155,-13.7492 5.1464,-17.6343 3.431,-3.8851 8.1234,-5.8276
              14.0772,-5.8276 3.6328,0 6.9124,0.8577 9.8389,2.5732 2.9264,1.7155 5.2726,4.2888 7.0385,7.7197 1.766,3.431
              2.649,7.6189 2.649,12.5635 z m 169.3254,0.6055 v 119.4287 c 0,8.2747 -1.9678,14.5313 -5.9034,18.7695
              -3.9355,4.2383 -8.9306,6.3575 -14.9853,6.3575 -6.0547,0 -10.9741,-2.1696 -14.7583,-6.5088 -3.7842,-4.3392
              -5.6763,-10.5453 -5.6763,-18.6182 V 157.0488 c 0,-8.1738 1.8921,-14.3294 5.6763,-18.4668 3.7842,-4.1373
              8.7036,-6.206 14.7583,-6.206 6.0547,0 11.0498,2.0687 14.9853,6.206 3.9356,4.1374 5.9034,9.8894 5.9034,17.2559
              z m -20.4346,-42.6856 c -5.752,0 -10.6714,-1.7659 -14.7583,-5.2978 -4.0869,-3.5319 -6.1304,-8.52703
              -6.1304,-14.98536 0,-5.85286 2.0939,-10.67139 6.2817,-14.45557 4.1879,-3.78418 9.0569,-5.67627 14.607,-5.67627
              5.3483,0 10.0911,1.7155 14.2285,5.14649 4.1374,3.43099 6.2061,8.42611 6.2061,14.98535 0,6.35742
              -2.0183,11.32736 -6.0547,14.90966 -4.0365,3.5824 -8.8298,5.3735 -14.3799,5.3735 z M 814.9611,277.083 c
              -9.9903,7.7702 -19.6525,13.5978 -28.9869,17.4829 -9.3343,3.8851 -19.8038,5.8277 -31.4086,5.8277 -10.5958,0
              -19.9048,-2.094 -27.9273,-6.2818 -8.0225,-4.1878 -14.2033,-9.8641 -18.5425,-17.0288 -4.3392,-7.1647
              -6.5088,-14.9349 -6.5088,-23.3105 0,-11.3021 3.5824,-20.9392 10.7471,-28.9112 7.1647,-7.972 17.0036,-13.3203
              29.5166,-16.0449 2.6237,-0.6055 9.1325,-1.9678 19.5264,-4.0869 10.3939,-2.1191 19.2993,-4.0617 26.7163,-5.8276
              7.417,-1.766 15.4647,-3.9104 24.143,-6.4331 -0.5045,-10.8985 -2.6993,-18.8957 -6.5844,-23.9917 -3.8851,-5.0961
              -11.9328,-7.6441 -24.1431,-7.6441 -10.4948,0 -18.3911,1.4632 -23.689,4.3897 -5.2978,2.9264 -9.8388,7.316
              -13.623,13.1689 -3.7842,5.8529 -6.4583,9.7127 -8.0225,11.5796 -1.5641,1.8669 -4.9194,2.8003 -10.0659,2.8003
              -4.6419,0 -8.6531,-1.4885 -12.0337,-4.4653 -3.3805,-2.9769 -5.0708,-6.7863 -5.0708,-11.4283 0,-7.2656
              2.5733,-14.3294 7.7198,-21.1914 5.1464,-6.862 13.1689,-12.513 24.0673,-16.9531 10.8985,-4.4401 24.4711,-6.6602
              40.7178,-6.6602 18.1641,0 32.443,2.1444 42.8369,6.4331 10.3939,4.2888 17.7352,11.0751 22.024,20.3589
              4.2887,9.2839 6.4331,21.5951 6.4331,36.9336 0,9.6875 -0.0253,17.9118 -0.0757,24.6729 -0.0505,6.761 -0.1262,14.279
              -0.2271,22.5537 0,7.7702 1.2866,15.8683 3.8599,24.2944 2.5732,8.4261 3.8598,13.8501 3.8598,16.272 0,4.2383
              -1.993,8.0981 -5.979,11.5796 -3.986,3.4814 -8.5017,5.2222 -13.5473,5.2222 -4.2383,0 -8.4261,-1.993
              -12.5635,-5.979 -4.1374,-3.9861 -8.527,-9.7632 -13.1689,-17.3316 z m -2.7247,-59.79 c -6.0546,2.22
              -14.8592,4.5662 -26.4135,7.0385 -11.5544,2.4724 -19.5516,4.2888 -23.9917,5.4493 -4.4401,1.1604 -8.6784,3.431
              -12.7149,6.8115 -4.0364,3.3805 -6.0547,8.0981 -6.0547,14.1528 0,6.2565 2.3715,11.5796 7.1143,15.9693
              4.7428,4.3896 10.9489,6.5844 18.6182,6.5844 8.1738,0 15.7169,-1.7912 22.6294,-5.3735 6.9124,-3.5824
              11.9832,-8.1991 15.2124,-13.8501 3.7337,-6.2565 5.6005,-16.5495 5.6005,-30.8789 z" />
        </g>
        <path id="path602" style="fill:#ffffff;fill-opacity:1;fill-rule:nonzero;stroke:none" d="m 1040,590 -110,35 v -125 h 85 Z" />
        <path id="path603" style="fill:#ffffff;fill-opacity:1;fill-rule:nonzero;stroke:none" d="m 1290,550 v 70 h -70 v -70 Z" />
        <g transform="translate(530.7899,461.394)" id="g72">
          <text id="text76" style="font-variant:normal;font-weight:normal;font-size:310px;font-family:ArialRoundedMTBold;-inkscape-font-specification:ArialRoundedMTBold;writing-mode:lr-tb;fill:#000000;fill-opacity:1;fill-rule:nonzero;stroke:none" transform="scale(1,-1)">
            <tspan id="tspan74" y="0" x="0 178.56 240.87 406.41 571.95001 634.26001">Zinnia</tspan>
          </text>
        </g>
        <path id="path78" style="fill:#000000;fill-opacity:1;fill-rule:nonzero;stroke:none"
          d="m 1187.078,735.2356 c 23.33,-23.33 23.33,-61.1555 0,-84.4855 -23.33,-23.33 -61.155,-23.33 -84.485,0
            -23.33,23.33 -23.33,61.1555 0,84.4855 23.33,23.33 61.155,23.33 84.485,0 z" />
        <g transform="matrix(1,0,0,-1,1085.095,752.7331)" id="g80">
          <path id="path82" style="fill:none;stroke:#ffffff;stroke-width:15;stroke-linecap:butt;stroke-linejoin:miter;stroke-miterlimit:4;stroke-dasharray:none;stroke-opacity:1"
            d="m 101.983,17.49751 c 23.33,23.33001 23.33,61.15544 0,84.48549 -23.33005,23.33 -61.15548,23.33 -84.48549,0
              -23.330013,-23.33005 -23.330013,-61.15548 0,-84.48549 23.33001,-23.330013 61.15544,-23.330013 84.48549,0 z" />
        </g>
        <g transform="translate(570.9124,384.7789)" id="g84">
          <text id="text881" style="font-variant:normal;font-weight:normal;font-size:64px;font-family:Chalkboard;-inkscape-font-specification:Chalkboard;writing-mode:lr-tb;fill:#000000;fill-opacity:1;fill-rule:nonzero;stroke:#ffffff;stroke-width:12;stroke-linecap" transform="scale(1,-1)">
            <tspan id="tspan861" y="0" x="0 30.835199 77.299202 119.3088 161.8112 186.2784 219.44321 247.80161 279.84 312.86401 329.19681 353.664 384.49921 430.9632 472.97281 515.47522 539.94238 573.10718 608.11517 647.5072 688.87677 721.90082">LONG LIFE, LONG LEAVE,</tspan>
          </text>
          <text id="text88" style="font-variant:normal;font-weight:normal;font-size:64px;font-family:Chalkboard;-inkscape-font-specification:Chalkboard;writing-mode:lr-tb;fill:#000000;fill-opacity:1;fill-rule:nonzero;stroke:none;stroke-linecap" transform="scale(1,-1)">
            <tspan id="tspan86" y="0" x="0 30.835199 77.299202 119.3088 161.8112 186.2784 219.44321 247.80161 279.84 312.86401 329.19681 353.664 384.49921 430.9632 472.97281 515.47522 539.94238 573.10718 608.11517 647.5072 688.87677 721.90082">LONG LIFE, LONG LEAVE,</tspan>
          </text>
        </g>
      </g>
    </g>
  </g>
</svg>
