<?xml version="1.0" standalone="no"?>
<svg width="649.606" height="956.693"  viewBox="-177.5 -145.5 55 81" xmlns="http://www.w3.org/2000/svg" xmlns:xlink="http://www.w3.org/1999/xlink" version="1.1">
<style>
text{stroke:none;font-weight:bold;font-family:"Consolas","Courier New",monospace;}
g.symbol{visibility:hidden;}g.footprint{stroke:black;}
.DRL{stroke:silver;fill:none;stroke-width:0.05;}
.via{visibility:hidden;}
.black{stroke:black;fill:black;}
.mask{stroke:white;fill:white;}
</style>
<!-- Symbol and Parts Libraries Description -->
<defs>
<!-- Gerber Layer -->
<clipPath id="BOARD" clip-rule="evenodd"><path stroke="none" fill-rule="evenodd" d="M175,65.5A1.5,1.5,0,0,1,176.5,67L176.5,124.05A0.95,0.95,0,0,1,175.72,124.985A0.925,0.925,0,0,0,174.988,124.625L172.5,124.625A0.625,0.625,0,1,0,172.5,125.875L175.55,125.875A0.95,0.95,0,0,1,176.5,126.825L176.5,143A1.5,1.5,0,0,1,175,144.5L169.144,144.5A0.95,0.95,0,0,1,168.472,144.222L168.278,144.028A0.95,0.95,0,0,0,167.606,143.75L163.394,143.75A0.95,0.95,0,0,0,162.722,144.028L162.722,144.028A0.95,0.95,0,0,1,161.856,144.5L159.625,144.5A0.5,0.5,0,0,1,159.125,144L159.125,142.65A0.625,0.625,0,0,0,157.875,142.65L157.875,144A0.5,0.5,0,0,1,157.375,144.5L142.625,144.5A0.5,0.5,0,0,1,142.125,144L142.125,142.65A0.625,0.625,0,0,0,140.875,142.65L140.875,144A0.5,0.5,0,0,1,140.375,144.5L138.144,144.5A0.95,0.95,0,0,1,137.472,144.222L137.472,144.222A0.95,0.95,0,0,0,136.606,143.75L132.394,143.75A0.95,0.95,0,0,0,131.722,144.028L131.722,144.028A0.95,0.95,0,0,1,130.856,144.5L125,144.5A1.5,1.5,0,0,1,123.5,143L123.5,126.825A0.95,0.95,0,0,1,124.45,125.875L127.5,125.875A0.625,0.625,0,1,0,127.5,124.625L125.012,124.625A0.925,0.925,0,0,0,124.28,124.985A0.95,0.95,0,0,1,123.5,124.05L123.5,121.894A0.95,0.95,0,0,1,123.778,121.222L124.472,120.528A0.95,0.95,0,0,0,124.75,119.856L124.75,116.144A0.95,0.95,0,0,0,124.472,115.472L123.778,114.778A0.95,0.95,0,0,1,123.5,114.106L123.5,67A1.5,1.5,0,0,1,125,65.5L175,65.5Z"/></clipPath>
<g id="OUT" stroke-linecap="round" stroke-linejoin="round"><path d="M175,65.5A1.5,1.5,0,0,1,176.5,67L176.5,124.05A0.95,0.95,0,0,1,175.72,124.985A0.925,0.925,0,0,0,174.988,124.625L172.5,124.625A0.625,0.625,0,1,0,172.5,125.875L175.55,125.875A0.95,0.95,0,0,1,176.5,126.825L176.5,143A1.5,1.5,0,0,1,175,144.5L169.144,144.5A0.95,0.95,0,0,1,168.472,144.222L168.278,144.028A0.95,0.95,0,0,0,167.606,143.75L163.394,143.75A0.95,0.95,0,0,0,162.722,144.028L162.722,144.028A0.95,0.95,0,0,1,161.856,144.5L159.625,144.5A0.5,0.5,0,0,1,159.125,144L159.125,142.65A0.625,0.625,0,0,0,157.875,142.65L157.875,144A0.5,0.5,0,0,1,157.375,144.5L142.625,144.5A0.5,0.5,0,0,1,142.125,144L142.125,142.65A0.625,0.625,0,0,0,140.875,142.65L140.875,144A0.5,0.5,0,0,1,140.375,144.5L138.144,144.5A0.95,0.95,0,0,1,137.472,144.222L137.472,144.222A0.95,0.95,0,0,0,136.606,143.75L132.394,143.75A0.95,0.95,0,0,0,131.722,144.028L131.722,144.028A0.95,0.95,0,0,1,130.856,144.5L125,144.5A1.5,1.5,0,0,1,123.5,143L123.5,126.825A0.95,0.95,0,0,1,124.45,125.875L127.5,125.875A0.625,0.625,0,1,0,127.5,124.625L125.012,124.625A0.925,0.925,0,0,0,124.28,124.985A0.95,0.95,0,0,1,123.5,124.05L123.5,121.894A0.95,0.95,0,0,1,123.778,121.222L124.472,120.528A0.95,0.95,0,0,0,124.75,119.856L124.75,116.144A0.95,0.95,0,0,0,124.472,115.472L123.778,114.778A0.95,0.95,0,0,1,123.5,114.106L123.5,67A1.5,1.5,0,0,1,125,65.5L175,65.5Z"/></g>
<rect id="FIL" x="123.5" y="65.5" width="53" height="79"/>
<g id="DRL"><g class="pad"><circle cx="147" cy="139.45" r="0.275"/><circle cx="153" cy="139.45" r="0.275"/><circle cx="154.32" cy="138.225" r="0.3"/><circle cx="154.32" cy="138.325" r="0.3"/><circle cx="154.32" cy="138.425" r="0.3"/><circle cx="154.32" cy="138.525" r="0.3"/><circle cx="154.32" cy="138.625" r="0.3"/><circle cx="154.32" cy="138.725" r="0.3"/><circle cx="154.32" cy="138.825" r="0.3"/><circle cx="154.32" cy="138.925" r="0.3"/><circle cx="154.32" cy="139.025" r="0.3"/><circle cx="154.32" cy="139.125" r="0.3"/><circle cx="154.32" cy="139.225" r="0.3"/><circle cx="154.32" cy="141.85" r="0.3"/><circle cx="154.32" cy="141.925" r="0.3"/><circle cx="154.32" cy="142.025" r="0.3"/><circle cx="154.32" cy="142.125" r="0.3"/><circle cx="154.32" cy="142.225" r="0.3"/><circle cx="154.32" cy="142.325" r="0.3"/><circle cx="154.32" cy="142.425" r="0.3"/><circle cx="154.32" cy="142.525" r="0.3"/><circle cx="154.32" cy="142.625" r="0.3"/><circle cx="154.32" cy="142.725" r="0.3"/><circle cx="154.32" cy="142.825" r="0.3"/><circle cx="154.32" cy="142.925" r="0.3"/><circle cx="154.32" cy="143.025" r="0.3"/><circle cx="154.32" cy="143.125" r="0.3"/><circle cx="154.32" cy="143.25" r="0.3"/><circle cx="145.68" cy="141.85" r="0.3"/><circle cx="145.68" cy="141.925" r="0.3"/><circle cx="145.68" cy="142.025" r="0.3"/><circle cx="145.68" cy="142.125" r="0.3"/><circle cx="145.68" cy="142.225" r="0.3"/><circle cx="145.68" cy="142.325" r="0.3"/><circle cx="145.68" cy="142.425" r="0.3"/><circle cx="145.68" cy="142.525" r="0.3"/><circle cx="145.68" cy="142.625" r="0.3"/><circle cx="145.68" cy="142.725" r="0.3"/><circle cx="145.68" cy="142.825" r="0.3"/><circle cx="145.68" cy="142.925" r="0.3"/><circle cx="145.68" cy="143.025" r="0.3"/><circle cx="145.68" cy="143.125" r="0.3"/><circle cx="145.68" cy="143.25" r="0.3"/><circle cx="145.68" cy="138.225" r="0.3"/><circle cx="145.68" cy="138.325" r="0.3"/><circle cx="145.68" cy="138.425" r="0.3"/><circle cx="145.68" cy="138.525" r="0.3"/><circle cx="145.68" cy="138.625" r="0.3"/><circle cx="145.68" cy="138.725" r="0.3"/><circle cx="145.68" cy="138.825" r="0.3"/><circle cx="145.68" cy="138.925" r="0.3"/><circle cx="145.68" cy="139.025" r="0.3"/><circle cx="145.68" cy="139.125" r="0.3"/><circle cx="145.68" cy="139.225" r="0.3"/><circle cx="165.5" cy="140.4" r="0.35"/><circle cx="165.5" cy="143.1" r="0.35"/><circle cx="134.5" cy="140.4" r="0.35"/><circle cx="134.5" cy="143.1" r="0.35"/><circle cx="138.875" cy="118.5" r="0.35"/><circle cx="138.875" cy="120.5" r="0.35"/><circle cx="132" cy="68" r="0.35"/><circle cx="138" cy="68" r="0.35"/><circle cx="136" cy="68" r="0.35"/><circle cx="134" cy="68" r="0.35"/><circle cx="158.89" cy="101.19" r="0.4"/><circle cx="161.43" cy="101.19" r="0.4"/><circle cx="156.35" cy="101.19" r="0.4"/><circle cx="148.095" cy="66.9" r="0.4"/><circle cx="153.175" cy="66.9" r="0.4"/><circle cx="154.445" cy="66.9" r="0.4"/><circle cx="149.365" cy="66.9" r="0.4"/><circle cx="150.635" cy="66.9" r="0.4"/><circle cx="151.905" cy="66.9" r="0.4"/><circle cx="146.19" cy="78.33" r="0.4"/><circle cx="148.73" cy="78.33" r="0.4"/><circle cx="143.65" cy="78.33" r="0.4"/><circle cx="133.49" cy="88.49" r="0.4"/><circle cx="133.49" cy="91.03" r="0.4"/><circle cx="133.49" cy="85.95" r="0.4"/><circle cx="138.57" cy="91.03" r="0.4"/><circle cx="138.57" cy="93.57" r="0.4"/><circle cx="138.57" cy="88.49" r="0.4"/><circle cx="141.11" cy="91.03" r="0.4"/><circle cx="141.11" cy="93.57" r="0.4"/><circle cx="141.11" cy="88.49" r="0.4"/><circle cx="143.65" cy="91.03" r="0.4"/><circle cx="136.03" cy="122.78" r="0.4"/><circle cx="136.03" cy="117.7" r="0.4"/><circle cx="136.03" cy="116.43" r="0.4"/><circle cx="136.03" cy="121.51" r="0.4"/><circle cx="136.03" cy="120.24" r="0.4"/><circle cx="136.03" cy="118.97" r="0.4"/><circle cx="148.73" cy="108.81" r="0.4"/><circle cx="148.73" cy="111.35" r="0.4"/><circle cx="148.73" cy="106.27" r="0.4"/><circle cx="146.19" cy="80.87" r="0.4"/><circle cx="143.65" cy="80.87" r="0.4"/><circle cx="125.97" cy="75.79" r="0.4"/><circle cx="125.97" cy="80.87" r="0.4"/><circle cx="125.97" cy="85.95" r="0.4"/><circle cx="125.77" cy="73.25" r="0.4"/><circle cx="125.77" cy="78.33" r="0.4"/><circle cx="125.77" cy="83.41" r="0.4"/><circle cx="125.97" cy="93.57" r="0.4"/><circle cx="125.97" cy="98.65" r="0.4"/><circle cx="125.97" cy="103.73" r="0.4"/><circle cx="125.97" cy="108.81" r="0.4"/><circle cx="125.77" cy="91.03" r="0.4"/><circle cx="125.77" cy="96.11" r="0.4"/><circle cx="125.77" cy="101.19" r="0.4"/><circle cx="125.77" cy="106.27" r="0.4"/><circle cx="174.03" cy="88.49" r="0.4"/><circle cx="174.03" cy="83.41" r="0.4"/><circle cx="174.03" cy="78.33" r="0.4"/><circle cx="174.03" cy="73.25" r="0.4"/><circle cx="174.23" cy="91.03" r="0.4"/><circle cx="174.23" cy="85.95" r="0.4"/><circle cx="174.23" cy="80.87" r="0.4"/><circle cx="174.23" cy="75.79" r="0.4"/><circle cx="174.03" cy="115.414" r="0.4"/><circle cx="174.03" cy="110.334" r="0.4"/><circle cx="174.03" cy="105.254" r="0.4"/><circle cx="174.03" cy="100.174" r="0.4"/><circle cx="174.03" cy="95.094" r="0.4"/><circle cx="174.23" cy="117.954" r="0.4"/><circle cx="174.23" cy="112.874" r="0.4"/><circle cx="174.23" cy="107.794" r="0.4"/><circle cx="174.23" cy="102.714" r="0.4"/><circle cx="174.23" cy="97.634" r="0.4"/><circle cx="161.43" cy="126.59" r="0.4"/><circle cx="160.16" cy="126.59" r="0.4"/><circle cx="158.89" cy="126.59" r="0.4"/><circle cx="157.62" cy="126.59" r="0.4"/><circle cx="158.89" cy="103.73" r="0.4"/><circle cx="161.43" cy="103.73" r="0.4"/><circle cx="156.35" cy="103.73" r="0.4"/><circle cx="169.05" cy="118.97" r="0.4"/><circle cx="169.05" cy="116.43" r="0.4"/><circle cx="169.05" cy="113.89" r="0.4"/><circle cx="169.05" cy="111.35" r="0.4"/><circle cx="169.05" cy="108.81" r="0.4"/><circle cx="169.05" cy="106.27" r="0.4"/><circle cx="169.05" cy="103.73" r="0.4"/><circle cx="169.05" cy="101.19" r="0.4"/><circle cx="169.05" cy="98.65" r="0.4"/><circle cx="169.05" cy="96.11" r="0.4"/><circle cx="148.73" cy="70.71" r="0.4"/><circle cx="148.73" cy="73.25" r="0.4"/><circle cx="151.27" cy="70.71" r="0.4"/><circle cx="151.27" cy="73.25" r="0.4"/><circle cx="153.81" cy="70.71" r="0.4"/><circle cx="153.81" cy="73.25" r="0.4"/><circle cx="130.95" cy="91.03" r="0.4"/><circle cx="130.95" cy="93.57" r="0.4"/><circle cx="130.95" cy="96.11" r="0.4"/><circle cx="130.95" cy="98.65" r="0.4"/><circle cx="130.95" cy="101.19" r="0.4"/><circle cx="130.95" cy="103.73" r="0.4"/><circle cx="130.95" cy="106.27" r="0.4"/><circle cx="130.95" cy="108.81" r="0.4"/><circle cx="169.05" cy="91.03" r="0.4"/><circle cx="169.05" cy="88.49" r="0.4"/><circle cx="169.05" cy="85.95" r="0.4"/><circle cx="169.05" cy="83.41" r="0.4"/><circle cx="169.05" cy="80.87" r="0.4"/><circle cx="169.05" cy="78.33" r="0.4"/><circle cx="169.05" cy="75.79" r="0.4"/><circle cx="169.05" cy="73.25" r="0.4"/><circle cx="130.95" cy="73.25" r="0.4"/><circle cx="130.95" cy="75.79" r="0.4"/><circle cx="130.95" cy="78.33" r="0.4"/><circle cx="130.95" cy="80.87" r="0.4"/><circle cx="130.95" cy="83.41" r="0.4"/><circle cx="130.95" cy="85.95" r="0.4"/><circle cx="126" cy="120.5" r="0.425"/><circle cx="126" cy="115.5" r="0.425"/><circle cx="170" cy="67.5" r="0.576"/><circle cx="125.5" cy="136" r="0.576"/><circle cx="174.5" cy="135" r="0.576"/><circle cx="136.03" cy="106.27" r="0.6"/><circle cx="163.97" cy="106.27" r="0.6"/><circle cx="166.51" cy="73.25" r="0.6"/><circle cx="136.03" cy="73.25" r="0.6"/><circle cx="133.49" cy="73.25" r="0.6"/><circle cx="172.995" cy="132" r="0.9"/><circle cx="165.375" cy="134.54" r="0.9"/><circle cx="165.375" cy="129.46" r="0.9"/><circle cx="127.005" cy="132" r="0.9"/><circle cx="134.625" cy="129.46" r="0.9"/><circle cx="134.625" cy="134.54" r="0.9"/><circle cx="164.5" cy="117" r="1.6"/><circle cx="126.5" cy="141" r="1.6"/><circle cx="173.5" cy="141" r="1.6"/><circle cx="173.5" cy="69" r="1.6"/><circle cx="126.5" cy="69" r="1.6"/><circle cx="158.89" cy="70.71" r="1.6"/></g><g class="via"><circle cx="160" cy="97" r="0.15"/><circle cx="161.43" cy="98.04" r="0.15"/><circle cx="153.25" cy="107" r="0.15"/><circle cx="142.75" cy="106.5" r="0.15"/><circle cx="134.5" cy="77" r="0.15"/><circle cx="140" cy="82" r="0.15"/><circle cx="140" cy="72.5" r="0.15"/><circle cx="142" cy="72.5" r="0.15"/><circle cx="156.5" cy="68.5" r="0.15"/><circle cx="146.5" cy="68.5" r="0.15"/><circle cx="162" cy="71" r="0.15"/><circle cx="150.5" cy="78" r="0.15"/><circle cx="146" cy="90" r="0.15"/><circle cx="146" cy="92" r="0.15"/><circle cx="132.5" cy="110" r="0.15"/><circle cx="165" cy="76" r="0.15"/><circle cx="167.25" cy="78.25" r="0.15"/><circle cx="167.45" cy="80.965" r="0.15"/><circle cx="166.95" cy="81.652" r="0.15"/><circle cx="166.45" cy="82.34" r="0.15"/><circle cx="165.95" cy="83.027" r="0.15"/><circle cx="149.5" cy="82.5" r="0.15"/><circle cx="158" cy="79.5" r="0.15"/><circle cx="157" cy="94" r="0.15"/><circle cx="160" cy="88" r="0.15"/><circle cx="160" cy="84" r="0.15"/><circle cx="158" cy="82" r="0.15"/><circle cx="165.416" cy="77.457" r="0.15"/><circle cx="155.41" cy="73.5" r="0.15"/><circle cx="165.269" cy="88.709" r="0.15"/><circle cx="165.102" cy="87.876" r="0.15"/><circle cx="162.198" cy="87.893" r="0.15"/><circle cx="162.366" cy="88.726" r="0.15"/><circle cx="162.351" cy="75.644" r="0.15"/><circle cx="162.673" cy="76.63" r="0.15"/><circle cx="159.637" cy="77.809" r="0.15"/><circle cx="160.295" cy="75.85" r="0.15"/><circle cx="160" cy="77.04" r="0.15"/><circle cx="159.017" cy="78.39" r="0.15"/><circle cx="155.566" cy="77.656" r="0.15"/><circle cx="156.416" cy="76.85" r="0.15"/><circle cx="159.25" cy="82.75" r="0.15"/><circle cx="165.45" cy="85.964" r="0.15"/><circle cx="163.343" cy="84.909" r="0.15"/><circle cx="162.212" cy="86.04" r="0.15"/><circle cx="162.778" cy="85.475" r="0.15"/><circle cx="161.646" cy="86.606" r="0.15"/><circle cx="160" cy="86.375" r="0.15"/><circle cx="158.795" cy="89.25" r="0.15"/><circle cx="159.75" cy="89.25" r="0.15"/><circle cx="157.975" cy="88.43" r="0.15"/><circle cx="143.5" cy="95" r="0.15"/><circle cx="153" cy="89" r="0.15"/><circle cx="155" cy="91" r="0.15"/><circle cx="153" cy="93" r="0.15"/><circle cx="151" cy="91" r="0.15"/><circle cx="152" cy="99" r="0.15"/><circle cx="150" cy="104" r="0.15"/><circle cx="149.5" cy="100.5" r="0.15"/><circle cx="139.5" cy="102" r="0.15"/><circle cx="139.5" cy="107.5" r="0.15"/><circle cx="146.5" cy="106.5" r="0.15"/><circle cx="126" cy="122" r="0.15"/><circle cx="126" cy="114" r="0.15"/><circle cx="127" cy="118" r="0.15"/><circle cx="126" cy="111.5" r="0.15"/><circle cx="128.375" cy="117.18" r="0.15"/><circle cx="129.696" cy="113.65" r="0.15"/><circle cx="129.696" cy="114.5" r="0.15"/><circle cx="143" cy="109.75" r="0.15"/><circle cx="149.75" cy="102.3" r="0.15"/><circle cx="143" cy="117.5" r="0.15"/><circle cx="137.955" cy="104.925" r="0.15"/><circle cx="152.125" cy="104.625" r="0.15"/><circle cx="162" cy="110" r="0.15"/><circle cx="132.75" cy="120.875" r="0.15"/><circle cx="127.14" cy="94.84" r="0.15"/><circle cx="129.839" cy="94.84" r="0.15"/><circle cx="153" cy="126" r="0.15"/><circle cx="128" cy="87.5" r="0.15"/><circle cx="136" cy="115" r="0.15"/><circle cx="132" cy="125" r="0.15"/><circle cx="130" cy="123" r="0.15"/><circle cx="152" cy="112" r="0.15"/><circle cx="150" cy="115" r="0.15"/><circle cx="150.625" cy="112.775" r="0.15"/><circle cx="154" cy="118.875" r="0.15"/><circle cx="166" cy="114" r="0.15"/><circle cx="163" cy="119" r="0.15"/><circle cx="175.5" cy="123" r="0.15"/><circle cx="172.5" cy="123" r="0.15"/><circle cx="169.5" cy="123" r="0.15"/><circle cx="174" cy="121" r="0.15"/><circle cx="171" cy="121" r="0.15"/><circle cx="171" cy="125" r="0.15"/><circle cx="168" cy="121" r="0.15"/><circle cx="168" cy="125" r="0.15"/><circle cx="155.5" cy="122.5" r="0.15"/><circle cx="140.5" cy="68.5" r="0.15"/><circle cx="140.1" cy="69.725" r="0.15"/><circle cx="144.75" cy="69.5" r="0.15"/><circle cx="138" cy="136.5" r="0.15"/><circle cx="163" cy="99" r="0.15"/><circle cx="137.405" cy="124.813" r="0.15"/><circle cx="142.057" cy="83.315" r="0.15"/><circle cx="141.207" cy="83.315" r="0.15"/><circle cx="153.25" cy="122.5" r="0.15"/><circle cx="166.5" cy="66.5" r="0.15"/><circle cx="157" cy="129" r="0.15"/><circle cx="162" cy="134.5" r="0.15"/><circle cx="155.5" cy="137.125" r="0.15"/><circle cx="146.625" cy="137.125" r="0.15"/><circle cx="153.375" cy="137.125" r="0.15"/><circle cx="141.75" cy="126.75" r="0.15"/><circle cx="141.75" cy="123" r="0.15"/><circle cx="140.25" cy="125" r="0.15"/><circle cx="145.25" cy="123.75" r="0.15"/><circle cx="157.75" cy="134.375" r="0.15"/><circle cx="142.5" cy="134.375" r="0.15"/><circle cx="146.5" cy="134.375" r="0.15"/><circle cx="146.5" cy="125" r="0.15"/><circle cx="146.5" cy="131.75" r="0.15"/><circle cx="172" cy="93" r="0.15"/><circle cx="164" cy="104" r="0.15"/><circle cx="163" cy="139" r="0.15"/><circle cx="137" cy="139" r="0.15"/><circle cx="141" cy="129" r="0.15"/><circle cx="144" cy="129" r="0.15"/><circle cx="153" cy="131" r="0.15"/><circle cx="126" cy="89" r="0.15"/><circle cx="144" cy="125" r="0.15"/><circle cx="134" cy="139" r="0.15"/><circle cx="130" cy="139" r="0.15"/><circle cx="130" cy="143" r="0.15"/><circle cx="170" cy="143" r="0.15"/><circle cx="166" cy="139" r="0.15"/><circle cx="170" cy="139" r="0.15"/><circle cx="175.5" cy="93" r="0.15"/><circle cx="141.725" cy="132.775" r="0.15"/><circle cx="140.77" cy="130.97" r="0.15"/><circle cx="140.77" cy="131.82" r="0.15"/><circle cx="133.5" cy="70.5" r="0.15"/><circle cx="136" cy="70.5" r="0.15"/><circle cx="171" cy="71.5" r="0.15"/><circle cx="171" cy="66.5" r="0.15"/><circle cx="175.5" cy="71.5" r="0.15"/><circle cx="124.5" cy="71.5" r="0.15"/><circle cx="129.5" cy="70.5" r="0.15"/><circle cx="129.5" cy="66.5" r="0.15"/><circle cx="140.5" cy="66.5" r="0.15"/><circle cx="160.05" cy="131.588" r="0.15"/><circle cx="160.55" cy="132.275" r="0.15"/><circle cx="158.07" cy="132.775" r="0.15"/><circle cx="159.025" cy="132.775" r="0.15"/><circle cx="146.285" cy="72.15" r="0.15"/><circle cx="146.285" cy="73" r="0.15"/><circle cx="146.285" cy="73.85" r="0.15"/><circle cx="137.705" cy="71.325" r="0.15"/><circle cx="148.135" cy="74.525" r="0.15"/><circle cx="153.125" cy="83.315" r="0.2"/><circle cx="140.625" cy="77.211" r="0.2"/><circle cx="140.625" cy="76.25" r="0.2"/><circle cx="140.75" cy="111" r="0.2"/><circle cx="138" cy="111" r="0.2"/></g></g>
</defs>
<!-- Rendering View Port -->
<g transform="scale(-1,-1)" clip-path="url(#BOARD)">
<use xlink:href="#DRL" class="DRL"/>
<use xlink:href="#OUT" stroke="gray" stroke-width="0.05" fill="none"/>
</g>
<!-- Parts Preview -->
<g transform="scale(-1,-1)" stroke-linecap="round" stroke-linejoin="round" stroke="gray" fill="gray" stroke-width="0.05">
<use xlink:href="#tmp220222084204" transform="translate(133.49,73.25),scale(-1,1),rotate(0)"/>
<use xlink:href="#DRL" class="DRL"/>
<g transform="translate(133.49,73.25),scale(-1,-1),rotate(0)" stroke="none" fill="white"><rect x="-0.975" y="-0.5" fill="gray" width="1.95" height="1" /><text font-size="1" textLength="1.95" x="0" y="0.3" text-anchor="middle">CN5</text></g>
</g>
</svg>
