<?xml version="1.0" standalone="no"?>
<svg width="833.622" height="653.622"  viewBox="-186.56 -133.94 70.58 55.34" xmlns="http://www.w3.org/2000/svg" xmlns:xlink="http://www.w3.org/1999/xlink" version="1.1">
<style>
text{stroke:none;font-weight:bold;font-family:"Consolas","Courier New",monospace;}
g.footprint{visibility:hidden;}
.drill{stroke:black;fill:black;stroke-width:0;}
.cover{stroke:rgb(95,135,61);fill:rgb(95,135,61);}
.silk{stroke:white;fill:white;}
.plate{stroke:rgb(153,153,153);fill:rgb(153,153,153);}
.regist{stroke:rgb(21,102,19);fill:rgb(21,102,19);}
.board{stroke:rgb(213,212,137);fill:rgb(213,212,137);}
.under{stroke:rgb(204,153,105);fill:rgb(204,153,105);}
.via{fill:rgb(21,102,19);}
.DRL{stroke:gray;fill:none;stroke-width:0.025;}
.black{stroke:black;fill:black;}
.mask{stroke:white;fill:white;}
</style>
<!-- Symbol and Parts Libraries Description -->
<defs>
<!-- Gerber Layer -->
<clipPath id="BOARD" clip-rule="evenodd"><path stroke="none" fill-rule="evenodd" d="M116.98,79.6L116.98,132.94L181.496,132.94L183.02,131.416L183.02,119.986L185.56,117.446L185.56,84.68L183.02,82.14L183.02,79.6L116.98,79.6Z"/></clipPath>
<g id="OUT" stroke-linecap="round" stroke-linejoin="round"><path d="M116.98,79.6L116.98,132.94L181.496,132.94L183.02,131.416L183.02,119.986L185.56,117.446L185.56,84.68L183.02,82.14L183.02,79.6L116.98,79.6Z"/></g>
<rect id="FIL" x="116.98" y="79.6" width="68.58" height="53.34"/>
<g id="GBL"><g fill="none" stroke-linecap="round" stroke-linejoin="round"><path stroke-width="0.3" d="M170.32,81.92L170.32,82.04M170.32,82.04L170.32,82.14M170.32,82.14L170.32,82.36M175.4,81.92L175.4,82.04M175.4,82.04L175.4,82.14M175.4,82.14L175.4,82.36M180.48,81.92L180.48,82.04M180.48,82.04L180.48,82.14M180.48,82.14L180.48,82.36M167.78,81.92L167.78,82.14M167.78,82.14L167.78,82.24M167.78,82.24L167.78,82.36M172.86,81.92L172.86,82.14M172.86,82.14L172.86,82.24M172.86,82.24L172.86,82.36M177.94,81.92L177.94,82.14M177.94,82.14L177.94,82.24M177.94,82.24L177.94,82.36M147.46,81.92L147.46,82.04M147.46,82.04L147.46,82.14M147.46,82.14L147.46,82.36M152.54,81.92L152.54,82.04M152.54,82.04L152.54,82.14M152.54,82.14L152.54,82.36M157.62,81.92L157.62,82.04M157.62,82.04L157.62,82.14M157.62,82.14L157.62,82.36M162.7,81.92L162.7,82.04M162.7,82.04L162.7,82.14M162.7,82.14L162.7,82.36M144.92,81.92L144.92,82.14M144.92,82.14L144.92,82.24M144.92,82.24L144.92,82.36M150,81.92L150,82.14M150,82.14L150,82.24M150,82.24L150,82.36M155.08,81.92L155.08,82.14M155.08,82.14L155.08,82.24M155.08,82.24L155.08,82.36M160.16,81.92L160.16,82.14M160.16,82.14L160.16,82.24M160.16,82.24L160.16,82.36M177.94,130.62L177.94,130.5M177.94,130.5L177.94,130.4M177.94,130.4L177.94,130.18M172.86,130.62L172.86,130.5M172.86,130.5L172.86,130.4M172.86,130.4L172.86,130.18M167.78,130.62L167.78,130.5M167.78,130.5L167.78,130.4M167.78,130.4L167.78,130.18M162.7,130.62L162.7,130.5M162.7,130.5L162.7,130.4M162.7,130.4L162.7,130.18M180.48,130.62L180.48,130.4M180.48,130.4L180.48,130.3M180.48,130.3L180.48,130.18M175.4,130.62L175.4,130.4M175.4,130.4L175.4,130.3M175.4,130.3L175.4,130.18M170.32,130.62L170.32,130.4M170.32,130.4L170.32,130.3M170.32,130.3L170.32,130.18M165.24,130.62L165.24,130.4M165.24,130.4L165.24,130.3M165.24,130.3L165.24,130.18M156.096,130.62L156.096,130.5M156.096,130.5L156.096,130.4M156.096,130.4L156.096,130.18M151.016,130.62L151.016,130.5M151.016,130.5L151.016,130.4M151.016,130.4L151.016,130.18M145.936,130.62L145.936,130.5M145.936,130.5L145.936,130.4M145.936,130.4L145.936,130.18M140.856,130.62L140.856,130.5M140.856,130.5L140.856,130.4M140.856,130.4L140.856,130.18M135.776,130.62L135.776,130.5M135.776,130.5L135.776,130.4M135.776,130.4L135.776,130.18M158.636,130.62L158.636,130.4M158.636,130.4L158.636,130.3M158.636,130.3L158.636,130.18M153.556,130.62L153.556,130.4M153.556,130.4L153.556,130.3M153.556,130.3L153.556,130.18M148.476,130.62L148.476,130.4M148.476,130.4L148.476,130.3M148.476,130.3L148.476,130.18M143.396,130.62L143.396,130.4M143.396,130.4L143.396,130.3M143.396,130.3L143.396,130.18M138.316,130.62L138.316,130.4M138.316,130.4L138.316,130.3M138.316,130.3L138.316,130.18"/><path stroke-width="1" d="M180.48,127.86L180.48,130.3M177.94,130.5L177.94,127.86M175.4,130.3L175.4,127.86M172.86,130.5L172.86,127.86M170.32,130.3L170.32,127.86M167.78,130.5L167.78,127.86M165.24,130.3L165.24,127.86M162.7,130.5L162.7,127.86M158.636,130.18L157.62,127.86M156.096,130.18L155.08,127.86M153.556,130.18L152.54,127.86M150,127.86L151.016,130.18M148.476,130.18L147.46,127.86M145.936,130.18L144.92,127.86M143.396,130.18L142.38,127.86M140.856,130.18L139.84,127.86M138.316,130.18L137.3,127.86M135.776,130.18L134.76,127.86M144.92,84.68L144.92,82.24M147.46,84.68L147.46,82.04M150,84.68L150,82.24M152.54,84.68L152.54,82.04M155.08,84.68L155.08,82.24M157.62,84.68L157.62,82.04M160.16,84.68L160.16,82.24M162.7,84.68L162.7,82.04M167.78,84.68L167.78,82.24M170.32,84.68L170.32,82.04M172.86,84.68L172.86,82.24M175.4,82.04L175.4,84.68M177.94,84.68L177.94,82.24M180.48,84.68L180.48,82.04"/><path stroke-width="1.6" d="M170.32,81.92L170.32,82.36M175.4,81.92L175.4,82.36M180.48,81.92L180.48,82.36M167.78,81.92L167.78,82.36M172.86,81.92L172.86,82.36M177.94,81.92L177.94,82.36M147.46,81.92L147.46,82.36M152.54,81.92L152.54,82.36M157.62,81.92L157.62,82.36M162.7,81.92L162.7,82.36M144.92,81.92L144.92,82.36M150,81.92L150,82.36M155.08,81.92L155.08,82.36M160.16,81.92L160.16,82.36M177.94,130.62L177.94,130.18M172.86,130.62L172.86,130.18M167.78,130.62L167.78,130.18M162.7,130.62L162.7,130.18M180.48,130.62L180.48,130.18M175.4,130.62L175.4,130.18M170.32,130.62L170.32,130.18M165.24,130.62L165.24,130.18M156.096,130.62L156.096,130.18M151.016,130.62L151.016,130.18M145.936,130.62L145.936,130.18M140.856,130.62L140.856,130.18M135.776,130.62L135.776,130.18M158.636,130.62L158.636,130.18M153.556,130.62L153.556,130.18M148.476,130.62L148.476,130.18M143.396,130.62L143.396,130.18M138.316,130.62L138.316,130.18"/></g><g stroke="none"><circle cx="177.94" cy="127.86" r="0.8"/><circle cx="177.94" cy="125.32" r="0.8"/><circle cx="177.94" cy="122.78" r="0.8"/><circle cx="177.94" cy="120.24" r="0.8"/><circle cx="177.94" cy="117.7" r="0.8"/><circle cx="177.94" cy="115.16" r="0.8"/><circle cx="177.94" cy="112.62" r="0.8"/><circle cx="177.94" cy="110.08" r="0.8"/><circle cx="177.94" cy="107.54" r="0.8"/><circle cx="177.94" cy="105" r="0.8"/><circle cx="177.94" cy="102.46" r="0.8"/><circle cx="177.94" cy="99.92" r="0.8"/><circle cx="177.94" cy="97.38" r="0.8"/><circle cx="177.94" cy="94.84" r="0.8"/><circle cx="177.94" cy="92.3" r="0.8"/><circle cx="177.94" cy="89.76" r="0.8"/><circle cx="177.94" cy="87.22" r="0.8"/><circle cx="177.94" cy="84.68" r="0.8"/><circle cx="175.4" cy="127.86" r="0.8"/><circle cx="175.4" cy="125.32" r="0.8"/><circle cx="175.4" cy="122.78" r="0.8"/><circle cx="175.4" cy="120.24" r="0.8"/><circle cx="175.4" cy="117.7" r="0.8"/><circle cx="175.4" cy="115.16" r="0.8"/><circle cx="175.4" cy="112.62" r="0.8"/><circle cx="175.4" cy="110.08" r="0.8"/><circle cx="175.4" cy="107.54" r="0.8"/><circle cx="175.4" cy="105" r="0.8"/><circle cx="175.4" cy="102.46" r="0.8"/><circle cx="175.4" cy="99.92" r="0.8"/><circle cx="175.4" cy="97.38" r="0.8"/><circle cx="175.4" cy="94.84" r="0.8"/><circle cx="175.4" cy="92.3" r="0.8"/><circle cx="175.4" cy="89.76" r="0.8"/><circle cx="175.4" cy="87.22" r="0.8"/><circle cx="175.4" cy="84.68" r="0.8"/><circle cx="172.86" cy="127.86" r="0.8"/><circle cx="172.86" cy="125.32" r="0.8"/><circle cx="172.86" cy="122.78" r="0.8"/><circle cx="172.86" cy="120.24" r="0.8"/><circle cx="172.86" cy="117.7" r="0.8"/><circle cx="172.86" cy="115.16" r="0.8"/><circle cx="172.86" cy="112.62" r="0.8"/><circle cx="172.86" cy="110.08" r="0.8"/><circle cx="172.86" cy="107.54" r="0.8"/><circle cx="172.86" cy="105" r="0.8"/><circle cx="172.86" cy="102.46" r="0.8"/><circle cx="172.86" cy="99.92" r="0.8"/><circle cx="172.86" cy="97.38" r="0.8"/><circle cx="172.86" cy="94.84" r="0.8"/><circle cx="172.86" cy="92.3" r="0.8"/><circle cx="172.86" cy="89.76" r="0.8"/><circle cx="172.86" cy="87.22" r="0.8"/><circle cx="172.86" cy="84.68" r="0.8"/><circle cx="170.32" cy="127.86" r="0.8"/><circle cx="170.32" cy="125.32" r="0.8"/><circle cx="170.32" cy="122.78" r="0.8"/><circle cx="170.32" cy="120.24" r="0.8"/><circle cx="170.32" cy="117.7" r="0.8"/><circle cx="170.32" cy="115.16" r="0.8"/><circle cx="170.32" cy="112.62" r="0.8"/><circle cx="170.32" cy="110.08" r="0.8"/><circle cx="170.32" cy="107.54" r="0.8"/><circle cx="170.32" cy="105" r="0.8"/><circle cx="170.32" cy="102.46" r="0.8"/><circle cx="170.32" cy="99.92" r="0.8"/><circle cx="170.32" cy="97.38" r="0.8"/><circle cx="170.32" cy="94.84" r="0.8"/><circle cx="170.32" cy="92.3" r="0.8"/><circle cx="170.32" cy="89.76" r="0.8"/><circle cx="170.32" cy="87.22" r="0.8"/><circle cx="170.32" cy="84.68" r="0.8"/><circle cx="167.78" cy="127.86" r="0.8"/><circle cx="167.78" cy="125.32" r="0.8"/><circle cx="167.78" cy="122.78" r="0.8"/><circle cx="167.78" cy="120.24" r="0.8"/><circle cx="167.78" cy="117.7" r="0.8"/><circle cx="167.78" cy="115.16" r="0.8"/><circle cx="167.78" cy="112.62" r="0.8"/><circle cx="167.78" cy="110.08" r="0.8"/><circle cx="167.78" cy="107.54" r="0.8"/><circle cx="167.78" cy="105" r="0.8"/><circle cx="167.78" cy="102.46" r="0.8"/><circle cx="167.78" cy="99.92" r="0.8"/><circle cx="167.78" cy="97.38" r="0.8"/><circle cx="167.78" cy="94.84" r="0.8"/><circle cx="167.78" cy="92.3" r="0.8"/><circle cx="167.78" cy="89.76" r="0.8"/><circle cx="167.78" cy="87.22" r="0.8"/><circle cx="167.78" cy="84.68" r="0.8"/><circle cx="165.24" cy="127.86" r="0.8"/><circle cx="165.24" cy="125.32" r="0.8"/><circle cx="165.24" cy="122.78" r="0.8"/><circle cx="165.24" cy="120.24" r="0.8"/><circle cx="165.24" cy="117.7" r="0.8"/><circle cx="165.24" cy="115.16" r="0.8"/><circle cx="165.24" cy="112.62" r="0.8"/><circle cx="165.24" cy="110.08" r="0.8"/><circle cx="165.24" cy="107.54" r="0.8"/><circle cx="165.24" cy="105" r="0.8"/><circle cx="165.24" cy="102.46" r="0.8"/><circle cx="165.24" cy="99.92" r="0.8"/><circle cx="165.24" cy="97.38" r="0.8"/><circle cx="165.24" cy="94.84" r="0.8"/><circle cx="165.24" cy="92.3" r="0.8"/><circle cx="165.24" cy="89.76" r="0.8"/><circle cx="165.24" cy="87.22" r="0.8"/><circle cx="165.24" cy="84.68" r="0.8"/><circle cx="162.7" cy="127.86" r="0.8"/><circle cx="162.7" cy="125.32" r="0.8"/><circle cx="162.7" cy="122.78" r="0.8"/><circle cx="162.7" cy="120.24" r="0.8"/><circle cx="162.7" cy="117.7" r="0.8"/><circle cx="162.7" cy="115.16" r="0.8"/><circle cx="162.7" cy="112.62" r="0.8"/><circle cx="162.7" cy="110.08" r="0.8"/><circle cx="162.7" cy="107.54" r="0.8"/><circle cx="162.7" cy="105" r="0.8"/><circle cx="162.7" cy="102.46" r="0.8"/><circle cx="162.7" cy="99.92" r="0.8"/><circle cx="162.7" cy="97.38" r="0.8"/><circle cx="162.7" cy="94.84" r="0.8"/><circle cx="162.7" cy="92.3" r="0.8"/><circle cx="162.7" cy="89.76" r="0.8"/><circle cx="162.7" cy="87.22" r="0.8"/><circle cx="162.7" cy="84.68" r="0.8"/><circle cx="160.16" cy="127.86" r="0.8"/><circle cx="160.16" cy="125.32" r="0.8"/><circle cx="160.16" cy="122.78" r="0.8"/><circle cx="160.16" cy="120.24" r="0.8"/><circle cx="160.16" cy="117.7" r="0.8"/><circle cx="160.16" cy="115.16" r="0.8"/><circle cx="160.16" cy="112.62" r="0.8"/><circle cx="160.16" cy="110.08" r="0.8"/><circle cx="160.16" cy="107.54" r="0.8"/><circle cx="160.16" cy="105" r="0.8"/><circle cx="160.16" cy="102.46" r="0.8"/><circle cx="160.16" cy="99.92" r="0.8"/><circle cx="160.16" cy="97.38" r="0.8"/><circle cx="160.16" cy="94.84" r="0.8"/><circle cx="160.16" cy="92.3" r="0.8"/><circle cx="160.16" cy="89.76" r="0.8"/><circle cx="160.16" cy="87.22" r="0.8"/><circle cx="160.16" cy="84.68" r="0.8"/><circle cx="157.62" cy="127.86" r="0.8"/><circle cx="157.62" cy="125.32" r="0.8"/><circle cx="157.62" cy="122.78" r="0.8"/><circle cx="157.62" cy="120.24" r="0.8"/><circle cx="157.62" cy="117.7" r="0.8"/><circle cx="157.62" cy="115.16" r="0.8"/><circle cx="157.62" cy="112.62" r="0.8"/><circle cx="157.62" cy="110.08" r="0.8"/><circle cx="157.62" cy="107.54" r="0.8"/><circle cx="157.62" cy="105" r="0.8"/><circle cx="157.62" cy="102.46" r="0.8"/><circle cx="157.62" cy="99.92" r="0.8"/><circle cx="157.62" cy="97.38" r="0.8"/><circle cx="157.62" cy="94.84" r="0.8"/><circle cx="157.62" cy="92.3" r="0.8"/><circle cx="157.62" cy="89.76" r="0.8"/><circle cx="157.62" cy="87.22" r="0.8"/><circle cx="157.62" cy="84.68" r="0.8"/><circle cx="155.08" cy="127.86" r="0.8"/><circle cx="155.08" cy="125.32" r="0.8"/><circle cx="155.08" cy="122.78" r="0.8"/><circle cx="155.08" cy="120.24" r="0.8"/><circle cx="155.08" cy="117.7" r="0.8"/><circle cx="155.08" cy="115.16" r="0.8"/><circle cx="155.08" cy="112.62" r="0.8"/><circle cx="155.08" cy="110.08" r="0.8"/><circle cx="155.08" cy="107.54" r="0.8"/><circle cx="155.08" cy="105" r="0.8"/><circle cx="155.08" cy="102.46" r="0.8"/><circle cx="155.08" cy="99.92" r="0.8"/><circle cx="155.08" cy="97.38" r="0.8"/><circle cx="155.08" cy="94.84" r="0.8"/><circle cx="155.08" cy="92.3" r="0.8"/><circle cx="155.08" cy="89.76" r="0.8"/><circle cx="155.08" cy="87.22" r="0.8"/><circle cx="155.08" cy="84.68" r="0.8"/><circle cx="152.54" cy="127.86" r="0.8"/><circle cx="152.54" cy="125.32" r="0.8"/><circle cx="152.54" cy="122.78" r="0.8"/><circle cx="152.54" cy="120.24" r="0.8"/><circle cx="152.54" cy="117.7" r="0.8"/><circle cx="152.54" cy="115.16" r="0.8"/><circle cx="152.54" cy="112.62" r="0.8"/><circle cx="152.54" cy="110.08" r="0.8"/><circle cx="152.54" cy="107.54" r="0.8"/><circle cx="152.54" cy="105" r="0.8"/><circle cx="152.54" cy="102.46" r="0.8"/><circle cx="152.54" cy="99.92" r="0.8"/><circle cx="152.54" cy="97.38" r="0.8"/><circle cx="152.54" cy="94.84" r="0.8"/><circle cx="152.54" cy="92.3" r="0.8"/><circle cx="152.54" cy="89.76" r="0.8"/><circle cx="152.54" cy="87.22" r="0.8"/><circle cx="152.54" cy="84.68" r="0.8"/><circle cx="150" cy="127.86" r="0.8"/><circle cx="150" cy="125.32" r="0.8"/><circle cx="150" cy="122.78" r="0.8"/><circle cx="150" cy="120.24" r="0.8"/><circle cx="150" cy="117.7" r="0.8"/><circle cx="150" cy="115.16" r="0.8"/><circle cx="150" cy="112.62" r="0.8"/><circle cx="150" cy="110.08" r="0.8"/><circle cx="150" cy="107.54" r="0.8"/><circle cx="150" cy="105" r="0.8"/><circle cx="150" cy="102.46" r="0.8"/><circle cx="150" cy="99.92" r="0.8"/><circle cx="150" cy="97.38" r="0.8"/><circle cx="150" cy="94.84" r="0.8"/><circle cx="150" cy="92.3" r="0.8"/><circle cx="150" cy="89.76" r="0.8"/><circle cx="150" cy="87.22" r="0.8"/><circle cx="150" cy="84.68" r="0.8"/><circle cx="147.46" cy="127.86" r="0.8"/><circle cx="147.46" cy="125.32" r="0.8"/><circle cx="147.46" cy="122.78" r="0.8"/><circle cx="147.46" cy="120.24" r="0.8"/><circle cx="147.46" cy="117.7" r="0.8"/><circle cx="147.46" cy="115.16" r="0.8"/><circle cx="147.46" cy="112.62" r="0.8"/><circle cx="147.46" cy="110.08" r="0.8"/><circle cx="147.46" cy="107.54" r="0.8"/><circle cx="147.46" cy="105" r="0.8"/><circle cx="147.46" cy="102.46" r="0.8"/><circle cx="147.46" cy="99.92" r="0.8"/><circle cx="147.46" cy="97.38" r="0.8"/><circle cx="147.46" cy="94.84" r="0.8"/><circle cx="147.46" cy="92.3" r="0.8"/><circle cx="147.46" cy="89.76" r="0.8"/><circle cx="147.46" cy="87.22" r="0.8"/><circle cx="147.46" cy="84.68" r="0.8"/><circle cx="144.92" cy="127.86" r="0.8"/><circle cx="144.92" cy="125.32" r="0.8"/><circle cx="144.92" cy="122.78" r="0.8"/><circle cx="144.92" cy="120.24" r="0.8"/><circle cx="144.92" cy="117.7" r="0.8"/><circle cx="144.92" cy="115.16" r="0.8"/><circle cx="144.92" cy="112.62" r="0.8"/><circle cx="144.92" cy="110.08" r="0.8"/><circle cx="144.92" cy="107.54" r="0.8"/><circle cx="144.92" cy="105" r="0.8"/><circle cx="144.92" cy="102.46" r="0.8"/><circle cx="144.92" cy="99.92" r="0.8"/><circle cx="144.92" cy="97.38" r="0.8"/><circle cx="144.92" cy="94.84" r="0.8"/><circle cx="144.92" cy="92.3" r="0.8"/><circle cx="144.92" cy="89.76" r="0.8"/><circle cx="144.92" cy="87.22" r="0.8"/><circle cx="144.92" cy="84.68" r="0.8"/><circle cx="142.38" cy="127.86" r="0.8"/><circle cx="142.38" cy="125.32" r="0.8"/><circle cx="142.38" cy="122.78" r="0.8"/><circle cx="142.38" cy="120.24" r="0.8"/><circle cx="142.38" cy="117.7" r="0.8"/><circle cx="142.38" cy="115.16" r="0.8"/><circle cx="142.38" cy="112.62" r="0.8"/><circle cx="142.38" cy="110.08" r="0.8"/><circle cx="142.38" cy="107.54" r="0.8"/><circle cx="142.38" cy="105" r="0.8"/><circle cx="142.38" cy="102.46" r="0.8"/><circle cx="142.38" cy="99.92" r="0.8"/><circle cx="142.38" cy="97.38" r="0.8"/><circle cx="142.38" cy="94.84" r="0.8"/><circle cx="142.38" cy="92.3" r="0.8"/><circle cx="142.38" cy="89.76" r="0.8"/><circle cx="142.38" cy="87.22" r="0.8"/><circle cx="142.38" cy="84.68" r="0.8"/><circle cx="139.84" cy="127.86" r="0.8"/><circle cx="139.84" cy="125.32" r="0.8"/><circle cx="139.84" cy="122.78" r="0.8"/><circle cx="139.84" cy="120.24" r="0.8"/><circle cx="139.84" cy="117.7" r="0.8"/><circle cx="139.84" cy="115.16" r="0.8"/><circle cx="139.84" cy="112.62" r="0.8"/><circle cx="139.84" cy="110.08" r="0.8"/><circle cx="139.84" cy="107.54" r="0.8"/><circle cx="139.84" cy="105" r="0.8"/><circle cx="139.84" cy="102.46" r="0.8"/><circle cx="139.84" cy="99.92" r="0.8"/><circle cx="139.84" cy="97.38" r="0.8"/><circle cx="139.84" cy="94.84" r="0.8"/><circle cx="139.84" cy="92.3" r="0.8"/><circle cx="139.84" cy="89.76" r="0.8"/><circle cx="139.84" cy="87.22" r="0.8"/><circle cx="139.84" cy="84.68" r="0.8"/><circle cx="137.3" cy="127.86" r="0.8"/><circle cx="137.3" cy="125.32" r="0.8"/><circle cx="137.3" cy="122.78" r="0.8"/><circle cx="137.3" cy="120.24" r="0.8"/><circle cx="137.3" cy="117.7" r="0.8"/><circle cx="137.3" cy="115.16" r="0.8"/><circle cx="137.3" cy="112.62" r="0.8"/><circle cx="137.3" cy="110.08" r="0.8"/><circle cx="137.3" cy="107.54" r="0.8"/><circle cx="137.3" cy="105" r="0.8"/><circle cx="137.3" cy="102.46" r="0.8"/><circle cx="137.3" cy="99.92" r="0.8"/><circle cx="137.3" cy="97.38" r="0.8"/><circle cx="137.3" cy="94.84" r="0.8"/><circle cx="137.3" cy="92.3" r="0.8"/><circle cx="137.3" cy="89.76" r="0.8"/><circle cx="137.3" cy="87.22" r="0.8"/><circle cx="137.3" cy="84.68" r="0.8"/><circle cx="134.76" cy="127.86" r="0.8"/><circle cx="134.76" cy="125.32" r="0.8"/><circle cx="134.76" cy="122.78" r="0.8"/><circle cx="134.76" cy="120.24" r="0.8"/><circle cx="134.76" cy="117.7" r="0.8"/><circle cx="134.76" cy="115.16" r="0.8"/><circle cx="134.76" cy="112.62" r="0.8"/><circle cx="134.76" cy="110.08" r="0.8"/><circle cx="134.76" cy="107.54" r="0.8"/><circle cx="134.76" cy="105" r="0.8"/><circle cx="134.76" cy="102.46" r="0.8"/><circle cx="134.76" cy="99.92" r="0.8"/><circle cx="134.76" cy="97.38" r="0.8"/><circle cx="134.76" cy="94.84" r="0.8"/><circle cx="134.76" cy="92.3" r="0.8"/><circle cx="134.76" cy="89.76" r="0.8"/><circle cx="134.76" cy="87.22" r="0.8"/><circle cx="134.76" cy="84.68" r="0.8"/><circle cx="137.3" cy="127.86" r="0.8"/><circle cx="137.3" cy="125.32" r="0.8"/><circle cx="137.3" cy="122.78" r="0.8"/><circle cx="137.3" cy="120.24" r="0.8"/><circle cx="137.3" cy="117.7" r="0.8"/><circle cx="137.3" cy="115.16" r="0.8"/><circle cx="137.3" cy="112.62" r="0.8"/><circle cx="137.3" cy="110.08" r="0.8"/><circle cx="137.3" cy="107.54" r="0.8"/><circle cx="137.3" cy="105" r="0.8"/><circle cx="137.3" cy="102.46" r="0.8"/><circle cx="137.3" cy="99.92" r="0.8"/><circle cx="137.3" cy="97.38" r="0.8"/><circle cx="137.3" cy="94.84" r="0.8"/><circle cx="137.3" cy="92.3" r="0.8"/><circle cx="137.3" cy="89.76" r="0.8"/><circle cx="137.3" cy="87.22" r="0.8"/><circle cx="137.3" cy="84.68" r="0.8"/><circle cx="132.22" cy="125.32" r="0.8"/><circle cx="132.22" cy="122.78" r="0.8"/><circle cx="132.22" cy="120.24" r="0.8"/><circle cx="132.22" cy="117.7" r="0.8"/><circle cx="132.22" cy="115.16" r="0.8"/><circle cx="132.22" cy="112.62" r="0.8"/><circle cx="132.22" cy="110.08" r="0.8"/><circle cx="132.22" cy="107.54" r="0.8"/><circle cx="132.22" cy="105" r="0.8"/><circle cx="132.22" cy="102.46" r="0.8"/><circle cx="132.22" cy="99.92" r="0.8"/><circle cx="132.22" cy="97.38" r="0.8"/><circle cx="132.22" cy="94.84" r="0.8"/><circle cx="132.22" cy="92.3" r="0.8"/><circle cx="132.22" cy="89.76" r="0.8"/><circle cx="132.22" cy="87.22" r="0.8"/><circle cx="129.68" cy="127.86" r="0.8"/><circle cx="129.68" cy="125.32" r="0.8"/><circle cx="129.68" cy="122.78" r="0.8"/><circle cx="129.68" cy="120.24" r="0.8"/><circle cx="129.68" cy="117.7" r="0.8"/><circle cx="129.68" cy="115.16" r="0.8"/><circle cx="129.68" cy="112.62" r="0.8"/><circle cx="129.68" cy="110.08" r="0.8"/><circle cx="129.68" cy="107.54" r="0.8"/><circle cx="129.68" cy="105" r="0.8"/><circle cx="129.68" cy="102.46" r="0.8"/><circle cx="129.68" cy="99.92" r="0.8"/><circle cx="129.68" cy="97.38" r="0.8"/><circle cx="129.68" cy="94.84" r="0.8"/><circle cx="129.68" cy="92.3" r="0.8"/><circle cx="129.68" cy="89.76" r="0.8"/><circle cx="129.68" cy="87.22" r="0.8"/><circle cx="127.14" cy="127.86" r="0.8"/><circle cx="127.14" cy="125.32" r="0.8"/><circle cx="127.14" cy="122.78" r="0.8"/><circle cx="127.14" cy="120.24" r="0.8"/><circle cx="127.14" cy="117.7" r="0.8"/><circle cx="127.14" cy="115.16" r="0.8"/><circle cx="127.14" cy="112.62" r="0.8"/><circle cx="127.14" cy="110.08" r="0.8"/><circle cx="127.14" cy="107.54" r="0.8"/><circle cx="127.14" cy="105" r="0.8"/><circle cx="127.14" cy="102.46" r="0.8"/><circle cx="127.14" cy="99.92" r="0.8"/><circle cx="127.14" cy="97.38" r="0.8"/><circle cx="127.14" cy="94.84" r="0.8"/><circle cx="127.14" cy="92.3" r="0.8"/><circle cx="127.14" cy="89.76" r="0.8"/><circle cx="127.14" cy="87.22" r="0.8"/><circle cx="127.14" cy="84.68" r="0.8"/><circle cx="124.6" cy="127.86" r="0.8"/><circle cx="124.6" cy="125.32" r="0.8"/><circle cx="124.6" cy="122.78" r="0.8"/><circle cx="124.6" cy="120.24" r="0.8"/><circle cx="124.6" cy="117.7" r="0.8"/><circle cx="124.6" cy="115.16" r="0.8"/><circle cx="124.6" cy="112.62" r="0.8"/><circle cx="124.6" cy="110.08" r="0.8"/><circle cx="124.6" cy="107.54" r="0.8"/><circle cx="124.6" cy="105" r="0.8"/><circle cx="124.6" cy="102.46" r="0.8"/><circle cx="124.6" cy="99.92" r="0.8"/><circle cx="124.6" cy="97.38" r="0.8"/><circle cx="124.6" cy="94.84" r="0.8"/><circle cx="124.6" cy="92.3" r="0.8"/><circle cx="124.6" cy="89.76" r="0.8"/><circle cx="124.6" cy="87.22" r="0.8"/><circle cx="124.6" cy="84.68" r="0.8"/><circle cx="122.06" cy="127.86" r="0.8"/><circle cx="122.06" cy="125.32" r="0.8"/><circle cx="122.06" cy="122.78" r="0.8"/><circle cx="122.06" cy="120.24" r="0.8"/><circle cx="122.06" cy="117.7" r="0.8"/><circle cx="122.06" cy="115.16" r="0.8"/><circle cx="122.06" cy="112.62" r="0.8"/><circle cx="122.06" cy="110.08" r="0.8"/><circle cx="122.06" cy="107.54" r="0.8"/><circle cx="122.06" cy="105" r="0.8"/><circle cx="122.06" cy="102.46" r="0.8"/><circle cx="122.06" cy="99.92" r="0.8"/><circle cx="122.06" cy="97.38" r="0.8"/><circle cx="122.06" cy="94.84" r="0.8"/><circle cx="122.06" cy="92.3" r="0.8"/><circle cx="122.06" cy="89.76" r="0.8"/><circle cx="122.06" cy="87.22" r="0.8"/><circle cx="122.06" cy="84.68" r="0.8"/><circle cx="119.52" cy="127.86" r="0.8"/><circle cx="119.52" cy="125.32" r="0.8"/><circle cx="119.52" cy="122.78" r="0.8"/><circle cx="119.52" cy="120.24" r="0.8"/><circle cx="119.52" cy="117.7" r="0.8"/><circle cx="119.52" cy="115.16" r="0.8"/><circle cx="119.52" cy="112.62" r="0.8"/><circle cx="119.52" cy="110.08" r="0.8"/><circle cx="119.52" cy="107.54" r="0.8"/><circle cx="119.52" cy="105" r="0.8"/><circle cx="119.52" cy="102.46" r="0.8"/><circle cx="119.52" cy="99.92" r="0.8"/><circle cx="119.52" cy="97.38" r="0.8"/><circle cx="119.52" cy="94.84" r="0.8"/><circle cx="119.52" cy="92.3" r="0.8"/><circle cx="119.52" cy="89.76" r="0.8"/><circle cx="119.52" cy="87.22" r="0.8"/><circle cx="119.52" cy="84.68" r="0.8"/><circle cx="119.52" cy="82.14" r="0.8"/><circle cx="122.06" cy="82.14" r="0.8"/><circle cx="124.6" cy="82.14" r="0.8"/><circle cx="127.14" cy="82.14" r="0.8"/><circle cx="134.76" cy="82.14" r="0.8"/><circle cx="137.3" cy="82.14" r="0.8"/><circle cx="139.84" cy="82.14" r="0.8"/><circle cx="142.38" cy="82.14" r="0.8"/><circle cx="127.14" cy="130.4" r="0.8"/><circle cx="124.6" cy="130.4" r="0.8"/><circle cx="122.06" cy="130.4" r="0.8"/><circle cx="119.52" cy="130.4" r="0.8"/><circle cx="180.48" cy="127.86" r="0.8"/><circle cx="180.48" cy="125.32" r="0.8"/><circle cx="180.48" cy="122.78" r="0.8"/><circle cx="180.48" cy="120.24" r="0.8"/><circle cx="180.48" cy="117.7" r="0.8"/><circle cx="180.48" cy="112.62" r="0.8"/><circle cx="180.48" cy="110.08" r="0.8"/><circle cx="183.02" cy="110.08" r="0.8"/><circle cx="183.02" cy="107.54" r="0.8"/><circle cx="180.48" cy="107.54" r="0.8"/><circle cx="180.48" cy="105" r="0.8"/><circle cx="183.02" cy="105" r="0.8"/><circle cx="183.02" cy="102.46" r="0.8"/><circle cx="180.48" cy="102.46" r="0.8"/><circle cx="180.48" cy="99.92" r="0.8"/><circle cx="180.48" cy="97.38" r="0.8"/><circle cx="180.48" cy="94.84" r="0.8"/><circle cx="180.48" cy="92.3" r="0.8"/><circle cx="180.48" cy="89.76" r="0.8"/><circle cx="183.02" cy="92.3" r="0.8"/><circle cx="183.02" cy="94.84" r="0.8"/><circle cx="183.02" cy="97.38" r="0.8"/><circle cx="183.02" cy="99.92" r="0.8"/><circle cx="180.48" cy="84.68" r="0.8"/></g></g>
<g id="GBS"><g fill="none" stroke-linecap="round" stroke-linejoin="round"><path stroke-width="1.7" d="M170.32,81.92L170.32,82.36M175.4,81.92L175.4,82.36M180.48,81.92L180.48,82.36M167.78,81.92L167.78,82.36M172.86,81.92L172.86,82.36M177.94,81.92L177.94,82.36M147.46,81.92L147.46,82.36M152.54,81.92L152.54,82.36M157.62,81.92L157.62,82.36M162.7,81.92L162.7,82.36M144.92,81.92L144.92,82.36M150,81.92L150,82.36M155.08,81.92L155.08,82.36M160.16,81.92L160.16,82.36M177.94,130.62L177.94,130.18M172.86,130.62L172.86,130.18M167.78,130.62L167.78,130.18M162.7,130.62L162.7,130.18M180.48,130.62L180.48,130.18M175.4,130.62L175.4,130.18M170.32,130.62L170.32,130.18M165.24,130.62L165.24,130.18M156.096,130.62L156.096,130.18M151.016,130.62L151.016,130.18M145.936,130.62L145.936,130.18M140.856,130.62L140.856,130.18M135.776,130.62L135.776,130.18M158.636,130.62L158.636,130.18M153.556,130.62L153.556,130.18M148.476,130.62L148.476,130.18M143.396,130.62L143.396,130.18M138.316,130.62L138.316,130.18"/></g><g stroke="none"><circle cx="177.94" cy="127.86" r="0.85"/><circle cx="177.94" cy="125.32" r="0.85"/><circle cx="177.94" cy="122.78" r="0.85"/><circle cx="177.94" cy="120.24" r="0.85"/><circle cx="177.94" cy="117.7" r="0.85"/><circle cx="177.94" cy="115.16" r="0.85"/><circle cx="177.94" cy="112.62" r="0.85"/><circle cx="177.94" cy="110.08" r="0.85"/><circle cx="177.94" cy="107.54" r="0.85"/><circle cx="177.94" cy="105" r="0.85"/><circle cx="177.94" cy="102.46" r="0.85"/><circle cx="177.94" cy="99.92" r="0.85"/><circle cx="177.94" cy="97.38" r="0.85"/><circle cx="177.94" cy="94.84" r="0.85"/><circle cx="177.94" cy="92.3" r="0.85"/><circle cx="177.94" cy="89.76" r="0.85"/><circle cx="177.94" cy="87.22" r="0.85"/><circle cx="177.94" cy="84.68" r="0.85"/><circle cx="175.4" cy="127.86" r="0.85"/><circle cx="175.4" cy="125.32" r="0.85"/><circle cx="175.4" cy="122.78" r="0.85"/><circle cx="175.4" cy="120.24" r="0.85"/><circle cx="175.4" cy="117.7" r="0.85"/><circle cx="175.4" cy="115.16" r="0.85"/><circle cx="175.4" cy="112.62" r="0.85"/><circle cx="175.4" cy="110.08" r="0.85"/><circle cx="175.4" cy="107.54" r="0.85"/><circle cx="175.4" cy="105" r="0.85"/><circle cx="175.4" cy="102.46" r="0.85"/><circle cx="175.4" cy="99.92" r="0.85"/><circle cx="175.4" cy="97.38" r="0.85"/><circle cx="175.4" cy="94.84" r="0.85"/><circle cx="175.4" cy="92.3" r="0.85"/><circle cx="175.4" cy="89.76" r="0.85"/><circle cx="175.4" cy="87.22" r="0.85"/><circle cx="175.4" cy="84.68" r="0.85"/><circle cx="172.86" cy="127.86" r="0.85"/><circle cx="172.86" cy="125.32" r="0.85"/><circle cx="172.86" cy="122.78" r="0.85"/><circle cx="172.86" cy="120.24" r="0.85"/><circle cx="172.86" cy="117.7" r="0.85"/><circle cx="172.86" cy="115.16" r="0.85"/><circle cx="172.86" cy="112.62" r="0.85"/><circle cx="172.86" cy="110.08" r="0.85"/><circle cx="172.86" cy="107.54" r="0.85"/><circle cx="172.86" cy="105" r="0.85"/><circle cx="172.86" cy="102.46" r="0.85"/><circle cx="172.86" cy="99.92" r="0.85"/><circle cx="172.86" cy="97.38" r="0.85"/><circle cx="172.86" cy="94.84" r="0.85"/><circle cx="172.86" cy="92.3" r="0.85"/><circle cx="172.86" cy="89.76" r="0.85"/><circle cx="172.86" cy="87.22" r="0.85"/><circle cx="172.86" cy="84.68" r="0.85"/><circle cx="170.32" cy="127.86" r="0.85"/><circle cx="170.32" cy="125.32" r="0.85"/><circle cx="170.32" cy="122.78" r="0.85"/><circle cx="170.32" cy="120.24" r="0.85"/><circle cx="170.32" cy="117.7" r="0.85"/><circle cx="170.32" cy="115.16" r="0.85"/><circle cx="170.32" cy="112.62" r="0.85"/><circle cx="170.32" cy="110.08" r="0.85"/><circle cx="170.32" cy="107.54" r="0.85"/><circle cx="170.32" cy="105" r="0.85"/><circle cx="170.32" cy="102.46" r="0.85"/><circle cx="170.32" cy="99.92" r="0.85"/><circle cx="170.32" cy="97.38" r="0.85"/><circle cx="170.32" cy="94.84" r="0.85"/><circle cx="170.32" cy="92.3" r="0.85"/><circle cx="170.32" cy="89.76" r="0.85"/><circle cx="170.32" cy="87.22" r="0.85"/><circle cx="170.32" cy="84.68" r="0.85"/><circle cx="167.78" cy="127.86" r="0.85"/><circle cx="167.78" cy="125.32" r="0.85"/><circle cx="167.78" cy="122.78" r="0.85"/><circle cx="167.78" cy="120.24" r="0.85"/><circle cx="167.78" cy="117.7" r="0.85"/><circle cx="167.78" cy="115.16" r="0.85"/><circle cx="167.78" cy="112.62" r="0.85"/><circle cx="167.78" cy="110.08" r="0.85"/><circle cx="167.78" cy="107.54" r="0.85"/><circle cx="167.78" cy="105" r="0.85"/><circle cx="167.78" cy="102.46" r="0.85"/><circle cx="167.78" cy="99.92" r="0.85"/><circle cx="167.78" cy="97.38" r="0.85"/><circle cx="167.78" cy="94.84" r="0.85"/><circle cx="167.78" cy="92.3" r="0.85"/><circle cx="167.78" cy="89.76" r="0.85"/><circle cx="167.78" cy="87.22" r="0.85"/><circle cx="167.78" cy="84.68" r="0.85"/><circle cx="165.24" cy="127.86" r="0.85"/><circle cx="165.24" cy="125.32" r="0.85"/><circle cx="165.24" cy="122.78" r="0.85"/><circle cx="165.24" cy="120.24" r="0.85"/><circle cx="165.24" cy="117.7" r="0.85"/><circle cx="165.24" cy="115.16" r="0.85"/><circle cx="165.24" cy="112.62" r="0.85"/><circle cx="165.24" cy="110.08" r="0.85"/><circle cx="165.24" cy="107.54" r="0.85"/><circle cx="165.24" cy="105" r="0.85"/><circle cx="165.24" cy="102.46" r="0.85"/><circle cx="165.24" cy="99.92" r="0.85"/><circle cx="165.24" cy="97.38" r="0.85"/><circle cx="165.24" cy="94.84" r="0.85"/><circle cx="165.24" cy="92.3" r="0.85"/><circle cx="165.24" cy="89.76" r="0.85"/><circle cx="165.24" cy="87.22" r="0.85"/><circle cx="165.24" cy="84.68" r="0.85"/><circle cx="162.7" cy="127.86" r="0.85"/><circle cx="162.7" cy="125.32" r="0.85"/><circle cx="162.7" cy="122.78" r="0.85"/><circle cx="162.7" cy="120.24" r="0.85"/><circle cx="162.7" cy="117.7" r="0.85"/><circle cx="162.7" cy="115.16" r="0.85"/><circle cx="162.7" cy="112.62" r="0.85"/><circle cx="162.7" cy="110.08" r="0.85"/><circle cx="162.7" cy="107.54" r="0.85"/><circle cx="162.7" cy="105" r="0.85"/><circle cx="162.7" cy="102.46" r="0.85"/><circle cx="162.7" cy="99.92" r="0.85"/><circle cx="162.7" cy="97.38" r="0.85"/><circle cx="162.7" cy="94.84" r="0.85"/><circle cx="162.7" cy="92.3" r="0.85"/><circle cx="162.7" cy="89.76" r="0.85"/><circle cx="162.7" cy="87.22" r="0.85"/><circle cx="162.7" cy="84.68" r="0.85"/><circle cx="160.16" cy="127.86" r="0.85"/><circle cx="160.16" cy="125.32" r="0.85"/><circle cx="160.16" cy="122.78" r="0.85"/><circle cx="160.16" cy="120.24" r="0.85"/><circle cx="160.16" cy="117.7" r="0.85"/><circle cx="160.16" cy="115.16" r="0.85"/><circle cx="160.16" cy="112.62" r="0.85"/><circle cx="160.16" cy="110.08" r="0.85"/><circle cx="160.16" cy="107.54" r="0.85"/><circle cx="160.16" cy="105" r="0.85"/><circle cx="160.16" cy="102.46" r="0.85"/><circle cx="160.16" cy="99.92" r="0.85"/><circle cx="160.16" cy="97.38" r="0.85"/><circle cx="160.16" cy="94.84" r="0.85"/><circle cx="160.16" cy="92.3" r="0.85"/><circle cx="160.16" cy="89.76" r="0.85"/><circle cx="160.16" cy="87.22" r="0.85"/><circle cx="160.16" cy="84.68" r="0.85"/><circle cx="157.62" cy="127.86" r="0.85"/><circle cx="157.62" cy="125.32" r="0.85"/><circle cx="157.62" cy="122.78" r="0.85"/><circle cx="157.62" cy="120.24" r="0.85"/><circle cx="157.62" cy="117.7" r="0.85"/><circle cx="157.62" cy="115.16" r="0.85"/><circle cx="157.62" cy="112.62" r="0.85"/><circle cx="157.62" cy="110.08" r="0.85"/><circle cx="157.62" cy="107.54" r="0.85"/><circle cx="157.62" cy="105" r="0.85"/><circle cx="157.62" cy="102.46" r="0.85"/><circle cx="157.62" cy="99.92" r="0.85"/><circle cx="157.62" cy="97.38" r="0.85"/><circle cx="157.62" cy="94.84" r="0.85"/><circle cx="157.62" cy="92.3" r="0.85"/><circle cx="157.62" cy="89.76" r="0.85"/><circle cx="157.62" cy="87.22" r="0.85"/><circle cx="157.62" cy="84.68" r="0.85"/><circle cx="155.08" cy="127.86" r="0.85"/><circle cx="155.08" cy="125.32" r="0.85"/><circle cx="155.08" cy="122.78" r="0.85"/><circle cx="155.08" cy="120.24" r="0.85"/><circle cx="155.08" cy="117.7" r="0.85"/><circle cx="155.08" cy="115.16" r="0.85"/><circle cx="155.08" cy="112.62" r="0.85"/><circle cx="155.08" cy="110.08" r="0.85"/><circle cx="155.08" cy="107.54" r="0.85"/><circle cx="155.08" cy="105" r="0.85"/><circle cx="155.08" cy="102.46" r="0.85"/><circle cx="155.08" cy="99.92" r="0.85"/><circle cx="155.08" cy="97.38" r="0.85"/><circle cx="155.08" cy="94.84" r="0.85"/><circle cx="155.08" cy="92.3" r="0.85"/><circle cx="155.08" cy="89.76" r="0.85"/><circle cx="155.08" cy="87.22" r="0.85"/><circle cx="155.08" cy="84.68" r="0.85"/><circle cx="152.54" cy="127.86" r="0.85"/><circle cx="152.54" cy="125.32" r="0.85"/><circle cx="152.54" cy="122.78" r="0.85"/><circle cx="152.54" cy="120.24" r="0.85"/><circle cx="152.54" cy="117.7" r="0.85"/><circle cx="152.54" cy="115.16" r="0.85"/><circle cx="152.54" cy="112.62" r="0.85"/><circle cx="152.54" cy="110.08" r="0.85"/><circle cx="152.54" cy="107.54" r="0.85"/><circle cx="152.54" cy="105" r="0.85"/><circle cx="152.54" cy="102.46" r="0.85"/><circle cx="152.54" cy="99.92" r="0.85"/><circle cx="152.54" cy="97.38" r="0.85"/><circle cx="152.54" cy="94.84" r="0.85"/><circle cx="152.54" cy="92.3" r="0.85"/><circle cx="152.54" cy="89.76" r="0.85"/><circle cx="152.54" cy="87.22" r="0.85"/><circle cx="152.54" cy="84.68" r="0.85"/><circle cx="150" cy="127.86" r="0.85"/><circle cx="150" cy="125.32" r="0.85"/><circle cx="150" cy="122.78" r="0.85"/><circle cx="150" cy="120.24" r="0.85"/><circle cx="150" cy="117.7" r="0.85"/><circle cx="150" cy="115.16" r="0.85"/><circle cx="150" cy="112.62" r="0.85"/><circle cx="150" cy="110.08" r="0.85"/><circle cx="150" cy="107.54" r="0.85"/><circle cx="150" cy="105" r="0.85"/><circle cx="150" cy="102.46" r="0.85"/><circle cx="150" cy="99.92" r="0.85"/><circle cx="150" cy="97.38" r="0.85"/><circle cx="150" cy="94.84" r="0.85"/><circle cx="150" cy="92.3" r="0.85"/><circle cx="150" cy="89.76" r="0.85"/><circle cx="150" cy="87.22" r="0.85"/><circle cx="150" cy="84.68" r="0.85"/><circle cx="147.46" cy="127.86" r="0.85"/><circle cx="147.46" cy="125.32" r="0.85"/><circle cx="147.46" cy="122.78" r="0.85"/><circle cx="147.46" cy="120.24" r="0.85"/><circle cx="147.46" cy="117.7" r="0.85"/><circle cx="147.46" cy="115.16" r="0.85"/><circle cx="147.46" cy="112.62" r="0.85"/><circle cx="147.46" cy="110.08" r="0.85"/><circle cx="147.46" cy="107.54" r="0.85"/><circle cx="147.46" cy="105" r="0.85"/><circle cx="147.46" cy="102.46" r="0.85"/><circle cx="147.46" cy="99.92" r="0.85"/><circle cx="147.46" cy="97.38" r="0.85"/><circle cx="147.46" cy="94.84" r="0.85"/><circle cx="147.46" cy="92.3" r="0.85"/><circle cx="147.46" cy="89.76" r="0.85"/><circle cx="147.46" cy="87.22" r="0.85"/><circle cx="147.46" cy="84.68" r="0.85"/><circle cx="144.92" cy="127.86" r="0.85"/><circle cx="144.92" cy="125.32" r="0.85"/><circle cx="144.92" cy="122.78" r="0.85"/><circle cx="144.92" cy="120.24" r="0.85"/><circle cx="144.92" cy="117.7" r="0.85"/><circle cx="144.92" cy="115.16" r="0.85"/><circle cx="144.92" cy="112.62" r="0.85"/><circle cx="144.92" cy="110.08" r="0.85"/><circle cx="144.92" cy="107.54" r="0.85"/><circle cx="144.92" cy="105" r="0.85"/><circle cx="144.92" cy="102.46" r="0.85"/><circle cx="144.92" cy="99.92" r="0.85"/><circle cx="144.92" cy="97.38" r="0.85"/><circle cx="144.92" cy="94.84" r="0.85"/><circle cx="144.92" cy="92.3" r="0.85"/><circle cx="144.92" cy="89.76" r="0.85"/><circle cx="144.92" cy="87.22" r="0.85"/><circle cx="144.92" cy="84.68" r="0.85"/><circle cx="142.38" cy="127.86" r="0.85"/><circle cx="142.38" cy="125.32" r="0.85"/><circle cx="142.38" cy="122.78" r="0.85"/><circle cx="142.38" cy="120.24" r="0.85"/><circle cx="142.38" cy="117.7" r="0.85"/><circle cx="142.38" cy="115.16" r="0.85"/><circle cx="142.38" cy="112.62" r="0.85"/><circle cx="142.38" cy="110.08" r="0.85"/><circle cx="142.38" cy="107.54" r="0.85"/><circle cx="142.38" cy="105" r="0.85"/><circle cx="142.38" cy="102.46" r="0.85"/><circle cx="142.38" cy="99.92" r="0.85"/><circle cx="142.38" cy="97.38" r="0.85"/><circle cx="142.38" cy="94.84" r="0.85"/><circle cx="142.38" cy="92.3" r="0.85"/><circle cx="142.38" cy="89.76" r="0.85"/><circle cx="142.38" cy="87.22" r="0.85"/><circle cx="142.38" cy="84.68" r="0.85"/><circle cx="139.84" cy="127.86" r="0.85"/><circle cx="139.84" cy="125.32" r="0.85"/><circle cx="139.84" cy="122.78" r="0.85"/><circle cx="139.84" cy="120.24" r="0.85"/><circle cx="139.84" cy="117.7" r="0.85"/><circle cx="139.84" cy="115.16" r="0.85"/><circle cx="139.84" cy="112.62" r="0.85"/><circle cx="139.84" cy="110.08" r="0.85"/><circle cx="139.84" cy="107.54" r="0.85"/><circle cx="139.84" cy="105" r="0.85"/><circle cx="139.84" cy="102.46" r="0.85"/><circle cx="139.84" cy="99.92" r="0.85"/><circle cx="139.84" cy="97.38" r="0.85"/><circle cx="139.84" cy="94.84" r="0.85"/><circle cx="139.84" cy="92.3" r="0.85"/><circle cx="139.84" cy="89.76" r="0.85"/><circle cx="139.84" cy="87.22" r="0.85"/><circle cx="139.84" cy="84.68" r="0.85"/><circle cx="137.3" cy="127.86" r="0.85"/><circle cx="137.3" cy="125.32" r="0.85"/><circle cx="137.3" cy="122.78" r="0.85"/><circle cx="137.3" cy="120.24" r="0.85"/><circle cx="137.3" cy="117.7" r="0.85"/><circle cx="137.3" cy="115.16" r="0.85"/><circle cx="137.3" cy="112.62" r="0.85"/><circle cx="137.3" cy="110.08" r="0.85"/><circle cx="137.3" cy="107.54" r="0.85"/><circle cx="137.3" cy="105" r="0.85"/><circle cx="137.3" cy="102.46" r="0.85"/><circle cx="137.3" cy="99.92" r="0.85"/><circle cx="137.3" cy="97.38" r="0.85"/><circle cx="137.3" cy="94.84" r="0.85"/><circle cx="137.3" cy="92.3" r="0.85"/><circle cx="137.3" cy="89.76" r="0.85"/><circle cx="137.3" cy="87.22" r="0.85"/><circle cx="137.3" cy="84.68" r="0.85"/><circle cx="134.76" cy="127.86" r="0.85"/><circle cx="134.76" cy="125.32" r="0.85"/><circle cx="134.76" cy="122.78" r="0.85"/><circle cx="134.76" cy="120.24" r="0.85"/><circle cx="134.76" cy="117.7" r="0.85"/><circle cx="134.76" cy="115.16" r="0.85"/><circle cx="134.76" cy="112.62" r="0.85"/><circle cx="134.76" cy="110.08" r="0.85"/><circle cx="134.76" cy="107.54" r="0.85"/><circle cx="134.76" cy="105" r="0.85"/><circle cx="134.76" cy="102.46" r="0.85"/><circle cx="134.76" cy="99.92" r="0.85"/><circle cx="134.76" cy="97.38" r="0.85"/><circle cx="134.76" cy="94.84" r="0.85"/><circle cx="134.76" cy="92.3" r="0.85"/><circle cx="134.76" cy="89.76" r="0.85"/><circle cx="134.76" cy="87.22" r="0.85"/><circle cx="134.76" cy="84.68" r="0.85"/><circle cx="137.3" cy="127.86" r="0.85"/><circle cx="137.3" cy="125.32" r="0.85"/><circle cx="137.3" cy="122.78" r="0.85"/><circle cx="137.3" cy="120.24" r="0.85"/><circle cx="137.3" cy="117.7" r="0.85"/><circle cx="137.3" cy="115.16" r="0.85"/><circle cx="137.3" cy="112.62" r="0.85"/><circle cx="137.3" cy="110.08" r="0.85"/><circle cx="137.3" cy="107.54" r="0.85"/><circle cx="137.3" cy="105" r="0.85"/><circle cx="137.3" cy="102.46" r="0.85"/><circle cx="137.3" cy="99.92" r="0.85"/><circle cx="137.3" cy="97.38" r="0.85"/><circle cx="137.3" cy="94.84" r="0.85"/><circle cx="137.3" cy="92.3" r="0.85"/><circle cx="137.3" cy="89.76" r="0.85"/><circle cx="137.3" cy="87.22" r="0.85"/><circle cx="137.3" cy="84.68" r="0.85"/><circle cx="132.22" cy="125.32" r="0.85"/><circle cx="132.22" cy="122.78" r="0.85"/><circle cx="132.22" cy="120.24" r="0.85"/><circle cx="132.22" cy="117.7" r="0.85"/><circle cx="132.22" cy="115.16" r="0.85"/><circle cx="132.22" cy="112.62" r="0.85"/><circle cx="132.22" cy="110.08" r="0.85"/><circle cx="132.22" cy="107.54" r="0.85"/><circle cx="132.22" cy="105" r="0.85"/><circle cx="132.22" cy="102.46" r="0.85"/><circle cx="132.22" cy="99.92" r="0.85"/><circle cx="132.22" cy="97.38" r="0.85"/><circle cx="132.22" cy="94.84" r="0.85"/><circle cx="132.22" cy="92.3" r="0.85"/><circle cx="132.22" cy="89.76" r="0.85"/><circle cx="132.22" cy="87.22" r="0.85"/><circle cx="129.68" cy="127.86" r="0.85"/><circle cx="129.68" cy="125.32" r="0.85"/><circle cx="129.68" cy="122.78" r="0.85"/><circle cx="129.68" cy="120.24" r="0.85"/><circle cx="129.68" cy="117.7" r="0.85"/><circle cx="129.68" cy="115.16" r="0.85"/><circle cx="129.68" cy="112.62" r="0.85"/><circle cx="129.68" cy="110.08" r="0.85"/><circle cx="129.68" cy="107.54" r="0.85"/><circle cx="129.68" cy="105" r="0.85"/><circle cx="129.68" cy="102.46" r="0.85"/><circle cx="129.68" cy="99.92" r="0.85"/><circle cx="129.68" cy="97.38" r="0.85"/><circle cx="129.68" cy="94.84" r="0.85"/><circle cx="129.68" cy="92.3" r="0.85"/><circle cx="129.68" cy="89.76" r="0.85"/><circle cx="129.68" cy="87.22" r="0.85"/><circle cx="127.14" cy="127.86" r="0.85"/><circle cx="127.14" cy="125.32" r="0.85"/><circle cx="127.14" cy="122.78" r="0.85"/><circle cx="127.14" cy="120.24" r="0.85"/><circle cx="127.14" cy="117.7" r="0.85"/><circle cx="127.14" cy="115.16" r="0.85"/><circle cx="127.14" cy="112.62" r="0.85"/><circle cx="127.14" cy="110.08" r="0.85"/><circle cx="127.14" cy="107.54" r="0.85"/><circle cx="127.14" cy="105" r="0.85"/><circle cx="127.14" cy="102.46" r="0.85"/><circle cx="127.14" cy="99.92" r="0.85"/><circle cx="127.14" cy="97.38" r="0.85"/><circle cx="127.14" cy="94.84" r="0.85"/><circle cx="127.14" cy="92.3" r="0.85"/><circle cx="127.14" cy="89.76" r="0.85"/><circle cx="127.14" cy="87.22" r="0.85"/><circle cx="127.14" cy="84.68" r="0.85"/><circle cx="124.6" cy="127.86" r="0.85"/><circle cx="124.6" cy="125.32" r="0.85"/><circle cx="124.6" cy="122.78" r="0.85"/><circle cx="124.6" cy="120.24" r="0.85"/><circle cx="124.6" cy="117.7" r="0.85"/><circle cx="124.6" cy="115.16" r="0.85"/><circle cx="124.6" cy="112.62" r="0.85"/><circle cx="124.6" cy="110.08" r="0.85"/><circle cx="124.6" cy="107.54" r="0.85"/><circle cx="124.6" cy="105" r="0.85"/><circle cx="124.6" cy="102.46" r="0.85"/><circle cx="124.6" cy="99.92" r="0.85"/><circle cx="124.6" cy="97.38" r="0.85"/><circle cx="124.6" cy="94.84" r="0.85"/><circle cx="124.6" cy="92.3" r="0.85"/><circle cx="124.6" cy="89.76" r="0.85"/><circle cx="124.6" cy="87.22" r="0.85"/><circle cx="124.6" cy="84.68" r="0.85"/><circle cx="122.06" cy="127.86" r="0.85"/><circle cx="122.06" cy="125.32" r="0.85"/><circle cx="122.06" cy="122.78" r="0.85"/><circle cx="122.06" cy="120.24" r="0.85"/><circle cx="122.06" cy="117.7" r="0.85"/><circle cx="122.06" cy="115.16" r="0.85"/><circle cx="122.06" cy="112.62" r="0.85"/><circle cx="122.06" cy="110.08" r="0.85"/><circle cx="122.06" cy="107.54" r="0.85"/><circle cx="122.06" cy="105" r="0.85"/><circle cx="122.06" cy="102.46" r="0.85"/><circle cx="122.06" cy="99.92" r="0.85"/><circle cx="122.06" cy="97.38" r="0.85"/><circle cx="122.06" cy="94.84" r="0.85"/><circle cx="122.06" cy="92.3" r="0.85"/><circle cx="122.06" cy="89.76" r="0.85"/><circle cx="122.06" cy="87.22" r="0.85"/><circle cx="122.06" cy="84.68" r="0.85"/><circle cx="119.52" cy="127.86" r="0.85"/><circle cx="119.52" cy="125.32" r="0.85"/><circle cx="119.52" cy="122.78" r="0.85"/><circle cx="119.52" cy="120.24" r="0.85"/><circle cx="119.52" cy="117.7" r="0.85"/><circle cx="119.52" cy="115.16" r="0.85"/><circle cx="119.52" cy="112.62" r="0.85"/><circle cx="119.52" cy="110.08" r="0.85"/><circle cx="119.52" cy="107.54" r="0.85"/><circle cx="119.52" cy="105" r="0.85"/><circle cx="119.52" cy="102.46" r="0.85"/><circle cx="119.52" cy="99.92" r="0.85"/><circle cx="119.52" cy="97.38" r="0.85"/><circle cx="119.52" cy="94.84" r="0.85"/><circle cx="119.52" cy="92.3" r="0.85"/><circle cx="119.52" cy="89.76" r="0.85"/><circle cx="119.52" cy="87.22" r="0.85"/><circle cx="119.52" cy="84.68" r="0.85"/><circle cx="119.52" cy="82.14" r="0.85"/><circle cx="122.06" cy="82.14" r="0.85"/><circle cx="124.6" cy="82.14" r="0.85"/><circle cx="127.14" cy="82.14" r="0.85"/><circle cx="134.76" cy="82.14" r="0.85"/><circle cx="137.3" cy="82.14" r="0.85"/><circle cx="139.84" cy="82.14" r="0.85"/><circle cx="142.38" cy="82.14" r="0.85"/><circle cx="127.14" cy="130.4" r="0.85"/><circle cx="124.6" cy="130.4" r="0.85"/><circle cx="122.06" cy="130.4" r="0.85"/><circle cx="119.52" cy="130.4" r="0.85"/><circle cx="180.48" cy="127.86" r="0.85"/><circle cx="180.48" cy="125.32" r="0.85"/><circle cx="180.48" cy="122.78" r="0.85"/><circle cx="180.48" cy="120.24" r="0.85"/><circle cx="180.48" cy="117.7" r="0.85"/><circle cx="180.48" cy="112.62" r="0.85"/><circle cx="180.48" cy="110.08" r="0.85"/><circle cx="183.02" cy="110.08" r="0.85"/><circle cx="183.02" cy="107.54" r="0.85"/><circle cx="180.48" cy="107.54" r="0.85"/><circle cx="180.48" cy="105" r="0.85"/><circle cx="183.02" cy="105" r="0.85"/><circle cx="183.02" cy="102.46" r="0.85"/><circle cx="180.48" cy="102.46" r="0.85"/><circle cx="180.48" cy="99.92" r="0.85"/><circle cx="180.48" cy="97.38" r="0.85"/><circle cx="180.48" cy="94.84" r="0.85"/><circle cx="180.48" cy="92.3" r="0.85"/><circle cx="180.48" cy="89.76" r="0.85"/><circle cx="183.02" cy="92.3" r="0.85"/><circle cx="183.02" cy="94.84" r="0.85"/><circle cx="183.02" cy="97.38" r="0.85"/><circle cx="183.02" cy="99.92" r="0.85"/><circle cx="180.48" cy="84.68" r="0.85"/></g></g>
<mask id="GBM"><use xlink:href="#GBS" class="mask"/></mask>
<mask id="GBN"><use xlink:href="#FIL" class="mask"/><use xlink:href="#GBS" class="black"/></mask>
<g id="DRL"><g class="pad"><circle cx="180.48" cy="84.68" r="0.4"/><circle cx="183.02" cy="99.92" r="0.4"/><circle cx="183.02" cy="97.38" r="0.4"/><circle cx="183.02" cy="94.84" r="0.4"/><circle cx="183.02" cy="92.3" r="0.4"/><circle cx="180.48" cy="89.76" r="0.4"/><circle cx="180.48" cy="92.3" r="0.4"/><circle cx="180.48" cy="94.84" r="0.4"/><circle cx="180.48" cy="97.38" r="0.4"/><circle cx="180.48" cy="99.92" r="0.4"/><circle cx="180.48" cy="102.46" r="0.4"/><circle cx="183.02" cy="102.46" r="0.4"/><circle cx="183.02" cy="105" r="0.4"/><circle cx="180.48" cy="105" r="0.4"/><circle cx="180.48" cy="107.54" r="0.4"/><circle cx="183.02" cy="107.54" r="0.4"/><circle cx="183.02" cy="110.08" r="0.4"/><circle cx="180.48" cy="110.08" r="0.4"/><circle cx="180.48" cy="112.62" r="0.4"/><circle cx="180.48" cy="117.7" r="0.4"/><circle cx="180.48" cy="120.24" r="0.4"/><circle cx="180.48" cy="122.78" r="0.4"/><circle cx="180.48" cy="125.32" r="0.4"/><circle cx="180.48" cy="127.86" r="0.4"/><circle cx="119.52" cy="130.4" r="0.4"/><circle cx="122.06" cy="130.4" r="0.4"/><circle cx="124.6" cy="130.4" r="0.4"/><circle cx="127.14" cy="130.4" r="0.4"/><circle cx="142.38" cy="82.14" r="0.4"/><circle cx="139.84" cy="82.14" r="0.4"/><circle cx="137.3" cy="82.14" r="0.4"/><circle cx="134.76" cy="82.14" r="0.4"/><circle cx="127.14" cy="82.14" r="0.4"/><circle cx="124.6" cy="82.14" r="0.4"/><circle cx="122.06" cy="82.14" r="0.4"/><circle cx="119.52" cy="82.14" r="0.4"/><circle cx="119.52" cy="84.68" r="0.4"/><circle cx="119.52" cy="87.22" r="0.4"/><circle cx="119.52" cy="89.76" r="0.4"/><circle cx="119.52" cy="92.3" r="0.4"/><circle cx="119.52" cy="94.84" r="0.4"/><circle cx="119.52" cy="97.38" r="0.4"/><circle cx="119.52" cy="99.92" r="0.4"/><circle cx="119.52" cy="102.46" r="0.4"/><circle cx="119.52" cy="105" r="0.4"/><circle cx="119.52" cy="107.54" r="0.4"/><circle cx="119.52" cy="110.08" r="0.4"/><circle cx="119.52" cy="112.62" r="0.4"/><circle cx="119.52" cy="115.16" r="0.4"/><circle cx="119.52" cy="117.7" r="0.4"/><circle cx="119.52" cy="120.24" r="0.4"/><circle cx="119.52" cy="122.78" r="0.4"/><circle cx="119.52" cy="125.32" r="0.4"/><circle cx="119.52" cy="127.86" r="0.4"/><circle cx="122.06" cy="84.68" r="0.4"/><circle cx="122.06" cy="87.22" r="0.4"/><circle cx="122.06" cy="89.76" r="0.4"/><circle cx="122.06" cy="92.3" r="0.4"/><circle cx="122.06" cy="94.84" r="0.4"/><circle cx="122.06" cy="97.38" r="0.4"/><circle cx="122.06" cy="99.92" r="0.4"/><circle cx="122.06" cy="102.46" r="0.4"/><circle cx="122.06" cy="105" r="0.4"/><circle cx="122.06" cy="107.54" r="0.4"/><circle cx="122.06" cy="110.08" r="0.4"/><circle cx="122.06" cy="112.62" r="0.4"/><circle cx="122.06" cy="115.16" r="0.4"/><circle cx="122.06" cy="117.7" r="0.4"/><circle cx="122.06" cy="120.24" r="0.4"/><circle cx="122.06" cy="122.78" r="0.4"/><circle cx="122.06" cy="125.32" r="0.4"/><circle cx="122.06" cy="127.86" r="0.4"/><circle cx="124.6" cy="84.68" r="0.4"/><circle cx="124.6" cy="87.22" r="0.4"/><circle cx="124.6" cy="89.76" r="0.4"/><circle cx="124.6" cy="92.3" r="0.4"/><circle cx="124.6" cy="94.84" r="0.4"/><circle cx="124.6" cy="97.38" r="0.4"/><circle cx="124.6" cy="99.92" r="0.4"/><circle cx="124.6" cy="102.46" r="0.4"/><circle cx="124.6" cy="105" r="0.4"/><circle cx="124.6" cy="107.54" r="0.4"/><circle cx="124.6" cy="110.08" r="0.4"/><circle cx="124.6" cy="112.62" r="0.4"/><circle cx="124.6" cy="115.16" r="0.4"/><circle cx="124.6" cy="117.7" r="0.4"/><circle cx="124.6" cy="120.24" r="0.4"/><circle cx="124.6" cy="122.78" r="0.4"/><circle cx="124.6" cy="125.32" r="0.4"/><circle cx="124.6" cy="127.86" r="0.4"/><circle cx="127.14" cy="84.68" r="0.4"/><circle cx="127.14" cy="87.22" r="0.4"/><circle cx="127.14" cy="89.76" r="0.4"/><circle cx="127.14" cy="92.3" r="0.4"/><circle cx="127.14" cy="94.84" r="0.4"/><circle cx="127.14" cy="97.38" r="0.4"/><circle cx="127.14" cy="99.92" r="0.4"/><circle cx="127.14" cy="102.46" r="0.4"/><circle cx="127.14" cy="105" r="0.4"/><circle cx="127.14" cy="107.54" r="0.4"/><circle cx="127.14" cy="110.08" r="0.4"/><circle cx="127.14" cy="112.62" r="0.4"/><circle cx="127.14" cy="115.16" r="0.4"/><circle cx="127.14" cy="117.7" r="0.4"/><circle cx="127.14" cy="120.24" r="0.4"/><circle cx="127.14" cy="122.78" r="0.4"/><circle cx="127.14" cy="125.32" r="0.4"/><circle cx="127.14" cy="127.86" r="0.4"/><circle cx="129.68" cy="87.22" r="0.4"/><circle cx="129.68" cy="89.76" r="0.4"/><circle cx="129.68" cy="92.3" r="0.4"/><circle cx="129.68" cy="94.84" r="0.4"/><circle cx="129.68" cy="97.38" r="0.4"/><circle cx="129.68" cy="99.92" r="0.4"/><circle cx="129.68" cy="102.46" r="0.4"/><circle cx="129.68" cy="105" r="0.4"/><circle cx="129.68" cy="107.54" r="0.4"/><circle cx="129.68" cy="110.08" r="0.4"/><circle cx="129.68" cy="112.62" r="0.4"/><circle cx="129.68" cy="115.16" r="0.4"/><circle cx="129.68" cy="117.7" r="0.4"/><circle cx="129.68" cy="120.24" r="0.4"/><circle cx="129.68" cy="122.78" r="0.4"/><circle cx="129.68" cy="125.32" r="0.4"/><circle cx="129.68" cy="127.86" r="0.4"/><circle cx="132.22" cy="87.22" r="0.4"/><circle cx="132.22" cy="89.76" r="0.4"/><circle cx="132.22" cy="92.3" r="0.4"/><circle cx="132.22" cy="94.84" r="0.4"/><circle cx="132.22" cy="97.38" r="0.4"/><circle cx="132.22" cy="99.92" r="0.4"/><circle cx="132.22" cy="102.46" r="0.4"/><circle cx="132.22" cy="105" r="0.4"/><circle cx="132.22" cy="107.54" r="0.4"/><circle cx="132.22" cy="110.08" r="0.4"/><circle cx="132.22" cy="112.62" r="0.4"/><circle cx="132.22" cy="115.16" r="0.4"/><circle cx="132.22" cy="117.7" r="0.4"/><circle cx="132.22" cy="120.24" r="0.4"/><circle cx="132.22" cy="122.78" r="0.4"/><circle cx="132.22" cy="125.32" r="0.4"/><circle cx="137.3" cy="84.68" r="0.4"/><circle cx="137.3" cy="87.22" r="0.4"/><circle cx="137.3" cy="89.76" r="0.4"/><circle cx="137.3" cy="92.3" r="0.4"/><circle cx="137.3" cy="94.84" r="0.4"/><circle cx="137.3" cy="97.38" r="0.4"/><circle cx="137.3" cy="99.92" r="0.4"/><circle cx="137.3" cy="102.46" r="0.4"/><circle cx="137.3" cy="105" r="0.4"/><circle cx="137.3" cy="107.54" r="0.4"/><circle cx="137.3" cy="110.08" r="0.4"/><circle cx="137.3" cy="112.62" r="0.4"/><circle cx="137.3" cy="115.16" r="0.4"/><circle cx="137.3" cy="117.7" r="0.4"/><circle cx="137.3" cy="120.24" r="0.4"/><circle cx="137.3" cy="122.78" r="0.4"/><circle cx="137.3" cy="125.32" r="0.4"/><circle cx="137.3" cy="127.86" r="0.4"/><circle cx="134.76" cy="84.68" r="0.4"/><circle cx="134.76" cy="87.22" r="0.4"/><circle cx="134.76" cy="89.76" r="0.4"/><circle cx="134.76" cy="92.3" r="0.4"/><circle cx="134.76" cy="94.84" r="0.4"/><circle cx="134.76" cy="97.38" r="0.4"/><circle cx="134.76" cy="99.92" r="0.4"/><circle cx="134.76" cy="102.46" r="0.4"/><circle cx="134.76" cy="105" r="0.4"/><circle cx="134.76" cy="107.54" r="0.4"/><circle cx="134.76" cy="110.08" r="0.4"/><circle cx="134.76" cy="112.62" r="0.4"/><circle cx="134.76" cy="115.16" r="0.4"/><circle cx="134.76" cy="117.7" r="0.4"/><circle cx="134.76" cy="120.24" r="0.4"/><circle cx="134.76" cy="122.78" r="0.4"/><circle cx="134.76" cy="125.32" r="0.4"/><circle cx="134.76" cy="127.86" r="0.4"/><circle cx="137.3" cy="84.68" r="0.4"/><circle cx="137.3" cy="87.22" r="0.4"/><circle cx="137.3" cy="89.76" r="0.4"/><circle cx="137.3" cy="92.3" r="0.4"/><circle cx="137.3" cy="94.84" r="0.4"/><circle cx="137.3" cy="97.38" r="0.4"/><circle cx="137.3" cy="99.92" r="0.4"/><circle cx="137.3" cy="102.46" r="0.4"/><circle cx="137.3" cy="105" r="0.4"/><circle cx="137.3" cy="107.54" r="0.4"/><circle cx="137.3" cy="110.08" r="0.4"/><circle cx="137.3" cy="112.62" r="0.4"/><circle cx="137.3" cy="115.16" r="0.4"/><circle cx="137.3" cy="117.7" r="0.4"/><circle cx="137.3" cy="120.24" r="0.4"/><circle cx="137.3" cy="122.78" r="0.4"/><circle cx="137.3" cy="125.32" r="0.4"/><circle cx="137.3" cy="127.86" r="0.4"/><circle cx="139.84" cy="84.68" r="0.4"/><circle cx="139.84" cy="87.22" r="0.4"/><circle cx="139.84" cy="89.76" r="0.4"/><circle cx="139.84" cy="92.3" r="0.4"/><circle cx="139.84" cy="94.84" r="0.4"/><circle cx="139.84" cy="97.38" r="0.4"/><circle cx="139.84" cy="99.92" r="0.4"/><circle cx="139.84" cy="102.46" r="0.4"/><circle cx="139.84" cy="105" r="0.4"/><circle cx="139.84" cy="107.54" r="0.4"/><circle cx="139.84" cy="110.08" r="0.4"/><circle cx="139.84" cy="112.62" r="0.4"/><circle cx="139.84" cy="115.16" r="0.4"/><circle cx="139.84" cy="117.7" r="0.4"/><circle cx="139.84" cy="120.24" r="0.4"/><circle cx="139.84" cy="122.78" r="0.4"/><circle cx="139.84" cy="125.32" r="0.4"/><circle cx="139.84" cy="127.86" r="0.4"/><circle cx="142.38" cy="84.68" r="0.4"/><circle cx="142.38" cy="87.22" r="0.4"/><circle cx="142.38" cy="89.76" r="0.4"/><circle cx="142.38" cy="92.3" r="0.4"/><circle cx="142.38" cy="94.84" r="0.4"/><circle cx="142.38" cy="97.38" r="0.4"/><circle cx="142.38" cy="99.92" r="0.4"/><circle cx="142.38" cy="102.46" r="0.4"/><circle cx="142.38" cy="105" r="0.4"/><circle cx="142.38" cy="107.54" r="0.4"/><circle cx="142.38" cy="110.08" r="0.4"/><circle cx="142.38" cy="112.62" r="0.4"/><circle cx="142.38" cy="115.16" r="0.4"/><circle cx="142.38" cy="117.7" r="0.4"/><circle cx="142.38" cy="120.24" r="0.4"/><circle cx="142.38" cy="122.78" r="0.4"/><circle cx="142.38" cy="125.32" r="0.4"/><circle cx="142.38" cy="127.86" r="0.4"/><circle cx="144.92" cy="84.68" r="0.4"/><circle cx="144.92" cy="87.22" r="0.4"/><circle cx="144.92" cy="89.76" r="0.4"/><circle cx="144.92" cy="92.3" r="0.4"/><circle cx="144.92" cy="94.84" r="0.4"/><circle cx="144.92" cy="97.38" r="0.4"/><circle cx="144.92" cy="99.92" r="0.4"/><circle cx="144.92" cy="102.46" r="0.4"/><circle cx="144.92" cy="105" r="0.4"/><circle cx="144.92" cy="107.54" r="0.4"/><circle cx="144.92" cy="110.08" r="0.4"/><circle cx="144.92" cy="112.62" r="0.4"/><circle cx="144.92" cy="115.16" r="0.4"/><circle cx="144.92" cy="117.7" r="0.4"/><circle cx="144.92" cy="120.24" r="0.4"/><circle cx="144.92" cy="122.78" r="0.4"/><circle cx="144.92" cy="125.32" r="0.4"/><circle cx="144.92" cy="127.86" r="0.4"/><circle cx="147.46" cy="84.68" r="0.4"/><circle cx="147.46" cy="87.22" r="0.4"/><circle cx="147.46" cy="89.76" r="0.4"/><circle cx="147.46" cy="92.3" r="0.4"/><circle cx="147.46" cy="94.84" r="0.4"/><circle cx="147.46" cy="97.38" r="0.4"/><circle cx="147.46" cy="99.92" r="0.4"/><circle cx="147.46" cy="102.46" r="0.4"/><circle cx="147.46" cy="105" r="0.4"/><circle cx="147.46" cy="107.54" r="0.4"/><circle cx="147.46" cy="110.08" r="0.4"/><circle cx="147.46" cy="112.62" r="0.4"/><circle cx="147.46" cy="115.16" r="0.4"/><circle cx="147.46" cy="117.7" r="0.4"/><circle cx="147.46" cy="120.24" r="0.4"/><circle cx="147.46" cy="122.78" r="0.4"/><circle cx="147.46" cy="125.32" r="0.4"/><circle cx="147.46" cy="127.86" r="0.4"/><circle cx="150" cy="84.68" r="0.4"/><circle cx="150" cy="87.22" r="0.4"/><circle cx="150" cy="89.76" r="0.4"/><circle cx="150" cy="92.3" r="0.4"/><circle cx="150" cy="94.84" r="0.4"/><circle cx="150" cy="97.38" r="0.4"/><circle cx="150" cy="99.92" r="0.4"/><circle cx="150" cy="102.46" r="0.4"/><circle cx="150" cy="105" r="0.4"/><circle cx="150" cy="107.54" r="0.4"/><circle cx="150" cy="110.08" r="0.4"/><circle cx="150" cy="112.62" r="0.4"/><circle cx="150" cy="115.16" r="0.4"/><circle cx="150" cy="117.7" r="0.4"/><circle cx="150" cy="120.24" r="0.4"/><circle cx="150" cy="122.78" r="0.4"/><circle cx="150" cy="125.32" r="0.4"/><circle cx="150" cy="127.86" r="0.4"/><circle cx="152.54" cy="84.68" r="0.4"/><circle cx="152.54" cy="87.22" r="0.4"/><circle cx="152.54" cy="89.76" r="0.4"/><circle cx="152.54" cy="92.3" r="0.4"/><circle cx="152.54" cy="94.84" r="0.4"/><circle cx="152.54" cy="97.38" r="0.4"/><circle cx="152.54" cy="99.92" r="0.4"/><circle cx="152.54" cy="102.46" r="0.4"/><circle cx="152.54" cy="105" r="0.4"/><circle cx="152.54" cy="107.54" r="0.4"/><circle cx="152.54" cy="110.08" r="0.4"/><circle cx="152.54" cy="112.62" r="0.4"/><circle cx="152.54" cy="115.16" r="0.4"/><circle cx="152.54" cy="117.7" r="0.4"/><circle cx="152.54" cy="120.24" r="0.4"/><circle cx="152.54" cy="122.78" r="0.4"/><circle cx="152.54" cy="125.32" r="0.4"/><circle cx="152.54" cy="127.86" r="0.4"/><circle cx="155.08" cy="84.68" r="0.4"/><circle cx="155.08" cy="87.22" r="0.4"/><circle cx="155.08" cy="89.76" r="0.4"/><circle cx="155.08" cy="92.3" r="0.4"/><circle cx="155.08" cy="94.84" r="0.4"/><circle cx="155.08" cy="97.38" r="0.4"/><circle cx="155.08" cy="99.92" r="0.4"/><circle cx="155.08" cy="102.46" r="0.4"/><circle cx="155.08" cy="105" r="0.4"/><circle cx="155.08" cy="107.54" r="0.4"/><circle cx="155.08" cy="110.08" r="0.4"/><circle cx="155.08" cy="112.62" r="0.4"/><circle cx="155.08" cy="115.16" r="0.4"/><circle cx="155.08" cy="117.7" r="0.4"/><circle cx="155.08" cy="120.24" r="0.4"/><circle cx="155.08" cy="122.78" r="0.4"/><circle cx="155.08" cy="125.32" r="0.4"/><circle cx="155.08" cy="127.86" r="0.4"/><circle cx="157.62" cy="84.68" r="0.4"/><circle cx="157.62" cy="87.22" r="0.4"/><circle cx="157.62" cy="89.76" r="0.4"/><circle cx="157.62" cy="92.3" r="0.4"/><circle cx="157.62" cy="94.84" r="0.4"/><circle cx="157.62" cy="97.38" r="0.4"/><circle cx="157.62" cy="99.92" r="0.4"/><circle cx="157.62" cy="102.46" r="0.4"/><circle cx="157.62" cy="105" r="0.4"/><circle cx="157.62" cy="107.54" r="0.4"/><circle cx="157.62" cy="110.08" r="0.4"/><circle cx="157.62" cy="112.62" r="0.4"/><circle cx="157.62" cy="115.16" r="0.4"/><circle cx="157.62" cy="117.7" r="0.4"/><circle cx="157.62" cy="120.24" r="0.4"/><circle cx="157.62" cy="122.78" r="0.4"/><circle cx="157.62" cy="125.32" r="0.4"/><circle cx="157.62" cy="127.86" r="0.4"/><circle cx="160.16" cy="84.68" r="0.4"/><circle cx="160.16" cy="87.22" r="0.4"/><circle cx="160.16" cy="89.76" r="0.4"/><circle cx="160.16" cy="92.3" r="0.4"/><circle cx="160.16" cy="94.84" r="0.4"/><circle cx="160.16" cy="97.38" r="0.4"/><circle cx="160.16" cy="99.92" r="0.4"/><circle cx="160.16" cy="102.46" r="0.4"/><circle cx="160.16" cy="105" r="0.4"/><circle cx="160.16" cy="107.54" r="0.4"/><circle cx="160.16" cy="110.08" r="0.4"/><circle cx="160.16" cy="112.62" r="0.4"/><circle cx="160.16" cy="115.16" r="0.4"/><circle cx="160.16" cy="117.7" r="0.4"/><circle cx="160.16" cy="120.24" r="0.4"/><circle cx="160.16" cy="122.78" r="0.4"/><circle cx="160.16" cy="125.32" r="0.4"/><circle cx="160.16" cy="127.86" r="0.4"/><circle cx="162.7" cy="84.68" r="0.4"/><circle cx="162.7" cy="87.22" r="0.4"/><circle cx="162.7" cy="89.76" r="0.4"/><circle cx="162.7" cy="92.3" r="0.4"/><circle cx="162.7" cy="94.84" r="0.4"/><circle cx="162.7" cy="97.38" r="0.4"/><circle cx="162.7" cy="99.92" r="0.4"/><circle cx="162.7" cy="102.46" r="0.4"/><circle cx="162.7" cy="105" r="0.4"/><circle cx="162.7" cy="107.54" r="0.4"/><circle cx="162.7" cy="110.08" r="0.4"/><circle cx="162.7" cy="112.62" r="0.4"/><circle cx="162.7" cy="115.16" r="0.4"/><circle cx="162.7" cy="117.7" r="0.4"/><circle cx="162.7" cy="120.24" r="0.4"/><circle cx="162.7" cy="122.78" r="0.4"/><circle cx="162.7" cy="125.32" r="0.4"/><circle cx="162.7" cy="127.86" r="0.4"/><circle cx="165.24" cy="84.68" r="0.4"/><circle cx="165.24" cy="87.22" r="0.4"/><circle cx="165.24" cy="89.76" r="0.4"/><circle cx="165.24" cy="92.3" r="0.4"/><circle cx="165.24" cy="94.84" r="0.4"/><circle cx="165.24" cy="97.38" r="0.4"/><circle cx="165.24" cy="99.92" r="0.4"/><circle cx="165.24" cy="102.46" r="0.4"/><circle cx="165.24" cy="105" r="0.4"/><circle cx="165.24" cy="107.54" r="0.4"/><circle cx="165.24" cy="110.08" r="0.4"/><circle cx="165.24" cy="112.62" r="0.4"/><circle cx="165.24" cy="115.16" r="0.4"/><circle cx="165.24" cy="117.7" r="0.4"/><circle cx="165.24" cy="120.24" r="0.4"/><circle cx="165.24" cy="122.78" r="0.4"/><circle cx="165.24" cy="125.32" r="0.4"/><circle cx="165.24" cy="127.86" r="0.4"/><circle cx="167.78" cy="84.68" r="0.4"/><circle cx="167.78" cy="87.22" r="0.4"/><circle cx="167.78" cy="89.76" r="0.4"/><circle cx="167.78" cy="92.3" r="0.4"/><circle cx="167.78" cy="94.84" r="0.4"/><circle cx="167.78" cy="97.38" r="0.4"/><circle cx="167.78" cy="99.92" r="0.4"/><circle cx="167.78" cy="102.46" r="0.4"/><circle cx="167.78" cy="105" r="0.4"/><circle cx="167.78" cy="107.54" r="0.4"/><circle cx="167.78" cy="110.08" r="0.4"/><circle cx="167.78" cy="112.62" r="0.4"/><circle cx="167.78" cy="115.16" r="0.4"/><circle cx="167.78" cy="117.7" r="0.4"/><circle cx="167.78" cy="120.24" r="0.4"/><circle cx="167.78" cy="122.78" r="0.4"/><circle cx="167.78" cy="125.32" r="0.4"/><circle cx="167.78" cy="127.86" r="0.4"/><circle cx="170.32" cy="84.68" r="0.4"/><circle cx="170.32" cy="87.22" r="0.4"/><circle cx="170.32" cy="89.76" r="0.4"/><circle cx="170.32" cy="92.3" r="0.4"/><circle cx="170.32" cy="94.84" r="0.4"/><circle cx="170.32" cy="97.38" r="0.4"/><circle cx="170.32" cy="99.92" r="0.4"/><circle cx="170.32" cy="102.46" r="0.4"/><circle cx="170.32" cy="105" r="0.4"/><circle cx="170.32" cy="107.54" r="0.4"/><circle cx="170.32" cy="110.08" r="0.4"/><circle cx="170.32" cy="112.62" r="0.4"/><circle cx="170.32" cy="115.16" r="0.4"/><circle cx="170.32" cy="117.7" r="0.4"/><circle cx="170.32" cy="120.24" r="0.4"/><circle cx="170.32" cy="122.78" r="0.4"/><circle cx="170.32" cy="125.32" r="0.4"/><circle cx="170.32" cy="127.86" r="0.4"/><circle cx="172.86" cy="84.68" r="0.4"/><circle cx="172.86" cy="87.22" r="0.4"/><circle cx="172.86" cy="89.76" r="0.4"/><circle cx="172.86" cy="92.3" r="0.4"/><circle cx="172.86" cy="94.84" r="0.4"/><circle cx="172.86" cy="97.38" r="0.4"/><circle cx="172.86" cy="99.92" r="0.4"/><circle cx="172.86" cy="102.46" r="0.4"/><circle cx="172.86" cy="105" r="0.4"/><circle cx="172.86" cy="107.54" r="0.4"/><circle cx="172.86" cy="110.08" r="0.4"/><circle cx="172.86" cy="112.62" r="0.4"/><circle cx="172.86" cy="115.16" r="0.4"/><circle cx="172.86" cy="117.7" r="0.4"/><circle cx="172.86" cy="120.24" r="0.4"/><circle cx="172.86" cy="122.78" r="0.4"/><circle cx="172.86" cy="125.32" r="0.4"/><circle cx="172.86" cy="127.86" r="0.4"/><circle cx="175.4" cy="84.68" r="0.4"/><circle cx="175.4" cy="87.22" r="0.4"/><circle cx="175.4" cy="89.76" r="0.4"/><circle cx="175.4" cy="92.3" r="0.4"/><circle cx="175.4" cy="94.84" r="0.4"/><circle cx="175.4" cy="97.38" r="0.4"/><circle cx="175.4" cy="99.92" r="0.4"/><circle cx="175.4" cy="102.46" r="0.4"/><circle cx="175.4" cy="105" r="0.4"/><circle cx="175.4" cy="107.54" r="0.4"/><circle cx="175.4" cy="110.08" r="0.4"/><circle cx="175.4" cy="112.62" r="0.4"/><circle cx="175.4" cy="115.16" r="0.4"/><circle cx="175.4" cy="117.7" r="0.4"/><circle cx="175.4" cy="120.24" r="0.4"/><circle cx="175.4" cy="122.78" r="0.4"/><circle cx="175.4" cy="125.32" r="0.4"/><circle cx="175.4" cy="127.86" r="0.4"/><circle cx="177.94" cy="84.68" r="0.4"/><circle cx="177.94" cy="87.22" r="0.4"/><circle cx="177.94" cy="89.76" r="0.4"/><circle cx="177.94" cy="92.3" r="0.4"/><circle cx="177.94" cy="94.84" r="0.4"/><circle cx="177.94" cy="97.38" r="0.4"/><circle cx="177.94" cy="99.92" r="0.4"/><circle cx="177.94" cy="102.46" r="0.4"/><circle cx="177.94" cy="105" r="0.4"/><circle cx="177.94" cy="107.54" r="0.4"/><circle cx="177.94" cy="110.08" r="0.4"/><circle cx="177.94" cy="112.62" r="0.4"/><circle cx="177.94" cy="115.16" r="0.4"/><circle cx="177.94" cy="117.7" r="0.4"/><circle cx="177.94" cy="120.24" r="0.4"/><circle cx="177.94" cy="122.78" r="0.4"/><circle cx="177.94" cy="125.32" r="0.4"/><circle cx="177.94" cy="127.86" r="0.4"/><circle cx="138.316" cy="130.3" r="0.4"/><circle cx="143.396" cy="130.3" r="0.4"/><circle cx="148.476" cy="130.3" r="0.4"/><circle cx="153.556" cy="130.3" r="0.4"/><circle cx="158.636" cy="130.3" r="0.4"/><circle cx="135.776" cy="130.5" r="0.4"/><circle cx="140.856" cy="130.5" r="0.4"/><circle cx="145.936" cy="130.5" r="0.4"/><circle cx="151.016" cy="130.5" r="0.4"/><circle cx="156.096" cy="130.5" r="0.4"/><circle cx="165.24" cy="130.3" r="0.4"/><circle cx="170.32" cy="130.3" r="0.4"/><circle cx="175.4" cy="130.3" r="0.4"/><circle cx="180.48" cy="130.3" r="0.4"/><circle cx="162.7" cy="130.5" r="0.4"/><circle cx="167.78" cy="130.5" r="0.4"/><circle cx="172.86" cy="130.5" r="0.4"/><circle cx="177.94" cy="130.5" r="0.4"/><circle cx="160.16" cy="82.24" r="0.4"/><circle cx="155.08" cy="82.24" r="0.4"/><circle cx="150" cy="82.24" r="0.4"/><circle cx="144.92" cy="82.24" r="0.4"/><circle cx="162.7" cy="82.04" r="0.4"/><circle cx="157.62" cy="82.04" r="0.4"/><circle cx="152.54" cy="82.04" r="0.4"/><circle cx="147.46" cy="82.04" r="0.4"/><circle cx="177.94" cy="82.24" r="0.4"/><circle cx="172.86" cy="82.24" r="0.4"/><circle cx="167.78" cy="82.24" r="0.4"/><circle cx="180.48" cy="82.04" r="0.4"/><circle cx="175.4" cy="82.04" r="0.4"/><circle cx="170.32" cy="82.04" r="0.4"/><circle cx="130.95" cy="82.14" r="1.5"/><circle cx="183.02" cy="87.22" r="1.5"/><circle cx="183.02" cy="115.16" r="1.5"/><circle cx="132.22" cy="130.4" r="1.5"/></g></g>
</defs>
<!-- Rendering View Port -->
<g transform="scale(-1,-1)" clip-path="url(#BOARD)">
<g><use xlink:href="#FIL" class="regist"/>
<use xlink:href="#GBL" class="cover"/></g>
<g mask="url(#GBM)"><use xlink:href="#FIL" class="board"/>
<use xlink:href="#GBO" class="silk"/>
<use xlink:href="#GBL" class="plate"/></g>
<g mask="url(#GBN)"><use xlink:href="#GBO" class="silk"/></g>
<use xlink:href="#DRL" class="drill"/>
<use xlink:href="#OUT" stroke="gray" stroke-width="0.05" fill="none"/>
</g>
</svg>
