<?xml version="1.0" standalone="no"?>
<svg width="833.622" height="653.622"  viewBox="115.98 -133.94 70.58 55.34" xmlns="http://www.w3.org/2000/svg" xmlns:xlink="http://www.w3.org/1999/xlink" version="1.1">
<style>
text{stroke:none;font-weight:bold;font-family:"Consolas","Courier New",monospace;}
g.footprint{visibility:hidden;}
.drill{stroke:black;fill:black;stroke-width:0;}
.cover{stroke:rgb(95,135,61);fill:rgb(95,135,61);}
.silk{stroke:white;fill:white;}
.plate{stroke:rgb(153,153,153);fill:rgb(153,153,153);}
.regist{stroke:rgb(21,102,19);fill:rgb(21,102,19);}
.board{stroke:rgb(213,212,137);fill:rgb(213,212,137);}
.under{stroke:rgb(204,153,105);fill:rgb(204,153,105);}
.via{fill:rgb(21,102,19);}
.DRL{stroke:gray;fill:none;stroke-width:0.025;}
.black{stroke:black;fill:black;}
.mask{stroke:white;fill:white;}
</style>
<!-- Symbol and Parts Libraries Description -->
<defs>
<!-- Gerber Layer -->
<clipPath id="BOARD" clip-rule="evenodd"><path stroke="none" fill-rule="evenodd" d="M116.98,79.6L116.98,132.94L181.496,132.94L183.02,131.416L183.02,119.986L185.56,117.446L185.56,84.68L183.02,82.14L183.02,79.6L116.98,79.6Z"/></clipPath>
<g id="OUT" stroke-linecap="round" stroke-linejoin="round"><path d="M116.98,79.6L116.98,132.94L181.496,132.94L183.02,131.416L183.02,119.986L185.56,117.446L185.56,84.68L183.02,82.14L183.02,79.6L116.98,79.6Z"/></g>
<rect id="FIL" x="116.98" y="79.6" width="68.58" height="53.34"/>
<g id="GTL"><g fill="none" stroke-linecap="round" stroke-linejoin="round"><path stroke-width="0.3" d="M170.32,81.92L170.32,82.04M170.32,82.04L170.32,82.14M170.32,82.14L170.32,82.36M175.4,81.92L175.4,82.04M175.4,82.04L175.4,82.14M175.4,82.14L175.4,82.36M180.48,81.92L180.48,82.04M180.48,82.04L180.48,82.14M180.48,82.14L180.48,82.36M167.78,81.92L167.78,82.14M167.78,82.14L167.78,82.24M167.78,82.24L167.78,82.36M172.86,81.92L172.86,82.14M172.86,82.14L172.86,82.24M172.86,82.24L172.86,82.36M177.94,81.92L177.94,82.14M177.94,82.14L177.94,82.24M177.94,82.24L177.94,82.36M147.46,81.92L147.46,82.04M147.46,82.04L147.46,82.14M147.46,82.14L147.46,82.36M152.54,81.92L152.54,82.04M152.54,82.04L152.54,82.14M152.54,82.14L152.54,82.36M157.62,81.92L157.62,82.04M157.62,82.04L157.62,82.14M157.62,82.14L157.62,82.36M162.7,81.92L162.7,82.04M162.7,82.04L162.7,82.14M162.7,82.14L162.7,82.36M144.92,81.92L144.92,82.14M144.92,82.14L144.92,82.24M144.92,82.24L144.92,82.36M150,81.92L150,82.14M150,82.14L150,82.24M150,82.24L150,82.36M155.08,81.92L155.08,82.14M155.08,82.14L155.08,82.24M155.08,82.24L155.08,82.36M160.16,81.92L160.16,82.14M160.16,82.14L160.16,82.24M160.16,82.24L160.16,82.36M177.94,130.62L177.94,130.5M177.94,130.5L177.94,130.4M177.94,130.4L177.94,130.18M172.86,130.62L172.86,130.5M172.86,130.5L172.86,130.4M172.86,130.4L172.86,130.18M167.78,130.62L167.78,130.5M167.78,130.5L167.78,130.4M167.78,130.4L167.78,130.18M162.7,130.62L162.7,130.5M162.7,130.5L162.7,130.4M162.7,130.4L162.7,130.18M180.48,130.62L180.48,130.4M180.48,130.4L180.48,130.3M180.48,130.3L180.48,130.18M175.4,130.62L175.4,130.4M175.4,130.4L175.4,130.3M175.4,130.3L175.4,130.18M170.32,130.62L170.32,130.4M170.32,130.4L170.32,130.3M170.32,130.3L170.32,130.18M165.24,130.62L165.24,130.4M165.24,130.4L165.24,130.3M165.24,130.3L165.24,130.18M156.096,130.62L156.096,130.5M156.096,130.5L156.096,130.4M156.096,130.4L156.096,130.18M151.016,130.62L151.016,130.5M151.016,130.5L151.016,130.4M151.016,130.4L151.016,130.18M145.936,130.62L145.936,130.5M145.936,130.5L145.936,130.4M145.936,130.4L145.936,130.18M140.856,130.62L140.856,130.5M140.856,130.5L140.856,130.4M140.856,130.4L140.856,130.18M135.776,130.62L135.776,130.5M135.776,130.5L135.776,130.4M135.776,130.4L135.776,130.18M158.636,130.62L158.636,130.4M158.636,130.4L158.636,130.3M158.636,130.3L158.636,130.18M153.556,130.62L153.556,130.4M153.556,130.4L153.556,130.3M153.556,130.3L153.556,130.18M148.476,130.62L148.476,130.4M148.476,130.4L148.476,130.3M148.476,130.3L148.476,130.18M143.396,130.62L143.396,130.4M143.396,130.4L143.396,130.3M143.396,130.3L143.396,130.18M138.316,130.62L138.316,130.4M138.316,130.4L138.316,130.3M138.316,130.3L138.316,130.18"/><path stroke-width="1" d="M144.92,84.68L144.92,82.24M147.46,84.68L147.46,82.04M150,84.68L150,82.24M152.54,84.68L152.54,82.04M155.08,84.68L155.08,82.24M157.62,84.68L157.62,82.04M160.16,84.68L160.16,82.24M162.7,84.68L162.7,82.04M167.78,84.68L167.78,82.24M170.32,84.68L170.32,82.04M172.86,84.68L172.86,82.24M175.4,84.68L175.4,82.04M177.94,84.68L177.94,82.24M180.48,84.68L180.48,82.04M180.48,130.3L180.48,127.86M177.94,130.5L177.94,127.86M172.86,130.5L172.86,127.86M175.4,130.3L175.4,127.86M170.32,130.3L170.32,127.86M167.78,130.5L167.78,127.86M165.24,130.3L165.24,127.86M162.7,130.5L162.7,127.86M158.636,130.18L157.62,127.86M156.096,130.18L155.08,127.86M153.556,130.18L152.54,127.86M151.016,130.18L150,127.86M148.476,130.18L147.46,127.86M143.396,130.18L142.38,127.86M145.936,130.18L144.92,127.86M140.856,130.18L139.84,127.86M138.316,130.18L137.3,127.86M135.776,130.18L134.76,127.86"/><path stroke-width="1.6" d="M170.32,81.92L170.32,82.36M175.4,81.92L175.4,82.36M180.48,81.92L180.48,82.36M167.78,81.92L167.78,82.36M172.86,81.92L172.86,82.36M177.94,81.92L177.94,82.36M147.46,81.92L147.46,82.36M152.54,81.92L152.54,82.36M157.62,81.92L157.62,82.36M162.7,81.92L162.7,82.36M144.92,81.92L144.92,82.36M150,81.92L150,82.36M155.08,81.92L155.08,82.36M160.16,81.92L160.16,82.36M177.94,130.62L177.94,130.18M172.86,130.62L172.86,130.18M167.78,130.62L167.78,130.18M162.7,130.62L162.7,130.18M180.48,130.62L180.48,130.18M175.4,130.62L175.4,130.18M170.32,130.62L170.32,130.18M165.24,130.62L165.24,130.18M156.096,130.62L156.096,130.18M151.016,130.62L151.016,130.18M145.936,130.62L145.936,130.18M140.856,130.62L140.856,130.18M135.776,130.62L135.776,130.18M158.636,130.62L158.636,130.18M153.556,130.62L153.556,130.18M148.476,130.62L148.476,130.18M143.396,130.62L143.396,130.18M138.316,130.62L138.316,130.18"/></g><g stroke="none"><circle cx="177.94" cy="127.86" r="0.8"/><circle cx="177.94" cy="125.32" r="0.8"/><circle cx="177.94" cy="122.78" r="0.8"/><circle cx="177.94" cy="120.24" r="0.8"/><circle cx="177.94" cy="117.7" r="0.8"/><circle cx="177.94" cy="115.16" r="0.8"/><circle cx="177.94" cy="112.62" r="0.8"/><circle cx="177.94" cy="110.08" r="0.8"/><circle cx="177.94" cy="107.54" r="0.8"/><circle cx="177.94" cy="105" r="0.8"/><circle cx="177.94" cy="102.46" r="0.8"/><circle cx="177.94" cy="99.92" r="0.8"/><circle cx="177.94" cy="97.38" r="0.8"/><circle cx="177.94" cy="94.84" r="0.8"/><circle cx="177.94" cy="92.3" r="0.8"/><circle cx="177.94" cy="89.76" r="0.8"/><circle cx="177.94" cy="87.22" r="0.8"/><circle cx="177.94" cy="84.68" r="0.8"/><circle cx="175.4" cy="127.86" r="0.8"/><circle cx="175.4" cy="125.32" r="0.8"/><circle cx="175.4" cy="122.78" r="0.8"/><circle cx="175.4" cy="120.24" r="0.8"/><circle cx="175.4" cy="117.7" r="0.8"/><circle cx="175.4" cy="115.16" r="0.8"/><circle cx="175.4" cy="112.62" r="0.8"/><circle cx="175.4" cy="110.08" r="0.8"/><circle cx="175.4" cy="107.54" r="0.8"/><circle cx="175.4" cy="105" r="0.8"/><circle cx="175.4" cy="102.46" r="0.8"/><circle cx="175.4" cy="99.92" r="0.8"/><circle cx="175.4" cy="97.38" r="0.8"/><circle cx="175.4" cy="94.84" r="0.8"/><circle cx="175.4" cy="92.3" r="0.8"/><circle cx="175.4" cy="89.76" r="0.8"/><circle cx="175.4" cy="87.22" r="0.8"/><circle cx="175.4" cy="84.68" r="0.8"/><circle cx="172.86" cy="127.86" r="0.8"/><circle cx="172.86" cy="125.32" r="0.8"/><circle cx="172.86" cy="122.78" r="0.8"/><circle cx="172.86" cy="120.24" r="0.8"/><circle cx="172.86" cy="117.7" r="0.8"/><circle cx="172.86" cy="115.16" r="0.8"/><circle cx="172.86" cy="112.62" r="0.8"/><circle cx="172.86" cy="110.08" r="0.8"/><circle cx="172.86" cy="107.54" r="0.8"/><circle cx="172.86" cy="105" r="0.8"/><circle cx="172.86" cy="102.46" r="0.8"/><circle cx="172.86" cy="99.92" r="0.8"/><circle cx="172.86" cy="97.38" r="0.8"/><circle cx="172.86" cy="94.84" r="0.8"/><circle cx="172.86" cy="92.3" r="0.8"/><circle cx="172.86" cy="89.76" r="0.8"/><circle cx="172.86" cy="87.22" r="0.8"/><circle cx="172.86" cy="84.68" r="0.8"/><circle cx="170.32" cy="127.86" r="0.8"/><circle cx="170.32" cy="125.32" r="0.8"/><circle cx="170.32" cy="122.78" r="0.8"/><circle cx="170.32" cy="120.24" r="0.8"/><circle cx="170.32" cy="117.7" r="0.8"/><circle cx="170.32" cy="115.16" r="0.8"/><circle cx="170.32" cy="112.62" r="0.8"/><circle cx="170.32" cy="110.08" r="0.8"/><circle cx="170.32" cy="107.54" r="0.8"/><circle cx="170.32" cy="105" r="0.8"/><circle cx="170.32" cy="102.46" r="0.8"/><circle cx="170.32" cy="99.92" r="0.8"/><circle cx="170.32" cy="97.38" r="0.8"/><circle cx="170.32" cy="94.84" r="0.8"/><circle cx="170.32" cy="92.3" r="0.8"/><circle cx="170.32" cy="89.76" r="0.8"/><circle cx="170.32" cy="87.22" r="0.8"/><circle cx="170.32" cy="84.68" r="0.8"/><circle cx="167.78" cy="127.86" r="0.8"/><circle cx="167.78" cy="125.32" r="0.8"/><circle cx="167.78" cy="122.78" r="0.8"/><circle cx="167.78" cy="120.24" r="0.8"/><circle cx="167.78" cy="117.7" r="0.8"/><circle cx="167.78" cy="115.16" r="0.8"/><circle cx="167.78" cy="112.62" r="0.8"/><circle cx="167.78" cy="110.08" r="0.8"/><circle cx="167.78" cy="107.54" r="0.8"/><circle cx="167.78" cy="105" r="0.8"/><circle cx="167.78" cy="102.46" r="0.8"/><circle cx="167.78" cy="99.92" r="0.8"/><circle cx="167.78" cy="97.38" r="0.8"/><circle cx="167.78" cy="94.84" r="0.8"/><circle cx="167.78" cy="92.3" r="0.8"/><circle cx="167.78" cy="89.76" r="0.8"/><circle cx="167.78" cy="87.22" r="0.8"/><circle cx="167.78" cy="84.68" r="0.8"/><circle cx="165.24" cy="127.86" r="0.8"/><circle cx="165.24" cy="125.32" r="0.8"/><circle cx="165.24" cy="122.78" r="0.8"/><circle cx="165.24" cy="120.24" r="0.8"/><circle cx="165.24" cy="117.7" r="0.8"/><circle cx="165.24" cy="115.16" r="0.8"/><circle cx="165.24" cy="112.62" r="0.8"/><circle cx="165.24" cy="110.08" r="0.8"/><circle cx="165.24" cy="107.54" r="0.8"/><circle cx="165.24" cy="105" r="0.8"/><circle cx="165.24" cy="102.46" r="0.8"/><circle cx="165.24" cy="99.92" r="0.8"/><circle cx="165.24" cy="97.38" r="0.8"/><circle cx="165.24" cy="94.84" r="0.8"/><circle cx="165.24" cy="92.3" r="0.8"/><circle cx="165.24" cy="89.76" r="0.8"/><circle cx="165.24" cy="87.22" r="0.8"/><circle cx="165.24" cy="84.68" r="0.8"/><circle cx="162.7" cy="127.86" r="0.8"/><circle cx="162.7" cy="125.32" r="0.8"/><circle cx="162.7" cy="122.78" r="0.8"/><circle cx="162.7" cy="120.24" r="0.8"/><circle cx="162.7" cy="117.7" r="0.8"/><circle cx="162.7" cy="115.16" r="0.8"/><circle cx="162.7" cy="112.62" r="0.8"/><circle cx="162.7" cy="110.08" r="0.8"/><circle cx="162.7" cy="107.54" r="0.8"/><circle cx="162.7" cy="105" r="0.8"/><circle cx="162.7" cy="102.46" r="0.8"/><circle cx="162.7" cy="99.92" r="0.8"/><circle cx="162.7" cy="97.38" r="0.8"/><circle cx="162.7" cy="94.84" r="0.8"/><circle cx="162.7" cy="92.3" r="0.8"/><circle cx="162.7" cy="89.76" r="0.8"/><circle cx="162.7" cy="87.22" r="0.8"/><circle cx="162.7" cy="84.68" r="0.8"/><circle cx="160.16" cy="127.86" r="0.8"/><circle cx="160.16" cy="125.32" r="0.8"/><circle cx="160.16" cy="122.78" r="0.8"/><circle cx="160.16" cy="120.24" r="0.8"/><circle cx="160.16" cy="117.7" r="0.8"/><circle cx="160.16" cy="115.16" r="0.8"/><circle cx="160.16" cy="112.62" r="0.8"/><circle cx="160.16" cy="110.08" r="0.8"/><circle cx="160.16" cy="107.54" r="0.8"/><circle cx="160.16" cy="105" r="0.8"/><circle cx="160.16" cy="102.46" r="0.8"/><circle cx="160.16" cy="99.92" r="0.8"/><circle cx="160.16" cy="97.38" r="0.8"/><circle cx="160.16" cy="94.84" r="0.8"/><circle cx="160.16" cy="92.3" r="0.8"/><circle cx="160.16" cy="89.76" r="0.8"/><circle cx="160.16" cy="87.22" r="0.8"/><circle cx="160.16" cy="84.68" r="0.8"/><circle cx="157.62" cy="127.86" r="0.8"/><circle cx="157.62" cy="125.32" r="0.8"/><circle cx="157.62" cy="122.78" r="0.8"/><circle cx="157.62" cy="120.24" r="0.8"/><circle cx="157.62" cy="117.7" r="0.8"/><circle cx="157.62" cy="115.16" r="0.8"/><circle cx="157.62" cy="112.62" r="0.8"/><circle cx="157.62" cy="110.08" r="0.8"/><circle cx="157.62" cy="107.54" r="0.8"/><circle cx="157.62" cy="105" r="0.8"/><circle cx="157.62" cy="102.46" r="0.8"/><circle cx="157.62" cy="99.92" r="0.8"/><circle cx="157.62" cy="97.38" r="0.8"/><circle cx="157.62" cy="94.84" r="0.8"/><circle cx="157.62" cy="92.3" r="0.8"/><circle cx="157.62" cy="89.76" r="0.8"/><circle cx="157.62" cy="87.22" r="0.8"/><circle cx="157.62" cy="84.68" r="0.8"/><circle cx="155.08" cy="127.86" r="0.8"/><circle cx="155.08" cy="125.32" r="0.8"/><circle cx="155.08" cy="122.78" r="0.8"/><circle cx="155.08" cy="120.24" r="0.8"/><circle cx="155.08" cy="117.7" r="0.8"/><circle cx="155.08" cy="115.16" r="0.8"/><circle cx="155.08" cy="112.62" r="0.8"/><circle cx="155.08" cy="110.08" r="0.8"/><circle cx="155.08" cy="107.54" r="0.8"/><circle cx="155.08" cy="105" r="0.8"/><circle cx="155.08" cy="102.46" r="0.8"/><circle cx="155.08" cy="99.92" r="0.8"/><circle cx="155.08" cy="97.38" r="0.8"/><circle cx="155.08" cy="94.84" r="0.8"/><circle cx="155.08" cy="92.3" r="0.8"/><circle cx="155.08" cy="89.76" r="0.8"/><circle cx="155.08" cy="87.22" r="0.8"/><circle cx="155.08" cy="84.68" r="0.8"/><circle cx="152.54" cy="127.86" r="0.8"/><circle cx="152.54" cy="125.32" r="0.8"/><circle cx="152.54" cy="122.78" r="0.8"/><circle cx="152.54" cy="120.24" r="0.8"/><circle cx="152.54" cy="117.7" r="0.8"/><circle cx="152.54" cy="115.16" r="0.8"/><circle cx="152.54" cy="112.62" r="0.8"/><circle cx="152.54" cy="110.08" r="0.8"/><circle cx="152.54" cy="107.54" r="0.8"/><circle cx="152.54" cy="105" r="0.8"/><circle cx="152.54" cy="102.46" r="0.8"/><circle cx="152.54" cy="99.92" r="0.8"/><circle cx="152.54" cy="97.38" r="0.8"/><circle cx="152.54" cy="94.84" r="0.8"/><circle cx="152.54" cy="92.3" r="0.8"/><circle cx="152.54" cy="89.76" r="0.8"/><circle cx="152.54" cy="87.22" r="0.8"/><circle cx="152.54" cy="84.68" r="0.8"/><circle cx="150" cy="127.86" r="0.8"/><circle cx="150" cy="125.32" r="0.8"/><circle cx="150" cy="122.78" r="0.8"/><circle cx="150" cy="120.24" r="0.8"/><circle cx="150" cy="117.7" r="0.8"/><circle cx="150" cy="115.16" r="0.8"/><circle cx="150" cy="112.62" r="0.8"/><circle cx="150" cy="110.08" r="0.8"/><circle cx="150" cy="107.54" r="0.8"/><circle cx="150" cy="105" r="0.8"/><circle cx="150" cy="102.46" r="0.8"/><circle cx="150" cy="99.92" r="0.8"/><circle cx="150" cy="97.38" r="0.8"/><circle cx="150" cy="94.84" r="0.8"/><circle cx="150" cy="92.3" r="0.8"/><circle cx="150" cy="89.76" r="0.8"/><circle cx="150" cy="87.22" r="0.8"/><circle cx="150" cy="84.68" r="0.8"/><circle cx="147.46" cy="127.86" r="0.8"/><circle cx="147.46" cy="125.32" r="0.8"/><circle cx="147.46" cy="122.78" r="0.8"/><circle cx="147.46" cy="120.24" r="0.8"/><circle cx="147.46" cy="117.7" r="0.8"/><circle cx="147.46" cy="115.16" r="0.8"/><circle cx="147.46" cy="112.62" r="0.8"/><circle cx="147.46" cy="110.08" r="0.8"/><circle cx="147.46" cy="107.54" r="0.8"/><circle cx="147.46" cy="105" r="0.8"/><circle cx="147.46" cy="102.46" r="0.8"/><circle cx="147.46" cy="99.92" r="0.8"/><circle cx="147.46" cy="97.38" r="0.8"/><circle cx="147.46" cy="94.84" r="0.8"/><circle cx="147.46" cy="92.3" r="0.8"/><circle cx="147.46" cy="89.76" r="0.8"/><circle cx="147.46" cy="87.22" r="0.8"/><circle cx="147.46" cy="84.68" r="0.8"/><circle cx="144.92" cy="127.86" r="0.8"/><circle cx="144.92" cy="125.32" r="0.8"/><circle cx="144.92" cy="122.78" r="0.8"/><circle cx="144.92" cy="120.24" r="0.8"/><circle cx="144.92" cy="117.7" r="0.8"/><circle cx="144.92" cy="115.16" r="0.8"/><circle cx="144.92" cy="112.62" r="0.8"/><circle cx="144.92" cy="110.08" r="0.8"/><circle cx="144.92" cy="107.54" r="0.8"/><circle cx="144.92" cy="105" r="0.8"/><circle cx="144.92" cy="102.46" r="0.8"/><circle cx="144.92" cy="99.92" r="0.8"/><circle cx="144.92" cy="97.38" r="0.8"/><circle cx="144.92" cy="94.84" r="0.8"/><circle cx="144.92" cy="92.3" r="0.8"/><circle cx="144.92" cy="89.76" r="0.8"/><circle cx="144.92" cy="87.22" r="0.8"/><circle cx="144.92" cy="84.68" r="0.8"/><circle cx="142.38" cy="127.86" r="0.8"/><circle cx="142.38" cy="125.32" r="0.8"/><circle cx="142.38" cy="122.78" r="0.8"/><circle cx="142.38" cy="120.24" r="0.8"/><circle cx="142.38" cy="117.7" r="0.8"/><circle cx="142.38" cy="115.16" r="0.8"/><circle cx="142.38" cy="112.62" r="0.8"/><circle cx="142.38" cy="110.08" r="0.8"/><circle cx="142.38" cy="107.54" r="0.8"/><circle cx="142.38" cy="105" r="0.8"/><circle cx="142.38" cy="102.46" r="0.8"/><circle cx="142.38" cy="99.92" r="0.8"/><circle cx="142.38" cy="97.38" r="0.8"/><circle cx="142.38" cy="94.84" r="0.8"/><circle cx="142.38" cy="92.3" r="0.8"/><circle cx="142.38" cy="89.76" r="0.8"/><circle cx="142.38" cy="87.22" r="0.8"/><circle cx="142.38" cy="84.68" r="0.8"/><circle cx="139.84" cy="127.86" r="0.8"/><circle cx="139.84" cy="125.32" r="0.8"/><circle cx="139.84" cy="122.78" r="0.8"/><circle cx="139.84" cy="120.24" r="0.8"/><circle cx="139.84" cy="117.7" r="0.8"/><circle cx="139.84" cy="115.16" r="0.8"/><circle cx="139.84" cy="112.62" r="0.8"/><circle cx="139.84" cy="110.08" r="0.8"/><circle cx="139.84" cy="107.54" r="0.8"/><circle cx="139.84" cy="105" r="0.8"/><circle cx="139.84" cy="102.46" r="0.8"/><circle cx="139.84" cy="99.92" r="0.8"/><circle cx="139.84" cy="97.38" r="0.8"/><circle cx="139.84" cy="94.84" r="0.8"/><circle cx="139.84" cy="92.3" r="0.8"/><circle cx="139.84" cy="89.76" r="0.8"/><circle cx="139.84" cy="87.22" r="0.8"/><circle cx="139.84" cy="84.68" r="0.8"/><circle cx="137.3" cy="127.86" r="0.8"/><circle cx="137.3" cy="125.32" r="0.8"/><circle cx="137.3" cy="122.78" r="0.8"/><circle cx="137.3" cy="120.24" r="0.8"/><circle cx="137.3" cy="117.7" r="0.8"/><circle cx="137.3" cy="115.16" r="0.8"/><circle cx="137.3" cy="112.62" r="0.8"/><circle cx="137.3" cy="110.08" r="0.8"/><circle cx="137.3" cy="107.54" r="0.8"/><circle cx="137.3" cy="105" r="0.8"/><circle cx="137.3" cy="102.46" r="0.8"/><circle cx="137.3" cy="99.92" r="0.8"/><circle cx="137.3" cy="97.38" r="0.8"/><circle cx="137.3" cy="94.84" r="0.8"/><circle cx="137.3" cy="92.3" r="0.8"/><circle cx="137.3" cy="89.76" r="0.8"/><circle cx="137.3" cy="87.22" r="0.8"/><circle cx="137.3" cy="84.68" r="0.8"/><circle cx="134.76" cy="127.86" r="0.8"/><circle cx="134.76" cy="125.32" r="0.8"/><circle cx="134.76" cy="122.78" r="0.8"/><circle cx="134.76" cy="120.24" r="0.8"/><circle cx="134.76" cy="117.7" r="0.8"/><circle cx="134.76" cy="115.16" r="0.8"/><circle cx="134.76" cy="112.62" r="0.8"/><circle cx="134.76" cy="110.08" r="0.8"/><circle cx="134.76" cy="107.54" r="0.8"/><circle cx="134.76" cy="105" r="0.8"/><circle cx="134.76" cy="102.46" r="0.8"/><circle cx="134.76" cy="99.92" r="0.8"/><circle cx="134.76" cy="97.38" r="0.8"/><circle cx="134.76" cy="94.84" r="0.8"/><circle cx="134.76" cy="92.3" r="0.8"/><circle cx="134.76" cy="89.76" r="0.8"/><circle cx="134.76" cy="87.22" r="0.8"/><circle cx="134.76" cy="84.68" r="0.8"/><circle cx="137.3" cy="127.86" r="0.8"/><circle cx="137.3" cy="125.32" r="0.8"/><circle cx="137.3" cy="122.78" r="0.8"/><circle cx="137.3" cy="120.24" r="0.8"/><circle cx="137.3" cy="117.7" r="0.8"/><circle cx="137.3" cy="115.16" r="0.8"/><circle cx="137.3" cy="112.62" r="0.8"/><circle cx="137.3" cy="110.08" r="0.8"/><circle cx="137.3" cy="107.54" r="0.8"/><circle cx="137.3" cy="105" r="0.8"/><circle cx="137.3" cy="102.46" r="0.8"/><circle cx="137.3" cy="99.92" r="0.8"/><circle cx="137.3" cy="97.38" r="0.8"/><circle cx="137.3" cy="94.84" r="0.8"/><circle cx="137.3" cy="92.3" r="0.8"/><circle cx="137.3" cy="89.76" r="0.8"/><circle cx="137.3" cy="87.22" r="0.8"/><circle cx="137.3" cy="84.68" r="0.8"/><circle cx="132.22" cy="125.32" r="0.8"/><circle cx="132.22" cy="122.78" r="0.8"/><circle cx="132.22" cy="120.24" r="0.8"/><circle cx="132.22" cy="117.7" r="0.8"/><circle cx="132.22" cy="115.16" r="0.8"/><circle cx="132.22" cy="112.62" r="0.8"/><circle cx="132.22" cy="110.08" r="0.8"/><circle cx="132.22" cy="107.54" r="0.8"/><circle cx="132.22" cy="105" r="0.8"/><circle cx="132.22" cy="102.46" r="0.8"/><circle cx="132.22" cy="99.92" r="0.8"/><circle cx="132.22" cy="97.38" r="0.8"/><circle cx="132.22" cy="94.84" r="0.8"/><circle cx="132.22" cy="92.3" r="0.8"/><circle cx="132.22" cy="89.76" r="0.8"/><circle cx="132.22" cy="87.22" r="0.8"/><circle cx="129.68" cy="127.86" r="0.8"/><circle cx="129.68" cy="125.32" r="0.8"/><circle cx="129.68" cy="122.78" r="0.8"/><circle cx="129.68" cy="120.24" r="0.8"/><circle cx="129.68" cy="117.7" r="0.8"/><circle cx="129.68" cy="115.16" r="0.8"/><circle cx="129.68" cy="112.62" r="0.8"/><circle cx="129.68" cy="110.08" r="0.8"/><circle cx="129.68" cy="107.54" r="0.8"/><circle cx="129.68" cy="105" r="0.8"/><circle cx="129.68" cy="102.46" r="0.8"/><circle cx="129.68" cy="99.92" r="0.8"/><circle cx="129.68" cy="97.38" r="0.8"/><circle cx="129.68" cy="94.84" r="0.8"/><circle cx="129.68" cy="92.3" r="0.8"/><circle cx="129.68" cy="89.76" r="0.8"/><circle cx="129.68" cy="87.22" r="0.8"/><circle cx="127.14" cy="127.86" r="0.8"/><circle cx="127.14" cy="125.32" r="0.8"/><circle cx="127.14" cy="122.78" r="0.8"/><circle cx="127.14" cy="120.24" r="0.8"/><circle cx="127.14" cy="117.7" r="0.8"/><circle cx="127.14" cy="115.16" r="0.8"/><circle cx="127.14" cy="112.62" r="0.8"/><circle cx="127.14" cy="110.08" r="0.8"/><circle cx="127.14" cy="107.54" r="0.8"/><circle cx="127.14" cy="105" r="0.8"/><circle cx="127.14" cy="102.46" r="0.8"/><circle cx="127.14" cy="99.92" r="0.8"/><circle cx="127.14" cy="97.38" r="0.8"/><circle cx="127.14" cy="94.84" r="0.8"/><circle cx="127.14" cy="92.3" r="0.8"/><circle cx="127.14" cy="89.76" r="0.8"/><circle cx="127.14" cy="87.22" r="0.8"/><circle cx="127.14" cy="84.68" r="0.8"/><circle cx="124.6" cy="127.86" r="0.8"/><circle cx="124.6" cy="125.32" r="0.8"/><circle cx="124.6" cy="122.78" r="0.8"/><circle cx="124.6" cy="120.24" r="0.8"/><circle cx="124.6" cy="117.7" r="0.8"/><circle cx="124.6" cy="115.16" r="0.8"/><circle cx="124.6" cy="112.62" r="0.8"/><circle cx="124.6" cy="110.08" r="0.8"/><circle cx="124.6" cy="107.54" r="0.8"/><circle cx="124.6" cy="105" r="0.8"/><circle cx="124.6" cy="102.46" r="0.8"/><circle cx="124.6" cy="99.92" r="0.8"/><circle cx="124.6" cy="97.38" r="0.8"/><circle cx="124.6" cy="94.84" r="0.8"/><circle cx="124.6" cy="92.3" r="0.8"/><circle cx="124.6" cy="89.76" r="0.8"/><circle cx="124.6" cy="87.22" r="0.8"/><circle cx="124.6" cy="84.68" r="0.8"/><circle cx="122.06" cy="127.86" r="0.8"/><circle cx="122.06" cy="125.32" r="0.8"/><circle cx="122.06" cy="122.78" r="0.8"/><circle cx="122.06" cy="120.24" r="0.8"/><circle cx="122.06" cy="117.7" r="0.8"/><circle cx="122.06" cy="115.16" r="0.8"/><circle cx="122.06" cy="112.62" r="0.8"/><circle cx="122.06" cy="110.08" r="0.8"/><circle cx="122.06" cy="107.54" r="0.8"/><circle cx="122.06" cy="105" r="0.8"/><circle cx="122.06" cy="102.46" r="0.8"/><circle cx="122.06" cy="99.92" r="0.8"/><circle cx="122.06" cy="97.38" r="0.8"/><circle cx="122.06" cy="94.84" r="0.8"/><circle cx="122.06" cy="92.3" r="0.8"/><circle cx="122.06" cy="89.76" r="0.8"/><circle cx="122.06" cy="87.22" r="0.8"/><circle cx="122.06" cy="84.68" r="0.8"/><circle cx="119.52" cy="127.86" r="0.8"/><circle cx="119.52" cy="125.32" r="0.8"/><circle cx="119.52" cy="122.78" r="0.8"/><circle cx="119.52" cy="120.24" r="0.8"/><circle cx="119.52" cy="117.7" r="0.8"/><circle cx="119.52" cy="115.16" r="0.8"/><circle cx="119.52" cy="112.62" r="0.8"/><circle cx="119.52" cy="110.08" r="0.8"/><circle cx="119.52" cy="107.54" r="0.8"/><circle cx="119.52" cy="105" r="0.8"/><circle cx="119.52" cy="102.46" r="0.8"/><circle cx="119.52" cy="99.92" r="0.8"/><circle cx="119.52" cy="97.38" r="0.8"/><circle cx="119.52" cy="94.84" r="0.8"/><circle cx="119.52" cy="92.3" r="0.8"/><circle cx="119.52" cy="89.76" r="0.8"/><circle cx="119.52" cy="87.22" r="0.8"/><circle cx="119.52" cy="84.68" r="0.8"/><circle cx="119.52" cy="82.14" r="0.8"/><circle cx="122.06" cy="82.14" r="0.8"/><circle cx="124.6" cy="82.14" r="0.8"/><circle cx="127.14" cy="82.14" r="0.8"/><circle cx="134.76" cy="82.14" r="0.8"/><circle cx="137.3" cy="82.14" r="0.8"/><circle cx="139.84" cy="82.14" r="0.8"/><circle cx="142.38" cy="82.14" r="0.8"/><circle cx="127.14" cy="130.4" r="0.8"/><circle cx="124.6" cy="130.4" r="0.8"/><circle cx="122.06" cy="130.4" r="0.8"/><circle cx="119.52" cy="130.4" r="0.8"/><circle cx="180.48" cy="127.86" r="0.8"/><circle cx="180.48" cy="125.32" r="0.8"/><circle cx="180.48" cy="122.78" r="0.8"/><circle cx="180.48" cy="120.24" r="0.8"/><circle cx="180.48" cy="117.7" r="0.8"/><circle cx="180.48" cy="112.62" r="0.8"/><circle cx="180.48" cy="110.08" r="0.8"/><circle cx="183.02" cy="110.08" r="0.8"/><circle cx="183.02" cy="107.54" r="0.8"/><circle cx="180.48" cy="107.54" r="0.8"/><circle cx="180.48" cy="105" r="0.8"/><circle cx="183.02" cy="105" r="0.8"/><circle cx="183.02" cy="102.46" r="0.8"/><circle cx="180.48" cy="102.46" r="0.8"/><circle cx="180.48" cy="99.92" r="0.8"/><circle cx="180.48" cy="97.38" r="0.8"/><circle cx="180.48" cy="94.84" r="0.8"/><circle cx="180.48" cy="92.3" r="0.8"/><circle cx="180.48" cy="89.76" r="0.8"/><circle cx="183.02" cy="92.3" r="0.8"/><circle cx="183.02" cy="94.84" r="0.8"/><circle cx="183.02" cy="97.38" r="0.8"/><circle cx="183.02" cy="99.92" r="0.8"/><circle cx="180.48" cy="84.68" r="0.8"/></g></g>
<g id="GTO"><g fill="none" stroke-linecap="round" stroke-linejoin="round"><path stroke-width="0.15" d="M161.25,131.65L161.25,129.15M161.25,129.15L181.93,129.15M181.93,129.15L181.93,131.65M134.326,131.65L134.326,129.15M134.326,129.15L160.086,129.15M160.086,129.15L160.086,131.65M143.47,83.39L143.47,80.89M164.15,80.89L164.15,83.39M164.15,83.39L143.47,83.39M181.93,83.39L166.33,83.39M166.33,83.39L166.33,80.89M181.93,80.89L181.93,83.39M179.21,108.81L179.21,111.35M179.21,111.35L184.29,111.35M184.29,111.35L184.29,103.73M184.29,103.73L179.21,103.73M179.21,103.73L179.21,106.27M184.233,93.235L184.983,93.235M184.983,93.735L184.233,93.735M184.233,93.735L184.608,93.485M184.608,93.485L184.233,93.235M184.233,93.985L184.233,94.485M184.233,94.485L184.358,94.485M184.358,94.485L184.858,93.985M184.858,93.985L184.983,93.985M184.983,93.985L184.983,94.485M184.983,94.485L184.858,94.485M184.358,93.985L184.233,93.985M184.233,94.735L184.858,94.735M184.858,94.735L184.983,94.86M184.983,94.86L184.983,95.11M184.983,95.11L184.858,95.235M184.858,95.235L184.233,95.235M184.858,95.985L184.983,95.985M184.983,95.985L184.983,95.485M184.983,95.485L184.858,95.485M184.858,95.485L184.483,95.985M184.483,95.985L184.358,95.985M184.358,95.985L184.233,95.86M184.233,95.86L184.233,95.61M184.233,95.61L184.358,95.485M184.983,96.61L184.233,96.61M184.233,96.36L184.733,96.235M184.733,96.235L184.733,96.735M184.358,96.985L184.858,96.985M184.858,96.985L184.983,97.11M184.983,97.11L184.983,97.36M184.983,97.36L184.858,97.485M184.858,97.485L184.358,97.485M184.358,97.485L184.233,97.36M184.233,97.36L184.233,97.11M184.233,97.11L184.358,96.985M184.233,97.735L184.483,97.735M184.483,97.735L184.483,98.11M184.483,98.11L184.608,98.235M184.608,98.235L184.858,98.235M184.858,98.235L184.983,98.11M184.983,98.11L184.983,97.86M184.983,97.86L184.858,97.735M184.233,98.235L184.233,97.735M184.733,98.86L184.733,98.61M184.983,98.485L184.545,98.485M184.545,98.985L184.983,98.985M184.545,98.485L184.233,98.673M184.233,98.673L184.233,98.798M184.233,98.798L184.545,98.985M181.93,131.65L181.433,131.65M161.25,131.65L161.748,131.65M160.086,131.65L159.843,131.65M134.326,131.65L134.76,131.65M159.515,132.363L159.14,132.363M159.14,132.363L159.015,132.238M159.015,132.238L159.015,131.738M159.015,131.738L159.14,131.613M159.14,131.613L159.515,131.613M159.515,131.8L159.515,132.363M158.39,132.363L158.64,132.363M158.64,132.363L158.765,132.238M158.765,132.238L158.765,132.113M158.765,132.113L158.265,131.863M158.265,131.863L158.265,131.738M158.265,131.738L158.39,131.613M158.39,131.613L158.64,131.613M158.64,131.613L158.765,131.738M158.765,131.738L158.765,131.863M158.765,131.863L158.265,132.113M158.265,132.113L158.265,132.238M158.265,132.238L158.39,132.363M156.975,132.363L156.6,132.363M156.6,132.363L156.475,132.238M156.475,132.238L156.475,131.738M156.475,131.738L156.6,131.613M156.6,131.613L156.975,131.613M156.975,131.8L156.975,132.363M156.225,132.238L156.1,132.363M156.1,132.363L155.85,132.363M155.85,132.363L155.725,132.238M155.725,132.238L155.725,131.738M155.725,131.738L155.85,131.613M155.85,131.613L156.1,131.613M156.1,131.613L156.225,131.738M156.225,131.738L156.225,131.863M156.225,131.863L156.1,131.988M156.1,131.988L155.912,131.988M154.81,132.363L154.435,132.363M154.435,132.363L154.31,132.238M154.31,132.238L154.31,131.738M154.31,131.738L154.435,131.613M154.435,131.613L154.81,131.613M154.81,131.8L154.81,132.363M153.685,132.363L153.935,132.363M153.81,132.363L153.81,131.613M153.935,131.738L153.81,131.613M153.31,131.738L153.31,132.238M153.31,132.238L153.185,132.363M153.185,132.363L152.935,132.363M152.935,132.363L152.81,132.238M152.81,132.238L152.81,131.738M152.81,131.738L152.935,131.613M152.935,131.613L153.185,131.613M153.185,131.613L153.31,131.738M152.27,132.363L151.895,132.363M151.895,132.363L151.77,132.238M151.77,132.238L151.77,131.738M151.77,131.738L151.895,131.613M151.895,131.613L152.27,131.613M152.27,131.8L152.27,132.363M151.145,132.363L151.395,132.363M151.27,132.363L151.27,131.613M151.395,131.738L151.27,131.613M150.395,132.363L150.645,132.363M150.52,132.363L150.52,131.613M150.645,131.738L150.52,131.613M149.73,132.363L149.355,132.363M149.355,132.363L149.23,132.238M149.23,132.238L149.23,131.738M149.23,131.738L149.355,131.613M149.355,131.613L149.73,131.613M149.73,131.8L149.73,132.363M148.605,132.363L148.855,132.363M148.73,132.363L148.73,131.613M148.855,131.738L148.73,131.613M147.73,132.238L147.73,132.363M147.73,132.363L148.23,132.363M148.23,132.363L148.23,132.238M148.23,132.238L147.73,131.863M147.73,131.863L147.73,131.738M147.73,131.738L147.855,131.613M147.855,131.613L148.105,131.613M148.105,131.613L148.23,131.738M147.19,132.363L146.815,132.363M146.815,132.363L146.69,132.238M146.69,132.238L146.69,131.738M146.69,131.738L146.815,131.613M146.815,131.613L147.19,131.613M147.19,131.8L147.19,132.363M146.065,132.363L146.315,132.363M146.19,132.363L146.19,131.613M146.315,131.738L146.19,131.613M145.69,132.238L145.565,132.363M145.565,132.363L145.315,132.363M145.315,132.363L145.19,132.238M145.19,132.238L145.19,132.113M145.19,132.113L145.315,131.988M145.315,131.988L145.19,131.863M145.19,131.863L145.19,131.738M145.19,131.738L145.315,131.613M145.315,131.613L145.565,131.613M145.565,131.613L145.69,131.738M145.315,131.988L145.44,131.988M144.15,131.738L144.275,131.613M144.275,131.613L144.525,131.613M144.525,131.613L144.65,131.738M144.65,131.738L144.65,132.238M144.65,132.238L144.525,132.363M144.15,132.363L144.15,131.988M144.15,131.988L144.4,131.988M144.525,132.363L144.4,132.363M143.9,131.613L143.9,132.363M143.9,131.613L143.4,132.363M143.4,132.363L143.4,131.613M143.15,132.363L142.775,132.363M142.775,132.363L142.65,132.238M142.65,132.238L142.65,131.738M142.65,131.738L142.775,131.613M142.775,131.613L143.15,131.613M143.15,131.8L143.15,132.363M141.735,132.113L141.985,132.113M142.11,132.363L142.11,131.925M141.61,131.925L141.61,132.363M142.11,131.925L141.922,131.613M141.922,131.613L141.797,131.613M141.797,131.613L141.61,131.925M141.36,131.613L141.36,132.363M141.36,131.613L140.985,131.613M140.985,131.613L140.86,131.738M140.86,131.738L140.86,131.863M140.86,131.863L140.985,131.988M140.985,131.988L141.235,131.988M140.86,132.363L140.985,131.988M140.61,131.613L140.36,132.363M140.36,132.363L140.11,131.613M139.07,131.738L139.195,131.613M139.195,131.613L139.445,131.613M139.445,131.613L139.57,131.738M139.57,131.738L139.57,131.863M139.57,131.863L139.07,132.113M139.07,132.113L139.07,132.238M139.07,132.238L139.195,132.363M139.195,132.363L139.445,132.363M139.445,132.363L139.57,132.238M138.82,132.363L138.445,132.363M138.445,132.363L138.32,132.238M138.32,132.238L138.32,131.738M138.32,131.738L138.445,131.613M138.445,131.613L138.82,131.613M138.82,131.8L138.82,132.363M137.695,132.113L137.945,132.113M138.07,132.363L138.07,131.925M137.57,131.925L137.57,132.363M138.07,131.925L137.882,131.613M137.882,131.613L137.757,131.613M137.757,131.613L137.57,131.925M136.53,131.738L136.655,131.613M136.655,131.613L136.905,131.613M136.905,131.613L137.03,131.738M137.03,131.738L137.03,131.863M137.03,131.863L136.53,132.113M136.53,132.113L136.53,132.238M136.53,132.238L136.655,132.363M136.655,132.363L136.905,132.363M136.905,132.363L137.03,132.238M135.78,131.738L135.905,131.613M135.905,131.613L136.155,131.613M136.155,131.613L136.28,131.738M136.28,131.738L136.28,132.238M136.28,132.238L136.155,132.363M136.155,132.363L135.905,132.363M135.905,132.363L135.78,132.238M135.53,131.613L135.53,132.363M135.53,132.363L135.03,132.363M181.105,132.363L180.73,132.363M180.73,132.363L180.605,132.238M180.605,132.238L180.605,131.738M180.605,131.738L180.73,131.613M180.73,131.613L181.105,131.613M181.105,131.8L181.105,132.363M180.355,131.738L180.355,132.238M180.355,132.238L180.23,132.363M180.23,132.363L179.98,132.363M179.98,132.363L179.855,132.238M179.855,132.238L179.855,131.738M179.855,131.738L179.98,131.613M179.98,131.613L180.23,131.613M180.23,131.613L180.355,131.738M178.565,132.363L178.19,132.363M178.19,132.363L178.065,132.238M178.065,132.238L178.065,131.738M178.065,131.738L178.19,131.613M178.19,131.613L178.565,131.613M178.565,131.8L178.565,132.363M177.44,132.363L177.69,132.363M177.565,132.363L177.565,131.613M177.69,131.738L177.565,131.613M176.025,132.363L175.65,132.363M175.65,132.363L175.525,132.238M175.525,132.238L175.525,131.738M175.525,131.738L175.65,131.613M175.65,131.613L176.025,131.613M176.025,131.8L176.025,132.363M174.775,132.238L174.775,132.363M174.775,132.363L175.275,132.363M175.275,132.363L175.275,132.238M175.275,132.238L174.775,131.863M174.775,131.863L174.775,131.738M174.775,131.738L174.9,131.613M174.9,131.613L175.15,131.613M175.15,131.613L175.275,131.738M173.485,132.363L173.11,132.363M173.11,132.363L172.985,132.238M172.985,132.238L172.985,131.738M172.985,131.738L173.11,131.613M173.11,131.613L173.485,131.613M173.485,131.8L173.485,132.363M172.735,132.238L172.61,132.363M172.61,132.363L172.36,132.363M172.36,132.363L172.235,132.238M172.235,132.238L172.235,132.113M172.235,132.113L172.36,131.988M172.36,131.988L172.235,131.863M172.235,131.863L172.235,131.738M172.235,131.738L172.36,131.613M172.36,131.613L172.61,131.613M172.61,131.613L172.735,131.738M172.36,131.988L172.485,131.988M170.945,132.363L170.57,132.363M170.57,132.363L170.445,132.238M170.445,132.238L170.445,131.738M170.445,131.738L170.57,131.613M170.57,131.613L170.945,131.613M170.945,131.8L170.945,132.363M169.82,132.363L169.82,131.613M170.07,131.613L170.195,132.113M170.195,132.113L169.695,132.113M168.405,132.363L168.03,132.363M168.03,132.363L167.905,132.238M167.905,132.238L167.905,131.738M167.905,131.738L168.03,131.613M168.03,131.613L168.405,131.613M168.405,131.8L168.405,132.363M167.655,131.613L167.655,131.863M167.655,131.863L167.28,131.863M167.28,131.863L167.155,131.988M167.155,131.988L167.155,132.238M167.155,132.238L167.28,132.363M167.28,132.363L167.53,132.363M167.53,132.363L167.655,132.238M167.155,131.613L167.655,131.613M165.865,132.363L165.49,132.363M165.49,132.363L165.365,132.238M165.365,132.238L165.365,131.738M165.365,131.738L165.49,131.613M165.49,131.613L165.865,131.613M165.865,131.8L165.865,132.363M164.615,131.738L164.74,131.613M164.74,131.613L164.99,131.613M164.99,131.613L165.115,131.738M165.115,131.738L165.115,132.238M165.115,132.238L164.99,132.363M164.99,132.363L164.74,132.363M164.74,132.363L164.615,132.238M164.615,132.238L164.615,132.113M164.615,132.113L164.74,131.988M164.74,131.988L164.927,131.988M163.325,132.363L162.95,132.363M162.95,132.363L162.825,132.238M162.825,132.238L162.825,131.738M162.825,131.738L162.95,131.613M162.95,131.613L163.325,131.613M163.325,131.8L163.325,132.363M162.325,132.363L162.325,132.113M162.075,131.613L162.575,131.613M162.575,131.613L162.575,131.738M162.075,131.863L162.075,131.613M162.325,132.113L162.075,131.863M181.93,80.89L181.433,80.89M166.33,80.89L166.828,80.89M167.53,80.428L167.28,80.428M167.155,80.178L167.155,80.616M167.655,80.616L167.655,80.178M167.155,80.616L167.343,80.928M167.343,80.928L167.468,80.928M167.468,80.928L167.655,80.616M167.905,80.803L167.905,80.303M167.905,80.303L168.03,80.178M168.03,80.178L168.28,80.178M168.28,80.178L168.405,80.303M168.405,80.303L168.405,80.803M168.405,80.803L168.28,80.928M168.28,80.928L168.03,80.928M168.03,80.928L167.905,80.803M170.07,80.428L169.82,80.428M169.695,80.178L169.695,80.616M170.195,80.616L170.195,80.178M169.695,80.616L169.883,80.928M169.883,80.928L170.008,80.928M170.008,80.928L170.195,80.616M170.82,80.178L170.57,80.178M170.695,80.178L170.695,80.928M170.57,80.803L170.695,80.928M172.61,80.428L172.36,80.428M172.235,80.178L172.235,80.616M172.735,80.616L172.735,80.178M172.235,80.616L172.423,80.928M172.423,80.928L172.548,80.928M172.548,80.928L172.735,80.616M173.485,80.303L173.485,80.178M173.485,80.178L172.985,80.178M172.985,80.178L172.985,80.303M172.985,80.303L173.485,80.678M173.485,80.678L173.485,80.803M173.485,80.803L173.36,80.928M173.36,80.928L173.11,80.928M173.11,80.928L172.985,80.803M175.15,80.428L174.9,80.428M174.775,80.178L174.775,80.616M175.275,80.616L175.275,80.178M174.775,80.616L174.963,80.928M174.963,80.928L175.088,80.928M175.088,80.928L175.275,80.616M175.525,80.303L175.65,80.178M175.65,80.178L175.9,80.178M175.9,80.178L176.025,80.303M176.025,80.303L176.025,80.428M176.025,80.428L175.9,80.553M175.9,80.553L176.025,80.678M176.025,80.678L176.025,80.803M176.025,80.803L175.9,80.928M175.9,80.928L175.65,80.928M175.65,80.928L175.525,80.803M175.9,80.553L175.775,80.553M177.69,80.428L177.44,80.428M177.315,80.178L177.315,80.616M177.815,80.616L177.815,80.178M177.315,80.616L177.503,80.928M177.503,80.928L177.628,80.928M177.628,80.928L177.815,80.616M178.44,80.178L178.44,80.928M178.19,80.928L178.065,80.428M178.065,80.428L178.565,80.428M180.23,80.428L179.98,80.428M179.855,80.178L179.855,80.616M180.355,80.616L180.355,80.178M179.855,80.616L180.043,80.928M180.043,80.928L180.168,80.928M180.168,80.928L180.355,80.616M180.605,80.928L180.605,80.678M180.605,80.678L180.98,80.678M180.98,80.678L181.105,80.553M181.105,80.553L181.105,80.303M181.105,80.303L180.98,80.178M180.98,80.178L180.73,80.178M180.73,80.178L180.605,80.303M181.105,80.928L180.605,80.928M143.47,80.89L146.19,80.89M161.7,80.927L161.95,80.177M161.95,80.177L162.2,80.927M162.575,80.927L162.825,80.927M162.825,80.177L162.575,80.177M162.7,80.927L162.7,80.177M163.2,80.927L163.2,80.177M163.2,80.927L163.7,80.177M163.7,80.177L163.7,80.927M159.66,80.802L159.535,80.927M159.535,80.927L159.285,80.927M159.285,80.927L159.16,80.802M159.16,80.802L159.16,80.302M159.16,80.302L159.285,80.177M159.66,80.177L159.66,80.552M159.66,80.552L159.41,80.552M159.285,80.177L159.41,80.177M159.91,80.927L159.91,80.177M159.91,80.927L160.41,80.177M160.41,80.177L160.41,80.927M160.66,80.177L161.035,80.177M161.035,80.177L161.16,80.302M161.16,80.302L161.16,80.802M161.16,80.802L161.035,80.927M161.035,80.927L160.66,80.927M160.66,80.74L160.66,80.177M157.12,80.802L156.995,80.927M156.995,80.927L156.745,80.927M156.745,80.927L156.62,80.802M156.62,80.802L156.62,80.302M156.62,80.302L156.745,80.177M157.12,80.177L157.12,80.552M157.12,80.552L156.87,80.552M156.745,80.177L156.87,80.177M157.37,80.927L157.37,80.177M157.37,80.927L157.87,80.177M157.87,80.177L157.87,80.927M158.12,80.177L158.495,80.177M158.495,80.177L158.62,80.302M158.62,80.302L158.62,80.802M158.62,80.802L158.495,80.927M158.495,80.927L158.12,80.927M158.12,80.74L158.12,80.177M154.455,80.927L154.455,80.677M154.455,80.677L154.83,80.677M154.83,80.677L154.955,80.552M154.955,80.552L154.955,80.302M154.955,80.302L154.83,80.177M154.83,80.177L154.58,80.177M154.58,80.177L154.455,80.302M154.955,80.927L154.455,80.927M155.205,80.927L155.455,80.177M155.455,80.177L155.705,80.927M151.54,80.302L151.665,80.177M151.665,80.177L151.915,80.177M151.915,80.177L152.04,80.302M152.04,80.302L152.04,80.427M152.04,80.427L151.915,80.552M151.915,80.552L152.04,80.677M152.04,80.677L152.04,80.802M152.04,80.802L151.915,80.927M151.915,80.927L151.665,80.927M151.665,80.927L151.54,80.802M151.915,80.552L151.79,80.552M152.29,80.927L152.54,80.177M152.54,80.177L152.79,80.927M153.04,80.302L153.165,80.177M153.165,80.177L153.415,80.177M153.415,80.177L153.54,80.302M153.54,80.302L153.54,80.427M153.54,80.427L153.415,80.552M153.415,80.552L153.54,80.677M153.54,80.677L153.54,80.802M153.54,80.802L153.415,80.927M153.415,80.927L153.165,80.927M153.165,80.927L153.04,80.802M153.415,80.552L153.29,80.552M149,80.927L149,80.177M149,80.927L149.375,80.927M149.375,80.927L149.5,80.802M149.5,80.802L149.5,80.677M149.5,80.677L149.375,80.552M149.375,80.552L149.125,80.552M149.5,80.177L149.375,80.552M150.25,80.802L150.125,80.927M150.125,80.927L149.875,80.927M149.875,80.927L149.75,80.802M149.75,80.802L149.75,80.677M149.75,80.677L150.25,80.427M150.25,80.427L150.25,80.302M150.25,80.302L150.125,80.177M150.125,80.177L149.875,80.177M149.875,80.177L149.75,80.302M150.5,80.927L151,80.927M150.75,80.927L150.75,80.177M146.585,80.927L146.835,80.927M146.835,80.177L146.585,80.177M146.71,80.927L146.71,80.177M147.335,80.927L147.21,80.802M147.21,80.802L147.21,80.302M147.21,80.302L147.335,80.177M147.335,80.177L147.585,80.177M147.585,80.177L147.71,80.302M147.71,80.302L147.71,80.802M147.71,80.802L147.585,80.927M147.585,80.927L147.335,80.927M147.96,80.927L148.21,80.177M148.21,80.177L148.46,80.927M134.02,130.4A1.8,1.8,0,1,0,130.42,130.4M130.42,130.4A1.8,1.8,0,1,0,134.02,130.4M132.75,82.14A1.8,1.8,0,1,0,129.15,82.14M129.15,82.14A1.8,1.8,0,1,0,132.75,82.14M184.82,87.22A1.8,1.8,0,1,0,181.22,87.22M181.22,87.22A1.8,1.8,0,1,0,184.82,87.22M184.82,115.16A1.8,1.8,0,1,0,181.22,115.16M181.22,115.16A1.8,1.8,0,1,0,184.82,115.16"/></g><g stroke="none"><circle cx="184.608" cy="97.235" r="0.075"/><circle cx="153.06" cy="131.988" r="0.075"/><circle cx="180.105" cy="131.988" r="0.075"/><circle cx="168.155" cy="80.553" r="0.075"/></g></g>
<g id="GTS"><g fill="none" stroke-linecap="round" stroke-linejoin="round"><path stroke-width="1.7" d="M170.32,81.92L170.32,82.36M175.4,81.92L175.4,82.36M180.48,81.92L180.48,82.36M167.78,81.92L167.78,82.36M172.86,81.92L172.86,82.36M177.94,81.92L177.94,82.36M147.46,81.92L147.46,82.36M152.54,81.92L152.54,82.36M157.62,81.92L157.62,82.36M162.7,81.92L162.7,82.36M144.92,81.92L144.92,82.36M150,81.92L150,82.36M155.08,81.92L155.08,82.36M160.16,81.92L160.16,82.36M177.94,130.62L177.94,130.18M172.86,130.62L172.86,130.18M167.78,130.62L167.78,130.18M162.7,130.62L162.7,130.18M180.48,130.62L180.48,130.18M175.4,130.62L175.4,130.18M170.32,130.62L170.32,130.18M165.24,130.62L165.24,130.18M156.096,130.62L156.096,130.18M151.016,130.62L151.016,130.18M145.936,130.62L145.936,130.18M140.856,130.62L140.856,130.18M135.776,130.62L135.776,130.18M158.636,130.62L158.636,130.18M153.556,130.62L153.556,130.18M148.476,130.62L148.476,130.18M143.396,130.62L143.396,130.18M138.316,130.62L138.316,130.18"/></g><g stroke="none"><circle cx="177.94" cy="127.86" r="0.85"/><circle cx="177.94" cy="125.32" r="0.85"/><circle cx="177.94" cy="122.78" r="0.85"/><circle cx="177.94" cy="120.24" r="0.85"/><circle cx="177.94" cy="117.7" r="0.85"/><circle cx="177.94" cy="115.16" r="0.85"/><circle cx="177.94" cy="112.62" r="0.85"/><circle cx="177.94" cy="110.08" r="0.85"/><circle cx="177.94" cy="107.54" r="0.85"/><circle cx="177.94" cy="105" r="0.85"/><circle cx="177.94" cy="102.46" r="0.85"/><circle cx="177.94" cy="99.92" r="0.85"/><circle cx="177.94" cy="97.38" r="0.85"/><circle cx="177.94" cy="94.84" r="0.85"/><circle cx="177.94" cy="92.3" r="0.85"/><circle cx="177.94" cy="89.76" r="0.85"/><circle cx="177.94" cy="87.22" r="0.85"/><circle cx="177.94" cy="84.68" r="0.85"/><circle cx="175.4" cy="127.86" r="0.85"/><circle cx="175.4" cy="125.32" r="0.85"/><circle cx="175.4" cy="122.78" r="0.85"/><circle cx="175.4" cy="120.24" r="0.85"/><circle cx="175.4" cy="117.7" r="0.85"/><circle cx="175.4" cy="115.16" r="0.85"/><circle cx="175.4" cy="112.62" r="0.85"/><circle cx="175.4" cy="110.08" r="0.85"/><circle cx="175.4" cy="107.54" r="0.85"/><circle cx="175.4" cy="105" r="0.85"/><circle cx="175.4" cy="102.46" r="0.85"/><circle cx="175.4" cy="99.92" r="0.85"/><circle cx="175.4" cy="97.38" r="0.85"/><circle cx="175.4" cy="94.84" r="0.85"/><circle cx="175.4" cy="92.3" r="0.85"/><circle cx="175.4" cy="89.76" r="0.85"/><circle cx="175.4" cy="87.22" r="0.85"/><circle cx="175.4" cy="84.68" r="0.85"/><circle cx="172.86" cy="127.86" r="0.85"/><circle cx="172.86" cy="125.32" r="0.85"/><circle cx="172.86" cy="122.78" r="0.85"/><circle cx="172.86" cy="120.24" r="0.85"/><circle cx="172.86" cy="117.7" r="0.85"/><circle cx="172.86" cy="115.16" r="0.85"/><circle cx="172.86" cy="112.62" r="0.85"/><circle cx="172.86" cy="110.08" r="0.85"/><circle cx="172.86" cy="107.54" r="0.85"/><circle cx="172.86" cy="105" r="0.85"/><circle cx="172.86" cy="102.46" r="0.85"/><circle cx="172.86" cy="99.92" r="0.85"/><circle cx="172.86" cy="97.38" r="0.85"/><circle cx="172.86" cy="94.84" r="0.85"/><circle cx="172.86" cy="92.3" r="0.85"/><circle cx="172.86" cy="89.76" r="0.85"/><circle cx="172.86" cy="87.22" r="0.85"/><circle cx="172.86" cy="84.68" r="0.85"/><circle cx="170.32" cy="127.86" r="0.85"/><circle cx="170.32" cy="125.32" r="0.85"/><circle cx="170.32" cy="122.78" r="0.85"/><circle cx="170.32" cy="120.24" r="0.85"/><circle cx="170.32" cy="117.7" r="0.85"/><circle cx="170.32" cy="115.16" r="0.85"/><circle cx="170.32" cy="112.62" r="0.85"/><circle cx="170.32" cy="110.08" r="0.85"/><circle cx="170.32" cy="107.54" r="0.85"/><circle cx="170.32" cy="105" r="0.85"/><circle cx="170.32" cy="102.46" r="0.85"/><circle cx="170.32" cy="99.92" r="0.85"/><circle cx="170.32" cy="97.38" r="0.85"/><circle cx="170.32" cy="94.84" r="0.85"/><circle cx="170.32" cy="92.3" r="0.85"/><circle cx="170.32" cy="89.76" r="0.85"/><circle cx="170.32" cy="87.22" r="0.85"/><circle cx="170.32" cy="84.68" r="0.85"/><circle cx="167.78" cy="127.86" r="0.85"/><circle cx="167.78" cy="125.32" r="0.85"/><circle cx="167.78" cy="122.78" r="0.85"/><circle cx="167.78" cy="120.24" r="0.85"/><circle cx="167.78" cy="117.7" r="0.85"/><circle cx="167.78" cy="115.16" r="0.85"/><circle cx="167.78" cy="112.62" r="0.85"/><circle cx="167.78" cy="110.08" r="0.85"/><circle cx="167.78" cy="107.54" r="0.85"/><circle cx="167.78" cy="105" r="0.85"/><circle cx="167.78" cy="102.46" r="0.85"/><circle cx="167.78" cy="99.92" r="0.85"/><circle cx="167.78" cy="97.38" r="0.85"/><circle cx="167.78" cy="94.84" r="0.85"/><circle cx="167.78" cy="92.3" r="0.85"/><circle cx="167.78" cy="89.76" r="0.85"/><circle cx="167.78" cy="87.22" r="0.85"/><circle cx="167.78" cy="84.68" r="0.85"/><circle cx="165.24" cy="127.86" r="0.85"/><circle cx="165.24" cy="125.32" r="0.85"/><circle cx="165.24" cy="122.78" r="0.85"/><circle cx="165.24" cy="120.24" r="0.85"/><circle cx="165.24" cy="117.7" r="0.85"/><circle cx="165.24" cy="115.16" r="0.85"/><circle cx="165.24" cy="112.62" r="0.85"/><circle cx="165.24" cy="110.08" r="0.85"/><circle cx="165.24" cy="107.54" r="0.85"/><circle cx="165.24" cy="105" r="0.85"/><circle cx="165.24" cy="102.46" r="0.85"/><circle cx="165.24" cy="99.92" r="0.85"/><circle cx="165.24" cy="97.38" r="0.85"/><circle cx="165.24" cy="94.84" r="0.85"/><circle cx="165.24" cy="92.3" r="0.85"/><circle cx="165.24" cy="89.76" r="0.85"/><circle cx="165.24" cy="87.22" r="0.85"/><circle cx="165.24" cy="84.68" r="0.85"/><circle cx="162.7" cy="127.86" r="0.85"/><circle cx="162.7" cy="125.32" r="0.85"/><circle cx="162.7" cy="122.78" r="0.85"/><circle cx="162.7" cy="120.24" r="0.85"/><circle cx="162.7" cy="117.7" r="0.85"/><circle cx="162.7" cy="115.16" r="0.85"/><circle cx="162.7" cy="112.62" r="0.85"/><circle cx="162.7" cy="110.08" r="0.85"/><circle cx="162.7" cy="107.54" r="0.85"/><circle cx="162.7" cy="105" r="0.85"/><circle cx="162.7" cy="102.46" r="0.85"/><circle cx="162.7" cy="99.92" r="0.85"/><circle cx="162.7" cy="97.38" r="0.85"/><circle cx="162.7" cy="94.84" r="0.85"/><circle cx="162.7" cy="92.3" r="0.85"/><circle cx="162.7" cy="89.76" r="0.85"/><circle cx="162.7" cy="87.22" r="0.85"/><circle cx="162.7" cy="84.68" r="0.85"/><circle cx="160.16" cy="127.86" r="0.85"/><circle cx="160.16" cy="125.32" r="0.85"/><circle cx="160.16" cy="122.78" r="0.85"/><circle cx="160.16" cy="120.24" r="0.85"/><circle cx="160.16" cy="117.7" r="0.85"/><circle cx="160.16" cy="115.16" r="0.85"/><circle cx="160.16" cy="112.62" r="0.85"/><circle cx="160.16" cy="110.08" r="0.85"/><circle cx="160.16" cy="107.54" r="0.85"/><circle cx="160.16" cy="105" r="0.85"/><circle cx="160.16" cy="102.46" r="0.85"/><circle cx="160.16" cy="99.92" r="0.85"/><circle cx="160.16" cy="97.38" r="0.85"/><circle cx="160.16" cy="94.84" r="0.85"/><circle cx="160.16" cy="92.3" r="0.85"/><circle cx="160.16" cy="89.76" r="0.85"/><circle cx="160.16" cy="87.22" r="0.85"/><circle cx="160.16" cy="84.68" r="0.85"/><circle cx="157.62" cy="127.86" r="0.85"/><circle cx="157.62" cy="125.32" r="0.85"/><circle cx="157.62" cy="122.78" r="0.85"/><circle cx="157.62" cy="120.24" r="0.85"/><circle cx="157.62" cy="117.7" r="0.85"/><circle cx="157.62" cy="115.16" r="0.85"/><circle cx="157.62" cy="112.62" r="0.85"/><circle cx="157.62" cy="110.08" r="0.85"/><circle cx="157.62" cy="107.54" r="0.85"/><circle cx="157.62" cy="105" r="0.85"/><circle cx="157.62" cy="102.46" r="0.85"/><circle cx="157.62" cy="99.92" r="0.85"/><circle cx="157.62" cy="97.38" r="0.85"/><circle cx="157.62" cy="94.84" r="0.85"/><circle cx="157.62" cy="92.3" r="0.85"/><circle cx="157.62" cy="89.76" r="0.85"/><circle cx="157.62" cy="87.22" r="0.85"/><circle cx="157.62" cy="84.68" r="0.85"/><circle cx="155.08" cy="127.86" r="0.85"/><circle cx="155.08" cy="125.32" r="0.85"/><circle cx="155.08" cy="122.78" r="0.85"/><circle cx="155.08" cy="120.24" r="0.85"/><circle cx="155.08" cy="117.7" r="0.85"/><circle cx="155.08" cy="115.16" r="0.85"/><circle cx="155.08" cy="112.62" r="0.85"/><circle cx="155.08" cy="110.08" r="0.85"/><circle cx="155.08" cy="107.54" r="0.85"/><circle cx="155.08" cy="105" r="0.85"/><circle cx="155.08" cy="102.46" r="0.85"/><circle cx="155.08" cy="99.92" r="0.85"/><circle cx="155.08" cy="97.38" r="0.85"/><circle cx="155.08" cy="94.84" r="0.85"/><circle cx="155.08" cy="92.3" r="0.85"/><circle cx="155.08" cy="89.76" r="0.85"/><circle cx="155.08" cy="87.22" r="0.85"/><circle cx="155.08" cy="84.68" r="0.85"/><circle cx="152.54" cy="127.86" r="0.85"/><circle cx="152.54" cy="125.32" r="0.85"/><circle cx="152.54" cy="122.78" r="0.85"/><circle cx="152.54" cy="120.24" r="0.85"/><circle cx="152.54" cy="117.7" r="0.85"/><circle cx="152.54" cy="115.16" r="0.85"/><circle cx="152.54" cy="112.62" r="0.85"/><circle cx="152.54" cy="110.08" r="0.85"/><circle cx="152.54" cy="107.54" r="0.85"/><circle cx="152.54" cy="105" r="0.85"/><circle cx="152.54" cy="102.46" r="0.85"/><circle cx="152.54" cy="99.92" r="0.85"/><circle cx="152.54" cy="97.38" r="0.85"/><circle cx="152.54" cy="94.84" r="0.85"/><circle cx="152.54" cy="92.3" r="0.85"/><circle cx="152.54" cy="89.76" r="0.85"/><circle cx="152.54" cy="87.22" r="0.85"/><circle cx="152.54" cy="84.68" r="0.85"/><circle cx="150" cy="127.86" r="0.85"/><circle cx="150" cy="125.32" r="0.85"/><circle cx="150" cy="122.78" r="0.85"/><circle cx="150" cy="120.24" r="0.85"/><circle cx="150" cy="117.7" r="0.85"/><circle cx="150" cy="115.16" r="0.85"/><circle cx="150" cy="112.62" r="0.85"/><circle cx="150" cy="110.08" r="0.85"/><circle cx="150" cy="107.54" r="0.85"/><circle cx="150" cy="105" r="0.85"/><circle cx="150" cy="102.46" r="0.85"/><circle cx="150" cy="99.92" r="0.85"/><circle cx="150" cy="97.38" r="0.85"/><circle cx="150" cy="94.84" r="0.85"/><circle cx="150" cy="92.3" r="0.85"/><circle cx="150" cy="89.76" r="0.85"/><circle cx="150" cy="87.22" r="0.85"/><circle cx="150" cy="84.68" r="0.85"/><circle cx="147.46" cy="127.86" r="0.85"/><circle cx="147.46" cy="125.32" r="0.85"/><circle cx="147.46" cy="122.78" r="0.85"/><circle cx="147.46" cy="120.24" r="0.85"/><circle cx="147.46" cy="117.7" r="0.85"/><circle cx="147.46" cy="115.16" r="0.85"/><circle cx="147.46" cy="112.62" r="0.85"/><circle cx="147.46" cy="110.08" r="0.85"/><circle cx="147.46" cy="107.54" r="0.85"/><circle cx="147.46" cy="105" r="0.85"/><circle cx="147.46" cy="102.46" r="0.85"/><circle cx="147.46" cy="99.92" r="0.85"/><circle cx="147.46" cy="97.38" r="0.85"/><circle cx="147.46" cy="94.84" r="0.85"/><circle cx="147.46" cy="92.3" r="0.85"/><circle cx="147.46" cy="89.76" r="0.85"/><circle cx="147.46" cy="87.22" r="0.85"/><circle cx="147.46" cy="84.68" r="0.85"/><circle cx="144.92" cy="127.86" r="0.85"/><circle cx="144.92" cy="125.32" r="0.85"/><circle cx="144.92" cy="122.78" r="0.85"/><circle cx="144.92" cy="120.24" r="0.85"/><circle cx="144.92" cy="117.7" r="0.85"/><circle cx="144.92" cy="115.16" r="0.85"/><circle cx="144.92" cy="112.62" r="0.85"/><circle cx="144.92" cy="110.08" r="0.85"/><circle cx="144.92" cy="107.54" r="0.85"/><circle cx="144.92" cy="105" r="0.85"/><circle cx="144.92" cy="102.46" r="0.85"/><circle cx="144.92" cy="99.92" r="0.85"/><circle cx="144.92" cy="97.38" r="0.85"/><circle cx="144.92" cy="94.84" r="0.85"/><circle cx="144.92" cy="92.3" r="0.85"/><circle cx="144.92" cy="89.76" r="0.85"/><circle cx="144.92" cy="87.22" r="0.85"/><circle cx="144.92" cy="84.68" r="0.85"/><circle cx="142.38" cy="127.86" r="0.85"/><circle cx="142.38" cy="125.32" r="0.85"/><circle cx="142.38" cy="122.78" r="0.85"/><circle cx="142.38" cy="120.24" r="0.85"/><circle cx="142.38" cy="117.7" r="0.85"/><circle cx="142.38" cy="115.16" r="0.85"/><circle cx="142.38" cy="112.62" r="0.85"/><circle cx="142.38" cy="110.08" r="0.85"/><circle cx="142.38" cy="107.54" r="0.85"/><circle cx="142.38" cy="105" r="0.85"/><circle cx="142.38" cy="102.46" r="0.85"/><circle cx="142.38" cy="99.92" r="0.85"/><circle cx="142.38" cy="97.38" r="0.85"/><circle cx="142.38" cy="94.84" r="0.85"/><circle cx="142.38" cy="92.3" r="0.85"/><circle cx="142.38" cy="89.76" r="0.85"/><circle cx="142.38" cy="87.22" r="0.85"/><circle cx="142.38" cy="84.68" r="0.85"/><circle cx="139.84" cy="127.86" r="0.85"/><circle cx="139.84" cy="125.32" r="0.85"/><circle cx="139.84" cy="122.78" r="0.85"/><circle cx="139.84" cy="120.24" r="0.85"/><circle cx="139.84" cy="117.7" r="0.85"/><circle cx="139.84" cy="115.16" r="0.85"/><circle cx="139.84" cy="112.62" r="0.85"/><circle cx="139.84" cy="110.08" r="0.85"/><circle cx="139.84" cy="107.54" r="0.85"/><circle cx="139.84" cy="105" r="0.85"/><circle cx="139.84" cy="102.46" r="0.85"/><circle cx="139.84" cy="99.92" r="0.85"/><circle cx="139.84" cy="97.38" r="0.85"/><circle cx="139.84" cy="94.84" r="0.85"/><circle cx="139.84" cy="92.3" r="0.85"/><circle cx="139.84" cy="89.76" r="0.85"/><circle cx="139.84" cy="87.22" r="0.85"/><circle cx="139.84" cy="84.68" r="0.85"/><circle cx="137.3" cy="127.86" r="0.85"/><circle cx="137.3" cy="125.32" r="0.85"/><circle cx="137.3" cy="122.78" r="0.85"/><circle cx="137.3" cy="120.24" r="0.85"/><circle cx="137.3" cy="117.7" r="0.85"/><circle cx="137.3" cy="115.16" r="0.85"/><circle cx="137.3" cy="112.62" r="0.85"/><circle cx="137.3" cy="110.08" r="0.85"/><circle cx="137.3" cy="107.54" r="0.85"/><circle cx="137.3" cy="105" r="0.85"/><circle cx="137.3" cy="102.46" r="0.85"/><circle cx="137.3" cy="99.92" r="0.85"/><circle cx="137.3" cy="97.38" r="0.85"/><circle cx="137.3" cy="94.84" r="0.85"/><circle cx="137.3" cy="92.3" r="0.85"/><circle cx="137.3" cy="89.76" r="0.85"/><circle cx="137.3" cy="87.22" r="0.85"/><circle cx="137.3" cy="84.68" r="0.85"/><circle cx="134.76" cy="127.86" r="0.85"/><circle cx="134.76" cy="125.32" r="0.85"/><circle cx="134.76" cy="122.78" r="0.85"/><circle cx="134.76" cy="120.24" r="0.85"/><circle cx="134.76" cy="117.7" r="0.85"/><circle cx="134.76" cy="115.16" r="0.85"/><circle cx="134.76" cy="112.62" r="0.85"/><circle cx="134.76" cy="110.08" r="0.85"/><circle cx="134.76" cy="107.54" r="0.85"/><circle cx="134.76" cy="105" r="0.85"/><circle cx="134.76" cy="102.46" r="0.85"/><circle cx="134.76" cy="99.92" r="0.85"/><circle cx="134.76" cy="97.38" r="0.85"/><circle cx="134.76" cy="94.84" r="0.85"/><circle cx="134.76" cy="92.3" r="0.85"/><circle cx="134.76" cy="89.76" r="0.85"/><circle cx="134.76" cy="87.22" r="0.85"/><circle cx="134.76" cy="84.68" r="0.85"/><circle cx="137.3" cy="127.86" r="0.85"/><circle cx="137.3" cy="125.32" r="0.85"/><circle cx="137.3" cy="122.78" r="0.85"/><circle cx="137.3" cy="120.24" r="0.85"/><circle cx="137.3" cy="117.7" r="0.85"/><circle cx="137.3" cy="115.16" r="0.85"/><circle cx="137.3" cy="112.62" r="0.85"/><circle cx="137.3" cy="110.08" r="0.85"/><circle cx="137.3" cy="107.54" r="0.85"/><circle cx="137.3" cy="105" r="0.85"/><circle cx="137.3" cy="102.46" r="0.85"/><circle cx="137.3" cy="99.92" r="0.85"/><circle cx="137.3" cy="97.38" r="0.85"/><circle cx="137.3" cy="94.84" r="0.85"/><circle cx="137.3" cy="92.3" r="0.85"/><circle cx="137.3" cy="89.76" r="0.85"/><circle cx="137.3" cy="87.22" r="0.85"/><circle cx="137.3" cy="84.68" r="0.85"/><circle cx="132.22" cy="125.32" r="0.85"/><circle cx="132.22" cy="122.78" r="0.85"/><circle cx="132.22" cy="120.24" r="0.85"/><circle cx="132.22" cy="117.7" r="0.85"/><circle cx="132.22" cy="115.16" r="0.85"/><circle cx="132.22" cy="112.62" r="0.85"/><circle cx="132.22" cy="110.08" r="0.85"/><circle cx="132.22" cy="107.54" r="0.85"/><circle cx="132.22" cy="105" r="0.85"/><circle cx="132.22" cy="102.46" r="0.85"/><circle cx="132.22" cy="99.92" r="0.85"/><circle cx="132.22" cy="97.38" r="0.85"/><circle cx="132.22" cy="94.84" r="0.85"/><circle cx="132.22" cy="92.3" r="0.85"/><circle cx="132.22" cy="89.76" r="0.85"/><circle cx="132.22" cy="87.22" r="0.85"/><circle cx="129.68" cy="127.86" r="0.85"/><circle cx="129.68" cy="125.32" r="0.85"/><circle cx="129.68" cy="122.78" r="0.85"/><circle cx="129.68" cy="120.24" r="0.85"/><circle cx="129.68" cy="117.7" r="0.85"/><circle cx="129.68" cy="115.16" r="0.85"/><circle cx="129.68" cy="112.62" r="0.85"/><circle cx="129.68" cy="110.08" r="0.85"/><circle cx="129.68" cy="107.54" r="0.85"/><circle cx="129.68" cy="105" r="0.85"/><circle cx="129.68" cy="102.46" r="0.85"/><circle cx="129.68" cy="99.92" r="0.85"/><circle cx="129.68" cy="97.38" r="0.85"/><circle cx="129.68" cy="94.84" r="0.85"/><circle cx="129.68" cy="92.3" r="0.85"/><circle cx="129.68" cy="89.76" r="0.85"/><circle cx="129.68" cy="87.22" r="0.85"/><circle cx="127.14" cy="127.86" r="0.85"/><circle cx="127.14" cy="125.32" r="0.85"/><circle cx="127.14" cy="122.78" r="0.85"/><circle cx="127.14" cy="120.24" r="0.85"/><circle cx="127.14" cy="117.7" r="0.85"/><circle cx="127.14" cy="115.16" r="0.85"/><circle cx="127.14" cy="112.62" r="0.85"/><circle cx="127.14" cy="110.08" r="0.85"/><circle cx="127.14" cy="107.54" r="0.85"/><circle cx="127.14" cy="105" r="0.85"/><circle cx="127.14" cy="102.46" r="0.85"/><circle cx="127.14" cy="99.92" r="0.85"/><circle cx="127.14" cy="97.38" r="0.85"/><circle cx="127.14" cy="94.84" r="0.85"/><circle cx="127.14" cy="92.3" r="0.85"/><circle cx="127.14" cy="89.76" r="0.85"/><circle cx="127.14" cy="87.22" r="0.85"/><circle cx="127.14" cy="84.68" r="0.85"/><circle cx="124.6" cy="127.86" r="0.85"/><circle cx="124.6" cy="125.32" r="0.85"/><circle cx="124.6" cy="122.78" r="0.85"/><circle cx="124.6" cy="120.24" r="0.85"/><circle cx="124.6" cy="117.7" r="0.85"/><circle cx="124.6" cy="115.16" r="0.85"/><circle cx="124.6" cy="112.62" r="0.85"/><circle cx="124.6" cy="110.08" r="0.85"/><circle cx="124.6" cy="107.54" r="0.85"/><circle cx="124.6" cy="105" r="0.85"/><circle cx="124.6" cy="102.46" r="0.85"/><circle cx="124.6" cy="99.92" r="0.85"/><circle cx="124.6" cy="97.38" r="0.85"/><circle cx="124.6" cy="94.84" r="0.85"/><circle cx="124.6" cy="92.3" r="0.85"/><circle cx="124.6" cy="89.76" r="0.85"/><circle cx="124.6" cy="87.22" r="0.85"/><circle cx="124.6" cy="84.68" r="0.85"/><circle cx="122.06" cy="127.86" r="0.85"/><circle cx="122.06" cy="125.32" r="0.85"/><circle cx="122.06" cy="122.78" r="0.85"/><circle cx="122.06" cy="120.24" r="0.85"/><circle cx="122.06" cy="117.7" r="0.85"/><circle cx="122.06" cy="115.16" r="0.85"/><circle cx="122.06" cy="112.62" r="0.85"/><circle cx="122.06" cy="110.08" r="0.85"/><circle cx="122.06" cy="107.54" r="0.85"/><circle cx="122.06" cy="105" r="0.85"/><circle cx="122.06" cy="102.46" r="0.85"/><circle cx="122.06" cy="99.92" r="0.85"/><circle cx="122.06" cy="97.38" r="0.85"/><circle cx="122.06" cy="94.84" r="0.85"/><circle cx="122.06" cy="92.3" r="0.85"/><circle cx="122.06" cy="89.76" r="0.85"/><circle cx="122.06" cy="87.22" r="0.85"/><circle cx="122.06" cy="84.68" r="0.85"/><circle cx="119.52" cy="127.86" r="0.85"/><circle cx="119.52" cy="125.32" r="0.85"/><circle cx="119.52" cy="122.78" r="0.85"/><circle cx="119.52" cy="120.24" r="0.85"/><circle cx="119.52" cy="117.7" r="0.85"/><circle cx="119.52" cy="115.16" r="0.85"/><circle cx="119.52" cy="112.62" r="0.85"/><circle cx="119.52" cy="110.08" r="0.85"/><circle cx="119.52" cy="107.54" r="0.85"/><circle cx="119.52" cy="105" r="0.85"/><circle cx="119.52" cy="102.46" r="0.85"/><circle cx="119.52" cy="99.92" r="0.85"/><circle cx="119.52" cy="97.38" r="0.85"/><circle cx="119.52" cy="94.84" r="0.85"/><circle cx="119.52" cy="92.3" r="0.85"/><circle cx="119.52" cy="89.76" r="0.85"/><circle cx="119.52" cy="87.22" r="0.85"/><circle cx="119.52" cy="84.68" r="0.85"/><circle cx="119.52" cy="82.14" r="0.85"/><circle cx="122.06" cy="82.14" r="0.85"/><circle cx="124.6" cy="82.14" r="0.85"/><circle cx="127.14" cy="82.14" r="0.85"/><circle cx="134.76" cy="82.14" r="0.85"/><circle cx="137.3" cy="82.14" r="0.85"/><circle cx="139.84" cy="82.14" r="0.85"/><circle cx="142.38" cy="82.14" r="0.85"/><circle cx="127.14" cy="130.4" r="0.85"/><circle cx="124.6" cy="130.4" r="0.85"/><circle cx="122.06" cy="130.4" r="0.85"/><circle cx="119.52" cy="130.4" r="0.85"/><circle cx="180.48" cy="127.86" r="0.85"/><circle cx="180.48" cy="125.32" r="0.85"/><circle cx="180.48" cy="122.78" r="0.85"/><circle cx="180.48" cy="120.24" r="0.85"/><circle cx="180.48" cy="117.7" r="0.85"/><circle cx="180.48" cy="112.62" r="0.85"/><circle cx="180.48" cy="110.08" r="0.85"/><circle cx="183.02" cy="110.08" r="0.85"/><circle cx="183.02" cy="107.54" r="0.85"/><circle cx="180.48" cy="107.54" r="0.85"/><circle cx="180.48" cy="105" r="0.85"/><circle cx="183.02" cy="105" r="0.85"/><circle cx="183.02" cy="102.46" r="0.85"/><circle cx="180.48" cy="102.46" r="0.85"/><circle cx="180.48" cy="99.92" r="0.85"/><circle cx="180.48" cy="97.38" r="0.85"/><circle cx="180.48" cy="94.84" r="0.85"/><circle cx="180.48" cy="92.3" r="0.85"/><circle cx="180.48" cy="89.76" r="0.85"/><circle cx="183.02" cy="92.3" r="0.85"/><circle cx="183.02" cy="94.84" r="0.85"/><circle cx="183.02" cy="97.38" r="0.85"/><circle cx="183.02" cy="99.92" r="0.85"/><circle cx="180.48" cy="84.68" r="0.85"/></g></g>
<mask id="GTM"><use xlink:href="#GTS" class="mask"/></mask>
<mask id="GTN"><use xlink:href="#FIL" class="mask"/><use xlink:href="#GTS" class="black"/></mask>
<g id="DRL"><g class="pad"><circle cx="180.48" cy="84.68" r="0.4"/><circle cx="183.02" cy="99.92" r="0.4"/><circle cx="183.02" cy="97.38" r="0.4"/><circle cx="183.02" cy="94.84" r="0.4"/><circle cx="183.02" cy="92.3" r="0.4"/><circle cx="180.48" cy="89.76" r="0.4"/><circle cx="180.48" cy="92.3" r="0.4"/><circle cx="180.48" cy="94.84" r="0.4"/><circle cx="180.48" cy="97.38" r="0.4"/><circle cx="180.48" cy="99.92" r="0.4"/><circle cx="180.48" cy="102.46" r="0.4"/><circle cx="183.02" cy="102.46" r="0.4"/><circle cx="183.02" cy="105" r="0.4"/><circle cx="180.48" cy="105" r="0.4"/><circle cx="180.48" cy="107.54" r="0.4"/><circle cx="183.02" cy="107.54" r="0.4"/><circle cx="183.02" cy="110.08" r="0.4"/><circle cx="180.48" cy="110.08" r="0.4"/><circle cx="180.48" cy="112.62" r="0.4"/><circle cx="180.48" cy="117.7" r="0.4"/><circle cx="180.48" cy="120.24" r="0.4"/><circle cx="180.48" cy="122.78" r="0.4"/><circle cx="180.48" cy="125.32" r="0.4"/><circle cx="180.48" cy="127.86" r="0.4"/><circle cx="119.52" cy="130.4" r="0.4"/><circle cx="122.06" cy="130.4" r="0.4"/><circle cx="124.6" cy="130.4" r="0.4"/><circle cx="127.14" cy="130.4" r="0.4"/><circle cx="142.38" cy="82.14" r="0.4"/><circle cx="139.84" cy="82.14" r="0.4"/><circle cx="137.3" cy="82.14" r="0.4"/><circle cx="134.76" cy="82.14" r="0.4"/><circle cx="127.14" cy="82.14" r="0.4"/><circle cx="124.6" cy="82.14" r="0.4"/><circle cx="122.06" cy="82.14" r="0.4"/><circle cx="119.52" cy="82.14" r="0.4"/><circle cx="119.52" cy="84.68" r="0.4"/><circle cx="119.52" cy="87.22" r="0.4"/><circle cx="119.52" cy="89.76" r="0.4"/><circle cx="119.52" cy="92.3" r="0.4"/><circle cx="119.52" cy="94.84" r="0.4"/><circle cx="119.52" cy="97.38" r="0.4"/><circle cx="119.52" cy="99.92" r="0.4"/><circle cx="119.52" cy="102.46" r="0.4"/><circle cx="119.52" cy="105" r="0.4"/><circle cx="119.52" cy="107.54" r="0.4"/><circle cx="119.52" cy="110.08" r="0.4"/><circle cx="119.52" cy="112.62" r="0.4"/><circle cx="119.52" cy="115.16" r="0.4"/><circle cx="119.52" cy="117.7" r="0.4"/><circle cx="119.52" cy="120.24" r="0.4"/><circle cx="119.52" cy="122.78" r="0.4"/><circle cx="119.52" cy="125.32" r="0.4"/><circle cx="119.52" cy="127.86" r="0.4"/><circle cx="122.06" cy="84.68" r="0.4"/><circle cx="122.06" cy="87.22" r="0.4"/><circle cx="122.06" cy="89.76" r="0.4"/><circle cx="122.06" cy="92.3" r="0.4"/><circle cx="122.06" cy="94.84" r="0.4"/><circle cx="122.06" cy="97.38" r="0.4"/><circle cx="122.06" cy="99.92" r="0.4"/><circle cx="122.06" cy="102.46" r="0.4"/><circle cx="122.06" cy="105" r="0.4"/><circle cx="122.06" cy="107.54" r="0.4"/><circle cx="122.06" cy="110.08" r="0.4"/><circle cx="122.06" cy="112.62" r="0.4"/><circle cx="122.06" cy="115.16" r="0.4"/><circle cx="122.06" cy="117.7" r="0.4"/><circle cx="122.06" cy="120.24" r="0.4"/><circle cx="122.06" cy="122.78" r="0.4"/><circle cx="122.06" cy="125.32" r="0.4"/><circle cx="122.06" cy="127.86" r="0.4"/><circle cx="124.6" cy="84.68" r="0.4"/><circle cx="124.6" cy="87.22" r="0.4"/><circle cx="124.6" cy="89.76" r="0.4"/><circle cx="124.6" cy="92.3" r="0.4"/><circle cx="124.6" cy="94.84" r="0.4"/><circle cx="124.6" cy="97.38" r="0.4"/><circle cx="124.6" cy="99.92" r="0.4"/><circle cx="124.6" cy="102.46" r="0.4"/><circle cx="124.6" cy="105" r="0.4"/><circle cx="124.6" cy="107.54" r="0.4"/><circle cx="124.6" cy="110.08" r="0.4"/><circle cx="124.6" cy="112.62" r="0.4"/><circle cx="124.6" cy="115.16" r="0.4"/><circle cx="124.6" cy="117.7" r="0.4"/><circle cx="124.6" cy="120.24" r="0.4"/><circle cx="124.6" cy="122.78" r="0.4"/><circle cx="124.6" cy="125.32" r="0.4"/><circle cx="124.6" cy="127.86" r="0.4"/><circle cx="127.14" cy="84.68" r="0.4"/><circle cx="127.14" cy="87.22" r="0.4"/><circle cx="127.14" cy="89.76" r="0.4"/><circle cx="127.14" cy="92.3" r="0.4"/><circle cx="127.14" cy="94.84" r="0.4"/><circle cx="127.14" cy="97.38" r="0.4"/><circle cx="127.14" cy="99.92" r="0.4"/><circle cx="127.14" cy="102.46" r="0.4"/><circle cx="127.14" cy="105" r="0.4"/><circle cx="127.14" cy="107.54" r="0.4"/><circle cx="127.14" cy="110.08" r="0.4"/><circle cx="127.14" cy="112.62" r="0.4"/><circle cx="127.14" cy="115.16" r="0.4"/><circle cx="127.14" cy="117.7" r="0.4"/><circle cx="127.14" cy="120.24" r="0.4"/><circle cx="127.14" cy="122.78" r="0.4"/><circle cx="127.14" cy="125.32" r="0.4"/><circle cx="127.14" cy="127.86" r="0.4"/><circle cx="129.68" cy="87.22" r="0.4"/><circle cx="129.68" cy="89.76" r="0.4"/><circle cx="129.68" cy="92.3" r="0.4"/><circle cx="129.68" cy="94.84" r="0.4"/><circle cx="129.68" cy="97.38" r="0.4"/><circle cx="129.68" cy="99.92" r="0.4"/><circle cx="129.68" cy="102.46" r="0.4"/><circle cx="129.68" cy="105" r="0.4"/><circle cx="129.68" cy="107.54" r="0.4"/><circle cx="129.68" cy="110.08" r="0.4"/><circle cx="129.68" cy="112.62" r="0.4"/><circle cx="129.68" cy="115.16" r="0.4"/><circle cx="129.68" cy="117.7" r="0.4"/><circle cx="129.68" cy="120.24" r="0.4"/><circle cx="129.68" cy="122.78" r="0.4"/><circle cx="129.68" cy="125.32" r="0.4"/><circle cx="129.68" cy="127.86" r="0.4"/><circle cx="132.22" cy="87.22" r="0.4"/><circle cx="132.22" cy="89.76" r="0.4"/><circle cx="132.22" cy="92.3" r="0.4"/><circle cx="132.22" cy="94.84" r="0.4"/><circle cx="132.22" cy="97.38" r="0.4"/><circle cx="132.22" cy="99.92" r="0.4"/><circle cx="132.22" cy="102.46" r="0.4"/><circle cx="132.22" cy="105" r="0.4"/><circle cx="132.22" cy="107.54" r="0.4"/><circle cx="132.22" cy="110.08" r="0.4"/><circle cx="132.22" cy="112.62" r="0.4"/><circle cx="132.22" cy="115.16" r="0.4"/><circle cx="132.22" cy="117.7" r="0.4"/><circle cx="132.22" cy="120.24" r="0.4"/><circle cx="132.22" cy="122.78" r="0.4"/><circle cx="132.22" cy="125.32" r="0.4"/><circle cx="137.3" cy="84.68" r="0.4"/><circle cx="137.3" cy="87.22" r="0.4"/><circle cx="137.3" cy="89.76" r="0.4"/><circle cx="137.3" cy="92.3" r="0.4"/><circle cx="137.3" cy="94.84" r="0.4"/><circle cx="137.3" cy="97.38" r="0.4"/><circle cx="137.3" cy="99.92" r="0.4"/><circle cx="137.3" cy="102.46" r="0.4"/><circle cx="137.3" cy="105" r="0.4"/><circle cx="137.3" cy="107.54" r="0.4"/><circle cx="137.3" cy="110.08" r="0.4"/><circle cx="137.3" cy="112.62" r="0.4"/><circle cx="137.3" cy="115.16" r="0.4"/><circle cx="137.3" cy="117.7" r="0.4"/><circle cx="137.3" cy="120.24" r="0.4"/><circle cx="137.3" cy="122.78" r="0.4"/><circle cx="137.3" cy="125.32" r="0.4"/><circle cx="137.3" cy="127.86" r="0.4"/><circle cx="134.76" cy="84.68" r="0.4"/><circle cx="134.76" cy="87.22" r="0.4"/><circle cx="134.76" cy="89.76" r="0.4"/><circle cx="134.76" cy="92.3" r="0.4"/><circle cx="134.76" cy="94.84" r="0.4"/><circle cx="134.76" cy="97.38" r="0.4"/><circle cx="134.76" cy="99.92" r="0.4"/><circle cx="134.76" cy="102.46" r="0.4"/><circle cx="134.76" cy="105" r="0.4"/><circle cx="134.76" cy="107.54" r="0.4"/><circle cx="134.76" cy="110.08" r="0.4"/><circle cx="134.76" cy="112.62" r="0.4"/><circle cx="134.76" cy="115.16" r="0.4"/><circle cx="134.76" cy="117.7" r="0.4"/><circle cx="134.76" cy="120.24" r="0.4"/><circle cx="134.76" cy="122.78" r="0.4"/><circle cx="134.76" cy="125.32" r="0.4"/><circle cx="134.76" cy="127.86" r="0.4"/><circle cx="137.3" cy="84.68" r="0.4"/><circle cx="137.3" cy="87.22" r="0.4"/><circle cx="137.3" cy="89.76" r="0.4"/><circle cx="137.3" cy="92.3" r="0.4"/><circle cx="137.3" cy="94.84" r="0.4"/><circle cx="137.3" cy="97.38" r="0.4"/><circle cx="137.3" cy="99.92" r="0.4"/><circle cx="137.3" cy="102.46" r="0.4"/><circle cx="137.3" cy="105" r="0.4"/><circle cx="137.3" cy="107.54" r="0.4"/><circle cx="137.3" cy="110.08" r="0.4"/><circle cx="137.3" cy="112.62" r="0.4"/><circle cx="137.3" cy="115.16" r="0.4"/><circle cx="137.3" cy="117.7" r="0.4"/><circle cx="137.3" cy="120.24" r="0.4"/><circle cx="137.3" cy="122.78" r="0.4"/><circle cx="137.3" cy="125.32" r="0.4"/><circle cx="137.3" cy="127.86" r="0.4"/><circle cx="139.84" cy="84.68" r="0.4"/><circle cx="139.84" cy="87.22" r="0.4"/><circle cx="139.84" cy="89.76" r="0.4"/><circle cx="139.84" cy="92.3" r="0.4"/><circle cx="139.84" cy="94.84" r="0.4"/><circle cx="139.84" cy="97.38" r="0.4"/><circle cx="139.84" cy="99.92" r="0.4"/><circle cx="139.84" cy="102.46" r="0.4"/><circle cx="139.84" cy="105" r="0.4"/><circle cx="139.84" cy="107.54" r="0.4"/><circle cx="139.84" cy="110.08" r="0.4"/><circle cx="139.84" cy="112.62" r="0.4"/><circle cx="139.84" cy="115.16" r="0.4"/><circle cx="139.84" cy="117.7" r="0.4"/><circle cx="139.84" cy="120.24" r="0.4"/><circle cx="139.84" cy="122.78" r="0.4"/><circle cx="139.84" cy="125.32" r="0.4"/><circle cx="139.84" cy="127.86" r="0.4"/><circle cx="142.38" cy="84.68" r="0.4"/><circle cx="142.38" cy="87.22" r="0.4"/><circle cx="142.38" cy="89.76" r="0.4"/><circle cx="142.38" cy="92.3" r="0.4"/><circle cx="142.38" cy="94.84" r="0.4"/><circle cx="142.38" cy="97.38" r="0.4"/><circle cx="142.38" cy="99.92" r="0.4"/><circle cx="142.38" cy="102.46" r="0.4"/><circle cx="142.38" cy="105" r="0.4"/><circle cx="142.38" cy="107.54" r="0.4"/><circle cx="142.38" cy="110.08" r="0.4"/><circle cx="142.38" cy="112.62" r="0.4"/><circle cx="142.38" cy="115.16" r="0.4"/><circle cx="142.38" cy="117.7" r="0.4"/><circle cx="142.38" cy="120.24" r="0.4"/><circle cx="142.38" cy="122.78" r="0.4"/><circle cx="142.38" cy="125.32" r="0.4"/><circle cx="142.38" cy="127.86" r="0.4"/><circle cx="144.92" cy="84.68" r="0.4"/><circle cx="144.92" cy="87.22" r="0.4"/><circle cx="144.92" cy="89.76" r="0.4"/><circle cx="144.92" cy="92.3" r="0.4"/><circle cx="144.92" cy="94.84" r="0.4"/><circle cx="144.92" cy="97.38" r="0.4"/><circle cx="144.92" cy="99.92" r="0.4"/><circle cx="144.92" cy="102.46" r="0.4"/><circle cx="144.92" cy="105" r="0.4"/><circle cx="144.92" cy="107.54" r="0.4"/><circle cx="144.92" cy="110.08" r="0.4"/><circle cx="144.92" cy="112.62" r="0.4"/><circle cx="144.92" cy="115.16" r="0.4"/><circle cx="144.92" cy="117.7" r="0.4"/><circle cx="144.92" cy="120.24" r="0.4"/><circle cx="144.92" cy="122.78" r="0.4"/><circle cx="144.92" cy="125.32" r="0.4"/><circle cx="144.92" cy="127.86" r="0.4"/><circle cx="147.46" cy="84.68" r="0.4"/><circle cx="147.46" cy="87.22" r="0.4"/><circle cx="147.46" cy="89.76" r="0.4"/><circle cx="147.46" cy="92.3" r="0.4"/><circle cx="147.46" cy="94.84" r="0.4"/><circle cx="147.46" cy="97.38" r="0.4"/><circle cx="147.46" cy="99.92" r="0.4"/><circle cx="147.46" cy="102.46" r="0.4"/><circle cx="147.46" cy="105" r="0.4"/><circle cx="147.46" cy="107.54" r="0.4"/><circle cx="147.46" cy="110.08" r="0.4"/><circle cx="147.46" cy="112.62" r="0.4"/><circle cx="147.46" cy="115.16" r="0.4"/><circle cx="147.46" cy="117.7" r="0.4"/><circle cx="147.46" cy="120.24" r="0.4"/><circle cx="147.46" cy="122.78" r="0.4"/><circle cx="147.46" cy="125.32" r="0.4"/><circle cx="147.46" cy="127.86" r="0.4"/><circle cx="150" cy="84.68" r="0.4"/><circle cx="150" cy="87.22" r="0.4"/><circle cx="150" cy="89.76" r="0.4"/><circle cx="150" cy="92.3" r="0.4"/><circle cx="150" cy="94.84" r="0.4"/><circle cx="150" cy="97.38" r="0.4"/><circle cx="150" cy="99.92" r="0.4"/><circle cx="150" cy="102.46" r="0.4"/><circle cx="150" cy="105" r="0.4"/><circle cx="150" cy="107.54" r="0.4"/><circle cx="150" cy="110.08" r="0.4"/><circle cx="150" cy="112.62" r="0.4"/><circle cx="150" cy="115.16" r="0.4"/><circle cx="150" cy="117.7" r="0.4"/><circle cx="150" cy="120.24" r="0.4"/><circle cx="150" cy="122.78" r="0.4"/><circle cx="150" cy="125.32" r="0.4"/><circle cx="150" cy="127.86" r="0.4"/><circle cx="152.54" cy="84.68" r="0.4"/><circle cx="152.54" cy="87.22" r="0.4"/><circle cx="152.54" cy="89.76" r="0.4"/><circle cx="152.54" cy="92.3" r="0.4"/><circle cx="152.54" cy="94.84" r="0.4"/><circle cx="152.54" cy="97.38" r="0.4"/><circle cx="152.54" cy="99.92" r="0.4"/><circle cx="152.54" cy="102.46" r="0.4"/><circle cx="152.54" cy="105" r="0.4"/><circle cx="152.54" cy="107.54" r="0.4"/><circle cx="152.54" cy="110.08" r="0.4"/><circle cx="152.54" cy="112.62" r="0.4"/><circle cx="152.54" cy="115.16" r="0.4"/><circle cx="152.54" cy="117.7" r="0.4"/><circle cx="152.54" cy="120.24" r="0.4"/><circle cx="152.54" cy="122.78" r="0.4"/><circle cx="152.54" cy="125.32" r="0.4"/><circle cx="152.54" cy="127.86" r="0.4"/><circle cx="155.08" cy="84.68" r="0.4"/><circle cx="155.08" cy="87.22" r="0.4"/><circle cx="155.08" cy="89.76" r="0.4"/><circle cx="155.08" cy="92.3" r="0.4"/><circle cx="155.08" cy="94.84" r="0.4"/><circle cx="155.08" cy="97.38" r="0.4"/><circle cx="155.08" cy="99.92" r="0.4"/><circle cx="155.08" cy="102.46" r="0.4"/><circle cx="155.08" cy="105" r="0.4"/><circle cx="155.08" cy="107.54" r="0.4"/><circle cx="155.08" cy="110.08" r="0.4"/><circle cx="155.08" cy="112.62" r="0.4"/><circle cx="155.08" cy="115.16" r="0.4"/><circle cx="155.08" cy="117.7" r="0.4"/><circle cx="155.08" cy="120.24" r="0.4"/><circle cx="155.08" cy="122.78" r="0.4"/><circle cx="155.08" cy="125.32" r="0.4"/><circle cx="155.08" cy="127.86" r="0.4"/><circle cx="157.62" cy="84.68" r="0.4"/><circle cx="157.62" cy="87.22" r="0.4"/><circle cx="157.62" cy="89.76" r="0.4"/><circle cx="157.62" cy="92.3" r="0.4"/><circle cx="157.62" cy="94.84" r="0.4"/><circle cx="157.62" cy="97.38" r="0.4"/><circle cx="157.62" cy="99.92" r="0.4"/><circle cx="157.62" cy="102.46" r="0.4"/><circle cx="157.62" cy="105" r="0.4"/><circle cx="157.62" cy="107.54" r="0.4"/><circle cx="157.62" cy="110.08" r="0.4"/><circle cx="157.62" cy="112.62" r="0.4"/><circle cx="157.62" cy="115.16" r="0.4"/><circle cx="157.62" cy="117.7" r="0.4"/><circle cx="157.62" cy="120.24" r="0.4"/><circle cx="157.62" cy="122.78" r="0.4"/><circle cx="157.62" cy="125.32" r="0.4"/><circle cx="157.62" cy="127.86" r="0.4"/><circle cx="160.16" cy="84.68" r="0.4"/><circle cx="160.16" cy="87.22" r="0.4"/><circle cx="160.16" cy="89.76" r="0.4"/><circle cx="160.16" cy="92.3" r="0.4"/><circle cx="160.16" cy="94.84" r="0.4"/><circle cx="160.16" cy="97.38" r="0.4"/><circle cx="160.16" cy="99.92" r="0.4"/><circle cx="160.16" cy="102.46" r="0.4"/><circle cx="160.16" cy="105" r="0.4"/><circle cx="160.16" cy="107.54" r="0.4"/><circle cx="160.16" cy="110.08" r="0.4"/><circle cx="160.16" cy="112.62" r="0.4"/><circle cx="160.16" cy="115.16" r="0.4"/><circle cx="160.16" cy="117.7" r="0.4"/><circle cx="160.16" cy="120.24" r="0.4"/><circle cx="160.16" cy="122.78" r="0.4"/><circle cx="160.16" cy="125.32" r="0.4"/><circle cx="160.16" cy="127.86" r="0.4"/><circle cx="162.7" cy="84.68" r="0.4"/><circle cx="162.7" cy="87.22" r="0.4"/><circle cx="162.7" cy="89.76" r="0.4"/><circle cx="162.7" cy="92.3" r="0.4"/><circle cx="162.7" cy="94.84" r="0.4"/><circle cx="162.7" cy="97.38" r="0.4"/><circle cx="162.7" cy="99.92" r="0.4"/><circle cx="162.7" cy="102.46" r="0.4"/><circle cx="162.7" cy="105" r="0.4"/><circle cx="162.7" cy="107.54" r="0.4"/><circle cx="162.7" cy="110.08" r="0.4"/><circle cx="162.7" cy="112.62" r="0.4"/><circle cx="162.7" cy="115.16" r="0.4"/><circle cx="162.7" cy="117.7" r="0.4"/><circle cx="162.7" cy="120.24" r="0.4"/><circle cx="162.7" cy="122.78" r="0.4"/><circle cx="162.7" cy="125.32" r="0.4"/><circle cx="162.7" cy="127.86" r="0.4"/><circle cx="165.24" cy="84.68" r="0.4"/><circle cx="165.24" cy="87.22" r="0.4"/><circle cx="165.24" cy="89.76" r="0.4"/><circle cx="165.24" cy="92.3" r="0.4"/><circle cx="165.24" cy="94.84" r="0.4"/><circle cx="165.24" cy="97.38" r="0.4"/><circle cx="165.24" cy="99.92" r="0.4"/><circle cx="165.24" cy="102.46" r="0.4"/><circle cx="165.24" cy="105" r="0.4"/><circle cx="165.24" cy="107.54" r="0.4"/><circle cx="165.24" cy="110.08" r="0.4"/><circle cx="165.24" cy="112.62" r="0.4"/><circle cx="165.24" cy="115.16" r="0.4"/><circle cx="165.24" cy="117.7" r="0.4"/><circle cx="165.24" cy="120.24" r="0.4"/><circle cx="165.24" cy="122.78" r="0.4"/><circle cx="165.24" cy="125.32" r="0.4"/><circle cx="165.24" cy="127.86" r="0.4"/><circle cx="167.78" cy="84.68" r="0.4"/><circle cx="167.78" cy="87.22" r="0.4"/><circle cx="167.78" cy="89.76" r="0.4"/><circle cx="167.78" cy="92.3" r="0.4"/><circle cx="167.78" cy="94.84" r="0.4"/><circle cx="167.78" cy="97.38" r="0.4"/><circle cx="167.78" cy="99.92" r="0.4"/><circle cx="167.78" cy="102.46" r="0.4"/><circle cx="167.78" cy="105" r="0.4"/><circle cx="167.78" cy="107.54" r="0.4"/><circle cx="167.78" cy="110.08" r="0.4"/><circle cx="167.78" cy="112.62" r="0.4"/><circle cx="167.78" cy="115.16" r="0.4"/><circle cx="167.78" cy="117.7" r="0.4"/><circle cx="167.78" cy="120.24" r="0.4"/><circle cx="167.78" cy="122.78" r="0.4"/><circle cx="167.78" cy="125.32" r="0.4"/><circle cx="167.78" cy="127.86" r="0.4"/><circle cx="170.32" cy="84.68" r="0.4"/><circle cx="170.32" cy="87.22" r="0.4"/><circle cx="170.32" cy="89.76" r="0.4"/><circle cx="170.32" cy="92.3" r="0.4"/><circle cx="170.32" cy="94.84" r="0.4"/><circle cx="170.32" cy="97.38" r="0.4"/><circle cx="170.32" cy="99.92" r="0.4"/><circle cx="170.32" cy="102.46" r="0.4"/><circle cx="170.32" cy="105" r="0.4"/><circle cx="170.32" cy="107.54" r="0.4"/><circle cx="170.32" cy="110.08" r="0.4"/><circle cx="170.32" cy="112.62" r="0.4"/><circle cx="170.32" cy="115.16" r="0.4"/><circle cx="170.32" cy="117.7" r="0.4"/><circle cx="170.32" cy="120.24" r="0.4"/><circle cx="170.32" cy="122.78" r="0.4"/><circle cx="170.32" cy="125.32" r="0.4"/><circle cx="170.32" cy="127.86" r="0.4"/><circle cx="172.86" cy="84.68" r="0.4"/><circle cx="172.86" cy="87.22" r="0.4"/><circle cx="172.86" cy="89.76" r="0.4"/><circle cx="172.86" cy="92.3" r="0.4"/><circle cx="172.86" cy="94.84" r="0.4"/><circle cx="172.86" cy="97.38" r="0.4"/><circle cx="172.86" cy="99.92" r="0.4"/><circle cx="172.86" cy="102.46" r="0.4"/><circle cx="172.86" cy="105" r="0.4"/><circle cx="172.86" cy="107.54" r="0.4"/><circle cx="172.86" cy="110.08" r="0.4"/><circle cx="172.86" cy="112.62" r="0.4"/><circle cx="172.86" cy="115.16" r="0.4"/><circle cx="172.86" cy="117.7" r="0.4"/><circle cx="172.86" cy="120.24" r="0.4"/><circle cx="172.86" cy="122.78" r="0.4"/><circle cx="172.86" cy="125.32" r="0.4"/><circle cx="172.86" cy="127.86" r="0.4"/><circle cx="175.4" cy="84.68" r="0.4"/><circle cx="175.4" cy="87.22" r="0.4"/><circle cx="175.4" cy="89.76" r="0.4"/><circle cx="175.4" cy="92.3" r="0.4"/><circle cx="175.4" cy="94.84" r="0.4"/><circle cx="175.4" cy="97.38" r="0.4"/><circle cx="175.4" cy="99.92" r="0.4"/><circle cx="175.4" cy="102.46" r="0.4"/><circle cx="175.4" cy="105" r="0.4"/><circle cx="175.4" cy="107.54" r="0.4"/><circle cx="175.4" cy="110.08" r="0.4"/><circle cx="175.4" cy="112.62" r="0.4"/><circle cx="175.4" cy="115.16" r="0.4"/><circle cx="175.4" cy="117.7" r="0.4"/><circle cx="175.4" cy="120.24" r="0.4"/><circle cx="175.4" cy="122.78" r="0.4"/><circle cx="175.4" cy="125.32" r="0.4"/><circle cx="175.4" cy="127.86" r="0.4"/><circle cx="177.94" cy="84.68" r="0.4"/><circle cx="177.94" cy="87.22" r="0.4"/><circle cx="177.94" cy="89.76" r="0.4"/><circle cx="177.94" cy="92.3" r="0.4"/><circle cx="177.94" cy="94.84" r="0.4"/><circle cx="177.94" cy="97.38" r="0.4"/><circle cx="177.94" cy="99.92" r="0.4"/><circle cx="177.94" cy="102.46" r="0.4"/><circle cx="177.94" cy="105" r="0.4"/><circle cx="177.94" cy="107.54" r="0.4"/><circle cx="177.94" cy="110.08" r="0.4"/><circle cx="177.94" cy="112.62" r="0.4"/><circle cx="177.94" cy="115.16" r="0.4"/><circle cx="177.94" cy="117.7" r="0.4"/><circle cx="177.94" cy="120.24" r="0.4"/><circle cx="177.94" cy="122.78" r="0.4"/><circle cx="177.94" cy="125.32" r="0.4"/><circle cx="177.94" cy="127.86" r="0.4"/><circle cx="138.316" cy="130.3" r="0.4"/><circle cx="143.396" cy="130.3" r="0.4"/><circle cx="148.476" cy="130.3" r="0.4"/><circle cx="153.556" cy="130.3" r="0.4"/><circle cx="158.636" cy="130.3" r="0.4"/><circle cx="135.776" cy="130.5" r="0.4"/><circle cx="140.856" cy="130.5" r="0.4"/><circle cx="145.936" cy="130.5" r="0.4"/><circle cx="151.016" cy="130.5" r="0.4"/><circle cx="156.096" cy="130.5" r="0.4"/><circle cx="165.24" cy="130.3" r="0.4"/><circle cx="170.32" cy="130.3" r="0.4"/><circle cx="175.4" cy="130.3" r="0.4"/><circle cx="180.48" cy="130.3" r="0.4"/><circle cx="162.7" cy="130.5" r="0.4"/><circle cx="167.78" cy="130.5" r="0.4"/><circle cx="172.86" cy="130.5" r="0.4"/><circle cx="177.94" cy="130.5" r="0.4"/><circle cx="160.16" cy="82.24" r="0.4"/><circle cx="155.08" cy="82.24" r="0.4"/><circle cx="150" cy="82.24" r="0.4"/><circle cx="144.92" cy="82.24" r="0.4"/><circle cx="162.7" cy="82.04" r="0.4"/><circle cx="157.62" cy="82.04" r="0.4"/><circle cx="152.54" cy="82.04" r="0.4"/><circle cx="147.46" cy="82.04" r="0.4"/><circle cx="177.94" cy="82.24" r="0.4"/><circle cx="172.86" cy="82.24" r="0.4"/><circle cx="167.78" cy="82.24" r="0.4"/><circle cx="180.48" cy="82.04" r="0.4"/><circle cx="175.4" cy="82.04" r="0.4"/><circle cx="170.32" cy="82.04" r="0.4"/><circle cx="130.95" cy="82.14" r="1.5"/><circle cx="183.02" cy="87.22" r="1.5"/><circle cx="183.02" cy="115.16" r="1.5"/><circle cx="132.22" cy="130.4" r="1.5"/></g></g>
</defs>
<!-- Rendering View Port -->
<g transform="scale(1,-1)" clip-path="url(#BOARD)">
<g><use xlink:href="#FIL" class="regist"/>
<use xlink:href="#GTL" class="cover"/></g>
<g mask="url(#GTM)"><use xlink:href="#FIL" class="board"/>
<use xlink:href="#GTO" class="silk"/>
<use xlink:href="#GTL" class="plate"/></g>
<g mask="url(#GTN)"><use xlink:href="#GTO" class="silk"/></g>
<use xlink:href="#DRL" class="drill"/>
<use xlink:href="#OUT" stroke="gray" stroke-width="0.05" fill="none"/>
</g>
</svg>
