<?xml version="1.0" standalone="no"?>
<svg width="401.575" height="803.15"  viewBox="-167 -139 34 68" xmlns="http://www.w3.org/2000/svg" xmlns:xlink="http://www.w3.org/1999/xlink" version="1.1">
<style>
text{stroke:none;font-weight:bold;font-family:"Consolas","Courier New",monospace;}
g.footprint{visibility:hidden;}
.drill{stroke:black;fill:black;stroke-width:0;}
.cover{stroke:rgb(4,145,142);fill:rgb(4,145,142);}
.silk{stroke:white;fill:white;}
.plate{stroke:rgb(153,153,153);fill:rgb(153,153,153);}
.regist{stroke:rgb(2,82,97);fill:rgb(2,82,97);}
.board{stroke:rgb(213,212,137);fill:rgb(213,212,137);}
.under{stroke:rgb(204,153,105);fill:rgb(204,153,105);}
.via{fill:rgb(2,82,97);}
.DRL{stroke:gray;fill:none;stroke-width:0.025;}
.black{stroke:black;fill:black;}
.mask{stroke:white;fill:white;}
</style>
<!-- Symbol and Parts Libraries Description -->
<defs>
<!-- Gerber Layer -->
<clipPath id="BOARD" clip-rule="evenodd"><path stroke="none" fill-rule="evenodd" d="M164.5,138A1.5,1.5,0,0,0,166,136.5L166,73.5A1.5,1.5,0,0,0,164.5,72L157.61,72L157.61,80.5A1,1,0,0,1,155.642,80.75L144.358,80.75A1,1,0,0,1,142.39,80.5L142.39,72L135.5,72A1.5,1.5,0,0,0,134,73.5L134,136.5A1.5,1.5,0,0,0,135.5,138L164.5,138Z"/></clipPath>
<g id="OUT" stroke-linecap="round" stroke-linejoin="round"><path d="M164.5,138A1.5,1.5,0,0,0,166,136.5L166,73.5A1.5,1.5,0,0,0,164.5,72L157.61,72L157.61,80.5A1,1,0,0,1,155.642,80.75L144.358,80.75A1,1,0,0,1,142.39,80.5L142.39,72L135.5,72A1.5,1.5,0,0,0,134,73.5L134,136.5A1.5,1.5,0,0,0,135.5,138L164.5,138Z"/></g>
<rect id="FIL" x="134" y="72" width="32" height="66"/>
<g id="GBL"><g fill="none" stroke-linecap="round" stroke-linejoin="round"><path stroke-width="0.1" d="M151.79,86.065L153.29,86.065M153.29,86.065L153.29,84.565M153.29,84.565L151.79,84.565M151.79,84.565L151.79,86.065M151.79,85.97L153.29,85.97M151.79,85.875L153.29,85.875M151.79,85.78L153.29,85.78M151.79,85.685L153.29,85.685M151.79,85.59L153.29,85.59M151.79,85.495L153.29,85.495M151.79,85.4L153.29,85.4M151.79,85.305L153.29,85.305M151.79,85.21L153.29,85.21M151.79,85.115L153.29,85.115M151.79,85.02L153.29,85.02M151.79,84.925L153.29,84.925M151.79,84.83L153.29,84.83M151.79,84.735L153.29,84.735M151.79,84.64L153.29,84.64M148.865,87.79L148.865,89.19M148.865,89.19L149.865,89.19M149.865,89.19L149.865,87.79M149.865,87.79L148.865,87.79M148.96,87.79L148.96,89.19M149.055,87.79L149.055,89.19M149.15,87.79L149.15,89.19M149.245,87.79L149.245,89.19M149.34,87.79L149.34,89.19M149.435,87.79L149.435,89.19M149.53,87.79L149.53,89.19M149.625,87.79L149.625,89.19M149.72,87.79L149.72,89.19M149.815,87.79L149.815,89.19M150.135,87.79L150.135,89.19M150.135,89.19L151.135,89.19M151.135,89.19L151.135,87.79M151.135,87.79L150.135,87.79M150.23,87.79L150.23,89.19M150.325,87.79L150.325,89.19M150.42,87.79L150.42,89.19M150.515,87.79L150.515,89.19M150.61,87.79L150.61,89.19M150.705,87.79L150.705,89.19M150.8,87.79L150.8,89.19M150.895,87.79L150.895,89.19M150.99,87.79L150.99,89.19M151.085,87.79L151.085,89.19M151.405,87.79L151.405,89.19M151.405,89.19L152.405,89.19M152.405,89.19L152.405,87.79M152.405,87.79L151.405,87.79M151.5,87.79L151.5,89.19M151.595,87.79L151.595,89.19M151.69,87.79L151.69,89.19M151.785,87.79L151.785,89.19M151.88,87.79L151.88,89.19M151.975,87.79L151.975,89.19M152.07,87.79L152.07,89.19M152.165,87.79L152.165,89.19M152.26,87.79L152.26,89.19M152.355,87.79L152.355,89.19M146.325,87.79L146.325,89.19M146.325,89.19L147.325,89.19M147.325,89.19L147.325,87.79M147.325,87.79L146.325,87.79M146.42,87.79L146.42,89.19M146.515,87.79L146.515,89.19M146.61,87.79L146.61,89.19M146.705,87.79L146.705,89.19M146.8,87.79L146.8,89.19M146.895,87.79L146.895,89.19M146.99,87.79L146.99,89.19M147.085,87.79L147.085,89.19M147.18,87.79L147.18,89.19M147.275,87.79L147.275,89.19M147.595,87.79L147.595,89.19M147.595,89.19L148.595,89.19M148.595,89.19L148.595,87.79M148.595,87.79L147.595,87.79M147.69,87.79L147.69,89.19M147.785,87.79L147.785,89.19M147.88,87.79L147.88,89.19M147.975,87.79L147.975,89.19M148.07,87.79L148.07,89.19M148.165,87.79L148.165,89.19M148.26,87.79L148.26,89.19M148.355,87.79L148.355,89.19M148.45,87.79L148.45,89.19M148.545,87.79L148.545,89.19M152.675,87.79L152.675,89.19M152.675,89.19L153.675,89.19M153.675,89.19L153.675,87.79M153.675,87.79L152.675,87.79M152.77,87.79L152.77,89.19M152.865,87.79L152.865,89.19M152.96,87.79L152.96,89.19M153.055,87.79L153.055,89.19M153.15,87.79L153.15,89.19M153.245,87.79L153.245,89.19M153.34,87.79L153.34,89.19M153.435,87.79L153.435,89.19M153.53,87.79L153.53,89.19M153.625,87.79L153.625,89.19M164.05,115.135L165.45,115.135M165.45,115.135L165.45,114.135M165.45,114.135L164.05,114.135M164.05,114.135L164.05,115.135M164.05,115.04L165.45,115.04M164.05,114.945L165.45,114.945M164.05,114.85L165.45,114.85M164.05,114.755L165.45,114.755M164.05,114.66L165.45,114.66M164.05,114.565L165.45,114.565M164.05,114.47L165.45,114.47M164.05,114.375L165.45,114.375M164.05,114.28L165.45,114.28M164.05,114.185L165.45,114.185M164.05,113.865L165.45,113.865M165.45,113.865L165.45,112.865M165.45,112.865L164.05,112.865M164.05,112.865L164.05,113.865M164.05,113.77L165.45,113.77M164.05,113.675L165.45,113.675M164.05,113.58L165.45,113.58M164.05,113.485L165.45,113.485M164.05,113.39L165.45,113.39M164.05,113.295L165.45,113.295M164.05,113.2L165.45,113.2M164.05,113.105L165.45,113.105M164.05,113.01L165.45,113.01M164.05,112.915L165.45,112.915M164.05,112.595L165.45,112.595M165.45,112.595L165.45,111.595M165.45,111.595L164.05,111.595M164.05,111.595L164.05,112.595M164.05,112.5L165.45,112.5M164.05,112.405L165.45,112.405M164.05,112.31L165.45,112.31M164.05,112.215L165.45,112.215M164.05,112.12L165.45,112.12M164.05,112.025L165.45,112.025M164.05,111.93L165.45,111.93M164.05,111.835L165.45,111.835M164.05,111.74L165.45,111.74M164.05,111.645L165.45,111.645M164.05,117.675L165.45,117.675M165.45,117.675L165.45,116.675M165.45,116.675L164.05,116.675M164.05,116.675L164.05,117.675M164.05,117.58L165.45,117.58M164.05,117.485L165.45,117.485M164.05,117.39L165.45,117.39M164.05,117.295L165.45,117.295M164.05,117.2L165.45,117.2M164.05,117.105L165.45,117.105M164.05,117.01L165.45,117.01M164.05,116.915L165.45,116.915M164.05,116.82L165.45,116.82M164.05,116.725L165.45,116.725M164.05,116.405L165.45,116.405M165.45,116.405L165.45,115.405M165.45,115.405L164.05,115.405M164.05,115.405L164.05,116.405M164.05,116.31L165.45,116.31M164.05,116.215L165.45,116.215M164.05,116.12L165.45,116.12M164.05,116.025L165.45,116.025M164.05,115.93L165.45,115.93M164.05,115.835L165.45,115.835M164.05,115.74L165.45,115.74M164.05,115.645L165.45,115.645M164.05,115.55L165.45,115.55M164.05,115.455L165.45,115.455M164.05,111.325L165.45,111.325M165.45,111.325L165.45,110.325M165.45,110.325L164.05,110.325M164.05,110.325L164.05,111.325M164.05,111.23L165.45,111.23M164.05,111.135L165.45,111.135M164.05,111.04L165.45,111.04M164.05,110.945L165.45,110.945M164.05,110.85L165.45,110.85M164.05,110.755L165.45,110.755M164.05,110.66L165.45,110.66M164.05,110.565L165.45,110.565M164.05,110.47L165.45,110.47M164.05,110.375L165.45,110.375M136.55,99.17L136.55,100.67M136.55,100.67L138.05,100.67M138.05,100.67L138.05,99.17M138.05,99.17L136.55,99.17M136.645,99.17L136.645,100.67M136.74,99.17L136.74,100.67M136.835,99.17L136.835,100.67M136.93,99.17L136.93,100.67M137.025,99.17L137.025,100.67M137.12,99.17L137.12,100.67M137.215,99.17L137.215,100.67M137.31,99.17L137.31,100.67M137.405,99.17L137.405,100.67M137.5,99.17L137.5,100.67M137.595,99.17L137.595,100.67M137.69,99.17L137.69,100.67M137.785,99.17L137.785,100.67M137.88,99.17L137.88,100.67M137.975,99.17L137.975,100.67M142.9,93.05L144.4,93.05M144.4,93.05L144.4,91.55M144.4,91.55L142.9,91.55M142.9,91.55L142.9,93.05M142.9,92.955L144.4,92.955M142.9,92.86L144.4,92.86M142.9,92.765L144.4,92.765M142.9,92.67L144.4,92.67M142.9,92.575L144.4,92.575M142.9,92.48L144.4,92.48M142.9,92.385L144.4,92.385M142.9,92.29L144.4,92.29M142.9,92.195L144.4,92.195M142.9,92.1L144.4,92.1M142.9,92.005L144.4,92.005M142.9,91.91L144.4,91.91M142.9,91.815L144.4,91.815M142.9,91.72L144.4,91.72M142.9,91.625L144.4,91.625"/><path stroke-width="0.15" d="M146.5,81.431L147.17,81.431M147.75,81.431L149.71,81.431M150.29,81.431L150.735,81.431M146.5,81.573L146.792,81.573M148.128,81.573L149.332,81.573M146.5,81.715L146.584,81.715M148.273,81.715L149.124,81.715M148.131,81.857L148.976,81.857M147.989,81.999L148.483,81.999M148.595,81.999L148.865,81.999M147.847,82.141L148.341,82.141M148.68,82.141L148.78,82.141M147.705,82.283L148.199,82.283M147.563,82.425L148.057,82.425M147.421,82.567L147.915,82.567M147.394,82.709L147.773,82.709M147.536,82.851L147.631,82.851M148.73,82.248A1.375,1.375,0,0,1,150.587,81.532M148.73,82.248A1.375,1.375,0,0,0,148.548,81.934M147.584,82.899L148.548,81.934M147.336,82.651L147.584,82.899M147.336,82.651L148.301,81.687M148.301,81.687A1.375,1.375,0,0,0,146.5,81.791M146.5,81.325L146.5,81.791M146.5,81.325L150.892,81.325M150.587,81.532L150.892,81.325"/><path stroke-width="0.25" d="M144.727,91.14A0.5,0.5,0,0,0,144.325,91.631M143.65,92.3L144.325,92.3M144.325,91.631L144.325,92.3M145.798,90.925L144.727,91.14M145.798,90.925A0.75,0.75,0,0,0,146.4,90.19M146.4,90.19L146.4,88.49M146.825,88.49L146.4,88.49M146.825,88.49L147.25,88.49M149.365,88.49L148.94,88.49M148.73,92.3L148.94,92.3M148.94,88.49L148.94,92.3M151.905,88.49L152.33,88.49M152.55,91.04L153.81,92.3M152.33,90.509L152.33,88.49M152.33,90.509A0.75,0.75,0,0,0,152.55,91.04M151.27,92.3L151.06,92.3M151.06,88.49L151.06,92.3M150.635,88.49L151.06,88.49M147.46,85.315L147.25,85.315M147.25,88.49L147.25,85.315M149.365,88.49L149.79,88.49M150,85.315L149.79,85.315M149.79,88.49L149.79,85.315M152.54,85.315L152.54,85.99M151.81,85.99L152.54,85.99M151.06,86.74L151.06,88.49M151.06,86.74A0.75,0.75,0,0,1,151.81,85.99M153.34,86.74A0.625,0.625,0,0,0,153.965,86.115M153.33,86.74L153.34,86.74M152.33,87.74L152.33,88.49M152.33,87.74A1,1,0,0,1,153.33,86.74M148.095,88.49L147.795,88.49M148.095,88.49L148.395,88.49M162.45,112.425A0.675,0.675,0,0,0,161.973,113.577M162.45,113.95L162.398,114.002M161.973,113.577L162.398,114.002M164.75,112.095L164.75,112.425M162.45,112.425L164.75,112.425M164.75,113.365L164.75,113.1M162.45,113.1L164.75,113.1M162.75,92.125L162.626,92.001M159.179,115.8L159.354,115.8M157.354,111L155.25,111M157.354,111A1.5,1.5,0,0,0,158.854,109.5M160.586,94.041L162.626,92.001M160.586,94.041A2.5,2.5,0,0,0,159.854,95.809M158.854,97.75L158.854,109.5M158.854,97.75A2.5,2.5,0,0,0,156.354,95.25M156.354,95.25L141.875,95.25M141.875,95.25A2.5,2.5,0,0,1,140.107,94.518M137.934,92.345L140.107,94.518M137.404,92.125L137.25,92.125M137.404,92.125A0.75,0.75,0,0,1,137.934,92.345M151.657,111.718L155.25,108.125M151.657,111.718A2.5,2.5,0,0,0,150.925,113.486M150.925,113.486L150.8,113.378M153.175,88.49L153.175,88.69M164.75,110.825L164.95,110.825M155,88.69L155,90.95M164.75,115.905L164.75,116.205M152.625,107.5L156.125,103.875M151,107L151,99M153.965,82.775L153.965,86.115M153.965,82.775A1.4,1.4,0,0,0,152.565,81.375M152.526,81.375L152.565,81.375M151.685,81.633L150,82.775M151.685,81.633A1.501,1.501,0,0,1,152.526,81.375M158,94L158.05,94M158,91L157.65,91M162.75,126.25L157.5,123M160.586,106.961L161.875,108.25M159.854,105.193L159.854,95.809M159.854,105.193A2.5,2.5,0,0,0,160.586,106.961M146,87L146,84.235M159.793,80.082L160,79.875M159.354,81.142L159.354,115.8M159.354,81.142A1.5,1.5,0,0,1,159.793,80.082M154.32,135.4L154.32,135M145.68,135.4L145.68,135M145.68,131.72L145.68,131.17M145.68,131.17L145.68,130.62M158.675,120.45L158.551,120.326M158.551,120.326A3.125,3.125,0,0,1,156.464,121.125M149.453,121.125L156.464,121.125M148.039,121.711L146.75,123M148.039,121.711A2,2,0,0,1,149.453,121.125M135.2,72.678L137.375,72.678M137.5,72.678L141.765,72.678M159.569,72.678L162.5,72.678M162.625,72.678L164.8,72.678M134.849,72.915L137.375,72.915M137.5,72.915L141.765,72.915M159.811,72.915L162.5,72.915M162.625,72.915L165.151,72.915M134.697,73.152L136.672,73.152M138.328,73.152L141.765,73.152M159.937,73.152L161.672,73.152M163.328,73.152L165.303,73.152M134.632,73.389L136.273,73.389M138.727,73.389L141.765,73.389M159.994,73.389L161.273,73.389M163.727,73.389L165.368,73.389M134.625,73.626L136.012,73.626M138.988,73.626L141.765,73.626M159.992,73.626L161.012,73.626M163.988,73.626L165.375,73.626M134.625,73.863L135.824,73.863M139.176,73.863L141.765,73.863M159.932,73.863L160.824,73.863M164.176,73.863L165.375,73.863M134.625,74.1L135.686,74.1M139.314,74.1L141.765,74.1M159.8,74.1L160.686,74.1M164.314,74.1L165.375,74.1M134.625,74.337L135.587,74.337M139.413,74.337L141.765,74.337M158.235,74.337L158.453,74.337M159.547,74.337L160.587,74.337M164.413,74.337L165.375,74.337M134.625,74.574L135.52,74.574M139.48,74.574L141.765,74.574M158.235,74.574L160.52,74.574M164.48,74.574L165.375,74.574M134.625,74.811L135.484,74.811M139.516,74.811L141.765,74.811M158.235,74.811L160.484,74.811M164.516,74.811L165.375,74.811M134.625,75.048L135.476,75.048M139.524,75.048L141.765,75.048M158.235,75.048L160.476,75.048M164.524,75.048L165.375,75.048M134.625,75.285L135.495,75.285M139.505,75.285L141.765,75.285M158.235,75.285L160.495,75.285M164.505,75.285L165.375,75.285M134.625,75.522L135.543,75.522M139.457,75.522L141.765,75.522M158.235,75.522L160.543,75.522M164.457,75.522L165.375,75.522M134.625,75.759L135.623,75.759M139.377,75.759L141.765,75.759M158.235,75.759L160.623,75.759M164.377,75.759L165.375,75.759M134.625,75.996L135.737,75.996M139.263,75.996L141.765,75.996M158.235,75.996L160.737,75.996M164.263,75.996L165.375,75.996M134.625,76.233L135.894,76.233M139.106,76.233L140.358,76.233M141.642,76.233L141.765,76.233M158.235,76.233L160.894,76.233M164.106,76.233L165.375,76.233M134.625,76.47L136.107,76.47M138.893,76.47L140.152,76.47M158.235,76.47L161.107,76.47M163.893,76.47L165.375,76.47M134.625,76.707L136.411,76.707M138.589,76.707L140.044,76.707M158.235,76.707L161.411,76.707M163.589,76.707L165.375,76.707M134.625,76.944L136.933,76.944M138.067,76.944L140.002,76.944M158.235,76.944L161.933,76.944M163.067,76.944L165.375,76.944M134.625,77.181L140.017,77.181M158.235,77.181L165.375,77.181M134.625,77.418L140.092,77.418M158.235,77.418L165.375,77.418M134.625,77.655L140.244,77.655M141.756,77.655L141.765,77.655M158.235,77.655L165.375,77.655M134.625,77.892L140.548,77.892M141.452,77.892L141.765,77.892M158.235,77.892L165.375,77.892M134.625,78.129L141.765,78.129M158.235,78.129L165.375,78.129M134.625,78.366L141.765,78.366M158.235,78.366L165.375,78.366M134.625,78.603L141.765,78.603M158.235,78.603L165.375,78.603M134.625,78.84L141.765,78.84M158.235,78.84L165.375,78.84M134.625,79.077L141.765,79.077M158.235,79.077L159.532,79.077M160.468,79.077L165.375,79.077M134.625,79.314L141.765,79.314M158.235,79.314L159.265,79.314M160.735,79.314L165.375,79.314M134.625,79.551L141.765,79.551M158.235,79.551L159.134,79.551M160.866,79.551L165.375,79.551M134.625,79.788L141.765,79.788M158.235,79.788L159.057,79.788M160.921,79.788L165.375,79.788M134.625,80.025L141.765,80.025M158.235,80.025L158.901,80.025M160.913,80.025L165.375,80.025M134.625,80.262L141.765,80.262M158.235,80.262L158.783,80.262M160.84,80.262L165.375,80.262M134.625,80.499L141.765,80.499M158.235,80.499L158.698,80.499M160.683,80.499L165.375,80.499M134.625,80.736L141.782,80.736M158.218,80.736L158.641,80.736M160.338,80.736L165.375,80.736M134.625,80.973L141.835,80.973M158.165,80.973L158.61,80.973M160.123,80.973L165.375,80.973M134.625,81.21L141.928,81.21M158.072,81.21L158.604,81.21M160.104,81.21L165.375,81.21M134.625,81.447L142.069,81.447M144.711,81.447L146.943,81.447M154.256,81.447L155.289,81.447M157.931,81.447L158.604,81.447M160.104,81.447L165.375,81.447M134.625,81.684L142.277,81.684M144.503,81.684L146.543,81.684M154.418,81.684L155.497,81.684M157.723,81.684L158.604,81.684M160.104,81.684L165.375,81.684M134.625,81.921L142.602,81.921M144.178,81.921L146.319,81.921M154.538,81.921L155.822,81.921M157.398,81.921L158.604,81.921M160.104,81.921L165.375,81.921M134.625,82.158L146.176,82.158M154.625,82.158L158.604,82.158M160.104,82.158L165.375,82.158M134.625,82.395L146.087,82.395M154.681,82.395L158.604,82.395M160.104,82.395L165.375,82.395M134.625,82.632L146.042,82.632M154.71,82.632L158.604,82.632M160.104,82.632L165.375,82.632M134.625,82.869L146.038,82.869M154.715,82.869L158.604,82.869M160.104,82.869L165.375,82.869M134.625,83.106L146.074,83.106M154.715,83.106L158.604,83.106M160.104,83.106L165.375,83.106M134.625,83.343L141.638,83.343M143.362,83.343L146.153,83.343M154.715,83.343L158.604,83.343M160.104,83.343L165.375,83.343M134.625,83.58L141.379,83.58M143.621,83.58L146.284,83.58M154.715,83.58L158.604,83.58M160.104,83.58L165.375,83.58M134.625,83.817L141.273,83.817M143.727,83.817L146.488,83.817M154.715,83.817L158.604,83.817M160.104,83.817L165.375,83.817M134.625,84.054L141.25,84.054M143.75,84.054L146.796,84.054M154.715,84.054L158.604,84.054M160.104,84.054L165.375,84.054M134.625,84.291L141.25,84.291M143.75,84.291L146.469,84.291M154.715,84.291L158.604,84.291M160.104,84.291L165.375,84.291M134.625,84.528L141.25,84.528M143.75,84.528L146.272,84.528M154.715,84.528L158.604,84.528M160.104,84.528L165.375,84.528M134.625,84.765L141.25,84.765M143.75,84.765L146.145,84.765M154.715,84.765L158.604,84.765M160.104,84.765L165.375,84.765M134.625,85.002L141.25,85.002M143.75,85.002L146.07,85.002M154.715,85.002L158.604,85.002M160.104,85.002L165.375,85.002M134.625,85.239L141.25,85.239M143.75,85.239L146.037,85.239M154.715,85.239L158.604,85.239M160.104,85.239L165.375,85.239M134.625,85.476L141.25,85.476M143.75,85.476L146.044,85.476M154.715,85.476L158.604,85.476M160.104,85.476L165.375,85.476M134.625,85.713L141.25,85.713M143.75,85.713L146.092,85.713M154.715,85.713L158.604,85.713M160.104,85.713L165.375,85.713M134.625,85.95L141.25,85.95M143.75,85.95L146.184,85.95M154.715,85.95L158.604,85.95M160.104,85.95L165.375,85.95M134.625,86.187L141.274,86.187M143.726,86.187L146.333,86.187M154.713,86.187L158.604,86.187M160.104,86.187L165.375,86.187M134.625,86.424L141.381,86.424M143.619,86.424L146.5,86.424M154.68,86.424L158.604,86.424M160.104,86.424L165.375,86.424M134.625,86.661L141.646,86.661M143.354,86.661L146.5,86.661M154.602,86.661L158.604,86.661M160.104,86.661L165.375,86.661M134.625,86.898L146.5,86.898M154.47,86.898L158.604,86.898M160.104,86.898L165.375,86.898M134.625,87.135L146.118,87.135M154.262,87.135L158.604,87.135M160.104,87.135L165.375,87.135M134.625,87.372L145.77,87.372M154.23,87.372L158.604,87.372M160.104,87.372L165.375,87.372M134.625,87.609L145.664,87.609M154.336,87.609L158.604,87.609M160.104,87.609L165.375,87.609M134.625,87.846L145.65,87.846M154.35,87.846L158.604,87.846M160.104,87.846L165.375,87.846M134.625,88.083L145.65,88.083M154.35,88.083L158.604,88.083M160.104,88.083L165.375,88.083M134.625,88.32L145.65,88.32M154.35,88.32L158.604,88.32M160.104,88.32L165.375,88.32M134.625,88.557L145.65,88.557M154.35,88.557L158.604,88.557M160.104,88.557L165.375,88.557M134.625,88.794L145.65,88.794M154.35,88.794L158.604,88.794M160.104,88.794L165.375,88.794M134.625,89.031L145.65,89.031M154.35,89.031L158.604,89.031M160.104,89.031L165.375,89.031M134.625,89.268L145.65,89.268M154.349,89.268L158.604,89.268M160.104,89.268L165.375,89.268M134.625,89.505L145.65,89.505M154.291,89.505L158.604,89.505M160.104,89.505L165.375,89.505M134.625,89.742L145.65,89.742M154.097,89.742L158.604,89.742M160.104,89.742L165.375,89.742M134.625,89.979L145.65,89.979M153.08,89.979L158.604,89.979M160.104,89.979L165.375,89.979M134.625,90.216L145.521,90.216M153.08,90.216L158.604,90.216M160.104,90.216L165.375,90.216M134.625,90.453L144.406,90.453M153.08,90.453L158.604,90.453M160.104,90.453L165.375,90.453M134.625,90.69L144.002,90.69M153.261,90.69L158.604,90.69M160.104,90.69L165.375,90.69M134.625,90.927L142.6,90.927M154.191,90.927L155.969,90.927M156.731,90.927L158.604,90.927M160.104,90.927L165.375,90.927M134.625,91.164L142.323,91.164M154.67,91.164L155.49,91.164M157.21,91.164L158.604,91.164M160.104,91.164L165.375,91.164M134.625,91.401L136.674,91.401M137.826,91.401L142.233,91.401M154.916,91.401L155.244,91.401M157.456,91.401L158.604,91.401M160.104,91.401L162.174,91.401M163.326,91.401L165.375,91.401M134.625,91.638L136.464,91.638M138.252,91.638L142.225,91.638M155.072,91.638L155.088,91.638M157.612,91.638L158.604,91.638M160.104,91.638L161.929,91.638M163.536,91.638L165.375,91.638M134.625,91.875L136.359,91.875M138.525,91.875L142.225,91.875M157.71,91.875L158.604,91.875M160.104,91.875L161.692,91.875M163.641,91.875L165.375,91.875M134.625,92.112L136.325,92.112M138.762,92.112L142.225,92.112M157.763,92.112L158.604,92.112M160.104,92.112L161.455,92.112M163.675,92.112L165.375,92.112M134.625,92.349L136.353,92.349M138.999,92.349L142.225,92.349M157.774,92.349L158.604,92.349M160.104,92.349L161.218,92.349M163.647,92.349L165.375,92.349M134.625,92.586L136.448,92.586M139.236,92.586L142.225,92.586M157.746,92.586L158.604,92.586M160.104,92.586L160.981,92.586M163.552,92.586L165.375,92.586M134.625,92.823L136.643,92.823M139.473,92.823L142.225,92.823M157.676,92.823L158.604,92.823M160.104,92.823L160.744,92.823M163.357,92.823L165.375,92.823M134.625,93.06L137.589,93.06M139.71,93.06L142.225,93.06M147.395,93.06L147.525,93.06M149.935,93.06L150.065,93.06M152.475,93.06L152.605,93.06M155.015,93.06L155.145,93.06M157.555,93.06L158.604,93.06M160.104,93.06L160.507,93.06M162.628,93.06L165.375,93.06M134.625,93.297L137.826,93.297M139.947,93.297L142.257,93.297M145.043,93.297L145.172,93.297M147.208,93.297L147.712,93.297M149.748,93.297L150.252,93.297M152.288,93.297L152.792,93.297M154.828,93.297L155.332,93.297M157.368,93.297L158.604,93.297M160.104,93.297L160.27,93.297M162.391,93.297L165.375,93.297M134.625,93.534L136.73,93.534M137.87,93.534L138.063,93.534M140.184,93.534L142.4,93.534M144.9,93.534L145.477,93.534M146.903,93.534L148.017,93.534M149.443,93.534L150.557,93.534M151.983,93.534L153.097,93.534M154.523,93.534L155.637,93.534M157.063,93.534L158.604,93.534M162.154,93.534L165.375,93.534M134.625,93.771L136.358,93.771M138.242,93.771L138.3,93.771M140.421,93.771L143.625,93.771M143.75,93.771L158.604,93.771M161.917,93.771L165.375,93.771M134.625,94.008L136.143,94.008M138.457,94.008L138.537,94.008M140.658,94.008L143.625,94.008M143.75,94.008L158.604,94.008M161.68,94.008L165.375,94.008M134.625,94.245L136.005,94.245M138.595,94.245L138.774,94.245M140.965,94.245L143.625,94.245M143.75,94.245L158.604,94.245M161.443,94.245L165.375,94.245M134.625,94.482L135.921,94.482M138.679,94.482L139.011,94.482M141.625,94.482L143.625,94.482M143.75,94.482L158.604,94.482M161.206,94.482L165.375,94.482M134.625,94.719L135.88,94.719M138.72,94.719L139.248,94.719M157.527,94.719L158.604,94.719M160.985,94.719L165.375,94.719M134.625,94.956L135.88,94.956M138.72,94.956L139.485,94.956M158.014,94.956L158.604,94.956M160.826,94.956L165.375,94.956M134.625,95.193L135.919,95.193M138.681,95.193L139.732,95.193M158.36,95.193L158.604,95.193M160.716,95.193L165.375,95.193M134.625,95.43L136.003,95.43M138.597,95.43L140.036,95.43M160.645,95.43L165.375,95.43M134.625,95.667L136.14,95.667M138.46,95.667L140.442,95.667M160.61,95.667L165.375,95.667M134.625,95.904L136.352,95.904M138.248,95.904L141.091,95.904M160.604,95.904L165.375,95.904M134.625,96.141L136.596,96.141M138.004,96.141L147.752,96.141M148.438,96.141L157.042,96.141M160.604,96.141L165.375,96.141M134.625,96.378L136.287,96.378M138.313,96.378L147.41,96.378M148.78,96.378L157.44,96.378M160.604,96.378L165.375,96.378M134.625,96.615L136.098,96.615M138.502,96.615L147.243,96.615M148.936,96.615L157.686,96.615M160.604,96.615L165.375,96.615M134.625,96.852L135.976,96.852M138.624,96.852L147.008,96.852M149.008,96.852L157.856,96.852M160.604,96.852L165.375,96.852M134.625,97.089L135.905,97.089M138.695,97.089L146.815,97.089M149.016,97.089L157.974,97.089M160.604,97.089L165.375,97.089M134.625,97.326L135.876,97.326M138.724,97.326L146.667,97.326M148.961,97.326L158.052,97.326M160.604,97.326L165.375,97.326M134.625,97.563L135.887,97.563M138.713,97.563L146.553,97.563M148.829,97.563L158.094,97.563M160.604,97.563L165.375,97.563M134.625,97.8L135.938,97.8M138.662,97.8L146.47,97.8M148.559,97.8L158.104,97.8M160.604,97.8L165.375,97.8M134.625,98.037L136.035,98.037M138.565,98.037L146.414,98.037M148.296,98.037L158.104,98.037M160.604,98.037L165.375,98.037M134.625,98.274L136.19,98.274M138.41,98.274L146.383,98.274M148.155,98.274L158.104,98.274M160.604,98.274L165.375,98.274M134.625,98.511L136.359,98.511M138.241,98.511L146.375,98.511M148.125,98.511L158.104,98.511M160.604,98.511L165.375,98.511M134.625,98.748L135.998,98.748M138.602,98.748L146.375,98.748M148.125,98.748L158.104,98.748M160.604,98.748L165.375,98.748M134.625,98.985L135.89,98.985M138.71,98.985L146.375,98.985M148.125,98.985L158.104,98.985M160.604,98.985L165.375,98.985M134.625,99.222L135.875,99.222M138.725,99.222L146.375,99.222M148.125,99.222L158.104,99.222M160.604,99.222L165.375,99.222M134.625,99.459L135.875,99.459M138.725,99.459L146.375,99.459M148.125,99.459L158.104,99.459M160.604,99.459L165.375,99.459M134.625,99.696L135.875,99.696M138.725,99.696L146.375,99.696M148.125,99.696L158.104,99.696M160.604,99.696L165.375,99.696M138.725,99.933L146.375,99.933M148.125,99.933L158.104,99.933M160.604,99.933L165.375,99.933M134.625,100.17L135.875,100.17M138.725,100.17L146.375,100.17M148.125,100.17L158.104,100.17M160.604,100.17L165.375,100.17M134.625,100.407L135.875,100.407M138.725,100.407L146.375,100.407M148.125,100.407L158.104,100.407M160.604,100.407L165.375,100.407M134.625,100.644L135.875,100.644M138.725,100.644L146.375,100.644M148.125,100.644L158.104,100.644M160.604,100.644L165.375,100.644M134.625,100.881L135.896,100.881M138.704,100.881L146.375,100.881M148.125,100.881L158.104,100.881M160.604,100.881L165.375,100.881M134.625,101.118L136.018,101.118M138.582,101.118L146.375,101.118M148.125,101.118L158.104,101.118M160.604,101.118L165.375,101.118M134.625,101.355L146.375,101.355M148.125,101.355L158.104,101.355M160.604,101.355L165.375,101.355M134.625,101.592L146.375,101.592M148.125,101.592L158.104,101.592M160.604,101.592L165.375,101.592M134.625,101.829L146.375,101.829M148.125,101.829L158.104,101.829M160.604,101.829L165.375,101.829M134.625,102.066L146.375,102.066M148.125,102.066L158.104,102.066M160.604,102.066L165.375,102.066M134.625,102.303L146.375,102.303M148.125,102.303L158.104,102.303M160.604,102.303L165.375,102.303M134.625,102.54L146.375,102.54M148.125,102.54L158.104,102.54M160.604,102.54L165.375,102.54M134.625,102.777L146.375,102.777M148.125,102.777L158.104,102.777M160.604,102.777L165.375,102.777M134.625,103.014L146.375,103.014M148.125,103.014L155.787,103.014M156.463,103.014L158.104,103.014M160.604,103.014L165.375,103.014M134.625,103.251L146.375,103.251M148.125,103.251L155.442,103.251M156.808,103.251L158.104,103.251M160.604,103.251L165.375,103.251M134.625,103.488L146.375,103.488M148.125,103.488L155.285,103.488M156.965,103.488L158.104,103.488M160.604,103.488L165.375,103.488M134.625,103.725L146.375,103.725M148.125,103.725L155.212,103.725M157.038,103.725L158.104,103.725M160.604,103.725L165.375,103.725M134.625,103.962L146.375,103.962M148.125,103.962L154.998,103.962M157.046,103.962L158.104,103.962M160.604,103.962L165.375,103.962M134.625,104.199L146.375,104.199M148.125,104.199L154.77,104.199M156.991,104.199L158.104,104.199M160.604,104.199L165.375,104.199M134.625,104.436L146.375,104.436M148.188,104.436L154.541,104.436M156.86,104.436L158.104,104.436M160.604,104.436L165.375,104.436M134.625,104.673L146.375,104.673M148.764,104.673L154.312,104.673M156.593,104.673L158.104,104.673M160.604,104.673L165.375,104.673M134.625,104.91L146.375,104.91M148.953,104.91L154.083,104.91M156.168,104.91L158.104,104.91M160.604,104.91L165.375,104.91M134.625,105.147L146.375,105.147M149.045,105.147L153.854,105.147M155.939,105.147L158.104,105.147M160.604,105.147L165.375,105.147M134.625,105.384L146.375,105.384M149.07,105.384L153.626,105.384M155.711,105.384L158.104,105.384M160.614,105.384L165.375,105.384M134.625,105.621L146.375,105.621M149.032,105.621L153.397,105.621M155.482,105.621L158.104,105.621M160.657,105.621L165.375,105.621M134.625,105.858L146.375,105.858M148.925,105.858L153.168,105.858M155.253,105.858L158.104,105.858M160.735,105.858L165.375,105.858M134.625,106.095L146.375,106.095M148.875,106.095L152.939,106.095M155.024,106.095L158.104,106.095M160.854,106.095L165.375,106.095M134.625,106.332L146.375,106.332M148.875,106.332L152.71,106.332M154.795,106.332L158.104,106.332M161.025,106.332L165.375,106.332M134.625,106.569L146.375,106.569M148.875,106.569L152.481,106.569M154.566,106.569L158.104,106.569M161.255,106.569L165.375,106.569M134.625,106.806L146.375,106.806M148.875,106.806L152.013,106.806M154.338,106.806L158.104,106.806M161.492,106.806L165.375,106.806M134.625,107.043L146.375,107.043M148.875,107.043L151.821,107.043M154.109,107.043L158.104,107.043M161.729,107.043L165.375,107.043M134.625,107.28L146.375,107.28M148.875,107.28L151.727,107.28M153.88,107.28L154.874,107.28M155.626,107.28L158.104,107.28M161.966,107.28L165.375,107.28M134.625,107.517L146.375,107.517M148.875,107.517L151.7,107.517M153.651,107.517L154.553,107.517M155.947,107.517L158.104,107.517M162.439,107.517L165.375,107.517M134.625,107.754L146.372,107.754M148.874,107.754L151.736,107.754M153.514,107.754L154.403,107.754M156.097,107.754L158.104,107.754M160.104,107.754L160.318,107.754M162.656,107.754L165.375,107.754M134.625,107.991L146.34,107.991M148.861,107.991L151.841,107.991M153.409,107.991L154.323,107.991M156.165,107.991L158.104,107.991M160.104,107.991L160.555,107.991M162.763,107.991L165.375,107.991M134.625,108.228L146.27,108.228M148.835,108.228L152.054,108.228M153.196,108.228L154.086,108.228M156.169,108.228L158.104,108.228M160.104,108.228L160.792,108.228M162.8,108.228L165.375,108.228M134.625,108.465L146.158,108.465M148.794,108.465L153.849,108.465M156.11,108.465L158.104,108.465M160.104,108.465L160.975,108.465M162.775,108.465L165.375,108.465M134.625,108.702L145.992,108.702M148.74,108.702L153.612,108.702M155.973,108.702L158.104,108.702M160.104,108.702L161.068,108.702M162.682,108.702L165.375,108.702M134.625,108.939L145.763,108.939M148.67,108.939L153.375,108.939M155.689,108.939L158.104,108.939M160.104,108.939L161.258,108.939M162.492,108.939L165.375,108.939M134.625,109.176L145.526,109.176M148.67,109.176L153.138,109.176M155.26,109.176L158.104,109.176M160.104,109.176L165.375,109.176M134.625,109.413L145.289,109.413M148.965,109.413L152.901,109.413M155.023,109.413L158.104,109.413M160.104,109.413L165.375,109.413M134.625,109.65L145.052,109.65M149.137,109.65L152.664,109.65M154.786,109.65L158.089,109.65M160.104,109.65L165.375,109.65M134.625,109.887L144.815,109.887M149.374,109.887L152.427,109.887M154.549,109.887L157.996,109.887M160.104,109.887L163.51,109.887M134.625,110.124L144.578,110.124M149.611,110.124L152.19,110.124M154.312,110.124L154.953,110.124M155.547,110.124L157.77,110.124M160.104,110.124L163.394,110.124M134.625,110.361L144.341,110.361M149.848,110.361L151.953,110.361M154.075,110.361L154.581,110.361M160.104,110.361L163.375,110.361M134.625,110.598L144.104,110.598M150.085,110.598L151.716,110.598M153.838,110.598L154.417,110.598M160.104,110.598L163.375,110.598M134.625,110.835L143.867,110.835M147.402,110.835L147.848,110.835M150.322,110.835L151.479,110.835M153.601,110.835L154.34,110.835M160.104,110.835L163.375,110.835M134.625,111.072L143.63,111.072M147.165,111.072L148.085,111.072M150.559,111.072L151.242,111.072M153.364,111.072L154.328,111.072M160.104,111.072L163.375,111.072M134.625,111.309L143.393,111.309M146.928,111.309L148.322,111.309M150.796,111.309L151.005,111.309M153.127,111.309L154.378,111.309M160.104,111.309L163.375,111.309M134.625,111.546L143.156,111.546M146.691,111.546L148.559,111.546M152.89,111.546L154.503,111.546M158.29,111.546L158.604,111.546M160.104,111.546L163.375,111.546M134.625,111.783L142.919,111.783M146.454,111.783L148.796,111.783M152.653,111.783L154.758,111.783M155.742,111.783L158.604,111.783M160.104,111.783L161.906,111.783M134.625,112.02L142.682,112.02M146.217,112.02L149.033,112.02M152.416,112.02L158.604,112.02M160.104,112.02L161.52,112.02M134.625,112.257L142.445,112.257M145.98,112.257L149.27,112.257M152.179,112.257L158.604,112.257M160.104,112.257L161.301,112.257M134.625,112.494L142.208,112.494M145.743,112.494L149.507,112.494M151.983,112.494L158.604,112.494M160.104,112.494L161.16,112.494M134.625,112.731L141.971,112.731M145.506,112.731L149.72,112.731M151.846,112.731L158.604,112.731M160.104,112.731L161.074,112.731M134.625,112.968L141.734,112.968M145.269,112.968L149.847,112.968M151.753,112.968L158.604,112.968M160.104,112.968L161.031,112.968M134.625,113.205L141.497,113.205M145.032,113.205L149.912,113.205M151.698,113.205L158.604,113.205M160.104,113.205L161.029,113.205M134.625,113.442L141.26,113.442M144.795,113.442L149.925,113.442M151.676,113.442L158.604,113.442M160.104,113.442L161.067,113.442M134.625,113.679L141.023,113.679M144.558,113.679L149.925,113.679M151.675,113.679L158.604,113.679M160.104,113.679L161.148,113.679M134.625,113.916L140.786,113.916M144.321,113.916L149.925,113.916M151.675,113.916L158.604,113.916M160.104,113.916L161.282,113.916M134.625,114.153L140.549,114.153M144.084,114.153L149.925,114.153M151.675,114.153L158.604,114.153M160.104,114.153L161.49,114.153M163.352,114.153L163.375,114.153M134.625,114.39L140.312,114.39M143.847,114.39L149.925,114.39M151.675,114.39L158.604,114.39M160.104,114.39L161.636,114.39M163.264,114.39L163.375,114.39M134.625,114.627L140.075,114.627M143.61,114.627L149.925,114.627M151.675,114.627L158.604,114.627M160.104,114.627L161.82,114.627M163.08,114.627L163.375,114.627M134.625,114.864L139.838,114.864M143.373,114.864L149.925,114.864M151.675,114.864L158.604,114.864M160.104,114.864L162.308,114.864M162.592,114.864L163.375,114.864M134.625,115.101L139.601,115.101M143.136,115.101L149.925,115.101M151.675,115.101L158.573,115.101M160.104,115.101L163.375,115.101M134.625,115.338L139.364,115.338M142.899,115.338L149.925,115.338M151.675,115.338L158.377,115.338M160.104,115.338L162.598,115.338M134.625,115.575L139.127,115.575M142.662,115.575L149.925,115.575M151.675,115.575L158.282,115.575M160.104,115.575L161.568,115.575M134.625,115.812L138.89,115.812M142.425,115.812L149.925,115.812M151.675,115.812L158.254,115.812M160.104,115.812L161.092,115.812M134.625,116.049L138.653,116.049M142.188,116.049L149.925,116.049M151.675,116.049L158.288,116.049M160.07,116.049L160.748,116.049M134.625,116.286L138.416,116.286M141.951,116.286L149.925,116.286M151.675,116.286L158.392,116.286M159.966,116.286L160.477,116.286M134.625,116.523L138.179,116.523M141.714,116.523L149.925,116.523M151.675,116.523L158.602,116.523M159.756,116.523L160.24,116.523M134.625,116.76L137.942,116.76M141.477,116.76L149.925,116.76M151.675,116.76L160.003,116.76M134.625,116.997L137.705,116.997M141.24,116.997L149.925,116.997M151.675,116.997L159.766,116.997M134.625,117.234L137.468,117.234M141.003,117.234L149.925,117.234M151.675,117.234L159.529,117.234M162.14,117.234L163.375,117.234M134.625,117.471L137.229,117.471M140.766,117.471L149.925,117.471M151.675,117.471L159.292,117.471M161.773,117.471L163.375,117.471M134.625,117.708L136.147,117.708M140.529,117.708L149.925,117.708M151.675,117.708L159.055,117.708M161.529,117.708L163.375,117.708M134.625,117.945L135.885,117.945M140.292,117.945L149.925,117.945M151.675,117.945L158.818,117.945M161.292,117.945L163.415,117.945M134.625,118.182L135.756,118.182M140.055,118.182L149.925,118.182M151.675,118.182L158.581,118.182M161.055,118.182L163.574,118.182M134.625,118.419L135.704,118.419M139.818,118.419L149.925,118.419M151.675,118.419L158.344,118.419M160.818,118.419L165.375,118.419M134.625,118.656L135.713,118.656M139.581,118.656L149.88,118.656M151.72,118.656L158.107,118.656M160.581,118.656L165.375,118.656M134.625,118.893L135.788,118.893M139.344,118.893L149.886,118.893M151.714,118.893L157.87,118.893M160.375,118.893L165.375,118.893M134.625,119.13L135.948,119.13M139.107,119.13L149.929,119.13M151.689,119.13L157.633,119.13M160.107,119.13L160.25,119.13M160.375,119.13L165.375,119.13M134.625,119.367L136.303,119.367M138.87,119.367L149.954,119.367M151.794,119.367L157.343,119.367M159.87,119.367L160.25,119.367M160.375,119.367L165.375,119.367M134.625,119.604L136.581,119.604M138.633,119.604L150.003,119.604M152.139,119.604L156.725,119.604M159.633,119.604L160.25,119.604M160.375,119.604L165.375,119.604M134.625,119.841L136.64,119.841M138.396,119.841L150.079,119.841M159.396,119.841L160.25,119.841M160.375,119.841L165.375,119.841M134.625,120.078L136.778,120.078M138.222,120.078L150.184,120.078M159.522,120.078L160.25,120.078M160.375,120.078L165.375,120.078M134.625,120.315L137.063,120.315M137.937,120.315L150.322,120.315M159.59,120.315L160.25,120.315M160.375,120.315L165.375,120.315M134.625,120.552L148.483,120.552M159.595,120.552L160.25,120.552M160.375,120.552L165.375,120.552M134.625,120.789L148.002,120.789M159.536,120.789L160.25,120.789M160.375,120.789L165.375,120.789M134.625,121.026L147.677,121.026M159.399,121.026L160.25,121.026M160.375,121.026L165.375,121.026M134.625,121.263L147.426,121.263M159.116,121.263L160.25,121.263M160.375,121.263L165.375,121.263M134.625,121.5L147.189,121.5M158.127,121.5L160.25,121.5M160.375,121.5L165.375,121.5M134.625,121.737L146.952,121.737M157.489,121.737L160.25,121.737M160.375,121.737L165.375,121.737M134.625,121.974L146.715,121.974M148.966,121.974L160.25,121.974M160.375,121.974L165.375,121.974M134.625,122.211L146.267,122.211M148.601,122.211L157.017,122.211M157.983,122.211L160.25,122.211M160.375,122.211L165.375,122.211M134.625,122.448L146.008,122.448M148.363,122.448L156.758,122.448M158.242,122.448L160.25,122.448M160.375,122.448L165.375,122.448M134.625,122.685L145.88,122.685M148.126,122.685L156.63,122.685M158.416,122.685L160.25,122.685M160.375,122.685L165.375,122.685M134.625,122.922L145.828,122.922M147.889,122.922L156.578,122.922M158.799,122.922L160.25,122.922M160.375,122.922L165.375,122.922M134.625,123.159L145.839,123.159M147.661,123.159L156.589,123.159M159.182,123.159L160.25,123.159M160.375,123.159L165.375,123.159M134.625,123.396L145.914,123.396M147.586,123.396L156.664,123.396M159.565,123.396L160.25,123.396M160.375,123.396L165.375,123.396M134.625,123.633L146.076,123.633M147.424,123.633L156.826,123.633M159.947,123.633L160.25,123.633M160.375,123.633L165.375,123.633M134.625,123.87L146.436,123.87M147.064,123.87L157.186,123.87M160.375,123.87L165.375,123.87M134.625,124.107L157.863,124.107M160.713,124.107L165.375,124.107M134.625,124.344L158.246,124.344M161.096,124.344L165.375,124.344M134.625,124.581L158.629,124.581M161.479,124.581L165.375,124.581M134.625,124.818L159.012,124.818M161.862,124.818L165.375,124.818M134.625,125.055L159.395,125.055M162.245,125.055L165.375,125.055M134.625,125.292L159.778,125.292M162.627,125.292L165.375,125.292M134.625,125.529L160.16,125.529M163.329,125.529L165.375,125.529M134.625,125.766L160.543,125.766M163.538,125.766L165.375,125.766M134.625,126.003L160.926,126.003M163.641,126.003L165.375,126.003M134.625,126.24L161.309,126.24M163.675,126.24L165.375,126.24M134.625,126.477L161.692,126.477M163.647,126.477L165.375,126.477M134.625,126.714L161.95,126.714M163.55,126.714L165.375,126.714M134.625,126.951L162.146,126.951M163.354,126.951L165.375,126.951M134.625,127.188L165.375,127.188M134.625,127.425L165.375,127.425M134.625,127.662L165.375,127.662M134.625,127.899L165.375,127.899M134.625,128.136L165.375,128.136M134.625,128.373L165.375,128.373M134.625,128.61L165.375,128.61M134.625,128.847L165.375,128.847M134.625,129.084L165.375,129.084M134.625,129.321L165.375,129.321M134.625,129.558L145.069,129.558M146.291,129.558L153.709,129.558M154.931,129.558L165.375,129.558M134.625,129.795L144.774,129.795M146.586,129.795L153.414,129.795M155.226,129.795L165.375,129.795M134.625,130.032L144.605,130.032M146.755,130.032L153.245,130.032M155.395,130.032L165.375,130.032M134.625,130.269L144.506,130.269M146.854,130.269L153.146,130.269M155.494,130.269L165.375,130.269M134.625,130.506L144.46,130.506M146.9,130.506L153.1,130.506M155.54,130.506L165.375,130.506M134.625,130.743L144.455,130.743M146.905,130.743L153.095,130.743M155.545,130.743L165.375,130.743M134.625,130.98L144.455,130.98M147.34,130.98L152.66,130.98M155.545,130.98L165.375,130.98M134.625,131.217L144.455,131.217M147.7,131.217L152.3,131.217M155.545,131.217L165.375,131.217M134.625,131.454L144.455,131.454M147.838,131.454L152.162,131.454M155.545,131.454L165.375,131.454M134.625,131.691L144.455,131.691M147.884,131.691L152.116,131.691M155.545,131.691L165.375,131.691M134.625,131.928L144.473,131.928M147.857,131.928L152.143,131.928M155.527,131.928L165.375,131.928M134.625,132.165L144.539,132.165M147.745,132.165L152.255,132.165M155.461,132.165L165.375,132.165M134.625,132.402L144.662,132.402M146.698,132.402L146.742,132.402M147.478,132.402L152.522,132.402M153.258,132.402L153.302,132.402M155.338,132.402L165.375,132.402M134.625,132.639L144.87,132.639M146.49,132.639L153.51,132.639M155.13,132.639L165.375,132.639M134.625,132.876L144.93,132.876M146.43,132.876L153.57,132.876M155.07,132.876L165.375,132.876M134.625,133.113L136.765,133.113M138.235,133.113L144.93,133.113M146.43,133.113L153.57,133.113M155.07,133.113L161.765,133.113M163.235,133.113L165.375,133.113M134.625,133.35L136.326,133.35M138.674,133.35L144.93,133.35M146.43,133.35L153.57,133.35M155.07,133.35L161.326,133.35M163.674,133.35L165.375,133.35M134.625,133.587L136.049,133.587M138.951,133.587L144.93,133.587M146.43,133.587L153.57,133.587M155.07,133.587L161.049,133.587M163.951,133.587L165.375,133.587M134.625,133.824L135.851,133.824M139.149,133.824L144.93,133.824M146.43,133.824L153.57,133.824M155.07,133.824L160.851,133.824M164.149,133.824L165.375,133.824M134.625,134.061L135.706,134.061M139.294,134.061L144.893,134.061M146.467,134.061L153.533,134.061M155.107,134.061L160.706,134.061M164.294,134.061L165.375,134.061M134.625,134.298L135.601,134.298M139.399,134.298L144.676,134.298M146.684,134.298L153.316,134.298M155.324,134.298L160.601,134.298M164.399,134.298L165.375,134.298M134.625,134.535L135.529,134.535M139.471,134.535L144.547,134.535M146.813,134.535L153.187,134.535M155.453,134.535L160.529,134.535M164.471,134.535L165.375,134.535M134.625,134.772L135.488,134.772M139.512,134.772L144.476,134.772M146.884,134.772L153.116,134.772M155.524,134.772L160.488,134.772M164.512,134.772L165.375,134.772M134.625,135.009L135.475,135.009M139.525,135.009L144.455,135.009M146.905,135.009L153.095,135.009M155.545,135.009L158.366,135.009M158.634,135.009L160.475,135.009M164.525,135.009L165.375,135.009M134.625,135.246L135.49,135.246M139.51,135.246L144.455,135.246M146.905,135.246L153.095,135.246M155.545,135.246L157.843,135.246M159.157,135.246L160.49,135.246M164.51,135.246L165.375,135.246M134.625,135.483L135.533,135.483M139.467,135.483L144.455,135.483M146.905,135.483L153.095,135.483M155.545,135.483L157.644,135.483M159.356,135.483L160.533,135.483M164.467,135.483L165.375,135.483M134.625,135.72L135.607,135.72M139.393,135.72L144.455,135.72M146.905,135.72L153.095,135.72M155.545,135.72L157.54,135.72M159.46,135.72L160.607,135.72M164.393,135.72L165.375,135.72M134.625,135.957L135.715,135.957M139.285,135.957L144.465,135.957M146.895,135.957L153.105,135.957M155.535,135.957L157.501,135.957M159.499,135.957L160.715,135.957M164.285,135.957L165.375,135.957M134.625,136.194L135.864,136.194M139.136,136.194L144.52,136.194M146.84,136.194L153.16,136.194M155.48,136.194L157.519,136.194M159.481,136.194L160.864,136.194M164.136,136.194L165.375,136.194M134.625,136.431L136.067,136.431M138.933,136.431L144.63,136.431M146.73,136.431L153.27,136.431M155.37,136.431L157.598,136.431M159.402,136.431L161.067,136.431M163.933,136.431L165.375,136.431M134.641,136.668L136.352,136.668M138.648,136.668L144.816,136.668M146.544,136.668L153.456,136.668M155.184,136.668L157.756,136.668M159.244,136.668L161.352,136.668M163.648,136.668L165.359,136.668M134.724,136.905L136.813,136.905M138.187,136.905L145.151,136.905M146.209,136.905L153.791,136.905M154.849,136.905L158.075,136.905M158.925,136.905L161.813,136.905M163.187,136.905L165.276,136.905M134.905,137.142L137.5,137.142M137.625,137.142L145.625,137.142M145.75,137.142L154.25,137.142M154.375,137.142L158.375,137.142M158.5,137.142L162.375,137.142M162.5,137.142L165.095,137.142M147.663,123.147A0.925,0.925,0,1,1,146.603,122.087M148.57,122.241L147.663,123.147M148.57,122.241A1.25,1.25,0,0,1,149.453,121.875M156.464,121.875L149.453,121.875M156.464,121.875A3.875,3.875,0,0,0,158.427,121.341M158.427,121.341A0.925,0.925,0,0,0,159.383,119.854M160.25,118.987L159.383,119.854M160.25,123.82L160.25,118.987M158.355,122.647L160.25,123.82M158.355,122.647A0.925,0.925,0,1,0,157.566,123.923M157.566,123.923L161.895,126.603M161.895,126.603A0.925,0.925,0,1,0,162.684,125.327M162.684,125.327L160.375,123.898M160.375,123.898L160.375,118.862M160.375,118.862L161.681,117.556M161.681,117.556A1.625,1.625,0,0,1,162.831,117.08M162.831,117.08L163.375,117.08M163.375,117.725L163.375,117.08M163.375,117.725A0.625,0.625,0,0,0,164,118.35M165.375,118.35L164,118.35M165.375,136.5L165.375,118.35M165.375,136.5A0.875,0.875,0,0,1,164.5,137.375M164.5,137.375L162.5,137.375M162.5,137.025L162.5,137.375M162.5,137.025A2.025,2.025,0,1,0,162.375,137.021M162.375,137.021L162.375,137.375M162.375,137.375L158.5,137.375M158.5,137L158.5,137.375M158.5,137A1,1,0,1,0,158.375,136.992M158.375,136.992L158.375,137.375M158.375,137.375L154.375,137.375M154.375,137.024L154.375,137.375M154.375,137.024A1.225,1.225,0,0,0,155.545,135.8M155.545,135L155.545,135.8M155.545,135A1.225,1.225,0,0,0,155.07,134.031M155.07,134.031L155.07,132.689M155.07,132.689A1.225,1.225,0,0,0,155.545,131.72M155.545,131.72L155.545,130.62M155.545,130.62A1.225,1.225,0,1,0,153.095,130.62M153.095,130.62L153.095,130.973M153.095,130.973A0.775,0.775,0,1,0,153.29,132.384M153.29,132.384A1.225,1.225,0,0,0,153.57,132.689M153.57,132.689L153.57,134.031M153.57,134.031A1.225,1.225,0,0,0,153.095,135M153.095,135.8L153.095,135M153.095,135.8A1.225,1.225,0,0,0,154.25,137.023M154.25,137.023L154.25,137.375M154.25,137.375L145.75,137.375M145.75,137.023L145.75,137.375M145.75,137.023A1.225,1.225,0,0,0,146.905,135.8M146.905,135L146.905,135.8M146.905,135A1.225,1.225,0,0,0,146.43,134.031M146.43,134.031L146.43,132.689M146.43,132.689A1.225,1.225,0,0,0,146.71,132.384M146.71,132.384A0.775,0.775,0,1,0,146.905,130.973M146.905,130.62L146.905,130.973M146.905,130.62A1.225,1.225,0,1,0,144.455,130.62M144.455,131.72L144.455,130.62M144.455,131.72A1.225,1.225,0,0,0,144.93,132.689M144.93,132.689L144.93,134.031M144.93,134.031A1.225,1.225,0,0,0,144.455,135M144.455,135.8L144.455,135M144.455,135.8A1.225,1.225,0,0,0,145.625,137.024M145.625,137.024L145.625,137.375M137.625,137.375L145.625,137.375M137.625,137.021L137.625,137.375M137.625,137.021A2.025,2.025,0,1,0,137.5,137.025M137.5,137.025L137.5,137.375M135.5,137.375L137.5,137.375M135.5,137.375A0.875,0.875,0,0,1,134.625,136.5M134.625,136.5L134.625,100M135.875,100L134.625,100M135.875,100.72L135.875,100M135.875,100.72A0.625,0.625,0,0,0,136.5,101.345M138.1,101.345L136.5,101.345M138.1,101.345A0.625,0.625,0,0,0,138.725,100.72M138.725,99.12L138.725,100.72M138.725,99.12A0.625,0.625,0,0,0,138.181,98.5M138.181,98.5A1.425,1.425,0,0,0,137.946,96.11M137.946,96.11A1.425,1.425,0,1,0,136.654,96.11M136.654,96.11A1.425,1.425,0,0,0,136.419,98.5M136.419,98.5A0.625,0.625,0,0,0,135.875,99.12M135.875,99.12L135.875,99.875M134.625,99.875L135.875,99.875M134.625,99.875L134.625,84.75M134.625,84.75L141.25,84.75M141.25,84.75L141.25,86M141.25,86A0.75,0.75,0,0,0,142,86.75M143,86.75L142,86.75M143,86.75A0.75,0.75,0,0,0,143.75,86M143.75,84L143.75,86M143.75,84A0.75,0.75,0,0,0,143,83.25M142,83.25L143,83.25M142,83.25A0.75,0.75,0,0,0,141.25,84M141.25,84.625L141.25,84M134.625,84.625L141.25,84.625M134.625,73.5L134.625,84.625M134.625,73.5A0.875,0.875,0,0,1,135.5,72.625M135.5,72.625L137.375,72.625M137.375,72.979L137.375,72.625M137.375,72.979A2.025,2.025,0,1,0,137.5,72.975M137.5,72.975L137.5,72.625M141.765,72.625L137.5,72.625M141.765,72.625L141.765,76.356M141.765,76.356A1,1,0,1,0,141.765,77.644M141.765,80.5L141.765,77.644M141.765,80.5A1.625,1.625,0,0,0,144.759,81.375M147.194,81.375L144.759,81.375M147.194,81.375A1.425,1.425,0,0,0,146.814,84.045M146.814,84.045A1.425,1.425,0,0,0,146.5,86.368M146.5,86.368L146.5,87.115M146.275,87.115L146.5,87.115M146.275,87.115A0.625,0.625,0,0,0,145.65,87.74M145.65,87.74L145.65,90.19M144.579,90.405L145.65,90.19M144.579,90.405A1.25,1.25,0,0,0,143.829,90.875M142.85,90.875L143.829,90.875M142.85,90.875A0.625,0.625,0,0,0,142.225,91.5M142.225,91.5L142.225,93.1M142.225,93.1A0.625,0.625,0,0,0,142.85,93.725M142.85,93.725L143.625,93.725M143.625,93.725L143.625,94.5M141.875,94.5L143.625,94.5M141.875,94.5A1.75,1.75,0,0,1,140.638,93.987M138.464,91.814L140.638,93.987M138.464,91.814A1.5,1.5,0,0,0,137.888,91.455M137.888,91.455A0.925,0.925,0,1,0,137.534,93.005M137.534,93.005L139.577,95.048M139.577,95.048A3.25,3.25,0,0,0,141.875,96M141.875,96L156.354,96M156.354,96A1.75,1.75,0,0,1,158.104,97.75M158.104,97.75L158.104,105.875M155.236,105.875L158.104,105.875M156.288,104.785L155.236,105.875M156.288,104.785A0.924,0.924,0,1,0,155.209,103.744M152.462,106.59L155.209,103.744M152.462,106.59A0.924,0.924,0,1,0,153.541,107.631M153.541,107.631L155.116,106M155.116,106L158.104,106M158.104,109.5L158.104,106M158.104,109.5A0.75,0.75,0,0,1,157.354,110.25M155.791,110.25L157.354,110.25M155.791,110.25A0.925,0.925,0,1,0,155.791,111.75M157.354,111.75L155.791,111.75M157.354,111.75A2.25,2.25,0,0,0,158.604,111.371M158.604,115.075L158.604,111.371M158.604,115.075A0.925,0.925,0,1,0,160.104,115.8M160.104,115.8L160.104,107.54M160.962,108.397L160.104,107.54M160.962,108.397A0.925,0.925,0,1,0,162.022,107.337M161.116,106.431L162.022,107.337M161.116,106.431A1.749,1.749,0,0,1,160.604,105.193M160.604,95.809L160.604,105.193M160.604,95.809A1.75,1.75,0,0,1,161.116,94.572M161.116,94.572L162.644,93.044M162.644,93.044A0.925,0.925,0,1,0,162.096,91.471M162.096,91.471L160.104,93.463M160.104,93.463L160.104,81.142M160.104,81.142A0.75,0.75,0,0,1,160.198,80.779M160.198,80.779A0.925,0.925,0,1,0,159.083,79.755M159.083,79.755A2.25,2.25,0,0,0,158.604,81.142M158.604,95.405L158.604,81.142M156.354,94.5A3.25,3.25,0,0,1,158.604,95.405M156.354,94.5L143.75,94.5M143.75,93.725L143.75,94.5M144.45,93.725L143.75,93.725M144.45,93.725A0.625,0.625,0,0,0,145.07,93.181M145.07,93.181A1.425,1.425,0,0,0,147.46,92.946M147.46,92.946A1.425,1.425,0,0,0,150,92.946M150,92.946A1.425,1.425,0,0,0,152.54,92.946M152.54,92.946A1.425,1.425,0,0,0,155.08,92.946M155.08,92.946A1.425,1.425,0,1,0,155.08,91.654M155.08,91.654A1.425,1.425,0,0,0,153.484,90.913M153.08,90.509L153.484,90.913M153.08,90.509L153.08,89.865M153.725,89.865L153.08,89.865M153.725,89.865A0.625,0.625,0,0,0,154.35,89.24M154.35,87.74L154.35,89.24M154.35,87.74A0.625,0.625,0,0,0,154.114,87.251M154.114,87.251A1.375,1.375,0,0,0,154.715,86.115M154.715,86.115L154.715,82.775M154.715,82.775A2.15,2.15,0,0,0,154.197,81.375M155.241,81.375L154.197,81.375M155.241,81.375A1.625,1.625,0,0,0,158.235,80.5M158.235,80.5L158.235,74.144M158.235,74.144A1,1,0,1,0,159.484,72.625M162.5,72.625L159.484,72.625M162.5,72.975L162.5,72.625M162.5,72.975A2.025,2.025,0,1,0,162.625,72.979M162.625,72.979L162.625,72.625M164.5,72.625L162.625,72.625M164.5,72.625A0.875,0.875,0,0,1,165.375,73.5M165.375,73.5L165.375,109.65M164,109.65L165.375,109.65M164,109.65A0.625,0.625,0,0,0,163.375,110.275M163.375,110.275L163.375,111.675M162.45,111.675L163.375,111.675M162.45,111.675A1.425,1.425,0,0,0,161.564,114.216M161.564,114.216A0.925,0.925,0,0,0,163.375,113.95M163.375,113.95L163.375,115.33M162.831,115.33L163.375,115.33M162.831,115.33A3.375,3.375,0,0,0,160.444,116.319M157.614,119.149L160.444,116.319M157.614,119.149A1.625,1.625,0,0,1,156.464,119.625M152.3,119.625L156.464,119.625M152.3,119.625A0.625,0.625,0,0,1,151.677,119.045M151.677,119.045A0.925,0.925,0,0,0,151.675,118.45M151.675,118.45L151.675,113.486M151.675,113.486A1.75,1.75,0,0,1,152.188,112.248M155.397,109.038L152.188,112.248M155.397,109.038A0.925,0.925,0,1,0,154.337,107.978M154.337,107.978L150.9,111.415M150.9,111.415A2.875,2.875,0,0,0,150.833,111.345M149.081,109.593L150.833,111.345M149.081,109.593A0.925,0.925,0,0,0,148.597,109.143M148.597,109.143A4.125,4.125,0,0,0,148.875,107.654M148.875,105.928L148.875,107.654M148.875,105.928A0.925,0.925,0,0,0,148.125,104.435M148.125,98.466L148.125,104.435M148.125,98.466A0.625,0.625,0,0,1,148.308,98.024M148.502,97.831L148.308,98.024M148.502,97.831A0.925,0.925,0,1,0,147.264,96.593M147.264,96.593L147.071,96.787M147.071,96.787A2.374,2.374,0,0,0,146.375,98.466M146.375,98.466L146.375,107.654M146.375,107.654A1.625,1.625,0,0,1,145.899,108.803M145.899,108.803L137.26,117.442M137.26,117.442A0.625,0.625,0,0,1,136.906,117.619M136.906,117.619A0.925,0.925,0,1,0,136.578,119.424M136.578,119.424A0.925,0.925,0,0,0,138.331,119.907M147.59,110.648L138.331,119.907M147.59,110.648A0.925,0.925,0,0,0,147.843,110.831M147.843,110.831L149.595,112.583M149.595,112.583A1.124,1.124,0,0,1,149.925,113.378M149.925,113.378L149.925,118.45M149.925,118.45A0.925,0.925,0,0,0,149.926,119.052M149.926,119.052A2.375,2.375,0,0,0,150.364,120.375M150.364,120.375L149.453,120.375M149.453,120.375A2.75,2.75,0,0,0,147.509,121.18M147.509,121.18L146.603,122.087"/><path stroke-width="0.5" d="M147.356,91.134L146.19,92.3M147.795,90.074L147.795,88.49M147.795,90.074A1.5,1.5,0,0,1,147.356,91.134M148.395,87.74L148.395,88.49M148.562,87.268A0.749,0.749,0,0,0,148.73,86.795M148.563,87.268A0.749,0.749,0,0,0,148.395,87.74M147.689,97.406L148.095,97M147.689,97.406A1.5,1.5,0,0,0,147.25,98.466M136.818,118.5L136.625,118.5M136.818,118.5A1.5,1.5,0,0,0,137.879,118.061M146.518,109.422L137.879,118.061M147.25,107.654L147.25,98.466M147.25,107.654A2.5,2.5,0,0,1,146.518,109.422M137.5,119.5L147.048,109.952M150.8,113.378L150.8,118.75M150.214,111.964L148.25,110M150.214,111.964A2,2,0,0,1,150.8,113.378M145.68,133.775L145.68,132.945M154.32,133.775L154.32,132.945M155.08,93.57L156.35,92.3M147.46,82.775L146.19,81.505M156.35,92.3L155,90.95M148.145,105.36L148,105.505M148,107.654A3.25,3.25,0,0,1,147.048,109.952M148,105.505L148,107.654M148.73,85.315L148.73,86.795M148.73,85.315A1.27,1.27,0,0,1,150,84.045M150.381,84.045L150,84.045M151.296,83.733L152.54,82.775M151.296,83.733A1.5,1.5,0,0,1,150.381,84.045M156.35,92.3L158.05,94M156.35,92.3L157.65,91M147.46,82.775L146,84.235M154.32,135L154.32,133.775M154.32,132.945L154.32,131.72M145.68,135L145.68,133.775M145.68,132.945L145.68,131.72M152.3,120.5A1.5,1.5,0,0,1,150.8,119M150.8,118.75L150.8,119M152.3,120.5L156.464,120.5M156.464,120.5A2.5,2.5,0,0,0,158.232,119.768M158.232,119.768L161.063,116.937M164.75,116.205L162.831,116.205M162.831,116.205A2.5,2.5,0,0,0,161.063,116.937"/><path stroke-width="1.1" d="M164.95,108.996L164.95,110.825M153.175,88.69L155,88.69"/><path stroke-width="1.2" d="M154.32,135.8L154.32,135M145.68,135.8L145.68,135M145.68,131.72L145.68,130.62M154.32,131.72L154.32,130.62"/></g><g stroke="none"><circle cx="152.54" cy="82.775" r="0.8"/><circle cx="150" cy="85.315" r="0.8"/><circle cx="150" cy="82.775" r="0.8"/><circle cx="147.46" cy="85.315" r="0.8"/><circle cx="147.46" cy="82.775" r="0.8"/><circle cx="162.45" cy="113.95" r="0.3"/><circle cx="162.45" cy="113.1" r="0.3"/><circle cx="162" cy="111.5" r="0.3"/><circle cx="162.75" cy="92.125" r="0.3"/><circle cx="137.3" cy="94.84" r="0.8"/><circle cx="137.3" cy="97.38" r="0.8"/><circle cx="148.095" cy="97" r="0.3"/><circle cx="136.625" cy="118.5" r="0.3"/><circle cx="137.5" cy="119.5" r="0.3"/><circle cx="155.25" cy="111" r="0.3"/><circle cx="159.179" cy="115.8" r="0.3"/><circle cx="137.25" cy="92.125" r="0.3"/><circle cx="150.8" cy="118.75" r="0.3"/><circle cx="148.25" cy="110" r="0.3"/><circle cx="155.25" cy="108.125" r="0.3"/><circle cx="148.145" cy="105.36" r="0.3"/><circle cx="152" cy="137" r="0.3"/><circle cx="148" cy="137" r="0.3"/><circle cx="150" cy="135" r="0.3"/><circle cx="142" cy="131" r="0.3"/><circle cx="148" cy="125" r="0.3"/><circle cx="152" cy="125" r="0.3"/><circle cx="144" cy="121" r="0.3"/><circle cx="160" cy="137" r="0.3"/><circle cx="160" cy="77" r="0.3"/><circle cx="158" cy="83" r="0.3"/><circle cx="158" cy="91" r="0.3"/><circle cx="146" cy="99" r="0.3"/><circle cx="144" cy="101" r="0.3"/><circle cx="146" cy="103" r="0.3"/><circle cx="146" cy="107" r="0.3"/><circle cx="142" cy="103" r="0.3"/><circle cx="138" cy="103" r="0.3"/><circle cx="142" cy="107" r="0.3"/><circle cx="165" cy="123" r="0.3"/><circle cx="135" cy="123" r="0.3"/><circle cx="135" cy="119" r="0.3"/><circle cx="135" cy="115" r="0.3"/><circle cx="135" cy="127" r="0.3"/><circle cx="135" cy="131" r="0.3"/><circle cx="165" cy="119" r="0.3"/><circle cx="135" cy="111" r="0.3"/><circle cx="135" cy="107" r="0.3"/><circle cx="165" cy="107" r="0.3"/><circle cx="165" cy="103" r="0.3"/><circle cx="165" cy="99" r="0.3"/><circle cx="165" cy="95" r="0.3"/><circle cx="165" cy="79" r="0.3"/><circle cx="135" cy="79" r="0.3"/><circle cx="140" cy="101" r="0.3"/><circle cx="153" cy="115" r="0.3"/><circle cx="154" cy="111" r="0.3"/><circle cx="154" cy="129" r="0.3"/><circle cx="155.5" cy="129.5" r="0.3"/><circle cx="135" cy="93" r="0.3"/><circle cx="165" cy="93" r="0.3"/><circle cx="135" cy="89" r="0.3"/><circle cx="165" cy="89" r="0.3"/><circle cx="151" cy="99" r="0.3"/><circle cx="158" cy="94" r="0.3"/><circle cx="156.125" cy="103.875" r="0.3"/><circle cx="152.625" cy="107.5" r="0.3"/><circle cx="156" cy="107" r="0.3"/><circle cx="151" cy="107" r="0.3"/><circle cx="140.5" cy="137" r="0.3"/><circle cx="140.5" cy="73" r="0.3"/><circle cx="157" cy="135" r="0.3"/><circle cx="140.5" cy="132" r="0.3"/><circle cx="165" cy="133" r="0.3"/><circle cx="157.5" cy="123" r="0.3"/><circle cx="162.75" cy="126.25" r="0.3"/><circle cx="161.875" cy="108.25" r="0.3"/><circle cx="143" cy="86" r="0.375"/><circle cx="144" cy="83" r="0.3"/><circle cx="144" cy="87" r="0.3"/><circle cx="165" cy="86" r="0.3"/><circle cx="135" cy="87" r="0.3"/><circle cx="141" cy="79" r="0.3"/><circle cx="160" cy="79.875" r="0.3"/><circle cx="146.19" cy="92.3" r="0.8"/><circle cx="148.73" cy="92.3" r="0.8"/><circle cx="151.27" cy="92.3" r="0.8"/><circle cx="153.81" cy="92.3" r="0.8"/><circle cx="156.35" cy="92.3" r="0.8"/><circle cx="157.5" cy="119" r="0.3"/><circle cx="146.75" cy="123" r="0.3"/><circle cx="145.5" cy="122.5" r="0.3"/><circle cx="147" cy="121" r="0.3"/><circle cx="158.675" cy="120.45" r="0.3"/></g></g>
<g id="GBO"><g fill="none" stroke-linecap="round" stroke-linejoin="round"><path stroke-width="0.15" d="M145.465,94.715L145.715,94.715M145.84,94.465L145.84,94.903M145.34,94.903L145.34,94.465M145.84,94.903L145.652,95.215M145.652,95.215L145.527,95.215M145.527,95.215L145.34,94.903M145.09,95.215L144.84,94.465M144.84,94.465L144.59,95.215M144.34,95.215L144.34,94.465M144.34,95.215L143.965,95.215M143.965,95.215L143.84,95.09M143.84,95.09L143.84,94.965M143.84,94.965L143.965,94.84M143.965,94.84L144.215,94.84M143.84,94.465L143.965,94.84M143.09,94.465L142.715,94.465M142.715,94.465L142.59,94.59M142.59,94.59L142.59,95.09M142.59,95.09L142.715,95.215M142.715,95.215L143.09,95.215M143.09,95.028L143.09,94.465M142.34,94.465L141.965,94.465M141.965,94.465L141.84,94.59M141.84,94.59L141.84,95.09M141.84,95.09L141.965,95.215M141.965,95.215L142.34,95.215M142.34,95.028L142.34,94.465M140.84,94.59L140.715,94.465M140.715,94.465L140.465,94.465M140.465,94.465L140.34,94.59M140.34,94.59L140.34,95.09M140.34,95.09L140.465,95.215M140.465,95.215L140.715,95.215M140.715,95.215L140.84,95.09M140.84,95.09L140.84,94.965M140.84,94.965L140.715,94.84M140.715,94.84L140.527,94.84M140.09,95.215L139.84,94.465M139.84,94.465L139.59,95.215M145.84,97.755L145.84,97.005M145.34,97.755L145.34,97.005M145.465,97.38L145.715,97.38M145.09,97.755L144.84,97.005M144.84,97.005L144.59,97.755M143.34,97.63L143.465,97.755M143.465,97.755L143.715,97.755M143.715,97.755L143.84,97.63M143.84,97.63L143.84,97.505M143.84,97.505L143.34,97.255M143.34,97.255L143.34,97.13M143.34,97.13L143.465,97.005M143.465,97.005L143.715,97.005M143.715,97.005L143.84,97.13M143.09,97.755L143.09,97.005M143.09,97.005L142.59,97.005M142.715,97.38L142.965,97.38M143.09,97.755L142.59,97.755M142.34,97.755L142.34,97.005M142.34,97.005L141.84,97.005M141.59,97.755L141.59,97.005M141.59,97.005L141.09,97.005M141.215,97.38L141.465,97.38M141.59,97.755L141.09,97.755M140.34,97.63L140.465,97.755M140.465,97.755L140.715,97.755M140.715,97.755L140.84,97.63M140.84,97.63L140.84,97.13M140.84,97.13L140.715,97.005M140.715,97.005L140.465,97.005M140.465,97.005L140.34,97.13M140.09,97.755L139.59,97.755M139.84,97.755L139.84,97.005M135.875,97L135.875,96.75M135.875,97L135.25,97M135.25,97L135.125,96.875M135.125,96.875L135.125,96.625M135.125,96.625L135.25,96.5M135.25,96.5L135.375,96.5M135.875,97.25L135.125,97.25M135.875,97.625L135.75,97.75M135.75,97.75L135.625,97.75M135.625,97.75L135.5,97.625M135.5,97.625L135.5,97.375M135.875,97.25L135.875,97.625M135.125,98.375L135.125,98.125M135.125,98.25L135.875,98.25M135.75,98.125L135.875,98.25M145.606,88.41L145.606,88.59M145.748,88.458L145.748,88.542M145.5,88.625L145.875,88.5M145.5,88.375L145.5,88.625M145.875,88.5L145.5,88.375M164.84,118.394L164.66,118.394M164.792,118.252L164.708,118.252M164.625,118.5L164.75,118.125M164.875,118.5L164.625,118.5M164.75,118.125L164.875,118.5M156.1,90.645L156.225,90.77M156.225,90.77L156.475,90.77M156.475,90.77L156.6,90.645M156.6,90.645L156.6,90.145M156.6,90.145L156.475,90.02M156.475,90.02L156.225,90.02M156.225,90.02L156.1,90.145M156.1,90.145L156.1,90.27M156.1,90.27L156.225,90.395M156.225,90.395L156.412,90.395M153.685,90.02L153.685,90.77M153.935,90.77L154.06,90.27M154.06,90.27L153.56,90.27M151.145,90.02L151.395,90.02M151.27,90.02L151.27,90.77M151.395,90.645L151.27,90.77M148.98,90.145L148.855,90.02M148.855,90.02L148.605,90.02M148.605,90.02L148.48,90.145M148.48,90.145L148.48,90.27M148.48,90.27L148.605,90.395M148.605,90.395L148.48,90.52M148.48,90.52L148.48,90.645M148.48,90.645L148.605,90.77M148.605,90.77L148.855,90.77M148.855,90.77L148.98,90.645M148.605,90.395L148.73,90.395M145.94,90.145L145.94,90.02M145.94,90.02L146.44,90.02M146.44,90.02L146.44,90.145M146.44,90.145L145.94,90.52M145.94,90.52L145.94,90.645M145.94,90.645L146.065,90.77M146.065,90.77L146.315,90.77M146.315,90.77L146.44,90.645M143.9,90.77L143.9,90.52M143.9,90.52L143.525,90.52M143.525,90.52L143.4,90.395M143.4,90.395L143.4,90.145M143.4,90.145L143.525,90.02M143.525,90.02L143.775,90.02M143.775,90.02L143.9,90.145M143.4,90.77L143.9,90.77M142.472,91.01L142.346,91.137M142.539,91.144L142.479,91.203M142.246,91.087L142.599,91.263M142.422,90.91L142.246,91.087M142.599,91.263L142.422,90.91M153.56,83.795L153.56,83.67M153.56,83.67L154.06,83.67M154.06,83.67L154.06,83.795M154.06,83.795L153.56,84.17M153.56,84.17L153.56,84.295M153.56,84.295L153.685,84.42M153.685,84.42L153.935,84.42M153.935,84.42L154.06,84.295M151.145,83.67L151.145,84.42M151.395,84.42L151.52,83.92M151.52,83.92L151.02,83.92M148.48,84.295L148.605,84.42M148.605,84.42L148.855,84.42M148.855,84.42L148.98,84.295M148.98,84.295L148.98,83.795M148.98,83.795L148.855,83.67M148.855,83.67L148.605,83.67M148.605,83.67L148.48,83.795M148.48,83.795L148.48,83.92M148.48,83.92L148.605,84.045M148.605,84.045L148.792,84.045M153.685,86.528L153.935,86.528M153.81,86.528L153.81,87.278M153.935,87.153L153.81,87.278M151.52,86.653L151.395,86.528M151.395,86.528L151.145,86.528M151.145,86.528L151.02,86.653M151.02,86.653L151.02,86.778M151.02,86.778L151.145,86.903M151.145,86.903L151.02,87.028M151.02,87.028L151.02,87.153M151.02,87.153L151.145,87.278M151.145,87.278L151.395,87.278M151.395,87.278L151.52,87.153M151.145,86.903L151.27,86.903M148.98,87.278L148.98,87.028M148.98,87.028L148.605,87.028M148.605,87.028L148.48,86.903M148.48,86.903L148.48,86.653M148.48,86.653L148.605,86.528M148.605,86.528L148.855,86.528M148.855,86.528L148.98,86.653M148.48,87.278L148.98,87.278M157.5,83.25L157.25,83.25M157.25,83.25L157.25,83.625M157.25,83.625L157.125,83.75M157.125,83.75L156.875,83.75M156.875,83.75L156.75,83.625M156.75,83.625L156.75,83.375M156.75,83.375L156.875,83.25M157.5,83.75L157.5,83.25M157.5,84.75L156.75,84.75M157.5,84.75L157.5,85.125M157.5,85.125L157.375,85.25M157.375,85.25L157.25,85.25M157.25,85.25L157.125,85.125M157.125,85.125L157.125,84.875M156.75,85.25L157.125,85.125M157.375,86L157.5,85.875M157.5,85.875L157.5,85.625M157.5,85.625L157.375,85.5M157.375,85.5L157.25,85.5M157.25,85.5L157,86M157,86L156.875,86M156.875,86L156.75,85.875M156.75,85.875L156.75,85.625M156.75,85.625L156.875,85.5M157.5,86.25L157.5,86.75M157.5,86.5L156.75,86.5M158,83.625L158.75,83.625M158.75,83.375L158.25,83.25M158.25,83.25L158.25,83.75M158.75,84.75L158,84.75M158.75,85.25L158,85.25M158.375,85.125L158.375,84.875M158.75,85.5L158,85.5M158.75,85.5L158.75,85.875M158.75,85.875L158.625,86M158.625,86L158.5,86M158.5,86L158.375,85.875M158.375,85.875L158.375,85.625M158,86L158.375,85.875M158.625,86.75L158.75,86.625M158.75,86.625L158.75,86.375M158.75,86.375L158.625,86.25M158.625,86.25L158.125,86.25M158.125,86.25L158,86.375M158,86.375L158,86.625M158,86.625L158.125,86.75M158.75,87L158.75,87.5M158.75,87.25L158,87.25M159.375,83.25L159.25,83.375M159.25,83.375L159.25,83.625M159.25,83.625L159.375,83.75M159.375,83.75L159.5,83.75M159.5,83.75L159.625,83.625M159.625,83.625L159.75,83.75M159.75,83.75L159.875,83.75M159.875,83.75L160,83.625M160,83.625L160,83.375M160,83.375L159.875,83.25M159.625,83.625L159.625,83.5M160,84.75L159.25,84.75M160,85.25L159.25,85.25M159.625,85.125L159.625,84.875M160,85.5L160,86M160,85.75L159.25,85.75M159.875,86.75L160,86.625M160,86.625L160,86.375M160,86.375L159.875,86.25M159.875,86.25L159.375,86.25M159.375,86.25L159.25,86.375M159.25,86.375L159.25,86.625M159.25,86.625L159.375,86.75M160,87L159.25,87M160,87L160,87.375M160,87.375L159.875,87.5M159.875,87.5L159.75,87.5M159.75,87.5L159.625,87.375M159.625,87.375L159.625,87.125M159.25,87.5L159.625,87.375M160.625,83.75L160.5,83.75M160.5,83.75L160.5,83.25M160.5,83.25L160.625,83.25M160.625,83.25L161,83.75M161,83.75L161.125,83.75M161.125,83.75L161.25,83.625M161.25,83.625L161.25,83.375M161.25,83.375L161.125,83.25M161.25,84.75L160.5,85M160.5,85L161.25,85.25M161.125,86L161.25,85.875M161.25,85.875L161.25,85.625M161.25,85.625L161.125,85.5M161.125,85.5L160.625,85.5M160.625,85.5L160.5,85.625M160.5,85.625L160.5,85.875M160.5,85.875L160.625,86M161.125,86.75L161.25,86.625M161.25,86.625L161.25,86.375M161.25,86.375L161.125,86.25M161.125,86.25L160.625,86.25M160.625,86.25L160.5,86.375M160.5,86.375L160.5,86.625M160.5,86.625L160.625,86.75M161.75,83.625L161.75,83.375M161.75,83.5L162.5,83.5M162.375,83.375L162.5,83.5M162.5,84.75L161.875,84.75M161.875,84.75L161.75,84.875M161.75,84.875L161.75,85.125M161.75,85.125L161.875,85.25M161.875,85.25L162.5,85.25M162.5,85.5L161.75,85.5M162.5,85.875L162.375,86M162.375,86L162.25,86M162.25,86L162.125,85.875M162.125,85.875L162.125,85.625M162.5,85.5L162.5,85.875M161.75,86.25L161.75,86.625M161.75,86.625L161.875,86.75M161.875,86.75L162.375,86.75M162.375,86.75L162.5,86.625M162.5,86.625L162.5,86.25M162.313,86.25L161.75,86.25M162.5,87.125L162.5,87.375M161.75,87.375L161.75,87.125M162.5,87.25L161.75,87.25M156.125,83.75L156.25,83.625M156.25,83.625L156.25,83.375M156.25,83.375L156.125,83.25M156.125,83.25L155.625,83.25M155.625,83.25L155.5,83.375M155.5,83.375L155.5,83.625M155.5,83.625L155.625,83.75M155.625,83.75L155.75,83.75M155.75,83.75L155.875,83.625M155.875,83.625L155.875,83.438M156.125,85.25L156.25,85.125M156.25,85.125L156.25,84.875M156.25,84.875L156.125,84.75M156.125,84.75L155.625,84.75M155.625,84.75L155.5,84.875M155.5,85.25L155.875,85.25M155.875,85.25L155.875,85M155.5,84.875L155.5,85M156.25,85.5L155.5,85.5M156.25,85.5L155.5,86M155.5,86L156.25,86M155.5,86.25L155.5,86.625M155.5,86.625L155.625,86.75M155.625,86.75L156.125,86.75M156.125,86.75L156.25,86.625M156.25,86.625L156.25,86.25M156.063,86.25L155.5,86.25M138.35,101.17L138.35,93.59M138.35,93.59L136.25,93.59M136.25,93.59L136.25,101.17M136.25,101.17L138.35,101.17M144.875,87.5L144.875,88M144.875,87.75L144.125,87.75M144.875,88.25L144.125,88.25M144.875,88.625L144.75,88.75M144.75,88.75L144.625,88.75M144.625,88.75L144.5,88.625M144.5,88.625L144.5,88.375M144.875,88.25L144.875,88.625M144.125,89.375L144.125,89.125M144.125,89.25L144.875,89.25M144.75,89.125L144.875,89.25M135.875,94.578L135.625,94.578M135.625,94.578L135.625,94.953M135.625,94.953L135.5,95.078M135.5,95.078L135.25,95.078M135.25,95.078L135.125,94.953M135.125,94.953L135.125,94.703M135.125,94.703L135.25,94.578M135.875,95.078L135.875,94.578M135.125,100.045L135.125,99.795M135.125,99.92L135.875,99.92M135.75,99.795L135.875,99.92M164.375,109.5L164.375,109M164.375,109.25L165.125,109.25M164.375,108.75L165.125,108.75M164.375,108.375L164.5,108.25M164.5,108.25L164.625,108.25M164.625,108.25L164.75,108.375M164.75,108.375L164.75,108.625M164.375,108.75L164.375,108.375M165,107.5L165.125,107.5M165.125,107.5L165.125,108M165.125,108L165,108M165,108L164.625,107.5M164.625,107.5L164.5,107.5M164.5,107.5L164.375,107.625M164.375,107.625L164.375,107.875M164.375,107.875L164.5,108M162.625,116.125L163.25,116.125M163.25,116.125L163.375,116M163.375,116L163.375,115.75M163.375,115.75L163.25,115.625M163.25,115.625L162.625,115.625M162.625,115.375L163.375,115.375M162.625,115L162.75,114.875M162.75,114.875L162.875,114.875M162.875,114.875L163,115M163,115L163,115.25M162.625,115.375L162.625,115M163.375,114.625L163.375,114.25M163.375,114.25L163.25,114.125M163.25,114.125L162.75,114.125M162.75,114.125L162.625,114.25M162.625,114.25L162.625,114.625M162.812,114.625L163.375,114.625M163.125,113.5L163.125,113.75M163.375,113.875L162.937,113.875M162.937,113.375L163.375,113.375M162.937,113.875L162.625,113.687M162.625,113.687L162.625,113.562M162.625,113.562L162.937,113.375M162.625,113.125L162.625,112.625M162.625,112.875L163.375,112.875M162.625,112.375L163.375,112.375M163.375,112.375L163.375,111.875M163,112L163,112.25M162.625,112.375L162.625,111.875M145.34,100.045L145.34,99.795M144.84,100.045L144.84,99.545M144.59,99.545L144.59,99.983M144.09,99.983L144.09,99.545M144.59,99.983L144.402,100.295M144.277,100.295L144.09,99.983M143.84,100.295L143.59,99.545M143.59,99.545L143.34,100.295M143.09,100.295L143.09,99.545M142.715,100.295L142.59,100.17M142.59,100.17L142.59,100.045M142.59,100.045L142.715,99.92M141.34,99.545L141.34,100.295M141.465,100.17L141.34,100.295M140.84,99.67L140.34,100.045M140.34,100.045L140.34,100.17M140.34,100.17L140.465,100.295M140.715,100.295L140.84,100.17M140.09,100.295L139.84,99.545M139.84,99.545L139.59,100.295M146.965,100.045L146.59,100.045M146.84,100.295L146.84,99.67M146.84,99.67L146.715,99.545M146.34,100.045L146.34,99.545M146.715,99.545L146.59,99.545M146.09,100.045L146.09,99.545M145.715,100.045L145.59,99.92M145.59,99.92L145.59,99.545M145.84,100.045L145.715,100.045M146.09,99.92L145.84,100.045M145.34,99.795L145.215,99.67M145.215,99.67L145.09,99.67M144.84,99.545L145.09,99.42M145.09,99.67L144.84,99.795M145.34,99.42L145.09,99.42M144.215,99.795L144.465,99.795M144.402,100.295L144.277,100.295M143.09,100.295L142.715,100.295M142.715,99.92L142.965,99.92M142.59,99.545L142.715,99.92M141.215,99.545L141.465,99.545M140.34,99.545L140.84,99.545M140.84,99.545L140.84,99.67M140.34,99.67L140.34,99.545M140.465,100.295L140.715,100.295M146.9,133.2L146.7,133.2M146.9,133.2L146.9,133.7M146.9,133.7L146.8,133.8M146.8,133.8L146.6,133.8M146.6,133.8L146.5,133.7M146.5,133.7L146.5,133.6M147.1,133.2L147.1,133.8M147.1,133.8L147.5,133.8M148.1,133.3L148,133.2M148,133.2L147.8,133.2M147.8,133.2L147.7,133.3M147.7,133.3L147.7,133.7M147.7,133.7L147.8,133.8M147.8,133.8L148,133.8M148,133.8L148.1,133.7M148.7,133.2L148.5,133.2M148.7,133.2L148.7,133.7M148.7,133.7L148.6,133.8M148.6,133.8L148.4,133.8M148.4,133.8L148.3,133.7M148.3,133.7L148.3,133.6M148.9,133.2L148.9,133.8M148.9,133.8L149.3,133.8M149.9,133.3L149.8,133.2M149.8,133.2L149.6,133.2M149.6,133.2L149.5,133.3M149.5,133.3L149.5,133.7M149.5,133.7L149.6,133.8M149.6,133.8L149.8,133.8M149.8,133.8L149.9,133.7M150.5,133.2L150.3,133.2M150.5,133.2L150.5,133.7M150.5,133.7L150.4,133.8M150.4,133.8L150.2,133.8M150.2,133.8L150.1,133.7M150.1,133.7L150.1,133.6M150.7,133.2L150.7,133.8M150.7,133.8L151.1,133.8M151.7,133.3L151.6,133.2M151.6,133.2L151.4,133.2M151.4,133.2L151.3,133.3M151.3,133.3L151.3,133.7M151.3,133.7L151.4,133.8M151.4,133.8L151.6,133.8M151.6,133.8L151.7,133.7M152.3,133.2L152.1,133.2M152.3,133.2L152.3,133.7M152.3,133.7L152.2,133.8M152.2,133.8L152,133.8M152,133.8L151.9,133.7M151.9,133.7L151.9,133.6M152.5,133.2L152.5,133.8M152.5,133.8L152.9,133.8M153.5,133.3L153.4,133.2M153.4,133.2L153.2,133.2M153.2,133.2L153.1,133.3M153.1,133.3L153.1,133.7M153.1,133.7L153.2,133.8M153.2,133.8L153.4,133.8M153.4,133.8L153.5,133.7"/><path stroke-width="0.2" d="M146.19,86.585L146.19,81.505M142.38,92.3L142.38,93.57M142.38,93.57L157.62,93.57M157.62,93.57L157.62,91.03M157.62,91.03L143.65,91.03M150.635,86.585L149.365,86.585M153.175,86.585L151.905,86.585M153.81,84.998L153.81,85.95M153.81,81.505L153.81,83.093M146.19,86.585L148.095,86.585M146.19,81.505L153.81,81.505M140.3,135A2.8,2.8,0,1,0,134.7,135M134.7,135A2.8,2.8,0,1,0,140.3,135M140.3,75A2.8,2.8,0,1,0,134.7,75M134.7,75A2.8,2.8,0,1,0,140.3,75M165.3,75A2.8,2.8,0,1,0,159.7,75M159.7,75A2.8,2.8,0,1,0,165.3,75M165.3,135A2.8,2.8,0,1,0,159.7,135M159.7,135A2.8,2.8,0,1,0,165.3,135"/><path stroke-width="0.125" d="M141.415,94.966A0.075,0.075,0,1,0,141.266,94.966M141.266,94.966A0.075,0.075,0,1,0,141.415,94.966M141.415,94.59A0.075,0.075,0,1,0,141.266,94.59M141.266,94.59A0.075,0.075,0,1,0,141.415,94.59M157.325,84.25A0.075,0.075,0,1,0,157.176,84.25M157.176,84.25A0.075,0.075,0,1,0,157.325,84.25M156.95,84.25A0.075,0.075,0,1,0,156.8,84.25M156.8,84.25A0.075,0.075,0,1,0,156.95,84.25M158.575,84.25A0.075,0.075,0,1,0,158.426,84.25M158.426,84.25A0.075,0.075,0,1,0,158.575,84.25M158.2,84.25A0.075,0.075,0,1,0,158.05,84.25M158.05,84.25A0.075,0.075,0,1,0,158.2,84.25M159.825,84.25A0.075,0.075,0,1,0,159.676,84.25M159.676,84.25A0.075,0.075,0,1,0,159.825,84.25M159.45,84.25A0.075,0.075,0,1,0,159.3,84.25M159.3,84.25A0.075,0.075,0,1,0,159.45,84.25M161.075,84.25A0.075,0.075,0,1,0,160.926,84.25M160.926,84.25A0.075,0.075,0,1,0,161.075,84.25M160.7,84.25A0.075,0.075,0,1,0,160.55,84.25M160.55,84.25A0.075,0.075,0,1,0,160.7,84.25M162.325,84.25A0.075,0.075,0,1,0,162.176,84.25M162.176,84.25A0.075,0.075,0,1,0,162.325,84.25M161.95,84.25A0.075,0.075,0,1,0,161.8,84.25M161.8,84.25A0.075,0.075,0,1,0,161.95,84.25M156.075,84.25A0.075,0.075,0,1,0,155.926,84.25M155.926,84.25A0.075,0.075,0,1,0,156.075,84.25M155.7,84.25A0.075,0.075,0,1,0,155.55,84.25M155.55,84.25A0.075,0.075,0,1,0,155.7,84.25M142.165,100.046A0.075,0.075,0,1,0,142.016,100.046M142.016,100.046A0.075,0.075,0,1,0,142.165,100.046M142.165,99.67A0.075,0.075,0,1,0,142.016,99.67M142.016,99.67A0.075,0.075,0,1,0,142.165,99.67"/></g><g stroke="none"><circle cx="143" cy="85" r="0.375"/><circle cx="146.34" cy="100.295" r="0.075"/></g></g>
<g id="GBS"><g fill="none" stroke-linecap="round" stroke-linejoin="round"><path stroke-width="0.1" d="M151.74,86.115L153.34,86.115M153.34,86.115L153.34,84.515M153.34,84.515L151.74,84.515M151.74,84.515L151.74,86.115M151.74,86.02L153.34,86.02M151.74,85.925L153.34,85.925M151.74,85.83L153.34,85.83M151.74,85.735L153.34,85.735M151.74,85.64L153.34,85.64M151.74,85.545L153.34,85.545M151.74,85.45L153.34,85.45M151.74,85.355L153.34,85.355M151.74,85.26L153.34,85.26M151.74,85.165L153.34,85.165M151.74,85.07L153.34,85.07M151.74,84.975L153.34,84.975M151.74,84.88L153.34,84.88M151.74,84.785L153.34,84.785M151.74,84.69L153.34,84.69M151.74,84.595L153.34,84.595M136.5,99.12L136.5,100.72M136.5,100.72L138.1,100.72M138.1,100.72L138.1,99.12M138.1,99.12L136.5,99.12M136.595,99.12L136.595,100.72M136.69,99.12L136.69,100.72M136.785,99.12L136.785,100.72M136.88,99.12L136.88,100.72M136.975,99.12L136.975,100.72M137.07,99.12L137.07,100.72M137.165,99.12L137.165,100.72M137.26,99.12L137.26,100.72M137.355,99.12L137.355,100.72M137.45,99.12L137.45,100.72M137.545,99.12L137.545,100.72M137.64,99.12L137.64,100.72M137.735,99.12L137.735,100.72M137.83,99.12L137.83,100.72M137.925,99.12L137.925,100.72M138.02,99.12L138.02,100.72M142.85,93.1L144.45,93.1M144.45,93.1L144.45,91.5M144.45,91.5L142.85,91.5M142.85,91.5L142.85,93.1M142.85,93.005L144.45,93.005M142.85,92.91L144.45,92.91M142.85,92.815L144.45,92.815M142.85,92.72L144.45,92.72M142.85,92.625L144.45,92.625M142.85,92.53L144.45,92.53M142.85,92.435L144.45,92.435M142.85,92.34L144.45,92.34M142.85,92.245L144.45,92.245M142.85,92.15L144.45,92.15M142.85,92.055L144.45,92.055M142.85,91.96L144.45,91.96M142.85,91.865L144.45,91.865M142.85,91.77L144.45,91.77M142.85,91.675L144.45,91.675M142.85,91.58L144.45,91.58"/><path stroke-width="1.3" d="M154.32,135.8L154.32,135M145.68,135.8L145.68,135M145.68,131.72L145.68,130.62M154.32,131.72L154.32,130.62"/></g><g stroke="none"><circle cx="152.54" cy="82.775" r="0.85"/><circle cx="150" cy="85.315" r="0.85"/><circle cx="150" cy="82.775" r="0.85"/><circle cx="147.46" cy="85.315" r="0.85"/><circle cx="147.46" cy="82.775" r="0.85"/><circle cx="149.365" cy="88.49" r="0.5"/><circle cx="150.635" cy="88.49" r="0.5"/><circle cx="151.905" cy="88.49" r="0.5"/><circle cx="146.825" cy="88.49" r="0.5"/><circle cx="148.095" cy="88.49" r="0.5"/><circle cx="153.175" cy="88.49" r="0.5"/><circle cx="164.75" cy="114.635" r="0.5"/><circle cx="164.75" cy="113.365" r="0.5"/><circle cx="164.75" cy="112.095" r="0.5"/><circle cx="164.75" cy="117.175" r="0.5"/><circle cx="164.75" cy="115.905" r="0.5"/><circle cx="164.75" cy="110.825" r="0.5"/><circle cx="137.3" cy="94.84" r="0.85"/><circle cx="137.3" cy="97.38" r="0.85"/><circle cx="137.5" cy="135" r="1.85"/><circle cx="162.5" cy="135" r="1.85"/><circle cx="137.5" cy="75" r="1.85"/><circle cx="162.5" cy="75" r="1.85"/><circle cx="141" cy="77" r="0.65"/><circle cx="159" cy="73.5" r="0.65"/><circle cx="158.5" cy="136" r="0.65"/><circle cx="143" cy="84" r="0.375"/><circle cx="152.89" cy="131.72" r="0.4"/><circle cx="147.11" cy="131.72" r="0.4"/><circle cx="146.19" cy="92.3" r="0.85"/><circle cx="148.73" cy="92.3" r="0.85"/><circle cx="151.27" cy="92.3" r="0.85"/><circle cx="153.81" cy="92.3" r="0.85"/><circle cx="156.35" cy="92.3" r="0.85"/></g></g>
<mask id="GBM"><use xlink:href="#GBS" class="mask"/></mask>
<mask id="GBN"><use xlink:href="#FIL" class="mask"/><use xlink:href="#GBS" class="black"/></mask>
<g id="DRL"><g class="pad"><circle cx="154.32" cy="130.62" r="0.3"/><circle cx="154.32" cy="130.72" r="0.3"/><circle cx="154.32" cy="130.82" r="0.3"/><circle cx="154.32" cy="130.92" r="0.3"/><circle cx="154.32" cy="131.02" r="0.3"/><circle cx="154.32" cy="131.12" r="0.3"/><circle cx="154.32" cy="131.22" r="0.3"/><circle cx="154.32" cy="131.32" r="0.3"/><circle cx="154.32" cy="131.42" r="0.3"/><circle cx="154.32" cy="131.52" r="0.3"/><circle cx="154.32" cy="131.62" r="0.3"/><circle cx="154.32" cy="131.72" r="0.3"/><circle cx="145.68" cy="130.62" r="0.3"/><circle cx="145.68" cy="130.72" r="0.3"/><circle cx="145.68" cy="130.82" r="0.3"/><circle cx="145.68" cy="130.92" r="0.3"/><circle cx="145.68" cy="131.02" r="0.3"/><circle cx="145.68" cy="131.12" r="0.3"/><circle cx="145.68" cy="131.22" r="0.3"/><circle cx="145.68" cy="131.32" r="0.3"/><circle cx="145.68" cy="131.42" r="0.3"/><circle cx="145.68" cy="131.52" r="0.3"/><circle cx="145.68" cy="131.62" r="0.3"/><circle cx="145.68" cy="131.72" r="0.3"/><circle cx="145.68" cy="135" r="0.3"/><circle cx="145.68" cy="135.1" r="0.3"/><circle cx="145.68" cy="135.2" r="0.3"/><circle cx="145.68" cy="135.3" r="0.3"/><circle cx="145.68" cy="135.4" r="0.3"/><circle cx="145.68" cy="135.5" r="0.3"/><circle cx="145.68" cy="135.6" r="0.3"/><circle cx="145.68" cy="135.7" r="0.3"/><circle cx="145.68" cy="135.8" r="0.3"/><circle cx="154.32" cy="135" r="0.3"/><circle cx="154.32" cy="135.1" r="0.3"/><circle cx="154.32" cy="135.2" r="0.3"/><circle cx="154.32" cy="135.3" r="0.3"/><circle cx="154.32" cy="135.4" r="0.3"/><circle cx="154.32" cy="135.5" r="0.3"/><circle cx="154.32" cy="135.6" r="0.3"/><circle cx="154.32" cy="135.7" r="0.3"/><circle cx="154.32" cy="135.8" r="0.3"/><circle cx="147.11" cy="131.72" r="0.35"/><circle cx="152.89" cy="131.72" r="0.35"/><circle cx="156.35" cy="92.3" r="0.4"/><circle cx="153.81" cy="92.3" r="0.4"/><circle cx="151.27" cy="92.3" r="0.4"/><circle cx="148.73" cy="92.3" r="0.4"/><circle cx="146.19" cy="92.3" r="0.4"/><circle cx="143.65" cy="92.3" r="0.4"/><circle cx="137.3" cy="97.38" r="0.4"/><circle cx="137.3" cy="94.84" r="0.4"/><circle cx="137.3" cy="99.92" r="0.4"/><circle cx="164.75" cy="110.825" r="0.4"/><circle cx="164.75" cy="115.905" r="0.4"/><circle cx="164.75" cy="117.175" r="0.4"/><circle cx="164.75" cy="112.095" r="0.4"/><circle cx="164.75" cy="113.365" r="0.4"/><circle cx="164.75" cy="114.635" r="0.4"/><circle cx="153.175" cy="88.49" r="0.4"/><circle cx="148.095" cy="88.49" r="0.4"/><circle cx="146.825" cy="88.49" r="0.4"/><circle cx="151.905" cy="88.49" r="0.4"/><circle cx="150.635" cy="88.49" r="0.4"/><circle cx="149.365" cy="88.49" r="0.4"/><circle cx="147.46" cy="82.775" r="0.4"/><circle cx="147.46" cy="85.315" r="0.4"/><circle cx="150" cy="82.775" r="0.4"/><circle cx="150" cy="85.315" r="0.4"/><circle cx="152.54" cy="82.775" r="0.4"/><circle cx="152.54" cy="85.315" r="0.4"/><circle cx="158.5" cy="136" r="0.576"/><circle cx="159" cy="73.5" r="0.576"/><circle cx="141" cy="77" r="0.576"/><circle cx="162.5" cy="75" r="1.6"/><circle cx="137.5" cy="75" r="1.6"/><circle cx="162.5" cy="135" r="1.6"/><circle cx="137.5" cy="135" r="1.6"/></g><g class="via"><circle cx="158.675" cy="120.45" r="0.15"/><circle cx="147" cy="121" r="0.15"/><circle cx="145.5" cy="122.5" r="0.15"/><circle cx="146.75" cy="123" r="0.15"/><circle cx="157.5" cy="119" r="0.15"/><circle cx="160" cy="79.875" r="0.15"/><circle cx="141" cy="79" r="0.15"/><circle cx="135" cy="87" r="0.15"/><circle cx="165" cy="86" r="0.15"/><circle cx="144" cy="87" r="0.15"/><circle cx="144" cy="83" r="0.15"/><circle cx="161.875" cy="108.25" r="0.15"/><circle cx="162.75" cy="126.25" r="0.15"/><circle cx="157.5" cy="123" r="0.15"/><circle cx="165" cy="133" r="0.15"/><circle cx="140.5" cy="132" r="0.15"/><circle cx="157" cy="135" r="0.15"/><circle cx="140.5" cy="73" r="0.15"/><circle cx="140.5" cy="137" r="0.15"/><circle cx="151" cy="107" r="0.15"/><circle cx="156" cy="107" r="0.15"/><circle cx="152.625" cy="107.5" r="0.15"/><circle cx="156.125" cy="103.875" r="0.15"/><circle cx="158" cy="94" r="0.15"/><circle cx="151" cy="99" r="0.15"/><circle cx="165" cy="89" r="0.15"/><circle cx="135" cy="89" r="0.15"/><circle cx="165" cy="93" r="0.15"/><circle cx="135" cy="93" r="0.15"/><circle cx="155.5" cy="129.5" r="0.15"/><circle cx="154" cy="129" r="0.15"/><circle cx="154" cy="111" r="0.15"/><circle cx="153" cy="115" r="0.15"/><circle cx="140" cy="101" r="0.15"/><circle cx="135" cy="79" r="0.15"/><circle cx="165" cy="79" r="0.15"/><circle cx="165" cy="95" r="0.15"/><circle cx="165" cy="99" r="0.15"/><circle cx="165" cy="103" r="0.15"/><circle cx="165" cy="107" r="0.15"/><circle cx="135" cy="107" r="0.15"/><circle cx="135" cy="111" r="0.15"/><circle cx="165" cy="119" r="0.15"/><circle cx="135" cy="131" r="0.15"/><circle cx="135" cy="127" r="0.15"/><circle cx="135" cy="115" r="0.15"/><circle cx="135" cy="119" r="0.15"/><circle cx="135" cy="123" r="0.15"/><circle cx="165" cy="123" r="0.15"/><circle cx="142" cy="107" r="0.15"/><circle cx="138" cy="103" r="0.15"/><circle cx="142" cy="103" r="0.15"/><circle cx="146" cy="107" r="0.15"/><circle cx="146" cy="103" r="0.15"/><circle cx="144" cy="101" r="0.15"/><circle cx="146" cy="99" r="0.15"/><circle cx="158" cy="91" r="0.15"/><circle cx="158" cy="83" r="0.15"/><circle cx="160" cy="77" r="0.15"/><circle cx="160" cy="137" r="0.15"/><circle cx="144" cy="121" r="0.15"/><circle cx="152" cy="125" r="0.15"/><circle cx="148" cy="125" r="0.15"/><circle cx="142" cy="131" r="0.15"/><circle cx="150" cy="135" r="0.15"/><circle cx="148" cy="137" r="0.15"/><circle cx="152" cy="137" r="0.15"/><circle cx="148.145" cy="105.36" r="0.15"/><circle cx="155.25" cy="108.125" r="0.15"/><circle cx="148.25" cy="110" r="0.15"/><circle cx="150.8" cy="118.75" r="0.15"/><circle cx="137.25" cy="92.125" r="0.15"/><circle cx="159.179" cy="115.8" r="0.15"/><circle cx="155.25" cy="111" r="0.15"/><circle cx="137.5" cy="119.5" r="0.15"/><circle cx="136.625" cy="118.5" r="0.15"/><circle cx="148.095" cy="97" r="0.15"/><circle cx="162.75" cy="92.125" r="0.15"/><circle cx="162" cy="111.5" r="0.15"/><circle cx="162.45" cy="113.1" r="0.15"/><circle cx="162.45" cy="113.95" r="0.15"/></g></g>
</defs>
<!-- Rendering View Port -->
<g transform="scale(-1,-1)" clip-path="url(#BOARD)">
<g><use xlink:href="#FIL" class="regist"/>
<use xlink:href="#GBL" class="cover"/></g>
<g mask="url(#GBM)"><use xlink:href="#FIL" class="board"/>
<use xlink:href="#GBL" class="plate"/></g>
<g mask="url(#GBN)"><use xlink:href="#GBO" class="silk"/></g>
<use xlink:href="#DRL" class="drill"/>
<use xlink:href="#OUT" stroke="gray" stroke-width="0.05" fill="none"/>
</g>
<!-- Parts Preview -->
<g transform="scale(-1,-1)" stroke-linecap="round" stroke-linejoin="round" stroke="gray" fill="gray" stroke-width="0.05">
</g>
</svg>
