<?xml version="1.0" standalone="no"?>
<svg width="401.575" height="803.15"  viewBox="-167 -139 34 68" xmlns="http://www.w3.org/2000/svg" xmlns:xlink="http://www.w3.org/1999/xlink" version="1.1">
<style>
text{stroke:none;font-weight:bold;font-family:"Consolas","Courier New",monospace;}
g.symbol{visibility:hidden;}g.footprint{stroke:black;}
.DRL{stroke:silver;fill:none;stroke-width:0.05;}
.via{visibility:hidden;}
.black{stroke:black;fill:black;}
.mask{stroke:white;fill:white;}
</style>
<!-- Symbol and Parts Libraries Description -->
<defs>
<!-- Gerber Layer -->
<clipPath id="BOARD" clip-rule="evenodd"><path stroke="none" fill-rule="evenodd" d="M164.5,138A1.5,1.5,0,0,0,166,136.5L166,73.5A1.5,1.5,0,0,0,164.5,72L157.61,72L157.61,80.5A1,1,0,0,1,155.642,80.75L144.358,80.75A1,1,0,0,1,142.39,80.5L142.39,72L135.5,72A1.5,1.5,0,0,0,134,73.5L134,136.5A1.5,1.5,0,0,0,135.5,138L164.5,138Z"/></clipPath>
<g id="OUT" stroke-linecap="round" stroke-linejoin="round"><path d="M164.5,138A1.5,1.5,0,0,0,166,136.5L166,73.5A1.5,1.5,0,0,0,164.5,72L157.61,72L157.61,80.5A1,1,0,0,1,155.642,80.75L144.358,80.75A1,1,0,0,1,142.39,80.5L142.39,72L135.5,72A1.5,1.5,0,0,0,134,73.5L134,136.5A1.5,1.5,0,0,0,135.5,138L164.5,138Z"/></g>
<rect id="FIL" x="134" y="72" width="32" height="66"/>
<g id="DRL"><g class="pad"><circle cx="154.32" cy="130.62" r="0.3"/><circle cx="154.32" cy="130.72" r="0.3"/><circle cx="154.32" cy="130.82" r="0.3"/><circle cx="154.32" cy="130.92" r="0.3"/><circle cx="154.32" cy="131.02" r="0.3"/><circle cx="154.32" cy="131.12" r="0.3"/><circle cx="154.32" cy="131.22" r="0.3"/><circle cx="154.32" cy="131.32" r="0.3"/><circle cx="154.32" cy="131.42" r="0.3"/><circle cx="154.32" cy="131.52" r="0.3"/><circle cx="154.32" cy="131.62" r="0.3"/><circle cx="154.32" cy="131.72" r="0.3"/><circle cx="145.68" cy="130.62" r="0.3"/><circle cx="145.68" cy="130.72" r="0.3"/><circle cx="145.68" cy="130.82" r="0.3"/><circle cx="145.68" cy="130.92" r="0.3"/><circle cx="145.68" cy="131.02" r="0.3"/><circle cx="145.68" cy="131.12" r="0.3"/><circle cx="145.68" cy="131.22" r="0.3"/><circle cx="145.68" cy="131.32" r="0.3"/><circle cx="145.68" cy="131.42" r="0.3"/><circle cx="145.68" cy="131.52" r="0.3"/><circle cx="145.68" cy="131.62" r="0.3"/><circle cx="145.68" cy="131.72" r="0.3"/><circle cx="145.68" cy="135" r="0.3"/><circle cx="145.68" cy="135.1" r="0.3"/><circle cx="145.68" cy="135.2" r="0.3"/><circle cx="145.68" cy="135.3" r="0.3"/><circle cx="145.68" cy="135.4" r="0.3"/><circle cx="145.68" cy="135.5" r="0.3"/><circle cx="145.68" cy="135.6" r="0.3"/><circle cx="145.68" cy="135.7" r="0.3"/><circle cx="145.68" cy="135.8" r="0.3"/><circle cx="154.32" cy="135" r="0.3"/><circle cx="154.32" cy="135.1" r="0.3"/><circle cx="154.32" cy="135.2" r="0.3"/><circle cx="154.32" cy="135.3" r="0.3"/><circle cx="154.32" cy="135.4" r="0.3"/><circle cx="154.32" cy="135.5" r="0.3"/><circle cx="154.32" cy="135.6" r="0.3"/><circle cx="154.32" cy="135.7" r="0.3"/><circle cx="154.32" cy="135.8" r="0.3"/><circle cx="147.11" cy="131.72" r="0.35"/><circle cx="152.89" cy="131.72" r="0.35"/><circle cx="156.35" cy="92.3" r="0.4"/><circle cx="153.81" cy="92.3" r="0.4"/><circle cx="151.27" cy="92.3" r="0.4"/><circle cx="148.73" cy="92.3" r="0.4"/><circle cx="146.19" cy="92.3" r="0.4"/><circle cx="143.65" cy="92.3" r="0.4"/><circle cx="137.3" cy="97.38" r="0.4"/><circle cx="137.3" cy="94.84" r="0.4"/><circle cx="137.3" cy="99.92" r="0.4"/><circle cx="164.75" cy="110.825" r="0.4"/><circle cx="164.75" cy="115.905" r="0.4"/><circle cx="164.75" cy="117.175" r="0.4"/><circle cx="164.75" cy="112.095" r="0.4"/><circle cx="164.75" cy="113.365" r="0.4"/><circle cx="164.75" cy="114.635" r="0.4"/><circle cx="153.175" cy="88.49" r="0.4"/><circle cx="148.095" cy="88.49" r="0.4"/><circle cx="146.825" cy="88.49" r="0.4"/><circle cx="151.905" cy="88.49" r="0.4"/><circle cx="150.635" cy="88.49" r="0.4"/><circle cx="149.365" cy="88.49" r="0.4"/><circle cx="147.46" cy="82.775" r="0.4"/><circle cx="147.46" cy="85.315" r="0.4"/><circle cx="150" cy="82.775" r="0.4"/><circle cx="150" cy="85.315" r="0.4"/><circle cx="152.54" cy="82.775" r="0.4"/><circle cx="152.54" cy="85.315" r="0.4"/><circle cx="158.5" cy="136" r="0.576"/><circle cx="159" cy="73.5" r="0.576"/><circle cx="141" cy="77" r="0.576"/><circle cx="162.5" cy="75" r="1.6"/><circle cx="137.5" cy="75" r="1.6"/><circle cx="162.5" cy="135" r="1.6"/><circle cx="137.5" cy="135" r="1.6"/></g><g class="via"><circle cx="158.675" cy="120.45" r="0.15"/><circle cx="147" cy="121" r="0.15"/><circle cx="145.5" cy="122.5" r="0.15"/><circle cx="146.75" cy="123" r="0.15"/><circle cx="157.5" cy="119" r="0.15"/><circle cx="160" cy="79.875" r="0.15"/><circle cx="141" cy="79" r="0.15"/><circle cx="135" cy="87" r="0.15"/><circle cx="165" cy="86" r="0.15"/><circle cx="144" cy="87" r="0.15"/><circle cx="144" cy="83" r="0.15"/><circle cx="161.875" cy="108.25" r="0.15"/><circle cx="162.75" cy="126.25" r="0.15"/><circle cx="157.5" cy="123" r="0.15"/><circle cx="165" cy="133" r="0.15"/><circle cx="140.5" cy="132" r="0.15"/><circle cx="157" cy="135" r="0.15"/><circle cx="140.5" cy="73" r="0.15"/><circle cx="140.5" cy="137" r="0.15"/><circle cx="151" cy="107" r="0.15"/><circle cx="156" cy="107" r="0.15"/><circle cx="152.625" cy="107.5" r="0.15"/><circle cx="156.125" cy="103.875" r="0.15"/><circle cx="158" cy="94" r="0.15"/><circle cx="151" cy="99" r="0.15"/><circle cx="165" cy="89" r="0.15"/><circle cx="135" cy="89" r="0.15"/><circle cx="165" cy="93" r="0.15"/><circle cx="135" cy="93" r="0.15"/><circle cx="155.5" cy="129.5" r="0.15"/><circle cx="154" cy="129" r="0.15"/><circle cx="154" cy="111" r="0.15"/><circle cx="153" cy="115" r="0.15"/><circle cx="140" cy="101" r="0.15"/><circle cx="135" cy="79" r="0.15"/><circle cx="165" cy="79" r="0.15"/><circle cx="165" cy="95" r="0.15"/><circle cx="165" cy="99" r="0.15"/><circle cx="165" cy="103" r="0.15"/><circle cx="165" cy="107" r="0.15"/><circle cx="135" cy="107" r="0.15"/><circle cx="135" cy="111" r="0.15"/><circle cx="165" cy="119" r="0.15"/><circle cx="135" cy="131" r="0.15"/><circle cx="135" cy="127" r="0.15"/><circle cx="135" cy="115" r="0.15"/><circle cx="135" cy="119" r="0.15"/><circle cx="135" cy="123" r="0.15"/><circle cx="165" cy="123" r="0.15"/><circle cx="142" cy="107" r="0.15"/><circle cx="138" cy="103" r="0.15"/><circle cx="142" cy="103" r="0.15"/><circle cx="146" cy="107" r="0.15"/><circle cx="146" cy="103" r="0.15"/><circle cx="144" cy="101" r="0.15"/><circle cx="146" cy="99" r="0.15"/><circle cx="158" cy="91" r="0.15"/><circle cx="158" cy="83" r="0.15"/><circle cx="160" cy="77" r="0.15"/><circle cx="160" cy="137" r="0.15"/><circle cx="144" cy="121" r="0.15"/><circle cx="152" cy="125" r="0.15"/><circle cx="148" cy="125" r="0.15"/><circle cx="142" cy="131" r="0.15"/><circle cx="150" cy="135" r="0.15"/><circle cx="148" cy="137" r="0.15"/><circle cx="152" cy="137" r="0.15"/><circle cx="148.145" cy="105.36" r="0.15"/><circle cx="155.25" cy="108.125" r="0.15"/><circle cx="148.25" cy="110" r="0.15"/><circle cx="150.8" cy="118.75" r="0.15"/><circle cx="137.25" cy="92.125" r="0.15"/><circle cx="159.179" cy="115.8" r="0.15"/><circle cx="155.25" cy="111" r="0.15"/><circle cx="137.5" cy="119.5" r="0.15"/><circle cx="136.625" cy="118.5" r="0.15"/><circle cx="148.095" cy="97" r="0.15"/><circle cx="162.75" cy="92.125" r="0.15"/><circle cx="162" cy="111.5" r="0.15"/><circle cx="162.45" cy="113.1" r="0.15"/><circle cx="162.45" cy="113.95" r="0.15"/></g></g>
</defs>
<!-- Rendering View Port -->
<g transform="scale(-1,-1)" clip-path="url(#BOARD)">
<use xlink:href="#DRL" class="DRL"/>
<use xlink:href="#OUT" stroke="gray" stroke-width="0.05" fill="none"/>
</g>
<!-- Parts Preview -->
<g transform="scale(-1,-1)" stroke-linecap="round" stroke-linejoin="round" stroke="gray" fill="gray" stroke-width="0.05">
<use xlink:href="#DRL" class="DRL"/>
</g>
</svg>
