<?xml version="1.0" standalone="no"?>
<svg width="401.575" height="803.15"  viewBox="133 -139 34 68" xmlns="http://www.w3.org/2000/svg" xmlns:xlink="http://www.w3.org/1999/xlink" version="1.1">
<style>
text{stroke:none;font-weight:bold;font-family:"Consolas","Courier New",monospace;}
g.symbol{visibility:hidden;}g.footprint{stroke:black;}
.DRL{stroke:silver;fill:none;stroke-width:0.05;}
.via{visibility:hidden;}
.black{stroke:black;fill:black;}
.mask{stroke:white;fill:white;}
</style>
<!-- Symbol and Parts Libraries Description -->
<defs>
<g id="5077CR"><g class="footprint"><g stroke-width="0.05" fill="none"><circle cx="-3.2" cy="2.7" r="0.25"/></g><path fill="none" d="M-4.52,2.4L4.52,2.4M-4.52,-5.05L-4.52,2.4M4.52,-5.05L4.52,2.4M-4.52,-5.05L4.52,-5.05M-5,-4L5,-4M0,0"/><g stroke-width="0.02" fill="none"><rect transform="translate(3.2,2.7),rotate(90)" x="-0.95" y="-0.35" width="1.9" height="0.7"/><rect transform="translate(-3.2,2.7),rotate(90)" x="-0.95" y="-0.35" width="1.9" height="0.7"/><rect transform="translate(-2.4,2.7),rotate(90)" x="-0.95" y="-0.35" width="1.9" height="0.7"/><rect transform="translate(-1.75,2.7),rotate(90)" x="-0.95" y="-0.2" width="1.9" height="0.4"/><rect transform="translate(-1.25,2.7),rotate(90)" x="-0.95" y="-0.2" width="1.9" height="0.4"/><rect transform="translate(-0.75,2.7),rotate(90)" x="-0.95" y="-0.2" width="1.9" height="0.4"/><rect transform="translate(-0.25,2.7),rotate(90)" x="-0.95" y="-0.2" width="1.9" height="0.4"/><rect transform="translate(0.25,2.7),rotate(90)" x="-0.95" y="-0.2" width="1.9" height="0.4"/><rect transform="translate(0.75,2.7),rotate(90)" x="-0.95" y="-0.2" width="1.9" height="0.4"/><rect transform="translate(1.25,2.7),rotate(90)" x="-0.95" y="-0.2" width="1.9" height="0.4"/><rect transform="translate(1.75,2.7),rotate(90)" x="-0.95" y="-0.2" width="1.9" height="0.4"/><rect transform="translate(2.4,2.7),rotate(90)" x="-0.95" y="-0.35" width="1.9" height="0.7"/></g><g stroke-width="0.05" fill="none"><circle cx="2.89" cy="1.28" r="0.4"/><circle cx="-2.89" cy="1.28" r="0.4"/></g><g stroke-width="1.3"><path fill="none" d="M-4.32,-2.8L-4.32,-2M4.32,-2.8L4.32,-2M4.32,1.28L4.32,2.38M-4.32,1.28L-4.32,2.38M0,0"/></g></g><g class="symbol"><g stroke="silver" fill="silver"><g stroke-width="0"><rect transform="translate(-1.25,2.5),rotate(90)" x="-0.5" y="-0.1" width="1" height="0.2"/><rect transform="translate(-1.75,2.5),rotate(90)" x="-0.5" y="-0.1" width="1" height="0.2"/><rect transform="translate(-0.75,2.5),rotate(90)" x="-0.5" y="-0.1" width="1" height="0.2"/><rect transform="translate(-0.25,2.5),rotate(90)" x="-0.5" y="-0.1" width="1" height="0.2"/><rect transform="translate(0.25,2.5),rotate(90)" x="-0.5" y="-0.1" width="1" height="0.2"/><rect transform="translate(0.75,2.5),rotate(90)" x="-0.5" y="-0.1" width="1" height="0.2"/><rect transform="translate(1.25,2.5),rotate(90)" x="-0.5" y="-0.1" width="1" height="0.2"/><rect transform="translate(1.75,2.5),rotate(90)" x="-0.5" y="-0.1" width="1" height="0.2"/><rect transform="translate(2.4,2.5),rotate(90)" x="-0.5" y="-0.2" width="1" height="0.4"/><rect transform="translate(3.2,2.5),rotate(90)" x="-0.5" y="-0.2" width="1" height="0.4"/><rect transform="translate(-2.4,2.5),rotate(90)" x="-0.5" y="-0.2" width="1" height="0.4"/><rect transform="translate(-3.2,2.5),rotate(90)" x="-0.5" y="-0.2" width="1" height="0.4"/><rect transform="translate(0,-1.325),rotate(0)" x="-4.47" y="-3.675" width="8.94" height="7.35"/></g></g><g stroke="#EEEEEE" fill="#EEEEEE"><g stroke-width="0"><rect transform="translate(0,-1.325),rotate(0)" x="-4.42" y="-3.625" width="8.84" height="7.25"/></g></g><g stroke="dimgray" fill="dimgray"><g stroke-width="0"><rect transform="translate(4.22,-1.325),rotate(90)" x="-3.625" y="-0.2" width="7.25" height="0.4"/><rect transform="translate(-4.22,-1.325),rotate(90)" x="-3.625" y="-0.2" width="7.25" height="0.4"/><rect transform="translate(-2,0.4),rotate(0)" x="-0.6" y="-0.3" width="1.2" height="0.6"/><rect transform="translate(2,0.4),rotate(0)" x="-0.6" y="-0.3" width="1.2" height="0.6"/><rect transform="translate(2,1.85),rotate(0)" x="-0.75" y="-0.45" width="1.5" height="0.9"/><rect transform="translate(-2,1.85),rotate(0)" x="-0.75" y="-0.45" width="1.5" height="0.9"/></g></g><g stroke="gainsboro" fill="gainsboro"><g stroke-width="0"><rect transform="translate(3.97,-1.325),rotate(90)" x="-3.625" y="-0.25" width="7.25" height="0.5"/><rect transform="translate(-3.97,-1.325),rotate(90)" x="-3.625" y="-0.25" width="7.25" height="0.5"/><rect transform="translate(-2.1,1.95),rotate(0)" x="-0.675" y="-0.35" width="1.35" height="0.7"/><rect transform="translate(2.1,1.95),rotate(0)" x="-0.675" y="-0.35" width="1.35" height="0.7"/></g></g></g></g>
<g id="ATtiny824"><title>ATtiny824</title><desc>-----</desc><use xlink:href="#SOP-14-300"/><g class="symbol" stroke="none" fill="darkgray" transform="translate(0,-0.25),scale(1,-1),rotate(0)"><text font-size="1" textLength="3.5" text-anchor="middle">AT824SS</text></g></g>
<g id="BH-06RG"><title>BH-06RG</title><desc>BH-06RG</desc><g class="footprint"><path fill="none" d="M-7.61,3.27L-7.61,12.27M-7.61,3.27L7.61,3.27M7.61,3.27L7.61,12.27M-3.04,-1.77L-3.04,-0.77M-3.04,-1.77L-2.04,-1.77M-3.04,-0.77L-2.04,-0.77M-2.04,-1.77L-2.04,-0.77M-7.61,12.27L-2.25,12.27M-2.25,6.27L-2.25,12.27M-2.25,6.27L2.25,6.27M2.25,6.27L2.25,12.27M2.25,12.27L7.61,12.27M0,0"/><g stroke-width="0.05" fill="none"><circle cx="-2.54" cy="1.27" r="0.85"/><circle cx="0" cy="-1.27" r="0.85"/><circle cx="0" cy="1.27" r="0.85"/><circle cx="2.54" cy="-1.27" r="0.85"/><circle cx="2.54" cy="1.27" r="0.85"/></g><g stroke-width="0.02" fill="none"><rect transform="translate(-2.54,-1.27),rotate(0)" x="-0.85" y="-0.85" width="1.7" height="1.7"/></g></g><g class="symbol"><g class="symbol"><g stroke="silver" fill="silver"><g stroke-width="0"><rect transform="translate(0,7.75),rotate(90)" x="-4.5" y="-7.75" width="9" height="15.5"/></g></g><g stroke="rgb(51,51,51)" fill="rgb(51,51,51)"><g stroke-width="0"><rect transform="translate(0,8.625),rotate(90)" x="-3.5" y="-2.25" width="7" height="4.5"/><rect transform="translate(-5,8.5),rotate(90)" x="-3.625" y="-2.625" width="7.25" height="5.25"/><rect transform="translate(5,8.5),rotate(90)" x="-3.625" y="-2.625" width="7.25" height="5.25"/><rect transform="translate(0,4.187),rotate(0)" x="-7.625" y="-0.8125" width="15.25" height="1.625"/></g></g><g stroke="khaki" fill="khaki"><g stroke-width="0"><rect transform="translate(-2.54,0.794),rotate(90)" x="-2.455" y="-0.35" width="4.91" height="0.7"/><rect transform="translate(0,0.794),rotate(90)" x="-2.455" y="-0.35" width="4.91" height="0.7"/><rect transform="translate(2.54,0.794),rotate(90)" x="-2.455" y="-0.35" width="4.91" height="0.7"/><rect transform="translate(0,7.606),rotate(90)" x="-2.475" y="-0.35" width="4.95" height="0.7"/></g></g></g></g></g>
<g id="BSS138PW"><title>BSS138PW	115</title><desc>C193366</desc><use xlink:href="#SOT-323"/><g class="symbol" stroke="none" fill="darkgray" transform="translate(0,-0.25),scale(1,-1),rotate(0)"><text font-size="0.6" textLength="0.6" text-anchor="middle">XJ</text></g></g>
<g id="C0603"><g class="footprint"><path fill="none" d="M-0.85,0.45L0.85,0.45M-0.85,-0.45L-0.85,0.45M-0.85,-0.45L0.85,-0.45M0.85,-0.45L0.85,0.45M-0.125,-0.25L-0.125,0.25M0.125,-0.25L0.125,0.25M0,0"/><g stroke-width="0.05" fill="none"><circle cx="-0.875" cy="0" r="0.25"/></g><g stroke-width="0.02" fill="none"><rect transform="translate(-0.875,0),rotate(90)" x="-0.55" y="-0.425" width="1.1" height="0.85"/><rect transform="translate(0.875,0),rotate(90)" x="-0.55" y="-0.425" width="1.1" height="0.85"/></g></g><g class="symbol"><g stroke="silver" fill="silver"><g stroke-width="0"><rect transform="translate(0,0),rotate(0)" x="-0.8" y="-0.4" width="1.6" height="0.8"/></g></g><g stroke="tan" fill="tan"><g stroke-width="0"><rect transform="translate(0,0),rotate(0)" x="-0.5" y="-0.4" width="1" height="0.8"/></g></g></g></g>
<g id="C0603_104"><title>CC0603KRX7R9BB104</title><desc>C14663</desc><use xlink:href="#C0603"/></g>
<g id="C0603_226"><title>CL10A226MQ8NRNC</title><desc>C59461</desc><use xlink:href="#C0603"/></g>
<g id="C0603_472"><title>0603B472K500NT</title><desc>C53987</desc><use xlink:href="#C0603"/></g>
<g id="CH340E"><title>CH340E</title><desc>C99652</desc><use xlink:href="#MSOP-10"/><g class="symbol" stroke="none" fill="darkgray" transform="translate(0,-0.25),scale(1,-1),rotate(0)"><text font-size="0.8" textLength="2.4" text-anchor="middle">CH340E</text></g></g>
<g id="CUS10S30"><title>CUS10S30</title><desc>C146335</desc><use xlink:href="#SOD-323"/></g>
<g id="F1210"><g class="footprint"><g stroke-width="0.05" fill="none"><circle cx="-1.625" cy="0" r="0.25"/></g><path fill="none" d="M-0.75,-0.75L0,0.5M0,0.5L0.75,-0.75M-0.75,0.75L0,-0.5M0,-0.5L0.75,0.75M1.65,-1.3L1.65,1.3M-1.65,1.3L1.65,1.3M-1.65,-1.3L1.65,-1.3M-1.65,-1.3L-1.65,1.3M0,0"/><g stroke-width="0.02" fill="none"><rect transform="translate(-1.625,0),rotate(90)" x="-1.425" y="-0.675" width="2.85" height="1.35"/><rect transform="translate(1.625,0),rotate(90)" x="-1.425" y="-0.675" width="2.85" height="1.35"/></g></g><g class="symbol"><g stroke="silver" fill="silver"><path fill-rule="evenodd" stroke-width="0.1" d="M-1.55,1.2L1.55,1.2L1.55,0.34641016A0.35,0.35 0 0,1 1.55,-0.34641016L1.55,-1.2L-1.55,-1.2L-1.55,-0.34641016A0.35,0.35 0 0,1 -1.55,0.34641016L-1.55,1.2Z"/></g><g stroke="rgb(51,51,51)" fill="rgb(51,51,51)"><g stroke-width="0"><rect transform="translate(0,0),rotate(90)" x="-1.25" y="-1" width="2.5" height="2"/></g></g><g stroke="khaki" fill="khaki"><g stroke-width="0.1"><path fill="none" d="M0,0.5L0.75,-0.75M-0.75,-0.75L0,0.5M-0.75,0.75L0,-0.5M0,-0.5L0.75,0.75M0,0"/></g></g></g></g>
<g id="F1210_035"><title>ASMD1210-035</title><desc>C135347</desc><use xlink:href="#F1210"/></g>
<g id="JPJT"><g class="symbol"><g stroke="rgb(51,51,51)" fill="rgb(51,51,51)"><g stroke-width="0"><rect transform="translate(0,0),rotate(0)" x="-2.47" y="-1" width="4.94" height="2"/></g></g><g stroke="khaki" fill="khaki"><g stroke-width="0.1"><path fill="none" d="M1.27,-0.317L1.27,0.318M-1.27,-0.317L-1.27,0.318M0,0"/></g></g><g stroke="white" fill="white"><path fill-rule="evenodd" stroke-width="0.1" d="M-2.37,0.9L2.37,0.9L2.37,-0.9L-2.37,-0.9L-2.37,0.9ZM1.42,-0.467L1.42,0.468L-1.42,0.468L-1.42,-0.467L1.42,-0.467Z"/><g stroke-width="0.1"><path fill="none" d="M1.42,-0.467L1.42,0.468M-1.42,-0.467L1.42,-0.467M-1.42,0.468L1.42,0.468M-1.42,-0.467L-1.42,0.468M0,0"/></g><g stroke-width="0"><rect transform="translate(0,0),rotate(0)" x="-1.17" y="-0.37" width="2.34" height="0.74"/></g></g></g></g>
<g id="JPJT-X3"><g class="footprint"><g stroke-width="0.05" fill="none"><circle cx="-2.54" cy="0" r="0.25"/></g><path fill="none" d="M-3.79,-1.05L-3.79,1.05M-3.79,1.05L3.79,1.05M3.79,-1.05L3.79,1.05M-3.79,-1.05L3.79,-1.05M-3.14,0.6L-1.94,0.6M-1.94,-0.6L-1.94,0.6M-3.14,-0.6L-1.94,-0.6M-3.14,-0.6L-3.14,0.6M0,0"/><g stroke-width="0.05" fill="none"><circle cx="2.54" cy="0" r="0.85"/><circle cx="0" cy="0" r="0.85"/></g><g stroke-width="0.02" fill="none"><rect transform="translate(-2.54,0),rotate(0)" x="-0.85" y="-0.85" width="1.7" height="1.7"/></g></g></g>
<g id="JPJT-X3-CLOSE-OPEN"><title>JPJT-X3-CLOSE-OPEN</title><use xlink:href="#JPJT-X3"/><use xlink:href="#JPJT" transform="rotate(0)" x="-1.27" y="0"/></g>
<g id="LBSS84WT1G"><title>LBSS84WT1G</title><desc>C383208</desc><use xlink:href="#SC-70-3"/><g class="symbol" stroke="none" fill="darkgray" transform="translate(0.25,0),scale(1,-1),rotate(-90)"><text font-size="0.6" textLength="0.6" text-anchor="middle">PD</text></g></g>
<g id="LED0805"><g class="footprint"><g stroke-width="0.05" fill="none"><circle cx="-1.125" cy="0" r="0.25"/></g><path fill="none" d="M-1.05,0.65L1.05,0.65M1.05,-0.65L1.05,0.65M0.375,-0.375L0.375,0.375M-0.375,0L0.375,0.375M-0.375,0L0.375,-0.375M-0.375,-0.375L-0.375,0.375M-1.05,-0.65L-1.05,0.65M-1.05,-0.65L1.05,-0.65M0,0"/><g stroke-width="0.02" fill="none"><rect transform="translate(-1.125,0),rotate(90)" x="-0.675" y="-0.55" width="1.35" height="1.1"/><rect transform="translate(1.125,0),rotate(90)" x="-0.675" y="-0.55" width="1.35" height="1.1"/></g></g><g class="symbol"><g stroke="silver" fill="silver"><g stroke-width="0"><rect transform="translate(0,0),rotate(0)" x="-1" y="-0.6" width="2" height="1.2"/></g></g><g stroke="gainsboro" fill="gainsboro"><g stroke-width="0"><rect transform="translate(0,0),rotate(0)" x="-0.7" y="-0.6" width="1.4" height="1.2"/></g></g><g stroke="LIME" fill="LIME"><g stroke-width="0"><rect transform="translate(-0.5,0),rotate(90)" x="-0.6" y="-0.2" width="1.2" height="0.4"/></g></g><g stroke="BLACK" fill="BLACK"><g><circle cx="0" cy="0" r="0.7"/></g></g><g><circle cx="0" cy="0" r="0.65"/></g><g stroke="white" fill="white"><g><circle cx="-0.375" cy="0" r="0.15"/></g></g></g></g>
<g id="LED0805_B"><title>OSB50805C1C</title><desc>C98222</desc><use xlink:href="#LED0805" stroke="#376BFB" fill="#376BFB"/></g>
<g id="LED0805_Y"><title>OSY50805C1C</title><desc>C125091</desc><use xlink:href="#LED0805" stroke="#FECB2F" fill="#FECB2F"/></g>
<g id="LED0805_YG"><title>OSG80805C1C</title><desc>C98221</desc><use xlink:href="#LED0805" stroke="#9BC127" fill="#9BC127"/></g>
<g id="MMSZ12VCW"><title>MMSZ12VCW</title><desc>C248761</desc><use xlink:href="#SOD-123"/></g>
<g id="MSOP-10"><g class="footprint"><path fill="none" d="M-1.5,-1.5L-1.5,1.5M-1.5,-1.5L1.5,-1.5M-1.5,1.5L1.5,1.5M1.5,-1.5L1.5,1.5M0,0"/><g stroke-width="0.05" fill="none"><circle cx="-1" cy="-2.25" r="0.25"/></g><g stroke-width="0.02" fill="none"><rect transform="translate(0,-2.25),rotate(90)" x="-0.55" y="-0.175" width="1.1" height="0.35"/><rect transform="translate(-0.5,-2.25),rotate(90)" x="-0.55" y="-0.175" width="1.1" height="0.35"/><rect transform="translate(-1,-2.25),rotate(90)" x="-0.55" y="-0.175" width="1.1" height="0.35"/><rect transform="translate(0.5,-2.25),rotate(90)" x="-0.55" y="-0.175" width="1.1" height="0.35"/><rect transform="translate(1,-2.25),rotate(90)" x="-0.55" y="-0.175" width="1.1" height="0.35"/><rect transform="translate(0,2.25),rotate(90)" x="-0.55" y="-0.175" width="1.1" height="0.35"/><rect transform="translate(0.5,2.25),rotate(90)" x="-0.55" y="-0.175" width="1.1" height="0.35"/><rect transform="translate(1,2.25),rotate(90)" x="-0.55" y="-0.175" width="1.1" height="0.35"/><rect transform="translate(-0.5,2.25),rotate(90)" x="-0.55" y="-0.175" width="1.1" height="0.35"/><rect transform="translate(-1,2.25),rotate(90)" x="-0.55" y="-0.175" width="1.1" height="0.35"/></g></g><g class="symbol"><g stroke="silver" fill="silver"><g stroke-width="0"><rect transform="translate(1,1.75),rotate(90)" x="-0.7" y="-0.1" width="1.4" height="0.2"/><rect transform="translate(0,-1.75),rotate(90)" x="-0.7" y="-0.1" width="1.4" height="0.2"/><rect transform="translate(-0.5,-1.75),rotate(90)" x="-0.7" y="-0.1" width="1.4" height="0.2"/><rect transform="translate(-1,-1.75),rotate(90)" x="-0.7" y="-0.1" width="1.4" height="0.2"/><rect transform="translate(0.5,-1.75),rotate(90)" x="-0.7" y="-0.1" width="1.4" height="0.2"/><rect transform="translate(1,-1.75),rotate(90)" x="-0.7" y="-0.1" width="1.4" height="0.2"/><rect transform="translate(0,1.75),rotate(90)" x="-0.7" y="-0.1" width="1.4" height="0.2"/><rect transform="translate(-0.5,1.75),rotate(90)" x="-0.7" y="-0.1" width="1.4" height="0.2"/><rect transform="translate(-1,1.75),rotate(90)" x="-0.7" y="-0.1" width="1.4" height="0.2"/><rect transform="translate(0.5,1.75),rotate(90)" x="-0.7" y="-0.1" width="1.4" height="0.2"/></g></g><g stroke="rgb(51,51,51)" fill="rgb(51,51,51)"><g stroke-width="0"><rect transform="translate(0,0),rotate(0)" x="-1.5" y="-1.5" width="3" height="3"/></g></g><g stroke="dimgray" fill="dimgray"><g><circle cx="-1" cy="-1" r="0.25"/></g></g></g></g>
<g id="PS----R254---MC01.FIRST"><g class="symbol"><g stroke="#444444" fill="#444444"><path fill-rule="evenodd" stroke-width="0.1" d="M-0.58357864,1.15L0.58357864,1.15L1.08357864,0.65L1.08357864,-0.65L0.58357864,-1.15L-0.58357864,-1.15L-1.08357864,-0.65L-1.08357864,0.65L-0.58357864,1.15Z"/></g><g stroke="dimgray" fill="dimgray"><g stroke-width="0"><rect transform="translate(-1.22,0),rotate(90)" x="-0.75" y="-0.1" width="1.5" height="0.2"/><rect transform="translate(1.22,0),rotate(90)" x="-0.75" y="-0.1" width="1.5" height="0.2"/></g><g stroke-width="0.1"><path fill="none" d="M-0.60428932,-1.2L0.60428932,-1.2M-0.60428932,1.2L0.60428932,1.2M-1.27,0.53428932L-0.60428932,1.2M-1.27,-0.53428932L-0.60428932,-1.2M-1.27,-0.53428932L-1.27,0.53428932M0.60428932,-1.2L1.27,-0.53428932M0.60428932,1.2L1.27,0.53428932M1.27,-0.53428932L1.27,0.53428932M0,0"/></g></g><g stroke="gainsboro" fill="gainsboro"><g><circle cx="0" cy="0" r="0.9"/></g></g><g stroke="#FFFF00" fill="#FFFF00"><g><circle cx="0" cy="0" r="0.7"/></g></g><g stroke="#888888" fill="#888888"><g><circle cx="0" cy="0" r="0.4"/></g></g></g></g>
<g id="PS----R254---MC01.REPEAT"><g class="symbol"><g stroke="rgb(51,51,51)" fill="rgb(51,51,51)"><path fill-rule="evenodd" stroke-width="0.1" d="M-0.58357864,1.15L0.58357864,1.15L1.08357864,0.65L1.08357864,-0.65L0.58357864,-1.15L-0.58357864,-1.15L-1.08357864,-0.65L-1.08357864,0.65L-0.58357864,1.15Z"/></g><g stroke="dimgray" fill="dimgray"><g stroke-width="0"><rect transform="translate(-1.22,0),rotate(90)" x="-0.75" y="-0.1" width="1.5" height="0.2"/><rect transform="translate(1.22,0),rotate(90)" x="-0.75" y="-0.1" width="1.5" height="0.2"/></g><g stroke-width="0.1"><path fill="none" d="M-0.60428932,1.2L0.60428932,1.2M-1.27,0.53428932L-0.60428932,1.2M-1.27,-0.53428932L-1.27,0.53428932M0.60428932,1.2L1.27,0.53428932M1.27,-0.53428932L1.27,0.53428932M-0.60428932,-1.2L0.60428932,-1.2M-1.27,-0.53428932L-0.60428932,-1.2M0.60428932,-1.2L1.27,-0.53428932M0,0"/></g></g><g stroke="gainsboro" fill="gainsboro"><g><circle cx="0" cy="0" r="0.9"/></g></g><g stroke="#FFFF00" fill="#FFFF00"><g><circle cx="0" cy="0" r="0.7"/></g></g><g stroke="#888888" fill="#888888"><g><circle cx="0" cy="0" r="0.4"/></g></g></g></g>
<g id="PS----R254---MC03.FIRST"><g class="symbol"><g stroke="rgb(51,51,51)" fill="rgb(51,51,51)"><path fill-rule="evenodd" stroke-width="0.1" d="M-1.22,2.60494897L1.22,2.60494897A0.25,0.25 0 0,1 1.02,2.36L1.02,-2.36A0.25,0.25 0 0,1 1.22,-2.60494897L-1.22,-2.60494897A0.25,0.25 0 0,1 -1.02,-2.36L-1.02,-1.04880885A1.05,1.05 0 0,1 -1.02,1.04880885L-1.02,2.36A0.25,0.25 0 0,1 -1.22,2.60494897Z"/><g stroke-width="0"><rect transform="translate(0,3.81),rotate(0)" x="-1.27" y="-1.27" width="2.54" height="2.54"/><rect transform="translate(0,-3.81),rotate(0)" x="-1.27" y="-1.27" width="2.54" height="2.54"/></g></g><g stroke="gainsboro" fill="gainsboro"><g><circle cx="0" cy="3.81" r="0.9"/><circle cx="0" cy="-3.81" r="0.9"/></g></g><g stroke="#FFFF00" fill="#FFFF00"><g><circle cx="0" cy="3.81" r="0.7"/><circle cx="0" cy="-3.81" r="0.7"/></g></g><g stroke="#888888" fill="#888888"><g><circle cx="0" cy="3.81" r="0.4"/><circle cx="0" cy="-3.81" r="0.4"/></g></g></g></g>
<g id="PS----R254---MC03.LAST"><g class="symbol"><g stroke="rgb(51,51,51)" fill="rgb(51,51,51)"><path fill-rule="evenodd" stroke-width="0.1" d="M-1.22,2.60494897L1.22,2.60494897A0.25,0.25 0 0,1 1.02,2.36L1.02,-2.36A0.25,0.25 0 0,1 1.22,-2.60494897L-1.22,-2.60494897A0.25,0.25 0 0,1 -1.02,-2.36L-1.02,2.36A0.25,0.25 0 0,1 -1.22,2.60494897Z"/><g stroke-width="0"><rect transform="translate(0,3.81),rotate(0)" x="-1.27" y="-1.27" width="2.54" height="2.54"/><rect transform="translate(0,-3.81),rotate(0)" x="-1.27" y="-1.27" width="2.54" height="2.54"/></g></g><g stroke="gainsboro" fill="gainsboro"><g><circle cx="0" cy="3.81" r="0.9"/><circle cx="0" cy="-3.81" r="0.9"/></g></g><g stroke="#FFFF00" fill="#FFFF00"><g><circle cx="0" cy="3.81" r="0.7"/><circle cx="0" cy="-3.81" r="0.7"/></g></g><g stroke="#888888" fill="#888888"><g><circle cx="0" cy="3.81" r="0.4"/><circle cx="0" cy="-3.81" r="0.4"/></g></g></g></g>
<g id="PS----R254---MC03.REPEAT"><g class="symbol"><g stroke="rgb(51,51,51)" fill="rgb(51,51,51)"><g stroke-width="0"><rect transform="translate(0,3.81),rotate(0)" x="-1.27" y="-1.27" width="2.54" height="2.54"/><rect transform="translate(0,-3.81),rotate(0)" x="-1.27" y="-1.27" width="2.54" height="2.54"/></g></g><g stroke="gainsboro" fill="gainsboro"><g><circle cx="0" cy="3.81" r="0.9"/><circle cx="0" cy="-3.81" r="0.9"/></g></g><g stroke="#FFFF00" fill="#FFFF00"><g><circle cx="0" cy="3.81" r="0.7"/><circle cx="0" cy="-3.81" r="0.7"/></g></g><g stroke="#888888" fill="#888888"><g><circle cx="0" cy="3.81" r="0.4"/><circle cx="0" cy="-3.81" r="0.4"/></g></g></g></g>
<g id="PS-03MC01"><title>PS-03MC01</title><desc>---</desc><g class="footprint"><path fill="none" d="M-3.81,-0.75L-3.81,0.75M-3.81,-0.75L-3.665,-0.75M-3.81,0.75L-3.665,0.75M-3.665,-0.75L-3.165,-1.25M-3.665,0.75L-3.165,1.25M-3.165,-1.25L-1.915,-1.25M-3.165,1.25L-1.915,1.25M-3.04,-0.5L-3.04,0.5M-3.04,-0.5L-2.04,-0.5M-3.04,0.5L-2.04,0.5M-2.04,-0.5L-2.04,0.5M-1.915,-1.25L-1.415,-0.75M-1.915,1.25L-1.415,0.75M-1.415,-0.75L-1.27,-0.75M-1.415,0.75L-1.27,0.75M-1.27,-0.75L-1.125,-0.75M-1.27,0.75L-1.125,0.75M-1.125,-0.75L-0.625,-1.25M-1.125,0.75L-0.625,1.25M-0.625,-1.25L0.625,-1.25M-0.625,1.25L0.625,1.25M0.625,-1.25L1.125,-0.75M0.625,1.25L1.125,0.75M1.125,-0.75L1.27,-0.75M1.125,0.75L1.27,0.75M1.27,-0.75L1.415,-0.75M1.27,0.75L1.415,0.75M1.415,-0.75L1.915,-1.25M1.415,0.75L1.915,1.25M1.915,-1.25L3.165,-1.25M1.915,1.25L3.165,1.25M3.165,-1.25L3.665,-0.75M3.165,1.25L3.665,0.75M3.665,-0.75L3.81,-0.75M3.665,0.75L3.81,0.75M3.81,-0.75L3.81,0.75M0,0"/><g stroke-width="0.05" fill="none"><circle cx="-2.54" cy="0" r="0.25"/></g><g stroke-width="0.05" fill="none"><circle cx="0" cy="0" r="0.85"/><circle cx="2.54" cy="0" r="0.85"/></g><g stroke-width="0.02" fill="none"><rect transform="translate(-2.54,0),rotate(0)" x="-0.85" y="-0.85" width="1.7" height="1.7"/></g></g><g class="symbol"><use xlink:href="#PS----R254---MC01.FIRST" x="-2.54" y="0"/><use xlink:href="#PS----R254---MC01.REPEAT" x="0" y="0"/><use xlink:href="#PS----R254---MC01.REPEAT" x="2.54" y="0"/></g></g>
<g id="PS-03MC03"><title>PS-03MC03</title><desc>---</desc><g class="footprint"><g stroke-width="0.05" fill="none"><circle cx="-2.54" cy="-3.81" r="0.25"/></g><path fill="none" d="M-3.81,-2.56A0.2,0.2 0 0,1 -3.61,-2.36M-3.61,2.36A0.2,0.2 0 0,1 -3.81,2.56M-3.61,-1A1,1 0 0,1 -3.61,1M-1.47,-2.36A0.2,0.2 0 0,1 -1.27,-2.56M-1.27,2.56A0.2,0.2 0 0,1 -1.47,2.36M1.27,-2.56A0.2,0.2 0 0,1 1.47,-2.36M1.47,2.36A0.2,0.2 0 0,1 1.27,2.56M3.61,-2.36A0.2,0.2 0 0,1 3.81,-2.56M3.81,2.56A0.2,0.2 0 0,1 3.61,2.36M-3.81,-5.06L-3.81,-2.56M-3.81,-5.06L-1.27,-5.06M-3.81,2.56L-3.81,5.06M-3.81,5.06L-1.27,5.06M-3.61,-2.36L-3.61,-1M-3.61,1L-3.61,2.36M-3.04,-4.31L-3.04,-3.31M-3.04,-4.31L-2.04,-4.31M-3.04,-3.31L-2.04,-3.31M-2.04,-4.31L-2.04,-3.31M-1.47,-2.36L-1.47,2.36M-1.27,-5.06L1.27,-5.06M-1.27,-2.56L1.27,-2.56M-1.27,2.56L1.27,2.56M-1.27,5.06L1.27,5.06M1.27,-5.06L3.81,-5.06M1.27,5.06L3.81,5.06M1.47,-2.36L1.47,2.36M3.61,-2.36L3.61,2.36M3.81,-5.06L3.81,-2.56M3.81,2.56L3.81,5.06M0,0"/><g stroke-width="0.02" fill="none"><rect transform="translate(-2.54,-3.81),rotate(0)" x="-0.85" y="-0.85" width="1.7" height="1.7"/></g><g stroke-width="0.05" fill="none"><circle cx="-2.54" cy="3.81" r="0.85"/><circle cx="0" cy="3.81" r="0.85"/><circle cx="0" cy="-3.81" r="0.85"/><circle cx="2.54" cy="3.81" r="0.85"/><circle cx="2.54" cy="-3.81" r="0.85"/></g></g><g class="symbol"><use xlink:href="#PS----R254---MC03.FIRST" x="-2.54" y="0"/><use xlink:href="#PS----R254---MC03.REPEAT" x="0" y="0"/><use xlink:href="#PS----R254---MC03.LAST" x="2.54" y="0"/></g></g>
<g id="PS-06MC01"><title>PS-06MC01</title><desc>---</desc><g class="footprint"><path fill="none" d="M-7.62,-0.75L-7.62,0.75M-7.62,-0.75L-7.475,-0.75M-7.62,0.75L-7.475,0.75M-7.475,-0.75L-6.975,-1.25M-7.475,0.75L-6.975,1.25M-6.975,-1.25L-5.725,-1.25M-6.975,1.25L-5.725,1.25M-6.85,-0.5L-6.85,0.5M-6.85,-0.5L-5.85,-0.5M-6.85,0.5L-5.85,0.5M-5.85,-0.5L-5.85,0.5M-5.725,-1.25L-5.225,-0.75M-5.725,1.25L-5.225,0.75M-5.225,-0.75L-5.08,-0.75M-5.225,0.75L-5.08,0.75M-5.08,-0.75L-4.935,-0.75M-5.08,0.75L-4.935,0.75M-4.935,-0.75L-4.435,-1.25M-4.935,0.75L-4.435,1.25M-4.435,-1.25L-3.185,-1.25M-4.435,1.25L-3.185,1.25M-3.185,-1.25L-2.685,-0.75M-3.185,1.25L-2.685,0.75M-2.685,-0.75L-2.54,-0.75M-2.685,0.75L-2.54,0.75M-2.54,-0.75L-2.395,-0.75M-2.54,0.75L-2.395,0.75M-2.395,-0.75L-1.895,-1.25M-2.395,0.75L-1.895,1.25M-1.895,-1.25L-0.645,-1.25M-1.895,1.25L-0.645,1.25M-0.645,-1.25L-0.145,-0.75M-0.645,1.25L-0.145,0.75M-0.145,-0.75L0,-0.75M-0.145,0.75L0,0.75M0,-0.75L0.145,-0.75M0,0.75L0.145,0.75M0.145,-0.75L0.645,-1.25M0.145,0.75L0.645,1.25M0.645,-1.25L1.895,-1.25M0.645,1.25L1.895,1.25M1.895,-1.25L2.395,-0.75M1.895,1.25L2.395,0.75M2.395,-0.75L2.54,-0.75M2.395,0.75L2.54,0.75M2.54,-0.75L2.685,-0.75M2.54,0.75L2.685,0.75M2.685,-0.75L3.185,-1.25M2.685,0.75L3.185,1.25M3.185,-1.25L4.435,-1.25M3.185,1.25L4.435,1.25M4.435,-1.25L4.935,-0.75M4.435,1.25L4.935,0.75M4.935,-0.75L5.08,-0.75M4.935,0.75L5.08,0.75M5.08,-0.75L5.225,-0.75M5.08,0.75L5.225,0.75M5.225,-0.75L5.725,-1.25M5.225,0.75L5.725,1.25M5.725,-1.25L6.975,-1.25M5.725,1.25L6.975,1.25M6.975,-1.25L7.475,-0.75M6.975,1.25L7.475,0.75M7.475,-0.75L7.62,-0.75M7.475,0.75L7.62,0.75M7.62,-0.75L7.62,0.75M0,0"/><g stroke-width="0.05" fill="none"><circle cx="-6.35" cy="0" r="0.25"/></g><g stroke-width="0.05" fill="none"><circle cx="-3.81" cy="0" r="0.85"/><circle cx="-1.27" cy="0" r="0.85"/><circle cx="1.27" cy="0" r="0.85"/><circle cx="3.81" cy="0" r="0.85"/><circle cx="6.35" cy="0" r="0.85"/></g><g stroke-width="0.02" fill="none"><rect transform="translate(-6.35,0),rotate(0)" x="-0.85" y="-0.85" width="1.7" height="1.7"/></g></g><g class="symbol"><use xlink:href="#PS----R254---MC01.FIRST" x="-6.35" y="0"/><use xlink:href="#PS----R254---MC01.REPEAT" x="-3.81" y="0"/><use xlink:href="#PS----R254---MC01.REPEAT" x="-1.27" y="0"/><use xlink:href="#PS----R254---MC01.REPEAT" x="1.27" y="0"/><use xlink:href="#PS----R254---MC01.REPEAT" x="3.81" y="0"/><use xlink:href="#PS----R254---MC01.REPEAT" x="6.35" y="0"/></g></g>
<g id="R0603"><g class="footprint"><path fill="none" d="M-0.85,0.45L0.85,0.45M-0.85,-0.45L-0.85,0.45M0,-0.25L0,0.25M-0.85,-0.45L0.85,-0.45M0.85,-0.45L0.85,0.45M0,0"/><g stroke-width="0.05" fill="none"><circle cx="-0.875" cy="0" r="0.25"/></g><g stroke-width="0.02" fill="none"><rect transform="translate(-0.875,0),rotate(90)" x="-0.55" y="-0.425" width="1.1" height="0.85"/><rect transform="translate(0.875,0),rotate(90)" x="-0.55" y="-0.425" width="1.1" height="0.85"/></g></g><g class="symbol"><g stroke="silver" fill="silver"><g stroke-width="0"><rect transform="translate(0,0),rotate(0)" x="-0.8" y="-0.4" width="1.6" height="0.8"/></g></g><g stroke="rgb(51,51,51)" fill="rgb(51,51,51)"><g stroke-width="0"><rect transform="translate(0,0),rotate(0)" x="-0.5" y="-0.4" width="1" height="0.8"/></g></g></g></g>
<g id="R0603_102"><title>0603WAF1001T5E</title><desc>C21190</desc><use xlink:href="#R0603"/></g>
<g id="R0603_103"><title>0603WAF1002T5E</title><desc>C25804</desc><use xlink:href="#R0603"/></g>
<g id="R0603_104"><title>0603WAF1003T5E</title><desc>C25803</desc><use xlink:href="#R0603"/></g>
<g id="R0603_105"><title>0603WAF1004T5E</title><desc>C22935</desc><use xlink:href="#R0603"/></g>
<g id="R0603_222"><title>0603WAF2201T5E</title><desc>C4190</desc><use xlink:href="#R0603"/></g>
<g id="R0603_331"><title>0603WAF3300T5E</title><desc>C23138</desc><use xlink:href="#R0603"/></g>
<g id="R0603_512"><title>0603WAF5101T5E</title><desc>C23186</desc><use xlink:href="#R0603"/></g>
<g id="SC-70-3"><g class="footprint"><path fill="none" d="M-0.625,1L0.625,1M-0.625,-1L-0.625,1M0.625,-1L0.625,1M-0.625,-1L0.625,-1M0,0"/><g stroke-width="0.05" fill="none"><circle cx="1" cy="-0.65" r="0.25"/></g><g stroke-width="0.02" fill="none"><rect transform="translate(-1,0),rotate(0)" x="-0.55" y="-0.3" width="1.1" height="0.6"/><rect transform="translate(1,-0.65),rotate(0)" x="-0.55" y="-0.3" width="1.1" height="0.6"/><rect transform="translate(1,0.65),rotate(0)" x="-0.55" y="-0.3" width="1.1" height="0.6"/></g></g><g class="symbol"><g stroke="silver" fill="silver"><g stroke-width="0"><rect transform="translate(-0.75,0),rotate(0)" x="-0.3" y="-0.15" width="0.6" height="0.3"/><rect transform="translate(0.75,0.65),rotate(0)" x="-0.3" y="-0.15" width="0.6" height="0.3"/><rect transform="translate(0.75,-0.65),rotate(0)" x="-0.3" y="-0.15" width="0.6" height="0.3"/></g></g><g stroke="rgb(51,51,51)" fill="rgb(51,51,51)"><g stroke-width="0"><rect transform="translate(0,0),rotate(90)" x="-1" y="-0.625" width="2" height="1.25"/></g></g><g stroke="dimgray" fill="dimgray"><g><circle cx="0.25" cy="-0.625" r="0.25"/></g></g></g></g>
<g id="SKRPABE010"><title>SKRPABE010</title><desc>C139797</desc><g class="footprint"><g stroke-width="0.05" fill="none"><circle cx="-2.375" cy="1" r="0.25"/></g><path fill="none" d="M-0.4,1.1L0.4,1.1M-0.4,1.1A1.1,1.1 0 0,1 -0.4,-1.1M-0.4,-1.1L0.4,-1.1M0.4,-1.1A1.1,1.1 0 0,1 0.4,1.1M-2.2,1.65L2.2,1.65M2.2,-1.65L2.2,1.65M-2.2,-1.65L2.2,-1.65M-2.2,-1.65L-2.2,1.65M0,0"/><g stroke-width="0.02" fill="none"><rect transform="translate(-2.375,1),rotate(0)" x="-0.925" y="-0.55" width="1.85" height="1.1"/><rect transform="translate(-2.375,-1),rotate(0)" x="-0.925" y="-0.55" width="1.85" height="1.1"/><rect transform="translate(2.375,1),rotate(0)" x="-0.925" y="-0.55" width="1.85" height="1.1"/><rect transform="translate(2.375,-1),rotate(0)" x="-0.925" y="-0.55" width="1.85" height="1.1"/></g></g><g class="symbol"><g class="symbol"><g stroke="silver" fill="silver"><g stroke-width="0"><rect transform="translate(0,1.025),rotate(0)" x="-2.3" y="-0.275" width="4.6" height="0.55"/><rect transform="translate(0,-1.025),rotate(0)" x="-2.3" y="-0.275" width="4.6" height="0.55"/></g></g><g stroke="rgb(51,51,51)" fill="rgb(51,51,51)"><path fill-rule="evenodd" stroke-width="0.1" d="M-2.1,1.55L2.1,1.55L2.1,-1.55L-2.1,-1.55L-2.1,1.55Z"/></g><g stroke="gainsboro" fill="gainsboro"><path fill-rule="evenodd" stroke-width="0.1" d="M-2.05,-1.5L-2.05,1.5L2.05,1.5L2.05,-1.5L-2.05,-1.5ZM-0.4,-1.2L0.4,-1.2A1.2,1.2 0 0,1 0.4,1.2L-0.4,1.2A1.2,1.2 0 0,1 -0.4,-1.2Z"/></g><g stroke="white" fill="white"><g><circle cx="-2" cy="0.5" r="0.0005"/></g><path fill-rule="evenodd" stroke-width="0.1" d="M-2,0.5L-1.05,1.45L-1.75,1.45A0.25,0.25 0 0,1 -2,1.2L-2,0.5ZM-2,-1.2A0.25,0.25 0 0,1 -1.75,-1.45L-1.05,-1.45L-2,-0.5L-2,-1.2ZM-0.4,-1.05L0.4,-1.05A1.05,1.05 0 0,1 0.4,1.05L-0.4,1.05A1.05,1.05 0 0,1 -0.4,-1.05ZM1.75,-1.45A0.25,0.25 0 0,1 2,-1.2L2,-0.5L1.05,-1.45L1.75,-1.45ZM2,0.5L2,1.2A0.25,0.25 0 0,1 1.75,1.45L1.05,1.45L2,0.5Z"/></g></g></g></g>
<g id="SOD-123"><g class="footprint"><path fill="none" d="M-0.5,0L0.5,0.5M0.5,-0.5L0.5,0.5M-0.5,-0.5L-0.5,0.5M-0.5,0L0.5,-0.5M-1.45,-0.85L-1.45,0.85M-1.45,-0.85L1.45,-0.85M1.45,-0.85L1.45,0.85M-1.45,0.85L1.45,0.85M0,0"/><g stroke-width="0.05" fill="none"><circle cx="-1.5" cy="0" r="0.25"/></g><g stroke-width="0.02" fill="none"><rect transform="translate(-1.5,0),rotate(0)" x="-0.55" y="-0.8" width="1.1" height="1.6"/><rect transform="translate(1.75,0),rotate(0)" x="-0.55" y="-0.8" width="1.1" height="1.6"/></g></g><g class="symbol"><g stroke="silver" fill="silver"><g stroke-width="0"><rect transform="translate(1.625,0),rotate(0)" x="-0.3" y="-0.275" width="0.6" height="0.55"/><rect transform="translate(-1.625,0),rotate(0)" x="-0.3" y="-0.275" width="0.6" height="0.55"/></g></g><g stroke="rgb(51,51,51)" fill="rgb(51,51,51)"><g stroke-width="0"><rect transform="translate(0,0),rotate(0)" x="-1.4" y="-0.8" width="2.8" height="1.6"/></g></g><g stroke="dimgray" fill="dimgray"><g stroke-width="0"><rect transform="translate(-1.125,0),rotate(90)" x="-0.8" y="-0.275" width="1.6" height="0.55"/></g></g></g></g>
<g id="SOD-323"><g class="footprint"><g stroke-width="0.05" fill="none"><circle cx="-1.25" cy="0" r="0.25"/></g><path fill="none" d="M-0.9,0.7L0.9,0.7M0.9,-0.7L0.9,0.7M-0.9,-0.7L0.9,-0.7M-0.9,-0.7L-0.9,0.7M0.375,-0.375L0.375,0.375M-0.375,-0.375L-0.375,0.375M-0.375,0L0.375,0.375M-0.375,0L0.375,-0.375M0,0"/><g stroke-width="0.02" fill="none"><rect transform="translate(1.25,0),rotate(0)" x="-0.55" y="-0.425" width="1.1" height="0.85"/><rect transform="translate(-1.25,0),rotate(0)" x="-0.55" y="-0.425" width="1.1" height="0.85"/></g></g><g class="symbol"><g stroke="silver" fill="silver"><g stroke-width="0"><rect transform="translate(-1,0),rotate(0)" x="-0.25" y="-0.15" width="0.5" height="0.3"/><rect transform="translate(1,0),rotate(0)" x="-0.25" y="-0.15" width="0.5" height="0.3"/></g></g><g stroke="rgb(51,51,51)" fill="rgb(51,51,51)"><g stroke-width="0"><rect transform="translate(0,0),rotate(0)" x="-0.85" y="-0.65" width="1.7" height="1.3"/></g></g><g stroke="dimgray" fill="dimgray"><g stroke-width="0"><rect transform="translate(-0.625,0),rotate(90)" x="-0.65" y="-0.225" width="1.3" height="0.45"/></g></g></g></g>
<g id="SOP-14-300"><g class="footprint"><g stroke-width="0.05" fill="none"><circle cx="-3.81" cy="-2.75" r="0.25"/></g><path fill="none" d="M-4.375,-2L-4.375,2M-4.375,2L4.375,2M-4.375,-2L4.375,-2M4.375,-2L4.375,2M0,0"/><g stroke-width="0.02" fill="none"><rect transform="translate(-3.81,-2.75),rotate(90)" x="-0.8" y="-0.35" width="1.6" height="0.7"/><rect transform="translate(-2.54,-2.75),rotate(90)" x="-0.8" y="-0.35" width="1.6" height="0.7"/><rect transform="translate(-1.27,-2.75),rotate(90)" x="-0.8" y="-0.35" width="1.6" height="0.7"/><rect transform="translate(0,-2.75),rotate(90)" x="-0.8" y="-0.35" width="1.6" height="0.7"/><rect transform="translate(1.27,-2.75),rotate(90)" x="-0.8" y="-0.35" width="1.6" height="0.7"/><rect transform="translate(2.54,-2.75),rotate(90)" x="-0.8" y="-0.35" width="1.6" height="0.7"/><rect transform="translate(3.81,-2.75),rotate(90)" x="-0.8" y="-0.35" width="1.6" height="0.7"/><rect transform="translate(3.81,2.75),rotate(90)" x="-0.8" y="-0.35" width="1.6" height="0.7"/><rect transform="translate(2.54,2.75),rotate(90)" x="-0.8" y="-0.35" width="1.6" height="0.7"/><rect transform="translate(1.27,2.75),rotate(90)" x="-0.8" y="-0.35" width="1.6" height="0.7"/><rect transform="translate(0,2.75),rotate(90)" x="-0.8" y="-0.35" width="1.6" height="0.7"/><rect transform="translate(-1.27,2.75),rotate(90)" x="-0.8" y="-0.35" width="1.6" height="0.7"/><rect transform="translate(-2.54,2.75),rotate(90)" x="-0.8" y="-0.35" width="1.6" height="0.7"/><rect transform="translate(-3.81,2.75),rotate(90)" x="-0.8" y="-0.35" width="1.6" height="0.7"/></g></g><g class="symbol"><g stroke="silver" fill="silver"><g stroke-width="0"><rect transform="translate(3.81,-2.25),rotate(90)" x="-0.75" y="-0.2" width="1.5" height="0.4"/><rect transform="translate(2.54,-2.25),rotate(90)" x="-0.75" y="-0.2" width="1.5" height="0.4"/><rect transform="translate(1.27,-2.25),rotate(90)" x="-0.75" y="-0.2" width="1.5" height="0.4"/><rect transform="translate(0,-2.25),rotate(90)" x="-0.75" y="-0.2" width="1.5" height="0.4"/><rect transform="translate(-1.27,-2.25),rotate(90)" x="-0.75" y="-0.2" width="1.5" height="0.4"/><rect transform="translate(-2.54,-2.25),rotate(90)" x="-0.75" y="-0.2" width="1.5" height="0.4"/><rect transform="translate(-3.81,-2.25),rotate(90)" x="-0.75" y="-0.2" width="1.5" height="0.4"/><rect transform="translate(3.81,2.25),rotate(90)" x="-0.75" y="-0.2" width="1.5" height="0.4"/><rect transform="translate(2.54,2.25),rotate(90)" x="-0.75" y="-0.2" width="1.5" height="0.4"/><rect transform="translate(1.27,2.25),rotate(90)" x="-0.75" y="-0.2" width="1.5" height="0.4"/><rect transform="translate(0,2.25),rotate(90)" x="-0.75" y="-0.2" width="1.5" height="0.4"/><rect transform="translate(-1.27,2.25),rotate(90)" x="-0.75" y="-0.2" width="1.5" height="0.4"/><rect transform="translate(-2.54,2.25),rotate(90)" x="-0.75" y="-0.2" width="1.5" height="0.4"/><rect transform="translate(-3.81,2.25),rotate(90)" x="-0.75" y="-0.2" width="1.5" height="0.4"/></g></g><g stroke="rgb(51,51,51)" fill="rgb(51,51,51)"><g stroke-width="0"><rect transform="translate(0,0),rotate(0)" x="-4.325" y="-1.95" width="8.65" height="3.9"/></g></g><g stroke="dimgray" fill="dimgray"><g><circle cx="-3.5" cy="-1" r="0.5"/></g></g></g></g>
<g id="SOT-23-5"><g class="footprint"><path fill="none" d="M-0.85,1.55L0.85,1.55M-0.85,-1.55L-0.85,1.55M0.85,-1.55L0.85,1.55M-0.85,-1.55L0.85,-1.55M0,0"/><g stroke-width="0.05" fill="none"><circle cx="1.375" cy="-0.95" r="0.25"/></g><g stroke-width="0.02" fill="none"><rect transform="translate(1.375,-0.95),rotate(0)" x="-0.675" y="-0.3" width="1.35" height="0.6"/><rect transform="translate(1.375,0),rotate(0)" x="-0.675" y="-0.3" width="1.35" height="0.6"/><rect transform="translate(1.375,0.95),rotate(0)" x="-0.675" y="-0.3" width="1.35" height="0.6"/><rect transform="translate(-1.375,0.95),rotate(0)" x="-0.675" y="-0.3" width="1.35" height="0.6"/><rect transform="translate(-1.375,-0.95),rotate(0)" x="-0.675" y="-0.3" width="1.35" height="0.6"/></g></g><g class="symbol"><g stroke="silver" fill="silver"><g stroke-width="0"><rect transform="translate(1,0.95),rotate(0)" x="-0.4" y="-0.2" width="0.8" height="0.4"/><rect transform="translate(1,-0.95),rotate(0)" x="-0.4" y="-0.2" width="0.8" height="0.4"/><rect transform="translate(-1,0.95),rotate(0)" x="-0.4" y="-0.2" width="0.8" height="0.4"/><rect transform="translate(-1,-0.95),rotate(0)" x="-0.4" y="-0.2" width="0.8" height="0.4"/><rect transform="translate(1,0),rotate(0)" x="-0.4" y="-0.2" width="0.8" height="0.4"/></g></g><g stroke="rgb(51,51,51)" fill="rgb(51,51,51)"><g stroke-width="0"><rect transform="translate(0,0),rotate(90)" x="-1.5" y="-0.8" width="3" height="1.6"/></g></g><g stroke="dimgray" fill="dimgray"><g><circle cx="0.375" cy="-1.125" r="0.25"/></g></g></g></g>
<g id="SOT-23-6"><g class="footprint"><path fill="none" d="M-0.85,1.55L0.85,1.55M-0.85,-1.55L-0.85,1.55M0.85,-1.55L0.85,1.55M-0.85,-1.55L0.85,-1.55M0,0"/><g stroke-width="0.05" fill="none"><circle cx="1.375" cy="-0.95" r="0.25"/></g><g stroke-width="0.02" fill="none"><rect transform="translate(1.375,-0.95),rotate(0)" x="-0.675" y="-0.3" width="1.35" height="0.6"/><rect transform="translate(1.375,0),rotate(0)" x="-0.675" y="-0.3" width="1.35" height="0.6"/><rect transform="translate(1.375,0.95),rotate(0)" x="-0.675" y="-0.3" width="1.35" height="0.6"/><rect transform="translate(-1.375,0.95),rotate(0)" x="-0.675" y="-0.3" width="1.35" height="0.6"/><rect transform="translate(-1.375,0),rotate(0)" x="-0.675" y="-0.3" width="1.35" height="0.6"/><rect transform="translate(-1.375,-0.95),rotate(0)" x="-0.675" y="-0.3" width="1.35" height="0.6"/></g></g><g class="symbol"><g stroke="silver" fill="silver"><g stroke-width="0"><rect transform="translate(1,0.95),rotate(0)" x="-0.4" y="-0.2" width="0.8" height="0.4"/><rect transform="translate(-1,0),rotate(0)" x="-0.4" y="-0.2" width="0.8" height="0.4"/><rect transform="translate(1,-0.95),rotate(0)" x="-0.4" y="-0.2" width="0.8" height="0.4"/><rect transform="translate(1,0),rotate(0)" x="-0.4" y="-0.2" width="0.8" height="0.4"/><rect transform="translate(-1,0.95),rotate(0)" x="-0.4" y="-0.2" width="0.8" height="0.4"/><rect transform="translate(-1,-0.95),rotate(0)" x="-0.4" y="-0.2" width="0.8" height="0.4"/></g></g><g stroke="rgb(51,51,51)" fill="rgb(51,51,51)"><g stroke-width="0"><rect transform="translate(0,0),rotate(90)" x="-1.5" y="-0.8" width="3" height="1.6"/></g></g><g stroke="dimgray" fill="dimgray"><g><circle cx="0.375" cy="-1.125" r="0.25"/></g></g></g></g>
<g id="SOT-323"><g class="footprint"><g stroke-width="0.05" fill="none"><circle cx="-0.65" cy="-1" r="0.25"/></g><path fill="none" d="M1,-0.625L1,0.625M-1,0.625L1,0.625M-1,-0.625L1,-0.625M-1,-0.625L-1,0.625M0,0"/><g stroke-width="0.02" fill="none"><rect transform="translate(0,1),rotate(90)" x="-0.55" y="-0.3" width="1.1" height="0.6"/><rect transform="translate(-0.65,-1),rotate(90)" x="-0.55" y="-0.3" width="1.1" height="0.6"/><rect transform="translate(0.65,-1),rotate(90)" x="-0.55" y="-0.3" width="1.1" height="0.6"/></g></g><g class="symbol"><g stroke="silver" fill="silver"><g stroke-width="0"><rect transform="translate(0,0.75),rotate(90)" x="-0.3" y="-0.15" width="0.6" height="0.3"/><rect transform="translate(0.65,-0.75),rotate(90)" x="-0.3" y="-0.15" width="0.6" height="0.3"/><rect transform="translate(-0.65,-0.75),rotate(90)" x="-0.3" y="-0.15" width="0.6" height="0.3"/></g></g><g stroke="rgb(51,51,51)" fill="rgb(51,51,51)"><g stroke-width="0"><rect transform="translate(0,0),rotate(0)" x="-1" y="-0.625" width="2" height="1.25"/></g></g><g stroke="dimgray" fill="dimgray"><g><circle cx="-0.625" cy="-0.25" r="0.25"/></g></g></g></g>
<g id="SPX3819M5-L-3-3/TR"><title>SPX3819M5-L-3-3/TR</title><desc>C9055</desc><use xlink:href="#SOT-23-5"/><g class="symbol" stroke="none" fill="darkgray" transform="translate(0.25,0),scale(1,-1),rotate(-90)"><text font-size="0.8" textLength="1.6" text-anchor="middle">3819</text></g></g>
<g id="USB-C-SMD_12P"><title>5077CR</title><desc>C165948</desc><use xlink:href="#5077CR"/><g class="symbol" stroke="none" fill="darkgray" transform="translate(0,-3),scale(1,-1),rotate(0)"><text font-size="1" textLength="2.5" text-anchor="middle">USB-C</text></g></g>
<g id="USBLC6-2SC6"><title>USBLC6-2SC6</title><desc>C558442</desc><use xlink:href="#SOT-23-6"/><g class="symbol" stroke="none" fill="darkgray" transform="translate(0.25,0),scale(1,-1),rotate(-90)"><text font-size="0.8" textLength="2.4" text-anchor="middle">USBLC6</text></g></g>
<!-- Gerber Layer -->
<clipPath id="BOARD" clip-rule="evenodd"><path stroke="none" fill-rule="evenodd" d="M164.5,138A1.5,1.5,0,0,0,166,136.5L166,73.5A1.5,1.5,0,0,0,164.5,72L157.61,72L157.61,80.5A1,1,0,0,1,155.642,80.75L144.358,80.75A1,1,0,0,1,142.39,80.5L142.39,72L135.5,72A1.5,1.5,0,0,0,134,73.5L134,136.5A1.5,1.5,0,0,0,135.5,138L164.5,138Z"/></clipPath>
<g id="OUT" stroke-linecap="round" stroke-linejoin="round"><path d="M164.5,138A1.5,1.5,0,0,0,166,136.5L166,73.5A1.5,1.5,0,0,0,164.5,72L157.61,72L157.61,80.5A1,1,0,0,1,155.642,80.75L144.358,80.75A1,1,0,0,1,142.39,80.5L142.39,72L135.5,72A1.5,1.5,0,0,0,134,73.5L134,136.5A1.5,1.5,0,0,0,135.5,138L164.5,138Z"/></g>
<rect id="FIL" x="134" y="72" width="32" height="66"/>
<g id="DRL"><g class="pad"><circle cx="154.32" cy="130.62" r="0.3"/><circle cx="154.32" cy="130.72" r="0.3"/><circle cx="154.32" cy="130.82" r="0.3"/><circle cx="154.32" cy="130.92" r="0.3"/><circle cx="154.32" cy="131.02" r="0.3"/><circle cx="154.32" cy="131.12" r="0.3"/><circle cx="154.32" cy="131.22" r="0.3"/><circle cx="154.32" cy="131.32" r="0.3"/><circle cx="154.32" cy="131.42" r="0.3"/><circle cx="154.32" cy="131.52" r="0.3"/><circle cx="154.32" cy="131.62" r="0.3"/><circle cx="154.32" cy="131.72" r="0.3"/><circle cx="145.68" cy="130.62" r="0.3"/><circle cx="145.68" cy="130.72" r="0.3"/><circle cx="145.68" cy="130.82" r="0.3"/><circle cx="145.68" cy="130.92" r="0.3"/><circle cx="145.68" cy="131.02" r="0.3"/><circle cx="145.68" cy="131.12" r="0.3"/><circle cx="145.68" cy="131.22" r="0.3"/><circle cx="145.68" cy="131.32" r="0.3"/><circle cx="145.68" cy="131.42" r="0.3"/><circle cx="145.68" cy="131.52" r="0.3"/><circle cx="145.68" cy="131.62" r="0.3"/><circle cx="145.68" cy="131.72" r="0.3"/><circle cx="145.68" cy="135" r="0.3"/><circle cx="145.68" cy="135.1" r="0.3"/><circle cx="145.68" cy="135.2" r="0.3"/><circle cx="145.68" cy="135.3" r="0.3"/><circle cx="145.68" cy="135.4" r="0.3"/><circle cx="145.68" cy="135.5" r="0.3"/><circle cx="145.68" cy="135.6" r="0.3"/><circle cx="145.68" cy="135.7" r="0.3"/><circle cx="145.68" cy="135.8" r="0.3"/><circle cx="154.32" cy="135" r="0.3"/><circle cx="154.32" cy="135.1" r="0.3"/><circle cx="154.32" cy="135.2" r="0.3"/><circle cx="154.32" cy="135.3" r="0.3"/><circle cx="154.32" cy="135.4" r="0.3"/><circle cx="154.32" cy="135.5" r="0.3"/><circle cx="154.32" cy="135.6" r="0.3"/><circle cx="154.32" cy="135.7" r="0.3"/><circle cx="154.32" cy="135.8" r="0.3"/><circle cx="147.11" cy="131.72" r="0.35"/><circle cx="152.89" cy="131.72" r="0.35"/><circle cx="156.35" cy="92.3" r="0.4"/><circle cx="153.81" cy="92.3" r="0.4"/><circle cx="151.27" cy="92.3" r="0.4"/><circle cx="148.73" cy="92.3" r="0.4"/><circle cx="146.19" cy="92.3" r="0.4"/><circle cx="143.65" cy="92.3" r="0.4"/><circle cx="142.38" cy="99.92" r="0.4"/><circle cx="142.38" cy="102.46" r="0.4"/><circle cx="142.38" cy="105" r="0.4"/><circle cx="157.62" cy="105" r="0.4"/><circle cx="157.62" cy="102.46" r="0.4"/><circle cx="157.62" cy="99.92" r="0.4"/><circle cx="153.81" cy="105" r="0.4"/><circle cx="146.19" cy="105" r="0.4"/><circle cx="153.81" cy="102.46" r="0.4"/><circle cx="146.19" cy="102.46" r="0.4"/><circle cx="153.81" cy="99.92" r="0.4"/><circle cx="146.19" cy="99.92" r="0.4"/><circle cx="137.3" cy="97.38" r="0.4"/><circle cx="137.3" cy="94.84" r="0.4"/><circle cx="137.3" cy="99.92" r="0.4"/><circle cx="164.75" cy="110.825" r="0.4"/><circle cx="164.75" cy="115.905" r="0.4"/><circle cx="164.75" cy="117.175" r="0.4"/><circle cx="164.75" cy="112.095" r="0.4"/><circle cx="164.75" cy="113.365" r="0.4"/><circle cx="164.75" cy="114.635" r="0.4"/><circle cx="153.175" cy="88.49" r="0.4"/><circle cx="148.095" cy="88.49" r="0.4"/><circle cx="146.825" cy="88.49" r="0.4"/><circle cx="151.905" cy="88.49" r="0.4"/><circle cx="150.635" cy="88.49" r="0.4"/><circle cx="149.365" cy="88.49" r="0.4"/><circle cx="147.46" cy="82.775" r="0.4"/><circle cx="147.46" cy="85.315" r="0.4"/><circle cx="150" cy="82.775" r="0.4"/><circle cx="150" cy="85.315" r="0.4"/><circle cx="152.54" cy="82.775" r="0.4"/><circle cx="152.54" cy="85.315" r="0.4"/><circle cx="158.5" cy="136" r="0.576"/><circle cx="159" cy="73.5" r="0.576"/><circle cx="141" cy="77" r="0.576"/><circle cx="162.5" cy="75" r="1.6"/><circle cx="137.5" cy="75" r="1.6"/><circle cx="162.5" cy="135" r="1.6"/><circle cx="137.5" cy="135" r="1.6"/></g><g class="via"><circle cx="145.5" cy="122.5" r="0.15"/><circle cx="147" cy="121" r="0.15"/><circle cx="146.75" cy="122.95" r="0.15"/><circle cx="158.675" cy="120.45" r="0.15"/><circle cx="158.5" cy="118" r="0.15"/><circle cx="159.5" cy="117" r="0.15"/><circle cx="158" cy="107" r="0.15"/><circle cx="145.5" cy="97" r="0.15"/><circle cx="139.5" cy="115" r="0.15"/><circle cx="149.5" cy="113" r="0.15"/><circle cx="144" cy="130" r="0.15"/><circle cx="156" cy="127" r="0.15"/><circle cx="163" cy="111" r="0.15"/><circle cx="161" cy="107" r="0.15"/><circle cx="155" cy="111" r="0.15"/><circle cx="142" cy="94" r="0.15"/><circle cx="156" cy="97" r="0.15"/><circle cx="141" cy="104" r="0.15"/><circle cx="149" cy="100" r="0.15"/><circle cx="144" cy="107" r="0.15"/><circle cx="152" cy="105" r="0.15"/><circle cx="144" cy="110" r="0.15"/><circle cx="160.029" cy="112.095" r="0.15"/><circle cx="159.3" cy="101.55" r="0.15"/><circle cx="159.7" cy="100.8" r="0.15"/><circle cx="160.375" cy="79.875" r="0.15"/><circle cx="141" cy="79" r="0.15"/><circle cx="144" cy="87" r="0.15"/><circle cx="144" cy="83" r="0.15"/><circle cx="162.75" cy="126.25" r="0.15"/><circle cx="157.5" cy="123" r="0.15"/><circle cx="165" cy="133" r="0.15"/><circle cx="140.5" cy="132" r="0.15"/><circle cx="157" cy="135" r="0.15"/><circle cx="140.5" cy="73" r="0.15"/><circle cx="140.5" cy="137" r="0.15"/><circle cx="158" cy="94" r="0.15"/><circle cx="165" cy="89" r="0.15"/><circle cx="135" cy="89" r="0.15"/><circle cx="165" cy="85" r="0.15"/><circle cx="165" cy="93" r="0.15"/><circle cx="135" cy="93" r="0.15"/><circle cx="155.5" cy="129.5" r="0.15"/><circle cx="154" cy="129" r="0.15"/><circle cx="153" cy="115" r="0.15"/><circle cx="135" cy="79" r="0.15"/><circle cx="165" cy="79" r="0.15"/><circle cx="165" cy="95" r="0.15"/><circle cx="165" cy="99" r="0.15"/><circle cx="165" cy="103" r="0.15"/><circle cx="165" cy="107" r="0.15"/><circle cx="135" cy="107" r="0.15"/><circle cx="135" cy="111" r="0.15"/><circle cx="165" cy="119" r="0.15"/><circle cx="135" cy="131" r="0.15"/><circle cx="135" cy="127" r="0.15"/><circle cx="135" cy="115" r="0.15"/><circle cx="135" cy="119" r="0.15"/><circle cx="135" cy="123" r="0.15"/><circle cx="165" cy="123" r="0.15"/><circle cx="158" cy="91" r="0.15"/><circle cx="158" cy="83" r="0.15"/><circle cx="160" cy="77" r="0.15"/><circle cx="160" cy="137" r="0.15"/><circle cx="144" cy="121" r="0.15"/><circle cx="152" cy="125" r="0.15"/><circle cx="148" cy="125" r="0.15"/><circle cx="150" cy="135" r="0.15"/><circle cx="148" cy="137" r="0.15"/><circle cx="152" cy="137" r="0.15"/><circle cx="150.8" cy="118.75" r="0.15"/><circle cx="137.25" cy="92.125" r="0.15"/><circle cx="159.179" cy="115.8" r="0.15"/><circle cx="137.5" cy="119.5" r="0.15"/><circle cx="136.625" cy="118.5" r="0.15"/><circle cx="162.75" cy="92.125" r="0.15"/><circle cx="162.45" cy="113.1" r="0.15"/><circle cx="162.45" cy="113.95" r="0.15"/></g></g>
</defs>
<!-- Rendering View Port -->
<g transform="scale(1,-1)" clip-path="url(#BOARD)">
<use xlink:href="#DRL" class="DRL"/>
<use xlink:href="#OUT" stroke="gray" stroke-width="0.05" fill="none"/>
</g>
<!-- Parts Preview -->
<g transform="scale(1,-1)" stroke-linecap="round" stroke-linejoin="round" stroke="gray" fill="gray" stroke-width="0.05">
<use xlink:href="#C0603_104" transform="translate(149.5,121.5),scale(1,1),rotate(90)"/>
<use xlink:href="#C0603_226" transform="translate(140.5,122),scale(1,1),rotate(90)"/>
<use xlink:href="#C0603_104" transform="translate(137.5,129.5),scale(1,1),rotate(90)"/>
<use xlink:href="#C0603_472" transform="translate(143,136),scale(1,1),rotate(0)"/>
<use xlink:href="#C0603_104" transform="translate(154,124.5),scale(1,1),rotate(90)"/>
<use xlink:href="#C0603_104" transform="translate(138,104),scale(1,1),rotate(0)"/>
<use xlink:href="#C0603_104" transform="translate(136,113),scale(1,1),rotate(90)"/>
<use xlink:href="#C0603_104" transform="translate(143,116.5),scale(1,1),rotate(0)"/>
<use xlink:href="#C0603_104" transform="translate(147,119),scale(1,1),rotate(0)"/>
<use xlink:href="#C0603_104" transform="translate(162,121.75),scale(1,1),rotate(0)"/>
<use xlink:href="#C0603_104" transform="translate(162,119.5),scale(1,1),rotate(0)"/>
<use xlink:href="#C0603_104" transform="translate(140.5,129.5),scale(1,1),rotate(90)"/>
<use xlink:href="#BH-06RG" transform="translate(150,84.045),scale(1,1),rotate(180)"/>
<use xlink:href="#PS-06MC01" transform="translate(150,92.3),scale(1,1),rotate(0)"/>
<use xlink:href="#USB-C-SMD_12P" transform="translate(150,133),scale(1,1),rotate(180)"/>
<use xlink:href="#PS-03MC03" transform="translate(150,102.46),scale(1,1),rotate(90)"/>
<use xlink:href="#PS-03MC01" transform="translate(157.62,102.46),scale(1,1),rotate(90)"/>
<use xlink:href="#PS-03MC01" transform="translate(142.38,102.46),scale(1,1),rotate(270)"/>
<use xlink:href="#CUS10S30" transform="translate(138,106),scale(1,1),rotate(0)"/>
<use xlink:href="#CUS10S30" transform="translate(139,116.5),scale(1,1),rotate(0)"/>
<use xlink:href="#CUS10S30" transform="translate(143,119),scale(1,1),rotate(0)"/>
<use xlink:href="#CUS10S30" transform="translate(147,116.5),scale(1,1),rotate(0)"/>
<use xlink:href="#CUS10S30" transform="translate(137.5,122),scale(1,1),rotate(90)"/>
<use xlink:href="#CUS10S30" transform="translate(152.625,121.5),scale(1,1),rotate(90)"/>
<use xlink:href="#CUS10S30" transform="translate(155.375,121.5),scale(1,1),rotate(270)"/>
<use xlink:href="#USBLC6-2SC6" transform="translate(158.5,131),scale(1,1),rotate(90)"/>
<use xlink:href="#LED0805_Y" transform="translate(138,91),scale(1,1),rotate(180)"/>
<use xlink:href="#LED0805_YG" transform="translate(162,127.5),scale(1,1),rotate(0)"/>
<use xlink:href="#LED0805_B" transform="translate(162,91),scale(1,1),rotate(0)"/>
<use xlink:href="#F1210_035" transform="translate(145.5,126),scale(1,1),rotate(90)"/>
<use xlink:href="#JPJT-X3-CLOSE-OPEN" transform="translate(137.3,97.38),scale(1,1),rotate(270)"/>
<use xlink:href="#BSS138PW" transform="translate(141.5,108),scale(1,1),rotate(90)"/>
<use xlink:href="#BSS138PW" transform="translate(145,113),scale(1,1),rotate(0)"/>
<use xlink:href="#LBSS84WT1G" transform="translate(141.5,113),scale(1,1),rotate(90)"/>
<use xlink:href="#LBSS84WT1G" transform="translate(162,102.5),scale(1,1),rotate(180)"/>
<use xlink:href="#R0603_222" transform="translate(138,88.5),scale(1,1),rotate(0)"/>
<use xlink:href="#R0603_512" transform="translate(149,127),scale(1,1),rotate(90)"/>
<use xlink:href="#R0603_512" transform="translate(151,127),scale(1,1),rotate(90)"/>
<use xlink:href="#R0603_102" transform="translate(162,130),scale(1,1),rotate(0)"/>
<use xlink:href="#R0603_222" transform="translate(162,88.5),scale(1,1),rotate(0)"/>
<use xlink:href="#R0603_105" transform="translate(143,133),scale(1,1),rotate(0)"/>
<use xlink:href="#R0603_331" transform="translate(162,79.5),scale(1,1),rotate(0)"/>
<use xlink:href="#R0603_331" transform="translate(138,79.5),scale(1,1),rotate(0)"/>
<use xlink:href="#R0603_331" transform="translate(138,110),scale(1,1),rotate(0)"/>
<use xlink:href="#R0603_104" transform="translate(141.5,110),scale(1,1),rotate(0)"/>
<use xlink:href="#R0603_104" transform="translate(138,108),scale(1,1),rotate(0)"/>
<use xlink:href="#R0603_103" transform="translate(162,105),scale(1,1),rotate(0)"/>
<use xlink:href="#R0603_103" transform="translate(138.5,113),scale(1,1),rotate(90)"/>
<use xlink:href="#R0603_103" transform="translate(148,113),scale(1,1),rotate(90)"/>
<use xlink:href="#SKRPABE010" transform="translate(162,84),scale(1,1),rotate(90)"/>
<use xlink:href="#SKRPABE010" transform="translate(138,84),scale(1,1),rotate(270)"/>
<use xlink:href="#ATtiny824" transform="translate(154,114),scale(1,1),rotate(270)"/>
<use xlink:href="#CH340E" transform="translate(158.5,124),scale(1,1),rotate(180)"/>
<use xlink:href="#SPX3819M5-L-3-3/TR" transform="translate(139,126),scale(1,1),rotate(0)"/>
<use xlink:href="#MMSZ12VCW" transform="translate(141.5,96.5),scale(1,1),rotate(180)"/>
<use xlink:href="#DRL" class="DRL"/>
<g transform="translate(149.5,121.5),scale(1,-1),rotate(-90)" stroke="none" fill="white"><rect x="-0.65" y="-0.5" fill="gray" width="1.3" height="1" /><text font-size="1" textLength="1.3" x="0" y="0.3" text-anchor="middle">C1</text></g>
<g transform="translate(140.5,122),scale(1,-1),rotate(-90)" stroke="none" fill="white"><rect x="-0.975" y="-0.5" fill="gray" width="1.95" height="1" /><text font-size="1" textLength="1.95" x="0" y="0.3" text-anchor="middle">C10</text></g>
<g transform="translate(137.5,129.5),scale(1,-1),rotate(-90)" stroke="none" fill="white"><rect x="-0.975" y="-0.5" fill="gray" width="1.95" height="1" /><text font-size="1" textLength="1.95" x="0" y="0.3" text-anchor="middle">C11</text></g>
<g transform="translate(143,136),scale(1,-1),rotate(0)" stroke="none" fill="white"><rect x="-0.975" y="-0.5" fill="gray" width="1.95" height="1" /><text font-size="1" textLength="1.95" x="0" y="0.3" text-anchor="middle">C12</text></g>
<g transform="translate(154,124.5),scale(1,-1),rotate(-90)" stroke="none" fill="white"><rect x="-0.65" y="-0.5" fill="gray" width="1.3" height="1" /><text font-size="1" textLength="1.3" x="0" y="0.3" text-anchor="middle">C2</text></g>
<g transform="translate(138,104),scale(1,-1),rotate(0)" stroke="none" fill="white"><rect x="-0.65" y="-0.5" fill="gray" width="1.3" height="1" /><text font-size="1" textLength="1.3" x="0" y="0.3" text-anchor="middle">C3</text></g>
<g transform="translate(136,113),scale(1,-1),rotate(-90)" stroke="none" fill="white"><rect x="-0.65" y="-0.5" fill="gray" width="1.3" height="1" /><text font-size="1" textLength="1.3" x="0" y="0.3" text-anchor="middle">C4</text></g>
<g transform="translate(143,116.5),scale(1,-1),rotate(0)" stroke="none" fill="white"><rect x="-0.65" y="-0.5" fill="gray" width="1.3" height="1" /><text font-size="1" textLength="1.3" x="0" y="0.3" text-anchor="middle">C5</text></g>
<g transform="translate(147,119),scale(1,-1),rotate(0)" stroke="none" fill="white"><rect x="-0.65" y="-0.5" fill="gray" width="1.3" height="1" /><text font-size="1" textLength="1.3" x="0" y="0.3" text-anchor="middle">C6</text></g>
<g transform="translate(162,121.75),scale(1,-1),rotate(0)" stroke="none" fill="white"><rect x="-0.65" y="-0.5" fill="gray" width="1.3" height="1" /><text font-size="1" textLength="1.3" x="0" y="0.3" text-anchor="middle">C7</text></g>
<g transform="translate(162,119.5),scale(1,-1),rotate(0)" stroke="none" fill="white"><rect x="-0.65" y="-0.5" fill="gray" width="1.3" height="1" /><text font-size="1" textLength="1.3" x="0" y="0.3" text-anchor="middle">C8</text></g>
<g transform="translate(140.5,129.5),scale(1,-1),rotate(-90)" stroke="none" fill="white"><rect x="-0.65" y="-0.5" fill="gray" width="1.3" height="1" /><text font-size="1" textLength="1.3" x="0" y="0.3" text-anchor="middle">C9</text></g>
<g transform="translate(150,84.045),scale(1,-1),rotate(-180)" stroke="none" fill="white"><rect x="-0.975" y="-0.5" fill="gray" width="1.95" height="1" /><text font-size="1" textLength="1.95" x="0" y="0.3" text-anchor="middle">CN1</text></g>
<g transform="translate(150,92.3),scale(1,-1),rotate(0)" stroke="none" fill="white"><rect x="-0.975" y="-0.5" fill="gray" width="1.95" height="1" /><text font-size="1" textLength="1.95" x="0" y="0.3" text-anchor="middle">CN2</text></g>
<g transform="translate(150,133),scale(1,-1),rotate(-180)" stroke="none" fill="white"><rect x="-0.975" y="-0.5" fill="gray" width="1.95" height="1" /><text font-size="1" textLength="1.95" x="0" y="0.3" text-anchor="middle">CN3</text></g>
<g transform="translate(150,102.46),scale(1,-1),rotate(-90)" stroke="none" fill="white"><rect x="-0.975" y="-0.5" fill="gray" width="1.95" height="1" /><text font-size="1" textLength="1.95" x="0" y="0.3" text-anchor="middle">CN4</text></g>
<g transform="translate(157.62,102.46),scale(1,-1),rotate(-90)" stroke="none" fill="white"><rect x="-0.975" y="-0.5" fill="gray" width="1.95" height="1" /><text font-size="1" textLength="1.95" x="0" y="0.3" text-anchor="middle">CN5</text></g>
<g transform="translate(142.38,102.46),scale(1,-1),rotate(-270)" stroke="none" fill="white"><rect x="-0.975" y="-0.5" fill="gray" width="1.95" height="1" /><text font-size="1" textLength="1.95" x="0" y="0.3" text-anchor="middle">CN6</text></g>
<g transform="translate(138,106),scale(1,-1),rotate(0)" stroke="none" fill="white"><rect x="-0.65" y="-0.5" fill="gray" width="1.3" height="1" /><text font-size="1" textLength="1.3" x="0" y="0.3" text-anchor="middle">D1</text></g>
<g transform="translate(139,116.5),scale(1,-1),rotate(0)" stroke="none" fill="white"><rect x="-0.65" y="-0.5" fill="gray" width="1.3" height="1" /><text font-size="1" textLength="1.3" x="0" y="0.3" text-anchor="middle">D2</text></g>
<g transform="translate(143,119),scale(1,-1),rotate(0)" stroke="none" fill="white"><rect x="-0.65" y="-0.5" fill="gray" width="1.3" height="1" /><text font-size="1" textLength="1.3" x="0" y="0.3" text-anchor="middle">D3</text></g>
<g transform="translate(147,116.5),scale(1,-1),rotate(0)" stroke="none" fill="white"><rect x="-0.65" y="-0.5" fill="gray" width="1.3" height="1" /><text font-size="1" textLength="1.3" x="0" y="0.3" text-anchor="middle">D4</text></g>
<g transform="translate(137.5,122),scale(1,-1),rotate(-90)" stroke="none" fill="white"><rect x="-0.65" y="-0.5" fill="gray" width="1.3" height="1" /><text font-size="1" textLength="1.3" x="0" y="0.3" text-anchor="middle">D5</text></g>
<g transform="translate(152.625,121.5),scale(1,-1),rotate(-90)" stroke="none" fill="white"><rect x="-0.65" y="-0.5" fill="gray" width="1.3" height="1" /><text font-size="1" textLength="1.3" x="0" y="0.3" text-anchor="middle">D6</text></g>
<g transform="translate(155.375,121.5),scale(1,-1),rotate(-270)" stroke="none" fill="white"><rect x="-0.65" y="-0.5" fill="gray" width="1.3" height="1" /><text font-size="1" textLength="1.3" x="0" y="0.3" text-anchor="middle">D7</text></g>
<g transform="translate(158.5,131),scale(1,-1),rotate(-90)" stroke="none" fill="white"><rect x="-0.65" y="-0.5" fill="gray" width="1.3" height="1" /><text font-size="1" textLength="1.3" x="0" y="0.3" text-anchor="middle">D8</text></g>
<g transform="translate(138,91),scale(1,-1),rotate(-180)" stroke="none" fill="white"><rect x="-0.65" y="-0.5" fill="gray" width="1.3" height="1" /><text font-size="1" textLength="1.3" x="0" y="0.3" text-anchor="middle">E1</text></g>
<g transform="translate(162,127.5),scale(1,-1),rotate(0)" stroke="none" fill="white"><rect x="-0.65" y="-0.5" fill="gray" width="1.3" height="1" /><text font-size="1" textLength="1.3" x="0" y="0.3" text-anchor="middle">E2</text></g>
<g transform="translate(162,91),scale(1,-1),rotate(0)" stroke="none" fill="white"><rect x="-0.65" y="-0.5" fill="gray" width="1.3" height="1" /><text font-size="1" textLength="1.3" x="0" y="0.3" text-anchor="middle">E3</text></g>
<g transform="translate(145.5,126),scale(1,-1),rotate(-90)" stroke="none" fill="white"><rect x="-0.65" y="-0.5" fill="gray" width="1.3" height="1" /><text font-size="1" textLength="1.3" x="0" y="0.3" text-anchor="middle">F1</text></g>
<g transform="translate(137.3,97.38),scale(1,-1),rotate(-270)" stroke="none" fill="white"><rect x="-0.975" y="-0.5" fill="gray" width="1.95" height="1" /><text font-size="1" textLength="1.95" x="0" y="0.3" text-anchor="middle">JP1</text></g>
<g transform="translate(141.5,108),scale(1,-1),rotate(-90)" stroke="none" fill="white"><rect x="-0.65" y="-0.5" fill="gray" width="1.3" height="1" /><text font-size="1" textLength="1.3" x="0" y="0.3" text-anchor="middle">Q1</text></g>
<g transform="translate(145,113),scale(1,-1),rotate(0)" stroke="none" fill="white"><rect x="-0.65" y="-0.5" fill="gray" width="1.3" height="1" /><text font-size="1" textLength="1.3" x="0" y="0.3" text-anchor="middle">Q2</text></g>
<g transform="translate(141.5,113),scale(1,-1),rotate(-90)" stroke="none" fill="white"><rect x="-0.65" y="-0.5" fill="gray" width="1.3" height="1" /><text font-size="1" textLength="1.3" x="0" y="0.3" text-anchor="middle">Q3</text></g>
<g transform="translate(162,102.5),scale(1,-1),rotate(-180)" stroke="none" fill="white"><rect x="-0.65" y="-0.5" fill="gray" width="1.3" height="1" /><text font-size="1" textLength="1.3" x="0" y="0.3" text-anchor="middle">Q4</text></g>
<g transform="translate(138,88.5),scale(1,-1),rotate(0)" stroke="none" fill="white"><rect x="-0.65" y="-0.5" fill="gray" width="1.3" height="1" /><text font-size="1" textLength="1.3" x="0" y="0.3" text-anchor="middle">R1</text></g>
<g transform="translate(149,127),scale(1,-1),rotate(-90)" stroke="none" fill="white"><rect x="-0.975" y="-0.5" fill="gray" width="1.95" height="1" /><text font-size="1" textLength="1.95" x="0" y="0.3" text-anchor="middle">R10</text></g>
<g transform="translate(151,127),scale(1,-1),rotate(-90)" stroke="none" fill="white"><rect x="-0.975" y="-0.5" fill="gray" width="1.95" height="1" /><text font-size="1" textLength="1.95" x="0" y="0.3" text-anchor="middle">R11</text></g>
<g transform="translate(162,130),scale(1,-1),rotate(0)" stroke="none" fill="white"><rect x="-0.975" y="-0.5" fill="gray" width="1.95" height="1" /><text font-size="1" textLength="1.95" x="0" y="0.3" text-anchor="middle">R12</text></g>
<g transform="translate(162,88.5),scale(1,-1),rotate(0)" stroke="none" fill="white"><rect x="-0.975" y="-0.5" fill="gray" width="1.95" height="1" /><text font-size="1" textLength="1.95" x="0" y="0.3" text-anchor="middle">R13</text></g>
<g transform="translate(143,133),scale(1,-1),rotate(0)" stroke="none" fill="white"><rect x="-0.975" y="-0.5" fill="gray" width="1.95" height="1" /><text font-size="1" textLength="1.95" x="0" y="0.3" text-anchor="middle">R14</text></g>
<g transform="translate(162,79.5),scale(1,-1),rotate(0)" stroke="none" fill="white"><rect x="-0.65" y="-0.5" fill="gray" width="1.3" height="1" /><text font-size="1" textLength="1.3" x="0" y="0.3" text-anchor="middle">R2</text></g>
<g transform="translate(138,79.5),scale(1,-1),rotate(0)" stroke="none" fill="white"><rect x="-0.65" y="-0.5" fill="gray" width="1.3" height="1" /><text font-size="1" textLength="1.3" x="0" y="0.3" text-anchor="middle">R3</text></g>
<g transform="translate(138,110),scale(1,-1),rotate(0)" stroke="none" fill="white"><rect x="-0.65" y="-0.5" fill="gray" width="1.3" height="1" /><text font-size="1" textLength="1.3" x="0" y="0.3" text-anchor="middle">R4</text></g>
<g transform="translate(141.5,110),scale(1,-1),rotate(0)" stroke="none" fill="white"><rect x="-0.65" y="-0.5" fill="gray" width="1.3" height="1" /><text font-size="1" textLength="1.3" x="0" y="0.3" text-anchor="middle">R5</text></g>
<g transform="translate(138,108),scale(1,-1),rotate(0)" stroke="none" fill="white"><rect x="-0.65" y="-0.5" fill="gray" width="1.3" height="1" /><text font-size="1" textLength="1.3" x="0" y="0.3" text-anchor="middle">R6</text></g>
<g transform="translate(162,105),scale(1,-1),rotate(0)" stroke="none" fill="white"><rect x="-0.65" y="-0.5" fill="gray" width="1.3" height="1" /><text font-size="1" textLength="1.3" x="0" y="0.3" text-anchor="middle">R7</text></g>
<g transform="translate(138.5,113),scale(1,-1),rotate(-90)" stroke="none" fill="white"><rect x="-0.65" y="-0.5" fill="gray" width="1.3" height="1" /><text font-size="1" textLength="1.3" x="0" y="0.3" text-anchor="middle">R8</text></g>
<g transform="translate(148,113),scale(1,-1),rotate(-90)" stroke="none" fill="white"><rect x="-0.65" y="-0.5" fill="gray" width="1.3" height="1" /><text font-size="1" textLength="1.3" x="0" y="0.3" text-anchor="middle">R9</text></g>
<g transform="translate(162,84),scale(1,-1),rotate(-90)" stroke="none" fill="white"><rect x="-0.975" y="-0.5" fill="gray" width="1.95" height="1" /><text font-size="1" textLength="1.95" x="0" y="0.3" text-anchor="middle">SW1</text></g>
<g transform="translate(138,84),scale(1,-1),rotate(-270)" stroke="none" fill="white"><rect x="-0.975" y="-0.5" fill="gray" width="1.95" height="1" /><text font-size="1" textLength="1.95" x="0" y="0.3" text-anchor="middle">SW2</text></g>
<g transform="translate(154,114),scale(1,-1),rotate(-270)" stroke="none" fill="white"><rect x="-0.65" y="-0.5" fill="gray" width="1.3" height="1" /><text font-size="1" textLength="1.3" x="0" y="0.3" text-anchor="middle">U1</text></g>
<g transform="translate(158.5,124),scale(1,-1),rotate(-180)" stroke="none" fill="white"><rect x="-0.65" y="-0.5" fill="gray" width="1.3" height="1" /><text font-size="1" textLength="1.3" x="0" y="0.3" text-anchor="middle">U2</text></g>
<g transform="translate(139,126),scale(1,-1),rotate(0)" stroke="none" fill="white"><rect x="-0.65" y="-0.5" fill="gray" width="1.3" height="1" /><text font-size="1" textLength="1.3" x="0" y="0.3" text-anchor="middle">U4</text></g>
<g transform="translate(141.5,96.5),scale(1,-1),rotate(-180)" stroke="none" fill="white"><rect x="-0.65" y="-0.5" fill="gray" width="1.3" height="1" /><text font-size="1" textLength="1.3" x="0" y="0.3" text-anchor="middle">Z1</text></g>
</g>
</svg>
